<svg width="24" height="24" viewBox="0 0 24 24" fill="none" xmlns="http://www.w3.org/2000/svg">
<path d="M19.2929 20.7071C19.6834 21.0976 20.3166 21.0976 20.7071 20.7071C21.0976 20.3166 21.0976 19.6834 20.7071 19.2929L19.2929 20.7071ZM17 10.5C17 14.0899 14.0899 17 10.5 17V19C15.1944 19 19 15.1944 19 10.5H17ZM10.5 17C6.91015 17 4 14.0899 4 10.5H2C2 15.1944 5.80558 19 10.5 19V17ZM4 10.5C4 6.91015 6.91015 4 10.5 4V2C5.80558 2 2 5.80558 2 10.5H4ZM10.5 4C14.0899 4 17 6.91015 17 10.5H19C19 5.80558 15.1944 2 10.5 2V4ZM20.7071 19.2929L16.5195 15.1053L15.1053 16.5195L19.2929 20.7071L20.7071 19.2929Z" fill="black"/>
</svg>
