# MagicaVoxel @ Ephtracy

# group
o 

# material
mtllib blue_astronaut.vox.mtl
usemtl palette

# normals
vn -1 0 0
vn 1 0 0
vn 0 0 1
vn 0 0 -1
vn 0 -1 0
vn 0 1 0

# texcoords
vt 0.0175781 0.5
vt 0.0917969 0.5
vt 0.0957031 0.5
vt 0.103516 0.5
vt 0.107422 0.5
vt 0.158203 0.5
vt 0.162109 0.5

# verts
v -0.5 0.5 0.3
v -0.5 0.5 0
v -0.5 0.6 0
v -0.5 0.6 -0.3
v -0.5 0.7 0.3
v -0.5 0.7 0
v -0.5 1.1 0.3
v -0.5 1.1 0.2
v -0.5 1.2 0.2
v -0.5 1.2 0
v -0.5 1.6 -0.2
v -0.5 1.6 -0.3
v -0.5 1.8 0
v -0.5 1.8 -0.2
v -0.4 0.5 0
v -0.4 0.5 -0.3
v -0.4 0.6 0
v -0.4 0.6 -0.3
v -0.4 0.6 -0.4
v -0.4 1.1 0.3
v -0.4 1.1 0.2
v -0.4 1.2 0.4
v -0.4 1.2 0.3
v -0.4 1.2 0.2
v -0.4 1.2 0
v -0.4 1.5 -0.3
v -0.4 1.5 -0.4
v -0.4 1.6 0.4
v -0.4 1.6 0
v -0.4 1.6 -0.2
v -0.4 1.6 -0.3
v -0.4 1.7 -0.2
v -0.4 1.7 -0.3
v -0.4 1.8 0
v -0.4 1.8 -0.2
v -0.4 1.9 0
v -0.4 1.9 -0.2
v -0.3 0 0.5
v -0.3 0 0
v -0.3 0.1 0.5
v -0.3 0.1 0.4
v -0.3 0.1 0.3
v -0.3 0.1 0
v -0.3 0.2 0.4
v -0.3 0.2 0.3
v -0.3 0.5 0.3
v -0.3 0.5 0
v -0.3 0.5 -0.3
v -0.3 0.5 -0.4
v -0.3 0.6 0.4
v -0.3 0.6 0.3
v -0.3 0.6 -0.3
v -0.3 0.6 -0.4
v -0.3 0.7 0.3
v -0.3 0.9 0.4
v -0.3 0.9 0.3
v -0.3 1 0.4
v -0.3 1 0.3
v -0.3 1.1 0.4
v -0.3 1.1 0.3
v -0.3 1.2 0.5
v -0.3 1.2 0.4
v -0.3 1.5 0.5
v -0.3 1.5 0.4
v -0.3 1.5 -0.3
v -0.3 1.5 -0.4
v -0.3 1.6 0.5
v -0.3 1.6 0.4
v -0.3 1.6 0
v -0.3 1.6 -0.3
v -0.3 1.6 -0.4
v -0.3 1.7 0.4
v -0.3 1.7 0
v -0.3 1.7 -0.2
v -0.3 1.7 -0.3
v -0.3 1.8 -0.2
v -0.3 1.8 -0.3
v -0.2 1.1 0.5
v -0.2 1.1 0.4
v -0.2 1.1 0.3
v -0.2 1.2 0.6
v -0.2 1.2 0.5
v -0.2 1.2 0.4
v -0.2 1.2 0.3
v -0.2 1.5 0.6
v -0.2 1.5 0.5
v -0.2 1.6 -0.3
v -0.2 1.6 -0.4
v -0.2 1.7 0.3
v -0.2 1.7 0
v -0.2 1.7 -0.3
v -0.2 1.7 -0.4
v -0.2 1.8 0.3
v -0.2 1.8 0
v 0.1 0 0.5
v 0.1 0 0
v 0.1 0.1 0.5
v 0.1 0.1 0.4
v 0.1 0.1 0.1
v 0.1 0.1 0
v 0.1 0.2 0.4
v 0.1 0.2 0.1
v 0.1 0.4 0.4
v 0.1 0.4 0
v -0.1 0 0.5
v -0.1 0 0
v -0.1 0.1 0.5
v -0.1 0.1 0.4
v -0.1 0.1 0.1
v -0.1 0.1 0
v -0.1 0.2 0.4
v -0.1 0.2 0.1
v -0.1 0.4 0.4
v -0.1 0.4 0
v 0.2 1.1 0.5
v 0.2 1.1 0.4
v 0.2 1.1 0.3
v 0.2 1.2 0.6
v 0.2 1.2 0.5
v 0.2 1.2 0.4
v 0.2 1.2 0.3
v 0.2 1.3 0.6
v 0.2 1.3 0.5
v 0.2 1.4 0.6
v 0.2 1.4 0.5
v 0.2 1.5 0.6
v 0.2 1.5 0.5
v 0.2 1.6 -0.3
v 0.2 1.6 -0.4
v 0.2 1.7 0.3
v 0.2 1.7 0
v 0.2 1.7 -0.3
v 0.2 1.7 -0.4
v 0.2 1.8 0.3
v 0.2 1.8 0
v 0.3 0 0.5
v 0.3 0 0
v 0.3 0.1 0.5
v 0.3 0.1 0.4
v 0.3 0.1 0.3
v 0.3 0.1 0
v 0.3 0.2 0.4
v 0.3 0.2 0.3
v 0.3 0.5 0.3
v 0.3 0.5 0
v 0.3 0.5 -0.3
v 0.3 0.5 -0.4
v 0.3 0.6 0.4
v 0.3 0.6 0.3
v 0.3 0.6 -0.3
v 0.3 0.6 -0.4
v 0.3 0.7 0.3
v 0.3 0.9 0.4
v 0.3 0.9 0.3
v 0.3 1 0.4
v 0.3 1 0.3
v 0.3 1.1 0.4
v 0.3 1.1 0.3
v 0.3 1.2 0.5
v 0.3 1.2 0.4
v 0.3 1.5 0.5
v 0.3 1.5 0.4
v 0.3 1.5 -0.3
v 0.3 1.5 -0.4
v 0.3 1.6 0.5
v 0.3 1.6 0.4
v 0.3 1.6 0
v 0.3 1.6 -0.3
v 0.3 1.6 -0.4
v 0.3 1.7 0.4
v 0.3 1.7 0
v 0.3 1.7 -0.2
v 0.3 1.7 -0.3
v 0.3 1.8 -0.2
v 0.3 1.8 -0.3
v 0.4 0.5 0
v 0.4 0.5 -0.3
v 0.4 0.6 0
v 0.4 0.6 -0.3
v 0.4 0.6 -0.4
v 0.4 1.1 0.3
v 0.4 1.1 0.2
v 0.4 1.2 0.4
v 0.4 1.2 0.3
v 0.4 1.2 0.2
v 0.4 1.2 0
v 0.4 1.5 -0.3
v 0.4 1.5 -0.4
v 0.4 1.6 0.4
v 0.4 1.6 0
v 0.4 1.6 -0.2
v 0.4 1.6 -0.3
v 0.4 1.7 -0.2
v 0.4 1.7 -0.3
v 0.4 1.8 0
v 0.4 1.8 -0.2
v 0.4 1.9 0
v 0.4 1.9 -0.2
v 0.5 0.5 0.3
v 0.5 0.5 0
v 0.5 0.6 0
v 0.5 0.6 -0.3
v 0.5 0.7 0.3
v 0.5 0.7 0
v 0.5 1.1 0.3
v 0.5 1.1 0.2
v 0.5 1.2 0.2
v 0.5 1.2 0
v 0.5 1.6 -0.2
v 0.5 1.6 -0.3
v 0.5 1.8 0
v 0.5 1.8 -0.2
v -0.2 1.2 0.6
v -0.2 1.5 0.6
v 0 1.4 0.6
v 0 1.5 0.6
v 0.1 1.3 0.6
v 0.1 1.4 0.6
v 0.1 1.5 0.6
v 0.2 1.2 0.6
v 0.2 1.3 0.6
v 0.2 1.4 0.6
v 0.2 1.5 0.6
v -0.3 0 0.5
v -0.3 0.1 0.5
v -0.3 1.2 0.5
v -0.3 1.5 0.5
v -0.3 1.6 0.5
v -0.2 1.1 0.5
v -0.2 1.2 0.5
v -0.2 1.5 0.5
v -0.2 1.6 0.5
v -0.1 0 0.5
v -0.1 0.1 0.5
v 0 1.5 0.5
v 0.1 0 0.5
v 0.1 0.1 0.5
v 0.1 1.5 0.5
v 0.2 1.1 0.5
v 0.2 1.2 0.5
v 0.2 1.3 0.5
v 0.2 1.4 0.5
v 0.2 1.5 0.5
v 0.2 1.6 0.5
v 0.3 0 0.5
v 0.3 0.1 0.5
v 0.3 1.2 0.5
v 0.3 1.5 0.5
v 0.3 1.6 0.5
v -0.4 1.2 0.4
v -0.4 1.6 0.4
v -0.3 0.1 0.4
v -0.3 0.2 0.4
v -0.3 0.6 0.4
v -0.3 0.9 0.4
v -0.3 1 0.4
v -0.3 1.1 0.4
v -0.3 1.2 0.4
v -0.3 1.5 0.4
v -0.3 1.6 0.4
v -0.3 1.7 0.4
v -0.2 0.2 0.4
v -0.2 0.6 0.4
v -0.2 0.7 0.4
v -0.2 0.9 0.4
v -0.2 1 0.4
v -0.2 1.1 0.4
v -0.2 1.6 0.4
v -0.1 0.1 0.4
v -0.1 0.2 0.4
v -0.1 0.4 0.4
v -0.1 0.5 0.4
v -0.1 0.6 0.4
v -0.1 0.9 0.4
v -0.1 1 0.4
v -0.1 1.1 0.4
v 0 0.9 0.4
v 0 1 0.4
v 0.1 0.1 0.4
v 0.1 0.2 0.4
v 0.1 0.4 0.4
v 0.1 0.5 0.4
v 0.1 0.6 0.4
v 0.1 0.9 0.4
v 0.1 1 0.4
v 0.1 1.1 0.4
v 0.2 0.2 0.4
v 0.2 0.6 0.4
v 0.2 0.7 0.4
v 0.2 0.9 0.4
v 0.2 1 0.4
v 0.2 1.1 0.4
v 0.2 1.6 0.4
v 0.3 0.1 0.4
v 0.3 0.2 0.4
v 0.3 0.6 0.4
v 0.3 0.9 0.4
v 0.3 1 0.4
v 0.3 1.1 0.4
v 0.3 1.2 0.4
v 0.3 1.5 0.4
v 0.3 1.6 0.4
v 0.3 1.7 0.4
v 0.4 1.2 0.4
v 0.4 1.6 0.4
v -0.5 0.5 0.3
v -0.5 0.7 0.3
v -0.5 1.1 0.3
v -0.4 0.7 0.3
v -0.4 1.1 0.3
v -0.4 1.2 0.3
v -0.3 0.5 0.3
v -0.3 0.6 0.3
v -0.3 0.7 0.3
v -0.3 0.9 0.3
v -0.3 1 0.3
v -0.3 1.1 0.3
v -0.3 1.2 0.3
v -0.2 1.1 0.3
v -0.2 1.2 0.3
v -0.2 1.7 0.3
v -0.2 1.8 0.3
v 0.2 1.1 0.3
v 0.2 1.2 0.3
v 0.2 1.7 0.3
v 0.2 1.8 0.3
v 0.3 0.5 0.3
v 0.3 0.6 0.3
v 0.3 0.7 0.3
v 0.3 0.9 0.3
v 0.3 1 0.3
v 0.3 1.1 0.3
v 0.3 1.2 0.3
v 0.4 0.7 0.3
v 0.4 1.1 0.3
v 0.4 1.2 0.3
v 0.5 0.5 0.3
v 0.5 0.7 0.3
v 0.5 1.1 0.3
v -0.5 1.1 0.2
v -0.5 1.2 0.2
v -0.4 1.1 0.2
v -0.4 1.2 0.2
v 0.4 1.1 0.2
v 0.4 1.2 0.2
v 0.5 1.1 0.2
v 0.5 1.2 0.2
v -0.5 1.2 0
v -0.5 1.8 0
v -0.4 1.2 0
v -0.4 1.6 0
v -0.4 1.8 0
v -0.4 1.9 0
v -0.3 1.6 0
v -0.3 1.7 0
v -0.2 1.7 0
v -0.2 1.8 0
v 0.2 1.7 0
v 0.2 1.8 0
v 0.3 1.6 0
v 0.3 1.7 0
v 0.4 1.2 0
v 0.4 1.6 0
v 0.4 1.8 0
v 0.4 1.9 0
v 0.5 1.2 0
v 0.5 1.8 0
v -0.5 0.5 0
v -0.5 0.6 0
v -0.4 0.5 0
v -0.4 0.6 0
v -0.3 0 0
v -0.3 0.1 0
v -0.3 0.5 0
v -0.2 0.1 0
v -0.2 0.5 0
v -0.1 0 0
v -0.1 0.1 0
v -0.1 0.4 0
v 0.1 0 0
v 0.1 0.1 0
v 0.1 0.4 0
v 0.2 0.1 0
v 0.2 0.5 0
v 0.3 0 0
v 0.3 0.1 0
v 0.3 0.5 0
v 0.4 0.5 0
v 0.4 0.6 0
v 0.5 0.5 0
v 0.5 0.6 0
v -0.5 1.6 -0.2
v -0.5 1.8 -0.2
v -0.4 1.6 -0.2
v -0.4 1.7 -0.2
v -0.4 1.8 -0.2
v -0.4 1.9 -0.2
v -0.3 1.7 -0.2
v -0.3 1.8 -0.2
v 0.3 1.7 -0.2
v 0.3 1.8 -0.2
v 0.4 1.6 -0.2
v 0.4 1.7 -0.2
v 0.4 1.8 -0.2
v 0.4 1.9 -0.2
v 0.5 1.6 -0.2
v 0.5 1.8 -0.2
v -0.5 0.6 -0.3
v -0.5 1.6 -0.3
v -0.4 0.5 -0.3
v -0.4 0.6 -0.3
v -0.4 1.5 -0.3
v -0.4 1.6 -0.3
v -0.4 1.7 -0.3
v -0.3 0.5 -0.3
v -0.3 0.6 -0.3
v -0.3 1.5 -0.3
v -0.3 1.6 -0.3
v -0.3 1.7 -0.3
v -0.3 1.8 -0.3
v -0.2 1.6 -0.3
v -0.2 1.7 -0.3
v 0.2 1.6 -0.3
v 0.2 1.7 -0.3
v 0.3 0.5 -0.3
v 0.3 0.6 -0.3
v 0.3 1.5 -0.3
v 0.3 1.6 -0.3
v 0.3 1.7 -0.3
v 0.3 1.8 -0.3
v 0.4 0.5 -0.3
v 0.4 0.6 -0.3
v 0.4 1.5 -0.3
v 0.4 1.6 -0.3
v 0.4 1.7 -0.3
v 0.5 0.6 -0.3
v 0.5 1.6 -0.3
v -0.4 0.6 -0.4
v -0.4 1.5 -0.4
v -0.3 0.5 -0.4
v -0.3 0.6 -0.4
v -0.3 1.5 -0.4
v -0.3 1.6 -0.4
v -0.2 1.6 -0.4
v -0.2 1.7 -0.4
v 0.2 1.6 -0.4
v 0.2 1.7 -0.4
v 0.3 0.5 -0.4
v 0.3 0.6 -0.4
v 0.3 1.5 -0.4
v 0.3 1.6 -0.4
v 0.4 0.6 -0.4
v 0.4 1.5 -0.4
v -0.3 0 0.5
v -0.1 0 0.5
v 0.1 0 0.5
v 0.3 0 0.5
v -0.3 0 0
v -0.1 0 0
v 0.1 0 0
v 0.3 0 0
v -0.1 0.4 0.4
v 0.1 0.4 0.4
v -0.1 0.4 0
v 0.1 0.4 0
v -0.5 0.5 0.3
v -0.3 0.5 0.3
v 0.3 0.5 0.3
v 0.5 0.5 0.3
v -0.5 0.5 0
v -0.4 0.5 0
v -0.3 0.5 0
v -0.2 0.5 0
v 0.2 0.5 0
v 0.3 0.5 0
v 0.4 0.5 0
v 0.5 0.5 0
v -0.4 0.5 -0.3
v -0.3 0.5 -0.3
v 0.3 0.5 -0.3
v 0.4 0.5 -0.3
v -0.3 0.5 -0.4
v 0.3 0.5 -0.4
v -0.5 0.6 0
v -0.4 0.6 0
v 0.4 0.6 0
v 0.5 0.6 0
v -0.5 0.6 -0.3
v -0.4 0.6 -0.3
v -0.3 0.6 -0.3
v 0.3 0.6 -0.3
v 0.4 0.6 -0.3
v 0.5 0.6 -0.3
v -0.4 0.6 -0.4
v -0.3 0.6 -0.4
v 0.3 0.6 -0.4
v 0.4 0.6 -0.4
v -0.2 1.1 0.5
v 0.2 1.1 0.5
v -0.2 1.1 0.4
v -0.1 1.1 0.4
v 0.1 1.1 0.4
v 0.2 1.1 0.4
v -0.2 1.2 0.6
v 0.2 1.2 0.6
v -0.3 1.2 0.5
v -0.2 1.2 0.5
v 0.2 1.2 0.5
v 0.3 1.2 0.5
v -0.4 1.2 0.4
v -0.3 1.2 0.4
v -0.2 1.2 0.4
v 0.2 1.2 0.4
v 0.3 1.2 0.4
v 0.4 1.2 0.4
v -0.4 1.2 0.3
v -0.3 1.2 0.3
v -0.2 1.2 0.3
v 0.2 1.2 0.3
v 0.3 1.2 0.3
v 0.4 1.2 0.3
v -0.3 0.1 0.5
v -0.1 0.1 0.5
v 0.1 0.1 0.5
v 0.3 0.1 0.5
v -0.3 0.1 0.4
v -0.1 0.1 0.4
v 0.1 0.1 0.4
v 0.3 0.1 0.4
v -0.3 1.1 0.4
v -0.2 1.1 0.4
v 0.2 1.1 0.4
v 0.3 1.1 0.4
v -0.5 1.1 0.3
v -0.4 1.1 0.3
v -0.3 1.1 0.3
v -0.2 1.1 0.3
v 0.2 1.1 0.3
v 0.3 1.1 0.3
v 0.4 1.1 0.3
v 0.5 1.1 0.3
v -0.5 1.1 0.2
v -0.4 1.1 0.2
v 0.4 1.1 0.2
v 0.5 1.1 0.2
v -0.5 1.2 0.2
v -0.4 1.2 0.2
v 0.4 1.2 0.2
v 0.5 1.2 0.2
v -0.5 1.2 0
v -0.4 1.2 0
v 0.4 1.2 0
v 0.5 1.2 0
v -0.2 1.5 0.6
v 0 1.5 0.6
v 0.1 1.5 0.6
v 0.2 1.5 0.6
v -0.2 1.5 0.5
v 0 1.5 0.5
v 0.1 1.5 0.5
v 0.2 1.5 0.5
v -0.4 1.5 -0.3
v -0.3 1.5 -0.3
v 0.3 1.5 -0.3
v 0.4 1.5 -0.3
v -0.4 1.5 -0.4
v -0.3 1.5 -0.4
v 0.3 1.5 -0.4
v 0.4 1.5 -0.4
v -0.3 1.6 0.5
v -0.2 1.6 0.5
v 0.2 1.6 0.5
v 0.3 1.6 0.5
v -0.4 1.6 0.4
v -0.3 1.6 0.4
v -0.2 1.6 0.4
v 0.2 1.6 0.4
v 0.3 1.6 0.4
v 0.4 1.6 0.4
v -0.4 1.6 0
v -0.3 1.6 0
v 0.3 1.6 0
v 0.4 1.6 0
v -0.5 1.6 -0.2
v -0.4 1.6 -0.2
v 0.4 1.6 -0.2
v 0.5 1.6 -0.2
v -0.5 1.6 -0.3
v -0.4 1.6 -0.3
v -0.3 1.6 -0.3
v -0.2 1.6 -0.3
v 0.2 1.6 -0.3
v 0.3 1.6 -0.3
v 0.4 1.6 -0.3
v 0.5 1.6 -0.3
v -0.3 1.6 -0.4
v -0.2 1.6 -0.4
v 0.2 1.6 -0.4
v 0.3 1.6 -0.4
v -0.3 1.7 0.4
v 0.3 1.7 0.4
v -0.2 1.7 0.3
v 0.2 1.7 0.3
v -0.3 1.7 0
v -0.2 1.7 0
v 0.2 1.7 0
v 0.3 1.7 0
v -0.4 1.7 -0.2
v -0.3 1.7 -0.2
v 0.3 1.7 -0.2
v 0.4 1.7 -0.2
v -0.4 1.7 -0.3
v -0.3 1.7 -0.3
v -0.2 1.7 -0.3
v 0.2 1.7 -0.3
v 0.3 1.7 -0.3
v 0.4 1.7 -0.3
v -0.2 1.7 -0.4
v 0.2 1.7 -0.4
v -0.2 1.8 0.3
v 0.2 1.8 0.3
v -0.5 1.8 0
v -0.4 1.8 0
v -0.2 1.8 0
v 0.2 1.8 0
v 0.4 1.8 0
v 0.5 1.8 0
v -0.5 1.8 -0.2
v -0.4 1.8 -0.2
v -0.3 1.8 -0.2
v 0.3 1.8 -0.2
v 0.4 1.8 -0.2
v 0.5 1.8 -0.2
v -0.3 1.8 -0.3
v 0.3 1.8 -0.3
v -0.4 1.9 0
v 0.4 1.9 0
v -0.4 1.9 -0.2
v 0.4 1.9 -0.2

# faces
f 3/7/1 2/7/1 1/7/1
f 5/7/1 3/7/1 1/7/1
f 5/7/1 4/7/1 3/7/1
f 6/7/1 4/7/1 5/7/1
f 7/6/1 6/6/1 5/6/1
f 8/6/1 6/6/1 7/6/1
f 9/6/1 6/6/1 8/6/1
f 10/7/1 4/7/1 6/7/1
f 10/6/1 6/6/1 9/6/1
f 11/7/1 4/7/1 10/7/1
f 12/7/1 4/7/1 11/7/1
f 13/7/1 11/7/1 10/7/1
f 14/7/1 11/7/1 13/7/1
f 17/7/1 16/7/1 15/7/1
f 18/7/1 16/7/1 17/7/1
f 23/6/1 21/6/1 20/6/1
f 24/6/1 21/6/1 23/6/1
f 26/7/1 19/7/1 18/7/1
f 27/7/1 19/7/1 26/7/1
f 28/4/1 25/4/1 24/4/1
f 28/4/1 23/4/1 22/4/1
f 28/4/1 24/4/1 23/4/1
f 29/4/1 25/4/1 28/4/1
f 32/7/1 31/7/1 30/7/1
f 33/7/1 31/7/1 32/7/1
f 36/7/1 35/7/1 34/7/1
f 37/7/1 35/7/1 36/7/1
f 40/7/1 39/7/1 38/7/1
f 41/7/1 39/7/1 40/7/1
f 42/7/1 39/7/1 41/7/1
f 43/7/1 39/7/1 42/7/1
f 44/7/1 42/7/1 41/7/1
f 45/6/1 43/6/1 42/6/1
f 45/7/1 42/7/1 44/7/1
f 46/6/1 45/6/1 44/6/1
f 46/6/1 43/6/1 45/6/1
f 47/6/1 43/6/1 46/6/1
f 50/6/1 46/6/1 44/6/1
f 51/6/1 46/6/1 50/6/1
f 52/7/1 49/7/1 48/7/1
f 53/7/1 49/7/1 52/7/1
f 54/7/1 51/7/1 50/7/1
f 55/7/1 54/7/1 50/7/1
f 56/7/1 54/7/1 55/7/1
f 57/6/1 56/6/1 55/6/1
f 58/6/1 56/6/1 57/6/1
f 59/4/1 58/4/1 57/4/1
f 60/4/1 58/4/1 59/4/1
f 63/5/1 62/5/1 61/5/1
f 64/5/1 62/5/1 63/5/1
f 67/4/1 64/4/1 63/4/1
f 68/4/1 64/4/1 67/4/1
f 70/7/1 66/7/1 65/7/1
f 71/7/1 66/7/1 70/7/1
f 72/4/1 69/4/1 68/4/1
f 73/4/1 69/4/1 72/4/1
f 76/7/1 75/7/1 74/7/1
f 77/7/1 75/7/1 76/7/1
f 82/5/1 79/5/1 78/5/1
f 83/4/1 80/4/1 79/4/1
f 83/5/1 79/5/1 82/5/1
f 84/4/1 80/4/1 83/4/1
f 85/5/1 82/5/1 81/5/1
f 86/5/1 82/5/1 85/5/1
f 91/7/1 88/7/1 87/7/1
f 92/7/1 88/7/1 91/7/1
f 93/4/1 90/4/1 89/4/1
f 94/4/1 90/4/1 93/4/1
f 97/7/1 96/7/1 95/7/1
f 98/7/1 96/7/1 97/7/1
f 99/7/1 96/7/1 98/7/1
f 100/7/1 96/7/1 99/7/1
f 101/7/1 99/7/1 98/7/1
f 102/4/1 100/4/1 99/4/1
f 102/7/1 99/7/1 101/7/1
f 103/4/1 102/4/1 101/4/1
f 104/4/1 100/4/1 102/4/1
f 104/4/1 102/4/1 103/4/1
f 105/7/2 106/7/2 107/7/2
f 107/7/2 106/7/2 108/7/2
f 108/7/2 106/7/2 109/7/2
f 109/7/2 106/7/2 110/7/2
f 108/7/2 109/7/2 111/7/2
f 109/4/2 110/4/2 112/4/2
f 111/7/2 109/7/2 112/7/2
f 111/4/2 112/4/2 113/4/2
f 112/4/2 110/4/2 114/4/2
f 113/4/2 112/4/2 114/4/2
f 115/5/2 116/5/2 119/5/2
f 116/4/2 117/4/2 120/4/2
f 119/5/2 116/5/2 120/5/2
f 120/4/2 117/4/2 121/4/2
f 118/5/2 119/5/2 122/5/2
f 122/5/2 119/5/2 123/5/2
f 122/2/2 123/2/2 124/2/2
f 124/2/2 123/2/2 125/2/2
f 124/5/2 125/5/2 126/5/2
f 126/5/2 125/5/2 127/5/2
f 128/7/2 129/7/2 132/7/2
f 132/7/2 129/7/2 133/7/2
f 130/4/2 131/4/2 134/4/2
f 134/4/2 131/4/2 135/4/2
f 136/7/2 137/7/2 138/7/2
f 138/7/2 137/7/2 139/7/2
f 139/7/2 137/7/2 140/7/2
f 140/7/2 137/7/2 141/7/2
f 139/7/2 140/7/2 142/7/2
f 140/6/2 141/6/2 143/6/2
f 142/7/2 140/7/2 143/7/2
f 142/6/2 143/6/2 144/6/2
f 143/6/2 141/6/2 144/6/2
f 144/6/2 141/6/2 145/6/2
f 142/6/2 144/6/2 148/6/2
f 148/6/2 144/6/2 149/6/2
f 146/7/2 147/7/2 150/7/2
f 150/7/2 147/7/2 151/7/2
f 148/7/2 149/7/2 152/7/2
f 148/7/2 152/7/2 153/7/2
f 153/7/2 152/7/2 154/7/2
f 153/6/2 154/6/2 155/6/2
f 155/6/2 154/6/2 156/6/2
f 155/4/2 156/4/2 157/4/2
f 157/4/2 156/4/2 158/4/2
f 159/5/2 160/5/2 161/5/2
f 161/5/2 160/5/2 162/5/2
f 161/4/2 162/4/2 165/4/2
f 165/4/2 162/4/2 166/4/2
f 163/7/2 164/7/2 168/7/2
f 168/7/2 164/7/2 169/7/2
f 166/4/2 167/4/2 170/4/2
f 170/4/2 167/4/2 171/4/2
f 172/7/2 173/7/2 174/7/2
f 174/7/2 173/7/2 175/7/2
f 176/7/2 177/7/2 178/7/2
f 178/7/2 177/7/2 179/7/2
f 181/6/2 182/6/2 184/6/2
f 184/6/2 182/6/2 185/6/2
f 179/7/2 180/7/2 187/7/2
f 187/7/2 180/7/2 188/7/2
f 185/4/2 186/4/2 189/4/2
f 183/4/2 184/4/2 189/4/2
f 184/4/2 185/4/2 189/4/2
f 189/4/2 186/4/2 190/4/2
f 191/7/2 192/7/2 193/7/2
f 193/7/2 192/7/2 194/7/2
f 195/7/2 196/7/2 197/7/2
f 197/7/2 196/7/2 198/7/2
f 199/7/2 200/7/2 201/7/2
f 199/7/2 201/7/2 203/7/2
f 201/7/2 202/7/2 203/7/2
f 203/7/2 202/7/2 204/7/2
f 203/6/2 204/6/2 205/6/2
f 205/6/2 204/6/2 206/6/2
f 206/6/2 204/6/2 207/6/2
f 204/7/2 202/7/2 208/7/2
f 207/6/2 204/6/2 208/6/2
f 208/7/2 202/7/2 209/7/2
f 209/7/2 202/7/2 210/7/2
f 208/7/2 209/7/2 211/7/2
f 211/7/2 209/7/2 212/7/2
f 215/5/3 214/5/3 213/5/3
f 216/5/3 214/5/3 215/5/3
f 217/5/3 215/5/3 213/5/3
f 218/2/3 216/2/3 215/2/3
f 218/5/3 215/5/3 217/5/3
f 219/2/3 216/2/3 218/2/3
f 220/5/3 217/5/3 213/5/3
f 221/2/3 218/2/3 217/2/3
f 221/5/3 217/5/3 220/5/3
f 222/5/3 219/5/3 218/5/3
f 222/2/3 218/2/3 221/2/3
f 223/5/3 219/5/3 222/5/3
f 230/5/3 227/5/3 226/5/3
f 231/4/3 228/4/3 227/4/3
f 231/5/3 227/5/3 230/5/3
f 232/4/3 228/4/3 231/4/3
f 233/7/3 225/7/3 224/7/3
f 234/7/3 225/7/3 233/7/3
f 235/5/3 232/5/3 231/5/3
f 238/5/3 232/5/3 235/5/3
f 239/5/3 230/5/3 229/5/3
f 240/5/3 230/5/3 239/5/3
f 243/5/3 232/5/3 238/5/3
f 244/5/3 232/5/3 243/5/3
f 245/7/3 237/7/3 236/7/3
f 246/7/3 237/7/3 245/7/3
f 247/5/3 242/5/3 241/5/3
f 247/5/3 241/5/3 240/5/3
f 247/5/3 243/5/3 242/5/3
f 248/4/3 244/4/3 243/4/3
f 248/5/3 243/5/3 247/5/3
f 249/4/3 244/4/3 248/4/3
f 258/4/3 251/4/3 250/4/3
f 259/4/3 251/4/3 258/4/3
f 260/4/3 251/4/3 259/4/3
f 262/7/3 253/7/3 252/7/3
f 262/6/3 254/6/3 253/6/3
f 263/7/3 255/7/3 254/7/3
f 263/6/3 254/6/3 262/6/3
f 264/7/3 255/7/3 263/7/3
f 265/6/3 256/6/3 255/6/3
f 265/7/3 255/7/3 264/7/3
f 266/4/3 257/4/3 256/4/3
f 266/6/3 256/6/3 265/6/3
f 267/4/3 257/4/3 266/4/3
f 268/4/3 261/4/3 260/4/3
f 269/7/3 262/7/3 252/7/3
f 270/4/3 263/4/3 262/4/3
f 270/7/3 262/7/3 269/7/3
f 271/4/3 263/4/3 270/4/3
f 272/4/3 263/4/3 271/4/3
f 273/7/3 264/7/3 263/7/3
f 273/4/3 263/4/3 272/4/3
f 274/4/3 265/4/3 264/4/3
f 274/3/3 266/3/3 265/3/3
f 275/6/3 267/6/3 266/6/3
f 275/3/3 266/3/3 274/3/3
f 276/6/3 267/6/3 275/6/3
f 277/4/3 274/4/3 264/4/3
f 277/4/3 275/4/3 274/4/3
f 278/7/3 276/7/3 275/7/3
f 278/4/3 275/4/3 277/4/3
f 281/4/3 272/4/3 271/4/3
f 282/6/3 273/6/3 272/6/3
f 282/4/3 272/4/3 281/4/3
f 283/7/3 264/7/3 273/7/3
f 283/6/3 273/6/3 282/6/3
f 284/4/3 277/4/3 264/4/3
f 284/1/3 278/1/3 277/1/3
f 285/7/3 276/7/3 278/7/3
f 285/1/3 278/1/3 284/1/3
f 286/7/3 276/7/3 285/7/3
f 287/4/3 282/4/3 281/4/3
f 287/7/3 280/7/3 279/7/3
f 287/4/3 281/4/3 280/4/3
f 287/4/3 283/4/3 282/4/3
f 288/7/3 264/7/3 283/7/3
f 288/4/3 283/4/3 287/4/3
f 289/4/3 285/4/3 284/4/3
f 289/7/3 264/7/3 288/7/3
f 289/4/3 284/4/3 264/4/3
f 290/4/3 285/4/3 289/4/3
f 291/6/3 286/6/3 285/6/3
f 291/4/3 285/4/3 290/4/3
f 292/6/3 286/6/3 291/6/3
f 293/4/3 261/4/3 268/4/3
f 294/7/3 287/7/3 279/7/3
f 295/6/3 288/6/3 287/6/3
f 295/7/3 287/7/3 294/7/3
f 296/7/3 289/7/3 288/7/3
f 296/6/3 288/6/3 295/6/3
f 296/7/3 290/7/3 289/7/3
f 297/6/3 291/6/3 290/6/3
f 297/7/3 290/7/3 296/7/3
f 298/4/3 292/4/3 291/4/3
f 298/6/3 291/6/3 297/6/3
f 299/4/3 292/4/3 298/4/3
f 302/4/3 261/4/3 293/4/3
f 303/4/3 261/4/3 302/4/3
f 304/4/3 302/4/3 301/4/3
f 304/4/3 301/4/3 300/4/3
f 305/4/3 302/4/3 304/4/3
f 309/7/3 307/7/3 306/7/3
f 309/6/3 308/6/3 307/6/3
f 310/6/3 308/6/3 309/6/3
f 312/7/3 309/7/3 306/7/3
f 313/7/3 309/7/3 312/7/3
f 314/4/3 310/4/3 309/4/3
f 314/7/3 309/7/3 313/7/3
f 315/4/3 310/4/3 314/4/3
f 316/4/3 310/4/3 315/4/3
f 317/6/3 311/6/3 310/6/3
f 317/4/3 310/4/3 316/4/3
f 318/6/3 311/6/3 317/6/3
f 319/4/3 318/4/3 317/4/3
f 320/4/3 318/4/3 319/4/3
f 325/4/3 322/4/3 321/4/3
f 326/4/3 322/4/3 325/4/3
f 332/4/3 324/4/3 323/4/3
f 333/4/3 324/4/3 332/4/3
f 334/4/3 331/4/3 330/4/3
f 334/7/3 328/7/3 327/7/3
f 334/7/3 329/7/3 328/7/3
f 334/4/3 332/4/3 331/4/3
f 334/4/3 330/4/3 329/4/3
f 335/6/3 333/6/3 332/6/3
f 335/4/3 332/4/3 334/4/3
f 336/6/3 333/6/3 335/6/3
f 337/7/3 334/7/3 327/7/3
f 338/6/3 335/6/3 334/6/3
f 338/7/3 334/7/3 337/7/3
f 339/6/3 335/6/3 338/6/3
f 342/6/3 341/6/3 340/6/3
f 343/6/3 341/6/3 342/6/3
f 346/6/3 345/6/3 344/6/3
f 347/6/3 345/6/3 346/6/3
f 350/7/3 349/7/3 348/7/3
f 351/7/3 349/7/3 350/7/3
f 352/7/3 349/7/3 351/7/3
f 354/7/3 353/7/3 352/7/3
f 354/7/3 352/7/3 351/7/3
f 355/7/3 353/7/3 354/7/3
f 356/7/3 353/7/3 355/7/3
f 357/7/3 353/7/3 356/7/3
f 359/7/3 353/7/3 357/7/3
f 361/7/3 359/7/3 358/7/3
f 363/7/3 361/7/3 360/7/3
f 364/7/3 353/7/3 359/7/3
f 364/7/3 359/7/3 361/7/3
f 364/7/3 361/7/3 363/7/3
f 365/7/3 353/7/3 364/7/3
f 366/7/3 363/7/3 362/7/3
f 366/7/3 364/7/3 363/7/3
f 367/7/3 364/7/3 366/7/3
f 368/7/4 369/7/4 370/7/4
f 370/7/4 369/7/4 371/7/4
f 372/7/4 373/7/4 375/7/4
f 373/6/4 374/6/4 375/6/4
f 375/6/4 374/6/4 376/6/4
f 372/7/4 375/7/4 377/7/4
f 375/4/4 376/4/4 378/4/4
f 377/7/4 375/7/4 378/7/4
f 378/4/4 376/4/4 379/4/4
f 379/4/4 376/4/4 382/4/4
f 380/7/4 381/7/4 383/7/4
f 381/4/4 382/4/4 383/4/4
f 382/4/4 376/4/4 384/4/4
f 383/4/4 382/4/4 384/4/4
f 380/7/4 383/7/4 385/7/4
f 383/6/4 384/6/4 386/6/4
f 385/7/4 383/7/4 386/7/4
f 386/6/4 384/6/4 387/6/4
f 388/7/4 389/7/4 390/7/4
f 390/7/4 389/7/4 391/7/4
f 392/7/4 393/7/4 394/7/4
f 394/7/4 393/7/4 395/7/4
f 395/7/4 393/7/4 396/7/4
f 396/7/4 397/7/4 398/7/4
f 395/7/4 396/7/4 398/7/4
f 398/7/4 397/7/4 399/7/4
f 399/7/4 397/7/4 401/7/4
f 400/7/4 401/7/4 403/7/4
f 401/7/4 397/7/4 404/7/4
f 403/7/4 401/7/4 404/7/4
f 404/7/4 397/7/4 405/7/4
f 402/7/4 403/7/4 406/7/4
f 403/7/4 404/7/4 406/7/4
f 406/7/4 404/7/4 407/7/4
f 408/7/4 409/7/4 411/7/4
f 411/7/4 409/7/4 412/7/4
f 412/7/4 409/7/4 413/7/4
f 410/7/4 411/7/4 415/7/4
f 415/7/4 411/7/4 416/7/4
f 413/7/4 414/7/4 417/7/4
f 412/7/4 413/7/4 417/7/4
f 417/7/4 414/7/4 418/7/4
f 418/7/4 414/7/4 419/7/4
f 419/7/4 420/7/4 421/7/4
f 418/7/4 419/7/4 421/7/4
f 421/7/4 420/7/4 422/7/4
f 422/7/4 420/7/4 424/7/4
f 423/7/4 424/7/4 428/7/4
f 424/7/4 420/7/4 429/7/4
f 428/7/4 424/7/4 429/7/4
f 429/7/4 420/7/4 430/7/4
f 425/7/4 426/7/4 431/7/4
f 431/7/4 426/7/4 432/7/4
f 427/7/4 428/7/4 433/7/4
f 428/7/4 429/7/4 433/7/4
f 433/7/4 429/7/4 434/7/4
f 434/7/4 429/7/4 435/7/4
f 432/7/4 433/7/4 436/7/4
f 433/7/4 434/7/4 436/7/4
f 436/7/4 434/7/4 437/7/4
f 438/7/4 439/7/4 441/7/4
f 441/7/4 439/7/4 442/7/4
f 440/7/4 441/7/4 444/7/4
f 442/7/4 443/7/4 444/7/4
f 441/7/4 442/7/4 444/7/4
f 440/7/4 444/7/4 446/7/4
f 444/7/4 445/7/4 446/7/4
f 446/7/4 445/7/4 447/7/4
f 440/7/4 446/7/4 448/7/4
f 448/7/4 446/7/4 449/7/4
f 449/7/4 446/7/4 450/7/4
f 450/7/4 446/7/4 451/7/4
f 449/7/4 450/7/4 452/7/4
f 452/7/4 450/7/4 453/7/4
f 458/7/5 455/7/5 454/7/5
f 459/7/5 455/7/5 458/7/5
f 460/7/5 457/7/5 456/7/5
f 461/7/5 457/7/5 460/7/5
f 464/4/5 463/4/5 462/4/5
f 465/4/5 463/4/5 464/4/5
f 470/7/5 467/7/5 466/7/5
f 471/7/5 467/7/5 470/7/5
f 472/7/5 467/7/5 471/7/5
f 475/7/5 469/7/5 468/7/5
f 476/7/5 469/7/5 475/7/5
f 477/7/5 469/7/5 476/7/5
f 478/7/5 474/7/5 473/7/5
f 478/7/5 476/7/5 475/7/5
f 478/7/5 475/7/5 474/7/5
f 478/7/5 472/7/5 471/7/5
f 478/7/5 473/7/5 472/7/5
f 479/7/5 476/7/5 478/7/5
f 480/7/5 476/7/5 479/7/5
f 481/7/5 476/7/5 480/7/5
f 482/7/5 480/7/5 479/7/5
f 483/7/5 480/7/5 482/7/5
f 488/7/5 485/7/5 484/7/5
f 489/7/5 485/7/5 488/7/5
f 492/7/5 487/7/5 486/7/5
f 493/7/5 487/7/5 492/7/5
f 494/7/5 490/7/5 489/7/5
f 495/7/5 490/7/5 494/7/5
f 496/7/5 492/7/5 491/7/5
f 497/7/5 492/7/5 496/7/5
f 500/5/5 499/5/5 498/5/5
f 501/5/5 499/5/5 500/5/5
f 502/5/5 499/5/5 501/5/5
f 503/5/5 499/5/5 502/5/5
f 507/5/5 505/5/5 504/5/5
f 508/5/5 505/5/5 507/5/5
f 511/5/5 507/5/5 506/5/5
f 512/5/5 507/5/5 511/5/5
f 513/5/5 509/5/5 508/5/5
f 514/5/5 509/5/5 513/5/5
f 516/4/5 512/4/5 511/4/5
f 516/4/5 511/4/5 510/4/5
f 517/4/5 512/4/5 516/4/5
f 518/4/5 512/4/5 517/4/5
f 519/4/5 515/4/5 514/4/5
f 519/4/5 514/4/5 513/4/5
f 520/4/5 515/4/5 519/4/5
f 521/4/5 515/4/5 520/4/5
f 522/7/6 523/7/6 526/7/6
f 526/7/6 523/7/6 527/7/6
f 524/7/6 525/7/6 528/7/6
f 528/7/6 525/7/6 529/7/6
f 530/4/6 531/4/6 536/4/6
f 536/4/6 531/4/6 537/4/6
f 532/4/6 533/4/6 538/4/6
f 538/4/6 533/4/6 539/4/6
f 534/6/6 535/6/6 542/6/6
f 542/6/6 535/6/6 543/6/6
f 540/6/6 541/6/6 544/6/6
f 544/6/6 541/6/6 545/6/6
f 546/6/6 547/6/6 550/6/6
f 550/6/6 547/6/6 551/6/6
f 548/6/6 549/6/6 552/6/6
f 552/6/6 549/6/6 553/6/6
f 554/5/6 555/5/6 558/5/6
f 555/2/6 556/2/6 559/2/6
f 558/5/6 555/5/6 559/5/6
f 556/5/6 557/5/6 560/5/6
f 559/2/6 556/2/6 560/2/6
f 560/5/6 557/5/6 561/5/6
f 562/7/6 563/7/6 566/7/6
f 566/7/6 563/7/6 567/7/6
f 564/7/6 565/7/6 568/7/6
f 568/7/6 565/7/6 569/7/6
f 570/4/6 571/4/6 575/4/6
f 571/5/6 572/5/6 576/5/6
f 575/4/6 571/4/6 576/4/6
f 572/4/6 573/4/6 577/4/6
f 576/5/6 572/5/6 577/5/6
f 577/4/6 573/4/6 578/4/6
f 574/4/6 575/4/6 580/4/6
f 580/4/6 575/4/6 581/4/6
f 578/4/6 579/4/6 582/4/6
f 582/4/6 579/4/6 583/4/6
f 584/7/6 585/7/6 588/7/6
f 588/7/6 585/7/6 589/7/6
f 586/7/6 587/7/6 594/7/6
f 594/7/6 587/7/6 595/7/6
f 590/7/6 591/7/6 596/7/6
f 596/7/6 591/7/6 597/7/6
f 592/7/6 593/7/6 598/7/6
f 598/7/6 593/7/6 599/7/6
f 600/4/6 601/4/6 602/4/6
f 602/4/6 601/4/6 603/4/6
f 600/4/6 602/4/6 604/4/6
f 604/4/6 602/4/6 605/4/6
f 603/4/6 601/4/6 606/4/6
f 606/4/6 601/4/6 607/4/6
f 608/7/6 609/7/6 612/7/6
f 612/7/6 609/7/6 613/7/6
f 610/7/6 611/7/6 616/7/6
f 616/7/6 611/7/6 617/7/6
f 614/7/6 615/7/6 618/7/6
f 618/7/6 615/7/6 619/7/6
f 620/4/6 621/4/6 624/4/6
f 624/4/6 621/4/6 625/4/6
f 622/7/6 623/7/6 628/7/6
f 628/7/6 623/7/6 629/7/6
f 626/7/6 627/7/6 632/7/6
f 632/7/6 627/7/6 633/7/6
f 630/7/6 631/7/6 634/7/6
f 634/7/6 631/7/6 635/7/6
f 636/7/6 637/7/6 638/7/6
f 638/7/6 637/7/6 639/7/6
