# MagicaVoxel @ Ephtracy

# group
o 

# material
mtllib fishbowl_astronaut.vox.mtl
usemtl palette

# normals
vn -1 0 0
vn 1 0 0
vn 0 0 1
vn 0 0 -1
vn 0 -1 0
vn 0 1 0

# texcoords
vt 0.00195312 0.5
vt 0.0175781 0.5
vt 0.0957031 0.5
vt 0.130859 0.5
vt 0.134766 0.5
vt 0.138672 0.5
vt 0.142578 0.5
vt 0.146484 0.5
vt 0.154297 0.5

# verts
v -0.5 0.5 0.3
v -0.5 0.5 0
v -0.5 0.6 0
v -0.5 0.6 -0.3
v -0.5 0.7 0.3
v -0.5 0.7 0
v -0.5 1.1 0.3
v -0.5 1.1 0.2
v -0.5 1.2 0.2
v -0.5 1.2 0
v -0.5 1.6 -0.2
v -0.5 1.6 -0.3
v -0.5 1.8 0
v -0.5 1.8 -0.2
v -0.4 0.5 0
v -0.4 0.5 -0.3
v -0.4 0.6 0
v -0.4 0.6 -0.3
v -0.4 0.6 -0.4
v -0.4 1.1 0.3
v -0.4 1.1 0.2
v -0.4 1.2 0.4
v -0.4 1.2 0.3
v -0.4 1.2 0.2
v -0.4 1.2 0
v -0.4 1.5 -0.3
v -0.4 1.5 -0.4
v -0.4 1.6 0.4
v -0.4 1.6 0
v -0.4 1.6 -0.2
v -0.4 1.6 -0.3
v -0.4 1.7 0.4
v -0.4 1.7 0
v -0.4 1.7 -0.2
v -0.4 1.7 -0.3
v -0.4 1.8 0
v -0.4 1.8 -0.2
v -0.4 1.9 0
v -0.4 1.9 -0.2
v -0.3 0 0.5
v -0.3 0 0
v -0.3 0.1 0.5
v -0.3 0.1 0.4
v -0.3 0.1 0.3
v -0.3 0.1 0
v -0.3 0.2 0.4
v -0.3 0.2 0.3
v -0.3 0.5 0.3
v -0.3 0.5 0
v -0.3 0.5 -0.3
v -0.3 0.5 -0.4
v -0.3 0.6 0.4
v -0.3 0.6 0.3
v -0.3 0.6 -0.3
v -0.3 0.6 -0.4
v -0.3 0.7 0.3
v -0.3 0.9 0.4
v -0.3 0.9 0.3
v -0.3 1 0.4
v -0.3 1 0.3
v -0.3 1.1 0.4
v -0.3 1.1 0.3
v -0.3 1.2 0.5
v -0.3 1.2 0.4
v -0.3 1.3 0.5
v -0.3 1.3 0.4
v -0.3 1.4 0.5
v -0.3 1.4 0.4
v -0.3 1.5 0.5
v -0.3 1.5 0.4
v -0.3 1.5 -0.3
v -0.3 1.5 -0.4
v -0.3 1.6 0.5
v -0.3 1.6 0.4
v -0.3 1.6 -0.3
v -0.3 1.6 -0.4
v -0.3 1.7 0.5
v -0.3 1.7 0.4
v -0.3 1.7 0.3
v -0.3 1.7 0
v -0.3 1.7 -0.2
v -0.3 1.7 -0.3
v -0.3 1.8 0.3
v -0.3 1.8 0
v -0.3 1.8 -0.2
v -0.3 1.8 -0.3
v -0.2 1.1 0.5
v -0.2 1.1 0.4
v -0.2 1.1 0.3
v -0.2 1.2 0.6
v -0.2 1.2 0.5
v -0.2 1.2 0.4
v -0.2 1.2 0.3
v -0.2 1.3 0.5
v -0.2 1.4 0.5
v -0.2 1.5 0.6
v -0.2 1.5 0.5
v -0.2 1.6 -0.3
v -0.2 1.6 -0.4
v -0.2 1.7 0.4
v -0.2 1.7 0.3
v -0.2 1.7 -0.3
v -0.2 1.7 -0.4
v -0.2 1.8 0.4
v -0.2 1.8 0.3
v 0.1 0 0.5
v 0.1 0 0
v 0.1 0.1 0.5
v 0.1 0.1 0.4
v 0.1 0.1 0.1
v 0.1 0.1 0
v 0.1 0.2 0.4
v 0.1 0.2 0.1
v 0.1 0.4 0.4
v 0.1 0.4 0
v -0.1 0 0.5
v -0.1 0 0
v -0.1 0.1 0.5
v -0.1 0.1 0.4
v -0.1 0.1 0.1
v -0.1 0.1 0
v -0.1 0.2 0.4
v -0.1 0.2 0.1
v -0.1 0.4 0.4
v -0.1 0.4 0
v 0.2 1.1 0.5
v 0.2 1.1 0.4
v 0.2 1.1 0.3
v 0.2 1.2 0.6
v 0.2 1.2 0.5
v 0.2 1.2 0.4
v 0.2 1.2 0.3
v 0.2 1.3 0.6
v 0.2 1.3 0.5
v 0.2 1.4 0.6
v 0.2 1.4 0.5
v 0.2 1.5 0.6
v 0.2 1.5 0.5
v 0.2 1.6 -0.3
v 0.2 1.6 -0.4
v 0.2 1.7 0.4
v 0.2 1.7 0.3
v 0.2 1.7 -0.3
v 0.2 1.7 -0.4
v 0.2 1.8 0.4
v 0.2 1.8 0.3
v 0.3 0 0.5
v 0.3 0 0
v 0.3 0.1 0.5
v 0.3 0.1 0.4
v 0.3 0.1 0.3
v 0.3 0.1 0
v 0.3 0.2 0.4
v 0.3 0.2 0.3
v 0.3 0.5 0.3
v 0.3 0.5 0
v 0.3 0.5 -0.3
v 0.3 0.5 -0.4
v 0.3 0.6 0.4
v 0.3 0.6 0.3
v 0.3 0.6 -0.3
v 0.3 0.6 -0.4
v 0.3 0.7 0.3
v 0.3 0.9 0.4
v 0.3 0.9 0.3
v 0.3 1 0.4
v 0.3 1 0.3
v 0.3 1.1 0.4
v 0.3 1.1 0.3
v 0.3 1.2 0.5
v 0.3 1.2 0.4
v 0.3 1.5 -0.3
v 0.3 1.5 -0.4
v 0.3 1.6 0.5
v 0.3 1.6 0.4
v 0.3 1.6 -0.3
v 0.3 1.6 -0.4
v 0.3 1.7 0.5
v 0.3 1.7 0.4
v 0.3 1.7 0.3
v 0.3 1.7 0
v 0.3 1.7 -0.2
v 0.3 1.7 -0.3
v 0.3 1.8 0.3
v 0.3 1.8 0
v 0.3 1.8 -0.2
v 0.3 1.8 -0.3
v 0.4 0.5 0
v 0.4 0.5 -0.3
v 0.4 0.6 0
v 0.4 0.6 -0.3
v 0.4 0.6 -0.4
v 0.4 1.1 0.3
v 0.4 1.1 0.2
v 0.4 1.2 0.4
v 0.4 1.2 0.3
v 0.4 1.2 0.2
v 0.4 1.2 0
v 0.4 1.5 -0.3
v 0.4 1.5 -0.4
v 0.4 1.6 0.4
v 0.4 1.6 0
v 0.4 1.6 -0.2
v 0.4 1.6 -0.3
v 0.4 1.7 0.4
v 0.4 1.7 0
v 0.4 1.7 -0.2
v 0.4 1.7 -0.3
v 0.4 1.8 0
v 0.4 1.8 -0.2
v 0.4 1.9 0
v 0.4 1.9 -0.2
v 0.5 0.5 0.3
v 0.5 0.5 0
v 0.5 0.6 0
v 0.5 0.6 -0.3
v 0.5 0.7 0.3
v 0.5 0.7 0
v 0.5 1.1 0.3
v 0.5 1.1 0.2
v 0.5 1.2 0.2
v 0.5 1.2 0
v 0.5 1.6 -0.2
v 0.5 1.6 -0.3
v 0.5 1.8 0
v 0.5 1.8 -0.2
v -0.2 1.2 0.6
v -0.2 1.5 0.6
v 0 1.2 0.6
v 0 1.3 0.6
v 0 1.4 0.6
v 0 1.5 0.6
v 0.1 1.2 0.6
v 0.1 1.3 0.6
v 0.1 1.4 0.6
v 0.1 1.5 0.6
v 0.2 1.2 0.6
v 0.2 1.3 0.6
v 0.2 1.4 0.6
v 0.2 1.5 0.6
v -0.3 0 0.5
v -0.3 0.1 0.5
v -0.3 1.2 0.5
v -0.3 1.3 0.5
v -0.3 1.4 0.5
v -0.3 1.5 0.5
v -0.3 1.6 0.5
v -0.3 1.7 0.5
v -0.2 1.1 0.5
v -0.2 1.2 0.5
v -0.2 1.3 0.5
v -0.2 1.4 0.5
v -0.2 1.5 0.5
v -0.1 0 0.5
v -0.1 0.1 0.5
v 0 1.2 0.5
v 0 1.5 0.5
v 0.1 0 0.5
v 0.1 0.1 0.5
v 0.1 1.2 0.5
v 0.1 1.5 0.5
v 0.2 1.1 0.5
v 0.2 1.2 0.5
v 0.2 1.3 0.5
v 0.2 1.4 0.5
v 0.2 1.5 0.5
v 0.3 0 0.5
v 0.3 0.1 0.5
v 0.3 1.2 0.5
v 0.3 1.6 0.5
v 0.3 1.7 0.5
v -0.4 1.2 0.4
v -0.4 1.6 0.4
v -0.4 1.7 0.4
v -0.3 0.1 0.4
v -0.3 0.2 0.4
v -0.3 0.6 0.4
v -0.3 0.9 0.4
v -0.3 1 0.4
v -0.3 1.1 0.4
v -0.3 1.2 0.4
v -0.3 1.3 0.4
v -0.3 1.4 0.4
v -0.3 1.5 0.4
v -0.3 1.6 0.4
v -0.3 1.7 0.4
v -0.2 0.2 0.4
v -0.2 0.6 0.4
v -0.2 0.7 0.4
v -0.2 0.9 0.4
v -0.2 1 0.4
v -0.2 1.1 0.4
v -0.2 1.7 0.4
v -0.2 1.8 0.4
v -0.1 0.1 0.4
v -0.1 0.2 0.4
v -0.1 0.4 0.4
v -0.1 0.5 0.4
v -0.1 0.6 0.4
v -0.1 0.9 0.4
v -0.1 1 0.4
v -0.1 1.1 0.4
v 0 0.9 0.4
v 0 1 0.4
v 0.1 0.1 0.4
v 0.1 0.2 0.4
v 0.1 0.4 0.4
v 0.1 0.5 0.4
v 0.1 0.6 0.4
v 0.1 0.9 0.4
v 0.1 1 0.4
v 0.1 1.1 0.4
v 0.2 0.2 0.4
v 0.2 0.6 0.4
v 0.2 0.7 0.4
v 0.2 0.9 0.4
v 0.2 1 0.4
v 0.2 1.1 0.4
v 0.2 1.7 0.4
v 0.2 1.8 0.4
v 0.3 0.1 0.4
v 0.3 0.2 0.4
v 0.3 0.6 0.4
v 0.3 0.9 0.4
v 0.3 1 0.4
v 0.3 1.1 0.4
v 0.3 1.2 0.4
v 0.3 1.6 0.4
v 0.3 1.7 0.4
v 0.4 1.2 0.4
v 0.4 1.6 0.4
v 0.4 1.7 0.4
v -0.5 0.5 0.3
v -0.5 0.7 0.3
v -0.5 1.1 0.3
v -0.4 0.7 0.3
v -0.4 1.1 0.3
v -0.4 1.2 0.3
v -0.3 0.5 0.3
v -0.3 0.6 0.3
v -0.3 0.7 0.3
v -0.3 0.9 0.3
v -0.3 1 0.3
v -0.3 1.1 0.3
v -0.3 1.2 0.3
v -0.3 1.7 0.3
v -0.3 1.8 0.3
v -0.2 1.1 0.3
v -0.2 1.2 0.3
v -0.2 1.7 0.3
v -0.2 1.8 0.3
v 0.2 1.1 0.3
v 0.2 1.2 0.3
v 0.2 1.7 0.3
v 0.2 1.8 0.3
v 0.3 0.5 0.3
v 0.3 0.6 0.3
v 0.3 0.7 0.3
v 0.3 0.9 0.3
v 0.3 1 0.3
v 0.3 1.1 0.3
v 0.3 1.2 0.3
v 0.3 1.7 0.3
v 0.3 1.8 0.3
v 0.4 0.7 0.3
v 0.4 1.1 0.3
v 0.4 1.2 0.3
v 0.5 0.5 0.3
v 0.5 0.7 0.3
v 0.5 1.1 0.3
v -0.5 1.1 0.2
v -0.5 1.2 0.2
v -0.4 1.1 0.2
v -0.4 1.2 0.2
v 0.4 1.1 0.2
v 0.4 1.2 0.2
v 0.5 1.1 0.2
v 0.5 1.2 0.2
v -0.5 1.2 0
v -0.5 1.8 0
v -0.4 1.2 0
v -0.4 1.6 0
v -0.4 1.7 0
v -0.4 1.8 0
v -0.4 1.9 0
v -0.3 1.7 0
v -0.3 1.8 0
v 0.3 1.7 0
v 0.3 1.8 0
v 0.4 1.2 0
v 0.4 1.6 0
v 0.4 1.7 0
v 0.4 1.8 0
v 0.4 1.9 0
v 0.5 1.2 0
v 0.5 1.8 0
v -0.5 0.5 0
v -0.5 0.6 0
v -0.4 0.5 0
v -0.4 0.6 0
v -0.3 0 0
v -0.3 0.1 0
v -0.3 0.5 0
v -0.2 0.1 0
v -0.2 0.5 0
v -0.1 0 0
v -0.1 0.1 0
v -0.1 0.4 0
v 0.1 0 0
v 0.1 0.1 0
v 0.1 0.4 0
v 0.2 0.1 0
v 0.2 0.5 0
v 0.3 0 0
v 0.3 0.1 0
v 0.3 0.5 0
v 0.4 0.5 0
v 0.4 0.6 0
v 0.5 0.5 0
v 0.5 0.6 0
v -0.5 1.6 -0.2
v -0.5 1.8 -0.2
v -0.4 1.6 -0.2
v -0.4 1.7 -0.2
v -0.4 1.8 -0.2
v -0.4 1.9 -0.2
v -0.3 1.7 -0.2
v -0.3 1.8 -0.2
v 0.3 1.7 -0.2
v 0.3 1.8 -0.2
v 0.4 1.6 -0.2
v 0.4 1.7 -0.2
v 0.4 1.8 -0.2
v 0.4 1.9 -0.2
v 0.5 1.6 -0.2
v 0.5 1.8 -0.2
v -0.5 0.6 -0.3
v -0.5 1.6 -0.3
v -0.4 0.5 -0.3
v -0.4 0.6 -0.3
v -0.4 1.5 -0.3
v -0.4 1.6 -0.3
v -0.4 1.7 -0.3
v -0.3 0.5 -0.3
v -0.3 0.6 -0.3
v -0.3 1.5 -0.3
v -0.3 1.6 -0.3
v -0.3 1.7 -0.3
v -0.3 1.8 -0.3
v -0.2 1.6 -0.3
v -0.2 1.7 -0.3
v 0.2 1.6 -0.3
v 0.2 1.7 -0.3
v 0.3 0.5 -0.3
v 0.3 0.6 -0.3
v 0.3 1.5 -0.3
v 0.3 1.6 -0.3
v 0.3 1.7 -0.3
v 0.3 1.8 -0.3
v 0.4 0.5 -0.3
v 0.4 0.6 -0.3
v 0.4 1.5 -0.3
v 0.4 1.6 -0.3
v 0.4 1.7 -0.3
v 0.5 0.6 -0.3
v 0.5 1.6 -0.3
v -0.4 0.6 -0.4
v -0.4 1.5 -0.4
v -0.3 0.5 -0.4
v -0.3 0.6 -0.4
v -0.3 1.5 -0.4
v -0.3 1.6 -0.4
v -0.2 1.6 -0.4
v -0.2 1.7 -0.4
v 0.2 1.6 -0.4
v 0.2 1.7 -0.4
v 0.3 0.5 -0.4
v 0.3 0.6 -0.4
v 0.3 1.5 -0.4
v 0.3 1.6 -0.4
v 0.4 0.6 -0.4
v 0.4 1.5 -0.4
v -0.3 0 0.5
v -0.1 0 0.5
v 0.1 0 0.5
v 0.3 0 0.5
v -0.3 0 0
v -0.1 0 0
v 0.1 0 0
v 0.3 0 0
v -0.1 0.4 0.4
v 0.1 0.4 0.4
v -0.1 0.4 0
v 0.1 0.4 0
v -0.5 0.5 0.3
v -0.3 0.5 0.3
v 0.3 0.5 0.3
v 0.5 0.5 0.3
v -0.5 0.5 0
v -0.4 0.5 0
v -0.3 0.5 0
v -0.2 0.5 0
v 0.2 0.5 0
v 0.3 0.5 0
v 0.4 0.5 0
v 0.5 0.5 0
v -0.4 0.5 -0.3
v -0.3 0.5 -0.3
v 0.3 0.5 -0.3
v 0.4 0.5 -0.3
v -0.3 0.5 -0.4
v 0.3 0.5 -0.4
v -0.5 0.6 0
v -0.4 0.6 0
v 0.4 0.6 0
v 0.5 0.6 0
v -0.5 0.6 -0.3
v -0.4 0.6 -0.3
v -0.3 0.6 -0.3
v 0.3 0.6 -0.3
v 0.4 0.6 -0.3
v 0.5 0.6 -0.3
v -0.4 0.6 -0.4
v -0.3 0.6 -0.4
v 0.3 0.6 -0.4
v 0.4 0.6 -0.4
v -0.2 1.1 0.5
v 0.2 1.1 0.5
v -0.2 1.1 0.4
v -0.1 1.1 0.4
v 0.1 1.1 0.4
v 0.2 1.1 0.4
v -0.2 1.2 0.6
v 0 1.2 0.6
v 0.1 1.2 0.6
v 0.2 1.2 0.6
v -0.3 1.2 0.5
v -0.2 1.2 0.5
v 0 1.2 0.5
v 0.1 1.2 0.5
v 0.2 1.2 0.5
v 0.3 1.2 0.5
v -0.4 1.2 0.4
v -0.3 1.2 0.4
v -0.2 1.2 0.4
v 0.2 1.2 0.4
v 0.3 1.2 0.4
v 0.4 1.2 0.4
v -0.4 1.2 0.3
v -0.3 1.2 0.3
v -0.2 1.2 0.3
v 0.2 1.2 0.3
v 0.3 1.2 0.3
v 0.4 1.2 0.3
v -0.3 0.1 0.5
v -0.1 0.1 0.5
v 0.1 0.1 0.5
v 0.3 0.1 0.5
v -0.3 0.1 0.4
v -0.1 0.1 0.4
v 0.1 0.1 0.4
v 0.3 0.1 0.4
v -0.3 1.1 0.4
v -0.2 1.1 0.4
v 0.2 1.1 0.4
v 0.3 1.1 0.4
v -0.5 1.1 0.3
v -0.4 1.1 0.3
v -0.3 1.1 0.3
v -0.2 1.1 0.3
v 0.2 1.1 0.3
v 0.3 1.1 0.3
v 0.4 1.1 0.3
v 0.5 1.1 0.3
v -0.5 1.1 0.2
v -0.4 1.1 0.2
v 0.4 1.1 0.2
v 0.5 1.1 0.2
v -0.5 1.2 0.2
v -0.4 1.2 0.2
v 0.4 1.2 0.2
v 0.5 1.2 0.2
v -0.5 1.2 0
v -0.4 1.2 0
v 0.4 1.2 0
v 0.5 1.2 0
v -0.2 1.5 0.6
v 0 1.5 0.6
v 0.1 1.5 0.6
v 0.2 1.5 0.6
v -0.2 1.5 0.5
v 0 1.5 0.5
v 0.1 1.5 0.5
v 0.2 1.5 0.5
v -0.4 1.5 -0.3
v -0.3 1.5 -0.3
v 0.3 1.5 -0.3
v 0.4 1.5 -0.3
v -0.4 1.5 -0.4
v -0.3 1.5 -0.4
v 0.3 1.5 -0.4
v 0.4 1.5 -0.4
v -0.5 1.6 -0.2
v -0.4 1.6 -0.2
v 0.4 1.6 -0.2
v 0.5 1.6 -0.2
v -0.5 1.6 -0.3
v -0.4 1.6 -0.3
v -0.3 1.6 -0.3
v -0.2 1.6 -0.3
v 0.2 1.6 -0.3
v 0.3 1.6 -0.3
v 0.4 1.6 -0.3
v 0.5 1.6 -0.3
v -0.3 1.6 -0.4
v -0.2 1.6 -0.4
v 0.2 1.6 -0.4
v 0.3 1.6 -0.4
v -0.3 1.7 0.5
v 0.3 1.7 0.5
v -0.4 1.7 0.4
v -0.3 1.7 0.4
v -0.2 1.7 0.4
v 0.2 1.7 0.4
v 0.3 1.7 0.4
v 0.4 1.7 0.4
v -0.3 1.7 0.3
v -0.2 1.7 0.3
v 0.2 1.7 0.3
v 0.3 1.7 0.3
v -0.4 1.7 0
v -0.3 1.7 0
v 0.3 1.7 0
v 0.4 1.7 0
v -0.4 1.7 -0.2
v -0.3 1.7 -0.2
v 0.3 1.7 -0.2
v 0.4 1.7 -0.2
v -0.4 1.7 -0.3
v -0.3 1.7 -0.3
v -0.2 1.7 -0.3
v 0.2 1.7 -0.3
v 0.3 1.7 -0.3
v 0.4 1.7 -0.3
v -0.2 1.7 -0.4
v 0.2 1.7 -0.4
v -0.2 1.8 0.4
v 0.2 1.8 0.4
v -0.3 1.8 0.3
v -0.2 1.8 0.3
v 0.2 1.8 0.3
v 0.3 1.8 0.3
v -0.5 1.8 0
v -0.4 1.8 0
v -0.3 1.8 0
v 0.3 1.8 0
v 0.4 1.8 0
v 0.5 1.8 0
v -0.5 1.8 -0.2
v -0.4 1.8 -0.2
v -0.3 1.8 -0.2
v 0.3 1.8 -0.2
v 0.4 1.8 -0.2
v 0.5 1.8 -0.2
v -0.3 1.8 -0.3
v 0.3 1.8 -0.3
v -0.4 1.9 0
v 0.4 1.9 0
v -0.4 1.9 -0.2
v 0.4 1.9 -0.2

# faces
f 3/6/1 2/6/1 1/6/1
f 5/6/1 3/6/1 1/6/1
f 5/6/1 4/6/1 3/6/1
f 6/6/1 4/6/1 5/6/1
f 7/7/1 6/7/1 5/7/1
f 8/7/1 6/7/1 7/7/1
f 9/7/1 6/7/1 8/7/1
f 10/6/1 4/6/1 6/6/1
f 10/7/1 6/7/1 9/7/1
f 11/6/1 4/6/1 10/6/1
f 12/6/1 4/6/1 11/6/1
f 13/6/1 11/6/1 10/6/1
f 14/6/1 11/6/1 13/6/1
f 17/6/1 16/6/1 15/6/1
f 18/6/1 16/6/1 17/6/1
f 23/7/1 21/7/1 20/7/1
f 24/7/1 21/7/1 23/7/1
f 26/6/1 19/6/1 18/6/1
f 27/6/1 19/6/1 26/6/1
f 28/3/1 25/3/1 24/3/1
f 28/3/1 23/3/1 22/3/1
f 28/3/1 24/3/1 23/3/1
f 29/3/1 25/3/1 28/3/1
f 32/9/1 29/9/1 28/9/1
f 33/9/1 29/9/1 32/9/1
f 34/6/1 31/6/1 30/6/1
f 35/6/1 31/6/1 34/6/1
f 38/6/1 37/6/1 36/6/1
f 39/6/1 37/6/1 38/6/1
f 42/5/1 41/5/1 40/5/1
f 43/5/1 41/5/1 42/5/1
f 44/5/1 41/5/1 43/5/1
f 45/5/1 41/5/1 44/5/1
f 46/5/1 44/5/1 43/5/1
f 47/7/1 45/7/1 44/7/1
f 47/5/1 44/5/1 46/5/1
f 48/7/1 47/7/1 46/7/1
f 48/7/1 45/7/1 47/7/1
f 49/7/1 45/7/1 48/7/1
f 52/7/1 48/7/1 46/7/1
f 53/7/1 48/7/1 52/7/1
f 54/6/1 51/6/1 50/6/1
f 55/6/1 51/6/1 54/6/1
f 56/6/1 53/6/1 52/6/1
f 57/6/1 56/6/1 52/6/1
f 58/6/1 56/6/1 57/6/1
f 59/7/1 58/7/1 57/7/1
f 60/7/1 58/7/1 59/7/1
f 61/4/1 60/4/1 59/4/1
f 62/4/1 60/4/1 61/4/1
f 65/8/1 64/8/1 63/8/1
f 66/8/1 64/8/1 65/8/1
f 67/1/1 66/1/1 65/1/1
f 68/1/1 66/1/1 67/1/1
f 69/8/1 68/8/1 67/8/1
f 70/8/1 68/8/1 69/8/1
f 73/3/1 70/3/1 69/3/1
f 74/3/1 70/3/1 73/3/1
f 75/6/1 72/6/1 71/6/1
f 76/6/1 72/6/1 75/6/1
f 77/9/1 74/9/1 73/9/1
f 78/9/1 74/9/1 77/9/1
f 83/9/1 80/9/1 79/9/1
f 84/9/1 80/9/1 83/9/1
f 85/6/1 82/6/1 81/6/1
f 86/6/1 82/6/1 85/6/1
f 91/3/1 88/3/1 87/3/1
f 92/4/1 89/4/1 88/4/1
f 92/3/1 88/3/1 91/3/1
f 93/4/1 89/4/1 92/4/1
f 94/8/1 91/8/1 90/8/1
f 95/8/1 94/8/1 90/8/1
f 96/8/1 95/8/1 90/8/1
f 97/8/1 95/8/1 96/8/1
f 102/6/1 99/6/1 98/6/1
f 103/6/1 99/6/1 102/6/1
f 104/9/1 101/9/1 100/9/1
f 105/9/1 101/9/1 104/9/1
f 108/5/1 107/5/1 106/5/1
f 109/5/1 107/5/1 108/5/1
f 110/5/1 107/5/1 109/5/1
f 111/5/1 107/5/1 110/5/1
f 112/5/1 110/5/1 109/5/1
f 113/4/1 111/4/1 110/4/1
f 113/5/1 110/5/1 112/5/1
f 114/4/1 113/4/1 112/4/1
f 115/4/1 111/4/1 113/4/1
f 115/4/1 113/4/1 114/4/1
f 116/5/2 117/5/2 118/5/2
f 118/5/2 117/5/2 119/5/2
f 119/5/2 117/5/2 120/5/2
f 120/5/2 117/5/2 121/5/2
f 119/5/2 120/5/2 122/5/2
f 120/4/2 121/4/2 123/4/2
f 122/5/2 120/5/2 123/5/2
f 122/4/2 123/4/2 124/4/2
f 123/4/2 121/4/2 125/4/2
f 124/4/2 123/4/2 125/4/2
f 126/3/2 127/3/2 130/3/2
f 127/4/2 128/4/2 131/4/2
f 130/3/2 127/3/2 131/3/2
f 131/4/2 128/4/2 132/4/2
f 129/8/2 130/8/2 133/8/2
f 133/8/2 130/8/2 134/8/2
f 133/3/2 134/3/2 135/3/2
f 135/3/2 134/3/2 136/3/2
f 135/8/2 136/8/2 137/8/2
f 137/8/2 136/8/2 138/8/2
f 139/6/2 140/6/2 143/6/2
f 143/6/2 140/6/2 144/6/2
f 141/9/2 142/9/2 145/9/2
f 145/9/2 142/9/2 146/9/2
f 147/5/2 148/5/2 149/5/2
f 149/5/2 148/5/2 150/5/2
f 150/5/2 148/5/2 151/5/2
f 151/5/2 148/5/2 152/5/2
f 150/5/2 151/5/2 153/5/2
f 151/7/2 152/7/2 154/7/2
f 153/5/2 151/5/2 154/5/2
f 153/7/2 154/7/2 155/7/2
f 154/7/2 152/7/2 155/7/2
f 155/7/2 152/7/2 156/7/2
f 153/7/2 155/7/2 159/7/2
f 159/7/2 155/7/2 160/7/2
f 157/6/2 158/6/2 161/6/2
f 161/6/2 158/6/2 162/6/2
f 159/6/2 160/6/2 163/6/2
f 159/6/2 163/6/2 164/6/2
f 164/6/2 163/6/2 165/6/2
f 164/7/2 165/7/2 166/7/2
f 166/7/2 165/7/2 167/7/2
f 166/4/2 167/4/2 168/4/2
f 168/4/2 167/4/2 169/4/2
f 170/3/2 171/3/2 174/3/2
f 174/3/2 171/3/2 175/3/2
f 172/6/2 173/6/2 176/6/2
f 176/6/2 173/6/2 177/6/2
f 174/9/2 175/9/2 178/9/2
f 178/9/2 175/9/2 179/9/2
f 180/9/2 181/9/2 184/9/2
f 184/9/2 181/9/2 185/9/2
f 182/6/2 183/6/2 186/6/2
f 186/6/2 183/6/2 187/6/2
f 188/6/2 189/6/2 190/6/2
f 190/6/2 189/6/2 191/6/2
f 193/7/2 194/7/2 196/7/2
f 196/7/2 194/7/2 197/7/2
f 191/6/2 192/6/2 199/6/2
f 199/6/2 192/6/2 200/6/2
f 197/3/2 198/3/2 201/3/2
f 195/3/2 196/3/2 201/3/2
f 196/3/2 197/3/2 201/3/2
f 201/3/2 198/3/2 202/3/2
f 201/9/2 202/9/2 205/9/2
f 205/9/2 202/9/2 206/9/2
f 203/6/2 204/6/2 207/6/2
f 207/6/2 204/6/2 208/6/2
f 209/6/2 210/6/2 211/6/2
f 211/6/2 210/6/2 212/6/2
f 213/6/2 214/6/2 215/6/2
f 213/6/2 215/6/2 217/6/2
f 215/6/2 216/6/2 217/6/2
f 217/6/2 216/6/2 218/6/2
f 217/7/2 218/7/2 219/7/2
f 219/7/2 218/7/2 220/7/2
f 220/7/2 218/7/2 221/7/2
f 218/6/2 216/6/2 222/6/2
f 221/7/2 218/7/2 222/7/2
f 222/6/2 216/6/2 223/6/2
f 223/6/2 216/6/2 224/6/2
f 222/6/2 223/6/2 225/6/2
f 225/6/2 223/6/2 226/6/2
f 229/8/3 228/8/3 227/8/3
f 230/8/3 228/8/3 229/8/3
f 231/8/3 228/8/3 230/8/3
f 232/8/3 228/8/3 231/8/3
f 233/3/3 230/3/3 229/3/3
f 234/8/3 231/8/3 230/8/3
f 234/3/3 230/3/3 233/3/3
f 235/3/3 232/3/3 231/3/3
f 235/8/3 231/8/3 234/8/3
f 236/3/3 232/3/3 235/3/3
f 237/8/3 234/8/3 233/8/3
f 238/3/3 235/3/3 234/3/3
f 238/8/3 234/8/3 237/8/3
f 239/8/3 236/8/3 235/8/3
f 239/3/3 235/3/3 238/3/3
f 240/8/3 236/8/3 239/8/3
f 250/8/3 244/8/3 243/8/3
f 251/1/3 245/1/3 244/1/3
f 251/8/3 244/8/3 250/8/3
f 252/8/3 246/8/3 245/8/3
f 252/1/3 245/1/3 251/1/3
f 253/3/3 247/3/3 246/3/3
f 253/8/3 246/8/3 252/8/3
f 254/5/3 242/5/3 241/5/3
f 255/5/3 242/5/3 254/5/3
f 256/3/3 250/3/3 249/3/3
f 257/3/3 247/3/3 253/3/3
f 260/3/3 256/3/3 249/3/3
f 261/3/3 247/3/3 257/3/3
f 262/3/3 260/3/3 249/3/3
f 263/3/3 260/3/3 262/3/3
f 266/3/3 247/3/3 261/3/3
f 267/5/3 259/5/3 258/5/3
f 268/5/3 259/5/3 267/5/3
f 269/3/3 266/3/3 265/3/3
f 269/3/3 265/3/3 264/3/3
f 269/3/3 264/3/3 263/3/3
f 270/9/3 248/9/3 247/9/3
f 270/3/3 266/3/3 269/3/3
f 270/3/3 247/3/3 266/3/3
f 271/9/3 248/9/3 270/9/3
f 281/3/3 273/3/3 272/3/3
f 282/3/3 273/3/3 281/3/3
f 283/3/3 273/3/3 282/3/3
f 284/3/3 273/3/3 283/3/3
f 285/9/3 274/9/3 273/9/3
f 285/3/3 273/3/3 284/3/3
f 286/9/3 274/9/3 285/9/3
f 287/5/3 276/5/3 275/5/3
f 287/7/3 277/7/3 276/7/3
f 288/6/3 278/6/3 277/6/3
f 288/7/3 277/7/3 287/7/3
f 289/6/3 278/6/3 288/6/3
f 290/7/3 279/7/3 278/7/3
f 290/6/3 278/6/3 289/6/3
f 291/4/3 280/4/3 279/4/3
f 291/7/3 279/7/3 290/7/3
f 292/4/3 280/4/3 291/4/3
f 295/5/3 287/5/3 275/5/3
f 296/4/3 288/4/3 287/4/3
f 296/5/3 287/5/3 295/5/3
f 297/4/3 288/4/3 296/4/3
f 298/4/3 288/4/3 297/4/3
f 299/5/3 289/5/3 288/5/3
f 299/4/3 288/4/3 298/4/3
f 300/4/3 290/4/3 289/4/3
f 300/3/3 291/3/3 290/3/3
f 301/7/3 292/7/3 291/7/3
f 301/3/3 291/3/3 300/3/3
f 302/7/3 292/7/3 301/7/3
f 303/4/3 300/4/3 289/4/3
f 303/4/3 301/4/3 300/4/3
f 304/6/3 302/6/3 301/6/3
f 304/4/3 301/4/3 303/4/3
f 307/4/3 298/4/3 297/4/3
f 308/7/3 299/7/3 298/7/3
f 308/4/3 298/4/3 307/4/3
f 309/5/3 289/5/3 299/5/3
f 309/7/3 299/7/3 308/7/3
f 310/4/3 303/4/3 289/4/3
f 310/2/3 304/2/3 303/2/3
f 311/6/3 302/6/3 304/6/3
f 311/2/3 304/2/3 310/2/3
f 312/6/3 302/6/3 311/6/3
f 313/4/3 308/4/3 307/4/3
f 313/5/3 306/5/3 305/5/3
f 313/4/3 307/4/3 306/4/3
f 313/4/3 309/4/3 308/4/3
f 314/5/3 289/5/3 309/5/3
f 314/4/3 309/4/3 313/4/3
f 315/4/3 311/4/3 310/4/3
f 315/5/3 289/5/3 314/5/3
f 315/4/3 310/4/3 289/4/3
f 316/4/3 311/4/3 315/4/3
f 317/7/3 312/7/3 311/7/3
f 317/4/3 311/4/3 316/4/3
f 318/7/3 312/7/3 317/7/3
f 319/9/3 294/9/3 293/9/3
f 320/9/3 294/9/3 319/9/3
f 321/5/3 313/5/3 305/5/3
f 322/7/3 314/7/3 313/7/3
f 322/5/3 313/5/3 321/5/3
f 323/6/3 316/6/3 315/6/3
f 323/7/3 314/7/3 322/7/3
f 323/6/3 315/6/3 314/6/3
f 324/7/3 317/7/3 316/7/3
f 324/6/3 316/6/3 323/6/3
f 325/4/3 318/4/3 317/4/3
f 325/7/3 317/7/3 324/7/3
f 326/4/3 318/4/3 325/4/3
f 330/3/3 328/3/3 327/3/3
f 331/9/3 329/9/3 328/9/3
f 331/3/3 328/3/3 330/3/3
f 332/9/3 329/9/3 331/9/3
f 336/6/3 334/6/3 333/6/3
f 336/7/3 335/7/3 334/7/3
f 337/7/3 335/7/3 336/7/3
f 339/6/3 336/6/3 333/6/3
f 340/6/3 336/6/3 339/6/3
f 341/4/3 337/4/3 336/4/3
f 341/6/3 336/6/3 340/6/3
f 342/4/3 337/4/3 341/4/3
f 343/4/3 337/4/3 342/4/3
f 344/7/3 338/7/3 337/7/3
f 344/4/3 337/4/3 343/4/3
f 345/7/3 338/7/3 344/7/3
f 348/4/3 345/4/3 344/4/3
f 349/4/3 345/4/3 348/4/3
f 350/9/3 347/9/3 346/9/3
f 351/9/3 347/9/3 350/9/3
f 361/4/3 353/4/3 352/4/3
f 362/4/3 353/4/3 361/4/3
f 363/9/3 355/9/3 354/9/3
f 364/9/3 355/9/3 363/9/3
f 365/4/3 360/4/3 359/4/3
f 365/6/3 357/6/3 356/6/3
f 365/6/3 358/6/3 357/6/3
f 365/4/3 361/4/3 360/4/3
f 365/4/3 359/4/3 358/4/3
f 366/7/3 362/7/3 361/7/3
f 366/4/3 361/4/3 365/4/3
f 367/7/3 362/7/3 366/7/3
f 368/6/3 365/6/3 356/6/3
f 369/7/3 366/7/3 365/7/3
f 369/6/3 365/6/3 368/6/3
f 370/7/3 366/7/3 369/7/3
f 373/7/3 372/7/3 371/7/3
f 374/7/3 372/7/3 373/7/3
f 377/7/3 376/7/3 375/7/3
f 378/7/3 376/7/3 377/7/3
f 381/6/3 380/6/3 379/6/3
f 382/6/3 380/6/3 381/6/3
f 383/6/3 380/6/3 382/6/3
f 384/6/3 380/6/3 383/6/3
f 386/6/3 385/6/3 384/6/3
f 386/6/3 384/6/3 383/6/3
f 387/6/3 385/6/3 386/6/3
f 389/6/3 385/6/3 387/6/3
f 392/6/3 389/6/3 388/6/3
f 393/6/3 385/6/3 389/6/3
f 393/6/3 389/6/3 392/6/3
f 394/6/3 385/6/3 393/6/3
f 395/6/3 392/6/3 391/6/3
f 395/6/3 391/6/3 390/6/3
f 395/6/3 393/6/3 392/6/3
f 396/6/3 393/6/3 395/6/3
f 397/6/4 398/6/4 399/6/4
f 399/6/4 398/6/4 400/6/4
f 401/5/4 402/5/4 404/5/4
f 402/7/4 403/7/4 404/7/4
f 404/7/4 403/7/4 405/7/4
f 401/5/4 404/5/4 406/5/4
f 404/4/4 405/4/4 407/4/4
f 406/5/4 404/5/4 407/5/4
f 407/4/4 405/4/4 408/4/4
f 408/4/4 405/4/4 411/4/4
f 409/5/4 410/5/4 412/5/4
f 410/4/4 411/4/4 412/4/4
f 411/4/4 405/4/4 413/4/4
f 412/4/4 411/4/4 413/4/4
f 409/5/4 412/5/4 414/5/4
f 412/7/4 413/7/4 415/7/4
f 414/5/4 412/5/4 415/5/4
f 415/7/4 413/7/4 416/7/4
f 417/6/4 418/6/4 419/6/4
f 419/6/4 418/6/4 420/6/4
f 421/6/4 422/6/4 423/6/4
f 423/6/4 422/6/4 424/6/4
f 424/6/4 422/6/4 425/6/4
f 425/6/4 426/6/4 427/6/4
f 424/6/4 425/6/4 427/6/4
f 427/6/4 426/6/4 428/6/4
f 428/6/4 426/6/4 430/6/4
f 429/6/4 430/6/4 432/6/4
f 430/6/4 426/6/4 433/6/4
f 432/6/4 430/6/4 433/6/4
f 433/6/4 426/6/4 434/6/4
f 431/6/4 432/6/4 435/6/4
f 432/6/4 433/6/4 435/6/4
f 435/6/4 433/6/4 436/6/4
f 437/6/4 438/6/4 440/6/4
f 440/6/4 438/6/4 441/6/4
f 441/6/4 438/6/4 442/6/4
f 439/6/4 440/6/4 444/6/4
f 444/6/4 440/6/4 445/6/4
f 442/6/4 443/6/4 446/6/4
f 441/6/4 442/6/4 446/6/4
f 446/6/4 443/6/4 447/6/4
f 447/6/4 443/6/4 448/6/4
f 448/6/4 449/6/4 450/6/4
f 447/6/4 448/6/4 450/6/4
f 450/6/4 449/6/4 451/6/4
f 451/6/4 449/6/4 453/6/4
f 452/6/4 453/6/4 457/6/4
f 453/6/4 449/6/4 458/6/4
f 457/6/4 453/6/4 458/6/4
f 458/6/4 449/6/4 459/6/4
f 454/6/4 455/6/4 460/6/4
f 460/6/4 455/6/4 461/6/4
f 456/6/4 457/6/4 462/6/4
f 457/6/4 458/6/4 462/6/4
f 462/6/4 458/6/4 463/6/4
f 463/6/4 458/6/4 464/6/4
f 461/6/4 462/6/4 465/6/4
f 462/6/4 463/6/4 465/6/4
f 465/6/4 463/6/4 466/6/4
f 467/6/4 468/6/4 470/6/4
f 470/6/4 468/6/4 471/6/4
f 469/6/4 470/6/4 473/6/4
f 471/6/4 472/6/4 473/6/4
f 470/6/4 471/6/4 473/6/4
f 469/6/4 473/6/4 475/6/4
f 473/6/4 474/6/4 475/6/4
f 475/6/4 474/6/4 476/6/4
f 469/6/4 475/6/4 477/6/4
f 477/6/4 475/6/4 478/6/4
f 478/6/4 475/6/4 479/6/4
f 479/6/4 475/6/4 480/6/4
f 478/6/4 479/6/4 481/6/4
f 481/6/4 479/6/4 482/6/4
f 487/5/5 484/5/5 483/5/5
f 488/5/5 484/5/5 487/5/5
f 489/5/5 486/5/5 485/5/5
f 490/5/5 486/5/5 489/5/5
f 493/4/5 492/4/5 491/4/5
f 494/4/5 492/4/5 493/4/5
f 499/6/5 496/6/5 495/6/5
f 500/6/5 496/6/5 499/6/5
f 501/6/5 496/6/5 500/6/5
f 504/6/5 498/6/5 497/6/5
f 505/6/5 498/6/5 504/6/5
f 506/6/5 498/6/5 505/6/5
f 507/6/5 503/6/5 502/6/5
f 507/6/5 505/6/5 504/6/5
f 507/6/5 504/6/5 503/6/5
f 507/6/5 501/6/5 500/6/5
f 507/6/5 502/6/5 501/6/5
f 508/6/5 505/6/5 507/6/5
f 509/6/5 505/6/5 508/6/5
f 510/6/5 505/6/5 509/6/5
f 511/6/5 509/6/5 508/6/5
f 512/6/5 509/6/5 511/6/5
f 517/6/5 514/6/5 513/6/5
f 518/6/5 514/6/5 517/6/5
f 521/6/5 516/6/5 515/6/5
f 522/6/5 516/6/5 521/6/5
f 523/6/5 519/6/5 518/6/5
f 524/6/5 519/6/5 523/6/5
f 525/6/5 521/6/5 520/6/5
f 526/6/5 521/6/5 525/6/5
f 529/3/5 528/3/5 527/3/5
f 530/3/5 528/3/5 529/3/5
f 531/3/5 528/3/5 530/3/5
f 532/3/5 528/3/5 531/3/5
f 538/8/5 534/8/5 533/8/5
f 539/3/5 535/3/5 534/3/5
f 539/8/5 534/8/5 538/8/5
f 540/8/5 536/8/5 535/8/5
f 540/3/5 535/3/5 539/3/5
f 541/8/5 536/8/5 540/8/5
f 544/8/5 538/8/5 537/8/5
f 545/8/5 538/8/5 544/8/5
f 546/3/5 542/3/5 541/3/5
f 547/3/5 542/3/5 546/3/5
f 549/3/5 545/3/5 544/3/5
f 549/3/5 544/3/5 543/3/5
f 550/3/5 545/3/5 549/3/5
f 551/3/5 545/3/5 550/3/5
f 552/3/5 548/3/5 547/3/5
f 552/3/5 547/3/5 546/3/5
f 553/3/5 548/3/5 552/3/5
f 554/3/5 548/3/5 553/3/5
f 555/5/6 556/5/6 559/5/6
f 559/5/6 556/5/6 560/5/6
f 557/5/6 558/5/6 561/5/6
f 561/5/6 558/5/6 562/5/6
f 563/4/6 564/4/6 569/4/6
f 569/4/6 564/4/6 570/4/6
f 565/4/6 566/4/6 571/4/6
f 571/4/6 566/4/6 572/4/6
f 567/7/6 568/7/6 575/7/6
f 575/7/6 568/7/6 576/7/6
f 573/7/6 574/7/6 577/7/6
f 577/7/6 574/7/6 578/7/6
f 579/7/6 580/7/6 583/7/6
f 583/7/6 580/7/6 584/7/6
f 581/7/6 582/7/6 585/7/6
f 585/7/6 582/7/6 586/7/6
f 587/8/6 588/8/6 591/8/6
f 588/3/6 589/3/6 592/3/6
f 591/8/6 588/8/6 592/8/6
f 589/8/6 590/8/6 593/8/6
f 592/3/6 589/3/6 593/3/6
f 593/8/6 590/8/6 594/8/6
f 595/6/6 596/6/6 599/6/6
f 599/6/6 596/6/6 600/6/6
f 597/6/6 598/6/6 601/6/6
f 601/6/6 598/6/6 602/6/6
f 603/6/6 604/6/6 607/6/6
f 607/6/6 604/6/6 608/6/6
f 605/6/6 606/6/6 613/6/6
f 613/6/6 606/6/6 614/6/6
f 609/6/6 610/6/6 615/6/6
f 615/6/6 610/6/6 616/6/6
f 611/6/6 612/6/6 617/6/6
f 617/6/6 612/6/6 618/6/6
f 619/9/6 620/9/6 622/9/6
f 622/9/6 620/9/6 623/9/6
f 623/9/6 620/9/6 624/9/6
f 624/9/6 620/9/6 625/9/6
f 621/9/6 622/9/6 627/9/6
f 622/9/6 623/9/6 627/9/6
f 627/9/6 623/9/6 628/9/6
f 625/9/6 626/9/6 629/9/6
f 624/9/6 625/9/6 629/9/6
f 629/9/6 626/9/6 630/9/6
f 621/9/6 627/9/6 631/9/6
f 631/9/6 627/9/6 632/9/6
f 630/9/6 626/9/6 633/9/6
f 633/9/6 626/9/6 634/9/6
f 635/6/6 636/6/6 639/6/6
f 639/6/6 636/6/6 640/6/6
f 637/6/6 638/6/6 643/6/6
f 643/6/6 638/6/6 644/6/6
f 641/6/6 642/6/6 645/6/6
f 645/6/6 642/6/6 646/6/6
f 647/9/6 648/9/6 650/9/6
f 650/9/6 648/9/6 651/9/6
f 649/9/6 650/9/6 655/9/6
f 650/9/6 651/9/6 655/9/6
f 651/9/6 652/9/6 655/9/6
f 655/9/6 652/9/6 656/9/6
f 653/6/6 654/6/6 659/6/6
f 659/6/6 654/6/6 660/6/6
f 657/6/6 658/6/6 663/6/6
f 663/6/6 658/6/6 664/6/6
f 661/6/6 662/6/6 665/6/6
f 665/6/6 662/6/6 666/6/6
f 667/6/6 668/6/6 669/6/6
f 669/6/6 668/6/6 670/6/6
