# MagicaVoxel @ Ephtracy

# group
o 

# material
mtllib yellow_astronaut.vox.mtl
usemtl palette

# normals
vn -1 0 0
vn 1 0 0
vn 0 0 1
vn 0 0 -1
vn 0 -1 0
vn 0 1 0

# texcoords
vt 0.0175781 0.5
vt 0.0449219 0.5
vt 0.0527344 0.5
vt 0.0566406 0.5
vt 0.0917969 0.5
vt 0.0957031 0.5
vt 0.107422 0.5

# verts
v -0.5 0.5 0.3
v -0.5 0.5 0
v -0.5 0.6 0
v -0.5 0.6 -0.3
v -0.5 0.7 0.3
v -0.5 0.7 0
v -0.5 1.1 0.3
v -0.5 1.1 0.2
v -0.5 1.2 0.2
v -0.5 1.2 0
v -0.5 1.6 -0.2
v -0.5 1.6 -0.3
v -0.5 1.8 0
v -0.5 1.8 -0.2
v -0.4 0.5 0
v -0.4 0.5 -0.3
v -0.4 0.6 0
v -0.4 0.6 -0.3
v -0.4 0.6 -0.4
v -0.4 1.1 0.3
v -0.4 1.1 0.2
v -0.4 1.2 0.4
v -0.4 1.2 0.3
v -0.4 1.2 0.2
v -0.4 1.2 0
v -0.4 1.5 -0.3
v -0.4 1.5 -0.4
v -0.4 1.6 0.4
v -0.4 1.6 0
v -0.4 1.6 -0.2
v -0.4 1.6 -0.3
v -0.4 1.7 -0.2
v -0.4 1.7 -0.3
v -0.4 1.8 0
v -0.4 1.8 -0.2
v -0.4 1.9 0
v -0.4 1.9 -0.2
v -0.3 0 0.5
v -0.3 0 0
v -0.3 0.1 0.5
v -0.3 0.1 0.4
v -0.3 0.1 0.3
v -0.3 0.1 0
v -0.3 0.2 0.4
v -0.3 0.2 0.3
v -0.3 0.5 0.3
v -0.3 0.5 0
v -0.3 0.5 -0.3
v -0.3 0.5 -0.4
v -0.3 0.6 0.4
v -0.3 0.6 0.3
v -0.3 0.6 -0.3
v -0.3 0.6 -0.4
v -0.3 0.7 0.3
v -0.3 0.9 0.4
v -0.3 0.9 0.3
v -0.3 1 0.4
v -0.3 1 0.3
v -0.3 1.1 0.4
v -0.3 1.1 0.3
v -0.3 1.2 0.5
v -0.3 1.2 0.4
v -0.3 1.5 0.5
v -0.3 1.5 0.4
v -0.3 1.5 -0.3
v -0.3 1.5 -0.4
v -0.3 1.6 0.5
v -0.3 1.6 0.4
v -0.3 1.6 0
v -0.3 1.6 -0.3
v -0.3 1.6 -0.4
v -0.3 1.7 0.4
v -0.3 1.7 0
v -0.3 1.7 -0.2
v -0.3 1.7 -0.3
v -0.3 1.8 -0.2
v -0.3 1.8 -0.3
v -0.2 1.1 0.5
v -0.2 1.1 0.4
v -0.2 1.1 0.3
v -0.2 1.2 0.6
v -0.2 1.2 0.5
v -0.2 1.2 0.4
v -0.2 1.2 0.3
v -0.2 1.5 0.6
v -0.2 1.5 0.5
v -0.2 1.6 -0.3
v -0.2 1.6 -0.4
v -0.2 1.7 0.3
v -0.2 1.7 0
v -0.2 1.7 -0.3
v -0.2 1.7 -0.4
v -0.2 1.8 0.3
v -0.2 1.8 0
v 0.1 0 0.5
v 0.1 0 0
v 0.1 0.1 0.5
v 0.1 0.1 0.4
v 0.1 0.1 0.1
v 0.1 0.1 0
v 0.1 0.2 0.4
v 0.1 0.2 0.1
v 0.1 0.4 0.4
v 0.1 0.4 0
v -0.1 0 0.5
v -0.1 0 0
v -0.1 0.1 0.5
v -0.1 0.1 0.4
v -0.1 0.1 0.1
v -0.1 0.1 0
v -0.1 0.2 0.4
v -0.1 0.2 0.1
v -0.1 0.4 0.4
v -0.1 0.4 0
v 0.2 1.1 0.5
v 0.2 1.1 0.4
v 0.2 1.1 0.3
v 0.2 1.2 0.6
v 0.2 1.2 0.5
v 0.2 1.2 0.4
v 0.2 1.2 0.3
v 0.2 1.3 0.6
v 0.2 1.3 0.5
v 0.2 1.4 0.6
v 0.2 1.4 0.5
v 0.2 1.5 0.6
v 0.2 1.5 0.5
v 0.2 1.6 -0.3
v 0.2 1.6 -0.4
v 0.2 1.7 0.3
v 0.2 1.7 0
v 0.2 1.7 -0.3
v 0.2 1.7 -0.4
v 0.2 1.8 0.3
v 0.2 1.8 0
v 0.3 0 0.5
v 0.3 0 0
v 0.3 0.1 0.5
v 0.3 0.1 0.4
v 0.3 0.1 0.3
v 0.3 0.1 0
v 0.3 0.2 0.4
v 0.3 0.2 0.3
v 0.3 0.5 0.3
v 0.3 0.5 0
v 0.3 0.5 -0.3
v 0.3 0.5 -0.4
v 0.3 0.6 0.4
v 0.3 0.6 0.3
v 0.3 0.6 -0.3
v 0.3 0.6 -0.4
v 0.3 0.7 0.3
v 0.3 0.9 0.4
v 0.3 0.9 0.3
v 0.3 1 0.4
v 0.3 1 0.3
v 0.3 1.1 0.4
v 0.3 1.1 0.3
v 0.3 1.2 0.5
v 0.3 1.2 0.4
v 0.3 1.5 0.5
v 0.3 1.5 0.4
v 0.3 1.5 -0.3
v 0.3 1.5 -0.4
v 0.3 1.6 0.5
v 0.3 1.6 0.4
v 0.3 1.6 0
v 0.3 1.6 -0.3
v 0.3 1.6 -0.4
v 0.3 1.7 0.4
v 0.3 1.7 0
v 0.3 1.7 -0.2
v 0.3 1.7 -0.3
v 0.3 1.8 -0.2
v 0.3 1.8 -0.3
v 0.4 0.5 0
v 0.4 0.5 -0.3
v 0.4 0.6 0
v 0.4 0.6 -0.3
v 0.4 0.6 -0.4
v 0.4 1.1 0.3
v 0.4 1.1 0.2
v 0.4 1.2 0.4
v 0.4 1.2 0.3
v 0.4 1.2 0.2
v 0.4 1.2 0
v 0.4 1.5 -0.3
v 0.4 1.5 -0.4
v 0.4 1.6 0.4
v 0.4 1.6 0
v 0.4 1.6 -0.2
v 0.4 1.6 -0.3
v 0.4 1.7 -0.2
v 0.4 1.7 -0.3
v 0.4 1.8 0
v 0.4 1.8 -0.2
v 0.4 1.9 0
v 0.4 1.9 -0.2
v 0.5 0.5 0.3
v 0.5 0.5 0
v 0.5 0.6 0
v 0.5 0.6 -0.3
v 0.5 0.7 0.3
v 0.5 0.7 0
v 0.5 1.1 0.3
v 0.5 1.1 0.2
v 0.5 1.2 0.2
v 0.5 1.2 0
v 0.5 1.6 -0.2
v 0.5 1.6 -0.3
v 0.5 1.8 0
v 0.5 1.8 -0.2
v -0.2 1.2 0.6
v -0.2 1.5 0.6
v 0 1.4 0.6
v 0 1.5 0.6
v 0.1 1.3 0.6
v 0.1 1.4 0.6
v 0.1 1.5 0.6
v 0.2 1.2 0.6
v 0.2 1.3 0.6
v 0.2 1.4 0.6
v 0.2 1.5 0.6
v -0.3 0 0.5
v -0.3 0.1 0.5
v -0.3 1.2 0.5
v -0.3 1.5 0.5
v -0.3 1.6 0.5
v -0.2 1.1 0.5
v -0.2 1.2 0.5
v -0.2 1.5 0.5
v -0.2 1.6 0.5
v -0.1 0 0.5
v -0.1 0.1 0.5
v 0 1.5 0.5
v 0.1 0 0.5
v 0.1 0.1 0.5
v 0.1 1.5 0.5
v 0.2 1.1 0.5
v 0.2 1.2 0.5
v 0.2 1.3 0.5
v 0.2 1.4 0.5
v 0.2 1.5 0.5
v 0.2 1.6 0.5
v 0.3 0 0.5
v 0.3 0.1 0.5
v 0.3 1.2 0.5
v 0.3 1.5 0.5
v 0.3 1.6 0.5
v -0.4 1.2 0.4
v -0.4 1.6 0.4
v -0.3 0.1 0.4
v -0.3 0.2 0.4
v -0.3 0.6 0.4
v -0.3 0.9 0.4
v -0.3 1 0.4
v -0.3 1.1 0.4
v -0.3 1.2 0.4
v -0.3 1.5 0.4
v -0.3 1.6 0.4
v -0.3 1.7 0.4
v -0.2 0.2 0.4
v -0.2 0.6 0.4
v -0.2 0.7 0.4
v -0.2 0.9 0.4
v -0.2 1 0.4
v -0.2 1.1 0.4
v -0.2 1.6 0.4
v -0.1 0.1 0.4
v -0.1 0.2 0.4
v -0.1 0.4 0.4
v -0.1 0.5 0.4
v -0.1 0.6 0.4
v -0.1 0.9 0.4
v -0.1 1 0.4
v -0.1 1.1 0.4
v 0 0.9 0.4
v 0 1 0.4
v 0.1 0.1 0.4
v 0.1 0.2 0.4
v 0.1 0.4 0.4
v 0.1 0.5 0.4
v 0.1 0.6 0.4
v 0.1 0.9 0.4
v 0.1 1 0.4
v 0.1 1.1 0.4
v 0.2 0.2 0.4
v 0.2 0.6 0.4
v 0.2 0.7 0.4
v 0.2 0.9 0.4
v 0.2 1 0.4
v 0.2 1.1 0.4
v 0.2 1.6 0.4
v 0.3 0.1 0.4
v 0.3 0.2 0.4
v 0.3 0.6 0.4
v 0.3 0.9 0.4
v 0.3 1 0.4
v 0.3 1.1 0.4
v 0.3 1.2 0.4
v 0.3 1.5 0.4
v 0.3 1.6 0.4
v 0.3 1.7 0.4
v 0.4 1.2 0.4
v 0.4 1.6 0.4
v -0.5 0.5 0.3
v -0.5 0.7 0.3
v -0.5 1.1 0.3
v -0.4 0.7 0.3
v -0.4 1.1 0.3
v -0.4 1.2 0.3
v -0.3 0.5 0.3
v -0.3 0.6 0.3
v -0.3 0.7 0.3
v -0.3 0.9 0.3
v -0.3 1 0.3
v -0.3 1.1 0.3
v -0.3 1.2 0.3
v -0.2 1.1 0.3
v -0.2 1.2 0.3
v -0.2 1.7 0.3
v -0.2 1.8 0.3
v 0.2 1.1 0.3
v 0.2 1.2 0.3
v 0.2 1.7 0.3
v 0.2 1.8 0.3
v 0.3 0.5 0.3
v 0.3 0.6 0.3
v 0.3 0.7 0.3
v 0.3 0.9 0.3
v 0.3 1 0.3
v 0.3 1.1 0.3
v 0.3 1.2 0.3
v 0.4 0.7 0.3
v 0.4 1.1 0.3
v 0.4 1.2 0.3
v 0.5 0.5 0.3
v 0.5 0.7 0.3
v 0.5 1.1 0.3
v -0.5 1.1 0.2
v -0.5 1.2 0.2
v -0.4 1.1 0.2
v -0.4 1.2 0.2
v 0.4 1.1 0.2
v 0.4 1.2 0.2
v 0.5 1.1 0.2
v 0.5 1.2 0.2
v -0.5 1.2 0
v -0.5 1.8 0
v -0.4 1.2 0
v -0.4 1.6 0
v -0.4 1.8 0
v -0.4 1.9 0
v -0.3 1.6 0
v -0.3 1.7 0
v -0.2 1.7 0
v -0.2 1.8 0
v 0.2 1.7 0
v 0.2 1.8 0
v 0.3 1.6 0
v 0.3 1.7 0
v 0.4 1.2 0
v 0.4 1.6 0
v 0.4 1.8 0
v 0.4 1.9 0
v 0.5 1.2 0
v 0.5 1.8 0
v -0.5 0.5 0
v -0.5 0.6 0
v -0.4 0.5 0
v -0.4 0.6 0
v -0.3 0 0
v -0.3 0.1 0
v -0.3 0.5 0
v -0.2 0.1 0
v -0.2 0.5 0
v -0.1 0 0
v -0.1 0.1 0
v -0.1 0.4 0
v 0.1 0 0
v 0.1 0.1 0
v 0.1 0.4 0
v 0.2 0.1 0
v 0.2 0.5 0
v 0.3 0 0
v 0.3 0.1 0
v 0.3 0.5 0
v 0.4 0.5 0
v 0.4 0.6 0
v 0.5 0.5 0
v 0.5 0.6 0
v -0.5 1.6 -0.2
v -0.5 1.8 -0.2
v -0.4 1.6 -0.2
v -0.4 1.7 -0.2
v -0.4 1.8 -0.2
v -0.4 1.9 -0.2
v -0.3 1.7 -0.2
v -0.3 1.8 -0.2
v 0.3 1.7 -0.2
v 0.3 1.8 -0.2
v 0.4 1.6 -0.2
v 0.4 1.7 -0.2
v 0.4 1.8 -0.2
v 0.4 1.9 -0.2
v 0.5 1.6 -0.2
v 0.5 1.8 -0.2
v -0.5 0.6 -0.3
v -0.5 1.6 -0.3
v -0.4 0.5 -0.3
v -0.4 0.6 -0.3
v -0.4 1.5 -0.3
v -0.4 1.6 -0.3
v -0.4 1.7 -0.3
v -0.3 0.5 -0.3
v -0.3 0.6 -0.3
v -0.3 1.5 -0.3
v -0.3 1.6 -0.3
v -0.3 1.7 -0.3
v -0.3 1.8 -0.3
v -0.2 1.6 -0.3
v -0.2 1.7 -0.3
v 0.2 1.6 -0.3
v 0.2 1.7 -0.3
v 0.3 0.5 -0.3
v 0.3 0.6 -0.3
v 0.3 1.5 -0.3
v 0.3 1.6 -0.3
v 0.3 1.7 -0.3
v 0.3 1.8 -0.3
v 0.4 0.5 -0.3
v 0.4 0.6 -0.3
v 0.4 1.5 -0.3
v 0.4 1.6 -0.3
v 0.4 1.7 -0.3
v 0.5 0.6 -0.3
v 0.5 1.6 -0.3
v -0.4 0.6 -0.4
v -0.4 1.5 -0.4
v -0.3 0.5 -0.4
v -0.3 0.6 -0.4
v -0.3 1.5 -0.4
v -0.3 1.6 -0.4
v -0.2 1.6 -0.4
v -0.2 1.7 -0.4
v 0.2 1.6 -0.4
v 0.2 1.7 -0.4
v 0.3 0.5 -0.4
v 0.3 0.6 -0.4
v 0.3 1.5 -0.4
v 0.3 1.6 -0.4
v 0.4 0.6 -0.4
v 0.4 1.5 -0.4
v -0.3 0 0.5
v -0.1 0 0.5
v 0.1 0 0.5
v 0.3 0 0.5
v -0.3 0 0
v -0.1 0 0
v 0.1 0 0
v 0.3 0 0
v -0.1 0.4 0.4
v 0.1 0.4 0.4
v -0.1 0.4 0
v 0.1 0.4 0
v -0.5 0.5 0.3
v -0.3 0.5 0.3
v 0.3 0.5 0.3
v 0.5 0.5 0.3
v -0.5 0.5 0
v -0.4 0.5 0
v -0.3 0.5 0
v -0.2 0.5 0
v 0.2 0.5 0
v 0.3 0.5 0
v 0.4 0.5 0
v 0.5 0.5 0
v -0.4 0.5 -0.3
v -0.3 0.5 -0.3
v 0.3 0.5 -0.3
v 0.4 0.5 -0.3
v -0.3 0.5 -0.4
v 0.3 0.5 -0.4
v -0.5 0.6 0
v -0.4 0.6 0
v 0.4 0.6 0
v 0.5 0.6 0
v -0.5 0.6 -0.3
v -0.4 0.6 -0.3
v -0.3 0.6 -0.3
v 0.3 0.6 -0.3
v 0.4 0.6 -0.3
v 0.5 0.6 -0.3
v -0.4 0.6 -0.4
v -0.3 0.6 -0.4
v 0.3 0.6 -0.4
v 0.4 0.6 -0.4
v -0.2 1.1 0.5
v 0.2 1.1 0.5
v -0.2 1.1 0.4
v -0.1 1.1 0.4
v 0.1 1.1 0.4
v 0.2 1.1 0.4
v -0.2 1.2 0.6
v 0.2 1.2 0.6
v -0.3 1.2 0.5
v -0.2 1.2 0.5
v 0.2 1.2 0.5
v 0.3 1.2 0.5
v -0.4 1.2 0.4
v -0.3 1.2 0.4
v -0.2 1.2 0.4
v 0.2 1.2 0.4
v 0.3 1.2 0.4
v 0.4 1.2 0.4
v -0.4 1.2 0.3
v -0.3 1.2 0.3
v -0.2 1.2 0.3
v 0.2 1.2 0.3
v 0.3 1.2 0.3
v 0.4 1.2 0.3
v -0.3 0.1 0.5
v -0.1 0.1 0.5
v 0.1 0.1 0.5
v 0.3 0.1 0.5
v -0.3 0.1 0.4
v -0.1 0.1 0.4
v 0.1 0.1 0.4
v 0.3 0.1 0.4
v -0.3 1.1 0.4
v -0.2 1.1 0.4
v 0.2 1.1 0.4
v 0.3 1.1 0.4
v -0.5 1.1 0.3
v -0.4 1.1 0.3
v -0.3 1.1 0.3
v -0.2 1.1 0.3
v 0.2 1.1 0.3
v 0.3 1.1 0.3
v 0.4 1.1 0.3
v 0.5 1.1 0.3
v -0.5 1.1 0.2
v -0.4 1.1 0.2
v 0.4 1.1 0.2
v 0.5 1.1 0.2
v -0.5 1.2 0.2
v -0.4 1.2 0.2
v 0.4 1.2 0.2
v 0.5 1.2 0.2
v -0.5 1.2 0
v -0.4 1.2 0
v 0.4 1.2 0
v 0.5 1.2 0
v -0.2 1.5 0.6
v 0 1.5 0.6
v 0.1 1.5 0.6
v 0.2 1.5 0.6
v -0.2 1.5 0.5
v 0 1.5 0.5
v 0.1 1.5 0.5
v 0.2 1.5 0.5
v -0.4 1.5 -0.3
v -0.3 1.5 -0.3
v 0.3 1.5 -0.3
v 0.4 1.5 -0.3
v -0.4 1.5 -0.4
v -0.3 1.5 -0.4
v 0.3 1.5 -0.4
v 0.4 1.5 -0.4
v -0.3 1.6 0.5
v -0.2 1.6 0.5
v 0.2 1.6 0.5
v 0.3 1.6 0.5
v -0.4 1.6 0.4
v -0.3 1.6 0.4
v -0.2 1.6 0.4
v 0.2 1.6 0.4
v 0.3 1.6 0.4
v 0.4 1.6 0.4
v -0.4 1.6 0
v -0.3 1.6 0
v 0.3 1.6 0
v 0.4 1.6 0
v -0.5 1.6 -0.2
v -0.4 1.6 -0.2
v 0.4 1.6 -0.2
v 0.5 1.6 -0.2
v -0.5 1.6 -0.3
v -0.4 1.6 -0.3
v -0.3 1.6 -0.3
v -0.2 1.6 -0.3
v 0.2 1.6 -0.3
v 0.3 1.6 -0.3
v 0.4 1.6 -0.3
v 0.5 1.6 -0.3
v -0.3 1.6 -0.4
v -0.2 1.6 -0.4
v 0.2 1.6 -0.4
v 0.3 1.6 -0.4
v -0.3 1.7 0.4
v 0.3 1.7 0.4
v -0.2 1.7 0.3
v 0.2 1.7 0.3
v -0.3 1.7 0
v -0.2 1.7 0
v 0.2 1.7 0
v 0.3 1.7 0
v -0.4 1.7 -0.2
v -0.3 1.7 -0.2
v 0.3 1.7 -0.2
v 0.4 1.7 -0.2
v -0.4 1.7 -0.3
v -0.3 1.7 -0.3
v -0.2 1.7 -0.3
v 0.2 1.7 -0.3
v 0.3 1.7 -0.3
v 0.4 1.7 -0.3
v -0.2 1.7 -0.4
v 0.2 1.7 -0.4
v -0.2 1.8 0.3
v 0.2 1.8 0.3
v -0.5 1.8 0
v -0.4 1.8 0
v -0.2 1.8 0
v 0.2 1.8 0
v 0.4 1.8 0
v 0.5 1.8 0
v -0.5 1.8 -0.2
v -0.4 1.8 -0.2
v -0.3 1.8 -0.2
v 0.3 1.8 -0.2
v 0.4 1.8 -0.2
v 0.5 1.8 -0.2
v -0.3 1.8 -0.3
v 0.3 1.8 -0.3
v -0.4 1.9 0
v 0.4 1.9 0
v -0.4 1.9 -0.2
v 0.4 1.9 -0.2

# faces
f 3/4/1 2/4/1 1/4/1
f 5/4/1 3/4/1 1/4/1
f 5/4/1 4/4/1 3/4/1
f 6/4/1 4/4/1 5/4/1
f 7/3/1 6/3/1 5/3/1
f 8/3/1 6/3/1 7/3/1
f 9/3/1 6/3/1 8/3/1
f 10/4/1 4/4/1 6/4/1
f 10/3/1 6/3/1 9/3/1
f 11/4/1 4/4/1 10/4/1
f 12/4/1 4/4/1 11/4/1
f 13/4/1 11/4/1 10/4/1
f 14/4/1 11/4/1 13/4/1
f 17/4/1 16/4/1 15/4/1
f 18/4/1 16/4/1 17/4/1
f 23/3/1 21/3/1 20/3/1
f 24/3/1 21/3/1 23/3/1
f 26/4/1 19/4/1 18/4/1
f 27/4/1 19/4/1 26/4/1
f 28/2/1 25/2/1 24/2/1
f 28/2/1 23/2/1 22/2/1
f 28/2/1 24/2/1 23/2/1
f 29/2/1 25/2/1 28/2/1
f 32/4/1 31/4/1 30/4/1
f 33/4/1 31/4/1 32/4/1
f 36/4/1 35/4/1 34/4/1
f 37/4/1 35/4/1 36/4/1
f 40/4/1 39/4/1 38/4/1
f 41/4/1 39/4/1 40/4/1
f 42/4/1 39/4/1 41/4/1
f 43/4/1 39/4/1 42/4/1
f 44/4/1 42/4/1 41/4/1
f 45/3/1 43/3/1 42/3/1
f 45/4/1 42/4/1 44/4/1
f 46/3/1 45/3/1 44/3/1
f 46/3/1 43/3/1 45/3/1
f 47/3/1 43/3/1 46/3/1
f 50/3/1 46/3/1 44/3/1
f 51/3/1 46/3/1 50/3/1
f 52/4/1 49/4/1 48/4/1
f 53/4/1 49/4/1 52/4/1
f 54/4/1 51/4/1 50/4/1
f 55/4/1 54/4/1 50/4/1
f 56/4/1 54/4/1 55/4/1
f 57/3/1 56/3/1 55/3/1
f 58/3/1 56/3/1 57/3/1
f 59/2/1 58/2/1 57/2/1
f 60/2/1 58/2/1 59/2/1
f 63/7/1 62/7/1 61/7/1
f 64/7/1 62/7/1 63/7/1
f 67/2/1 64/2/1 63/2/1
f 68/2/1 64/2/1 67/2/1
f 70/4/1 66/4/1 65/4/1
f 71/4/1 66/4/1 70/4/1
f 72/2/1 69/2/1 68/2/1
f 73/2/1 69/2/1 72/2/1
f 76/4/1 75/4/1 74/4/1
f 77/4/1 75/4/1 76/4/1
f 82/7/1 79/7/1 78/7/1
f 83/2/1 80/2/1 79/2/1
f 83/7/1 79/7/1 82/7/1
f 84/2/1 80/2/1 83/2/1
f 85/7/1 82/7/1 81/7/1
f 86/7/1 82/7/1 85/7/1
f 91/4/1 88/4/1 87/4/1
f 92/4/1 88/4/1 91/4/1
f 93/2/1 90/2/1 89/2/1
f 94/2/1 90/2/1 93/2/1
f 97/4/1 96/4/1 95/4/1
f 98/4/1 96/4/1 97/4/1
f 99/4/1 96/4/1 98/4/1
f 100/4/1 96/4/1 99/4/1
f 101/4/1 99/4/1 98/4/1
f 102/2/1 100/2/1 99/2/1
f 102/4/1 99/4/1 101/4/1
f 103/2/1 102/2/1 101/2/1
f 104/2/1 100/2/1 102/2/1
f 104/2/1 102/2/1 103/2/1
f 105/4/2 106/4/2 107/4/2
f 107/4/2 106/4/2 108/4/2
f 108/4/2 106/4/2 109/4/2
f 109/4/2 106/4/2 110/4/2
f 108/4/2 109/4/2 111/4/2
f 109/2/2 110/2/2 112/2/2
f 111/4/2 109/4/2 112/4/2
f 111/2/2 112/2/2 113/2/2
f 112/2/2 110/2/2 114/2/2
f 113/2/2 112/2/2 114/2/2
f 115/7/2 116/7/2 119/7/2
f 116/2/2 117/2/2 120/2/2
f 119/7/2 116/7/2 120/7/2
f 120/2/2 117/2/2 121/2/2
f 118/7/2 119/7/2 122/7/2
f 122/7/2 119/7/2 123/7/2
f 122/5/2 123/5/2 124/5/2
f 124/5/2 123/5/2 125/5/2
f 124/7/2 125/7/2 126/7/2
f 126/7/2 125/7/2 127/7/2
f 128/4/2 129/4/2 132/4/2
f 132/4/2 129/4/2 133/4/2
f 130/2/2 131/2/2 134/2/2
f 134/2/2 131/2/2 135/2/2
f 136/4/2 137/4/2 138/4/2
f 138/4/2 137/4/2 139/4/2
f 139/4/2 137/4/2 140/4/2
f 140/4/2 137/4/2 141/4/2
f 139/4/2 140/4/2 142/4/2
f 140/3/2 141/3/2 143/3/2
f 142/4/2 140/4/2 143/4/2
f 142/3/2 143/3/2 144/3/2
f 143/3/2 141/3/2 144/3/2
f 144/3/2 141/3/2 145/3/2
f 142/3/2 144/3/2 148/3/2
f 148/3/2 144/3/2 149/3/2
f 146/4/2 147/4/2 150/4/2
f 150/4/2 147/4/2 151/4/2
f 148/4/2 149/4/2 152/4/2
f 148/4/2 152/4/2 153/4/2
f 153/4/2 152/4/2 154/4/2
f 153/3/2 154/3/2 155/3/2
f 155/3/2 154/3/2 156/3/2
f 155/2/2 156/2/2 157/2/2
f 157/2/2 156/2/2 158/2/2
f 159/7/2 160/7/2 161/7/2
f 161/7/2 160/7/2 162/7/2
f 161/2/2 162/2/2 165/2/2
f 165/2/2 162/2/2 166/2/2
f 163/4/2 164/4/2 168/4/2
f 168/4/2 164/4/2 169/4/2
f 166/2/2 167/2/2 170/2/2
f 170/2/2 167/2/2 171/2/2
f 172/4/2 173/4/2 174/4/2
f 174/4/2 173/4/2 175/4/2
f 176/4/2 177/4/2 178/4/2
f 178/4/2 177/4/2 179/4/2
f 181/3/2 182/3/2 184/3/2
f 184/3/2 182/3/2 185/3/2
f 179/4/2 180/4/2 187/4/2
f 187/4/2 180/4/2 188/4/2
f 185/2/2 186/2/2 189/2/2
f 183/2/2 184/2/2 189/2/2
f 184/2/2 185/2/2 189/2/2
f 189/2/2 186/2/2 190/2/2
f 191/4/2 192/4/2 193/4/2
f 193/4/2 192/4/2 194/4/2
f 195/4/2 196/4/2 197/4/2
f 197/4/2 196/4/2 198/4/2
f 199/4/2 200/4/2 201/4/2
f 199/4/2 201/4/2 203/4/2
f 201/4/2 202/4/2 203/4/2
f 203/4/2 202/4/2 204/4/2
f 203/3/2 204/3/2 205/3/2
f 205/3/2 204/3/2 206/3/2
f 206/3/2 204/3/2 207/3/2
f 204/4/2 202/4/2 208/4/2
f 207/3/2 204/3/2 208/3/2
f 208/4/2 202/4/2 209/4/2
f 209/4/2 202/4/2 210/4/2
f 208/4/2 209/4/2 211/4/2
f 211/4/2 209/4/2 212/4/2
f 215/7/3 214/7/3 213/7/3
f 216/7/3 214/7/3 215/7/3
f 217/7/3 215/7/3 213/7/3
f 218/5/3 216/5/3 215/5/3
f 218/7/3 215/7/3 217/7/3
f 219/5/3 216/5/3 218/5/3
f 220/7/3 217/7/3 213/7/3
f 221/5/3 218/5/3 217/5/3
f 221/7/3 217/7/3 220/7/3
f 222/7/3 219/7/3 218/7/3
f 222/5/3 218/5/3 221/5/3
f 223/7/3 219/7/3 222/7/3
f 230/7/3 227/7/3 226/7/3
f 231/2/3 228/2/3 227/2/3
f 231/7/3 227/7/3 230/7/3
f 232/2/3 228/2/3 231/2/3
f 233/4/3 225/4/3 224/4/3
f 234/4/3 225/4/3 233/4/3
f 235/7/3 232/7/3 231/7/3
f 238/7/3 232/7/3 235/7/3
f 239/7/3 230/7/3 229/7/3
f 240/7/3 230/7/3 239/7/3
f 243/7/3 232/7/3 238/7/3
f 244/7/3 232/7/3 243/7/3
f 245/4/3 237/4/3 236/4/3
f 246/4/3 237/4/3 245/4/3
f 247/7/3 242/7/3 241/7/3
f 247/7/3 241/7/3 240/7/3
f 247/7/3 243/7/3 242/7/3
f 248/2/3 244/2/3 243/2/3
f 248/7/3 243/7/3 247/7/3
f 249/2/3 244/2/3 248/2/3
f 258/2/3 251/2/3 250/2/3
f 259/2/3 251/2/3 258/2/3
f 260/2/3 251/2/3 259/2/3
f 262/4/3 253/4/3 252/4/3
f 262/3/3 254/3/3 253/3/3
f 263/4/3 255/4/3 254/4/3
f 263/3/3 254/3/3 262/3/3
f 264/4/3 255/4/3 263/4/3
f 265/3/3 256/3/3 255/3/3
f 265/4/3 255/4/3 264/4/3
f 266/2/3 257/2/3 256/2/3
f 266/3/3 256/3/3 265/3/3
f 267/2/3 257/2/3 266/2/3
f 268/2/3 261/2/3 260/2/3
f 269/4/3 262/4/3 252/4/3
f 270/2/3 263/2/3 262/2/3
f 270/4/3 262/4/3 269/4/3
f 271/2/3 263/2/3 270/2/3
f 272/2/3 263/2/3 271/2/3
f 273/4/3 264/4/3 263/4/3
f 273/2/3 263/2/3 272/2/3
f 274/2/3 265/2/3 264/2/3
f 274/6/3 266/6/3 265/6/3
f 275/3/3 267/3/3 266/3/3
f 275/6/3 266/6/3 274/6/3
f 276/3/3 267/3/3 275/3/3
f 277/2/3 274/2/3 264/2/3
f 277/2/3 275/2/3 274/2/3
f 278/4/3 276/4/3 275/4/3
f 278/2/3 275/2/3 277/2/3
f 281/2/3 272/2/3 271/2/3
f 282/3/3 273/3/3 272/3/3
f 282/2/3 272/2/3 281/2/3
f 283/4/3 264/4/3 273/4/3
f 283/3/3 273/3/3 282/3/3
f 284/2/3 277/2/3 264/2/3
f 284/1/3 278/1/3 277/1/3
f 285/4/3 276/4/3 278/4/3
f 285/1/3 278/1/3 284/1/3
f 286/4/3 276/4/3 285/4/3
f 287/2/3 282/2/3 281/2/3
f 287/4/3 280/4/3 279/4/3
f 287/2/3 281/2/3 280/2/3
f 287/2/3 283/2/3 282/2/3
f 288/4/3 264/4/3 283/4/3
f 288/2/3 283/2/3 287/2/3
f 289/2/3 285/2/3 284/2/3
f 289/4/3 264/4/3 288/4/3
f 289/2/3 284/2/3 264/2/3
f 290/2/3 285/2/3 289/2/3
f 291/3/3 286/3/3 285/3/3
f 291/2/3 285/2/3 290/2/3
f 292/3/3 286/3/3 291/3/3
f 293/2/3 261/2/3 268/2/3
f 294/4/3 287/4/3 279/4/3
f 295/3/3 288/3/3 287/3/3
f 295/4/3 287/4/3 294/4/3
f 296/4/3 289/4/3 288/4/3
f 296/3/3 288/3/3 295/3/3
f 296/4/3 290/4/3 289/4/3
f 297/3/3 291/3/3 290/3/3
f 297/4/3 290/4/3 296/4/3
f 298/2/3 292/2/3 291/2/3
f 298/3/3 291/3/3 297/3/3
f 299/2/3 292/2/3 298/2/3
f 302/2/3 261/2/3 293/2/3
f 303/2/3 261/2/3 302/2/3
f 304/2/3 302/2/3 301/2/3
f 304/2/3 301/2/3 300/2/3
f 305/2/3 302/2/3 304/2/3
f 309/4/3 307/4/3 306/4/3
f 309/3/3 308/3/3 307/3/3
f 310/3/3 308/3/3 309/3/3
f 312/4/3 309/4/3 306/4/3
f 313/4/3 309/4/3 312/4/3
f 314/2/3 310/2/3 309/2/3
f 314/4/3 309/4/3 313/4/3
f 315/2/3 310/2/3 314/2/3
f 316/2/3 310/2/3 315/2/3
f 317/3/3 311/3/3 310/3/3
f 317/2/3 310/2/3 316/2/3
f 318/3/3 311/3/3 317/3/3
f 319/2/3 318/2/3 317/2/3
f 320/2/3 318/2/3 319/2/3
f 325/2/3 322/2/3 321/2/3
f 326/2/3 322/2/3 325/2/3
f 332/2/3 324/2/3 323/2/3
f 333/2/3 324/2/3 332/2/3
f 334/2/3 331/2/3 330/2/3
f 334/4/3 328/4/3 327/4/3
f 334/4/3 329/4/3 328/4/3
f 334/2/3 332/2/3 331/2/3
f 334/2/3 330/2/3 329/2/3
f 335/3/3 333/3/3 332/3/3
f 335/2/3 332/2/3 334/2/3
f 336/3/3 333/3/3 335/3/3
f 337/4/3 334/4/3 327/4/3
f 338/3/3 335/3/3 334/3/3
f 338/4/3 334/4/3 337/4/3
f 339/3/3 335/3/3 338/3/3
f 342/3/3 341/3/3 340/3/3
f 343/3/3 341/3/3 342/3/3
f 346/3/3 345/3/3 344/3/3
f 347/3/3 345/3/3 346/3/3
f 350/4/3 349/4/3 348/4/3
f 351/4/3 349/4/3 350/4/3
f 352/4/3 349/4/3 351/4/3
f 354/4/3 353/4/3 352/4/3
f 354/4/3 352/4/3 351/4/3
f 355/4/3 353/4/3 354/4/3
f 356/4/3 353/4/3 355/4/3
f 357/4/3 353/4/3 356/4/3
f 359/4/3 353/4/3 357/4/3
f 361/4/3 359/4/3 358/4/3
f 363/4/3 361/4/3 360/4/3
f 364/4/3 353/4/3 359/4/3
f 364/4/3 359/4/3 361/4/3
f 364/4/3 361/4/3 363/4/3
f 365/4/3 353/4/3 364/4/3
f 366/4/3 363/4/3 362/4/3
f 366/4/3 364/4/3 363/4/3
f 367/4/3 364/4/3 366/4/3
f 368/4/4 369/4/4 370/4/4
f 370/4/4 369/4/4 371/4/4
f 372/4/4 373/4/4 375/4/4
f 373/3/4 374/3/4 375/3/4
f 375/3/4 374/3/4 376/3/4
f 372/4/4 375/4/4 377/4/4
f 375/2/4 376/2/4 378/2/4
f 377/4/4 375/4/4 378/4/4
f 378/2/4 376/2/4 379/2/4
f 379/2/4 376/2/4 382/2/4
f 380/4/4 381/4/4 383/4/4
f 381/2/4 382/2/4 383/2/4
f 382/2/4 376/2/4 384/2/4
f 383/2/4 382/2/4 384/2/4
f 380/4/4 383/4/4 385/4/4
f 383/3/4 384/3/4 386/3/4
f 385/4/4 383/4/4 386/4/4
f 386/3/4 384/3/4 387/3/4
f 388/4/4 389/4/4 390/4/4
f 390/4/4 389/4/4 391/4/4
f 392/4/4 393/4/4 394/4/4
f 394/4/4 393/4/4 395/4/4
f 395/4/4 393/4/4 396/4/4
f 396/4/4 397/4/4 398/4/4
f 395/4/4 396/4/4 398/4/4
f 398/4/4 397/4/4 399/4/4
f 399/4/4 397/4/4 401/4/4
f 400/4/4 401/4/4 403/4/4
f 401/4/4 397/4/4 404/4/4
f 403/4/4 401/4/4 404/4/4
f 404/4/4 397/4/4 405/4/4
f 402/4/4 403/4/4 406/4/4
f 403/4/4 404/4/4 406/4/4
f 406/4/4 404/4/4 407/4/4
f 408/4/4 409/4/4 411/4/4
f 411/4/4 409/4/4 412/4/4
f 412/4/4 409/4/4 413/4/4
f 410/4/4 411/4/4 415/4/4
f 415/4/4 411/4/4 416/4/4
f 413/4/4 414/4/4 417/4/4
f 412/4/4 413/4/4 417/4/4
f 417/4/4 414/4/4 418/4/4
f 418/4/4 414/4/4 419/4/4
f 419/4/4 420/4/4 421/4/4
f 418/4/4 419/4/4 421/4/4
f 421/4/4 420/4/4 422/4/4
f 422/4/4 420/4/4 424/4/4
f 423/4/4 424/4/4 428/4/4
f 424/4/4 420/4/4 429/4/4
f 428/4/4 424/4/4 429/4/4
f 429/4/4 420/4/4 430/4/4
f 425/4/4 426/4/4 431/4/4
f 431/4/4 426/4/4 432/4/4
f 427/4/4 428/4/4 433/4/4
f 428/4/4 429/4/4 433/4/4
f 433/4/4 429/4/4 434/4/4
f 434/4/4 429/4/4 435/4/4
f 432/4/4 433/4/4 436/4/4
f 433/4/4 434/4/4 436/4/4
f 436/4/4 434/4/4 437/4/4
f 438/4/4 439/4/4 441/4/4
f 441/4/4 439/4/4 442/4/4
f 440/4/4 441/4/4 444/4/4
f 442/4/4 443/4/4 444/4/4
f 441/4/4 442/4/4 444/4/4
f 440/4/4 444/4/4 446/4/4
f 444/4/4 445/4/4 446/4/4
f 446/4/4 445/4/4 447/4/4
f 440/4/4 446/4/4 448/4/4
f 448/4/4 446/4/4 449/4/4
f 449/4/4 446/4/4 450/4/4
f 450/4/4 446/4/4 451/4/4
f 449/4/4 450/4/4 452/4/4
f 452/4/4 450/4/4 453/4/4
f 458/4/5 455/4/5 454/4/5
f 459/4/5 455/4/5 458/4/5
f 460/4/5 457/4/5 456/4/5
f 461/4/5 457/4/5 460/4/5
f 464/2/5 463/2/5 462/2/5
f 465/2/5 463/2/5 464/2/5
f 470/4/5 467/4/5 466/4/5
f 471/4/5 467/4/5 470/4/5
f 472/4/5 467/4/5 471/4/5
f 475/4/5 469/4/5 468/4/5
f 476/4/5 469/4/5 475/4/5
f 477/4/5 469/4/5 476/4/5
f 478/4/5 474/4/5 473/4/5
f 478/4/5 476/4/5 475/4/5
f 478/4/5 475/4/5 474/4/5
f 478/4/5 472/4/5 471/4/5
f 478/4/5 473/4/5 472/4/5
f 479/4/5 476/4/5 478/4/5
f 480/4/5 476/4/5 479/4/5
f 481/4/5 476/4/5 480/4/5
f 482/4/5 480/4/5 479/4/5
f 483/4/5 480/4/5 482/4/5
f 488/4/5 485/4/5 484/4/5
f 489/4/5 485/4/5 488/4/5
f 492/4/5 487/4/5 486/4/5
f 493/4/5 487/4/5 492/4/5
f 494/4/5 490/4/5 489/4/5
f 495/4/5 490/4/5 494/4/5
f 496/4/5 492/4/5 491/4/5
f 497/4/5 492/4/5 496/4/5
f 500/7/5 499/7/5 498/7/5
f 501/7/5 499/7/5 500/7/5
f 502/7/5 499/7/5 501/7/5
f 503/7/5 499/7/5 502/7/5
f 507/7/5 505/7/5 504/7/5
f 508/7/5 505/7/5 507/7/5
f 511/7/5 507/7/5 506/7/5
f 512/7/5 507/7/5 511/7/5
f 513/7/5 509/7/5 508/7/5
f 514/7/5 509/7/5 513/7/5
f 516/2/5 512/2/5 511/2/5
f 516/2/5 511/2/5 510/2/5
f 517/2/5 512/2/5 516/2/5
f 518/2/5 512/2/5 517/2/5
f 519/2/5 515/2/5 514/2/5
f 519/2/5 514/2/5 513/2/5
f 520/2/5 515/2/5 519/2/5
f 521/2/5 515/2/5 520/2/5
f 522/4/6 523/4/6 526/4/6
f 526/4/6 523/4/6 527/4/6
f 524/4/6 525/4/6 528/4/6
f 528/4/6 525/4/6 529/4/6
f 530/2/6 531/2/6 536/2/6
f 536/2/6 531/2/6 537/2/6
f 532/2/6 533/2/6 538/2/6
f 538/2/6 533/2/6 539/2/6
f 534/3/6 535/3/6 542/3/6
f 542/3/6 535/3/6 543/3/6
f 540/3/6 541/3/6 544/3/6
f 544/3/6 541/3/6 545/3/6
f 546/3/6 547/3/6 550/3/6
f 550/3/6 547/3/6 551/3/6
f 548/3/6 549/3/6 552/3/6
f 552/3/6 549/3/6 553/3/6
f 554/7/6 555/7/6 558/7/6
f 555/5/6 556/5/6 559/5/6
f 558/7/6 555/7/6 559/7/6
f 556/7/6 557/7/6 560/7/6
f 559/5/6 556/5/6 560/5/6
f 560/7/6 557/7/6 561/7/6
f 562/4/6 563/4/6 566/4/6
f 566/4/6 563/4/6 567/4/6
f 564/4/6 565/4/6 568/4/6
f 568/4/6 565/4/6 569/4/6
f 570/2/6 571/2/6 575/2/6
f 571/7/6 572/7/6 576/7/6
f 575/2/6 571/2/6 576/2/6
f 572/2/6 573/2/6 577/2/6
f 576/7/6 572/7/6 577/7/6
f 577/2/6 573/2/6 578/2/6
f 574/2/6 575/2/6 580/2/6
f 580/2/6 575/2/6 581/2/6
f 578/2/6 579/2/6 582/2/6
f 582/2/6 579/2/6 583/2/6
f 584/4/6 585/4/6 588/4/6
f 588/4/6 585/4/6 589/4/6
f 586/4/6 587/4/6 594/4/6
f 594/4/6 587/4/6 595/4/6
f 590/4/6 591/4/6 596/4/6
f 596/4/6 591/4/6 597/4/6
f 592/4/6 593/4/6 598/4/6
f 598/4/6 593/4/6 599/4/6
f 600/2/6 601/2/6 602/2/6
f 602/2/6 601/2/6 603/2/6
f 600/2/6 602/2/6 604/2/6
f 604/2/6 602/2/6 605/2/6
f 603/2/6 601/2/6 606/2/6
f 606/2/6 601/2/6 607/2/6
f 608/4/6 609/4/6 612/4/6
f 612/4/6 609/4/6 613/4/6
f 610/4/6 611/4/6 616/4/6
f 616/4/6 611/4/6 617/4/6
f 614/4/6 615/4/6 618/4/6
f 618/4/6 615/4/6 619/4/6
f 620/2/6 621/2/6 624/2/6
f 624/2/6 621/2/6 625/2/6
f 622/4/6 623/4/6 628/4/6
f 628/4/6 623/4/6 629/4/6
f 626/4/6 627/4/6 632/4/6
f 632/4/6 627/4/6 633/4/6
f 630/4/6 631/4/6 634/4/6
f 634/4/6 631/4/6 635/4/6
f 636/4/6 637/4/6 638/4/6
f 638/4/6 637/4/6 639/4/6
