# MagicaVoxel @ Ephtracy

# group
o 

# material
mtllib 3216.vox.mtl
usemtl palette

# normals
vn -1 0 0
vn 1 0 0
vn 0 0 1
vn 0 0 -1
vn 0 -1 0
vn 0 1 0

# texcoords
vt 0.150391 0.5
vt 0.154297 0.5

# verts
v -0.3 0.3 0.2
v -0.3 0.3 0.1
v -0.3 0.4 0.2
v -0.3 0.4 0.1
v -0.3 0.4 0
v -0.3 0.5 0.1
v -0.3 0.5 0
v -0.3 0.5 -0.1
v -0.3 0.6 0
v -0.3 0.6 -0.1
v -0.3 0.6 -0.2
v -0.3 0.7 -0.1
v -0.3 0.7 -0.2
v -0.2 0.2 0.6
v -0.2 0.2 0.2
v -0.2 0.2 -0.3
v -0.2 0.2 -0.7
v -0.2 0.3 0.7
v -0.2 0.3 0.6
v -0.2 0.3 0.2
v -0.2 0.3 -0.2
v -0.2 0.3 -0.3
v -0.2 0.3 -0.7
v -0.2 0.3 -0.8
v -0.2 0.4 0.8
v -0.2 0.4 0.7
v -0.2 0.4 0.6
v -0.2 0.4 -0.1
v -0.2 0.4 -0.2
v -0.2 0.4 -0.3
v -0.2 0.4 -0.7
v -0.2 0.4 -0.8
v -0.2 0.4 -0.9
v -0.2 0.5 1
v -0.2 0.5 0.9
v -0.2 0.5 -0.1
v -0.2 0.5 -0.2
v -0.2 0.5 -1
v -0.2 0.5 -1.1
v -0.2 0.6 1
v -0.2 0.6 0.9
v -0.2 0.6 0.1
v -0.2 0.6 0
v -0.2 0.6 -1
v -0.2 0.6 -1.1
v -0.2 0.7 0.8
v -0.2 0.7 0.7
v -0.2 0.7 0.6
v -0.2 0.7 0.2
v -0.2 0.7 0.1
v -0.2 0.7 0
v -0.2 0.7 -0.2
v -0.2 0.7 -0.3
v -0.2 0.7 -0.7
v -0.2 0.7 -0.8
v -0.2 0.7 -0.9
v -0.2 0.8 0.7
v -0.2 0.8 0.6
v -0.2 0.8 0.2
v -0.2 0.8 0.1
v -0.2 0.8 -0.2
v -0.2 0.8 -0.3
v -0.2 0.8 -0.7
v -0.2 0.8 -0.8
v -0.2 0.9 0.6
v -0.2 0.9 0.2
v -0.2 0.9 -0.3
v -0.2 0.9 -0.7
v -0.2 0.3 0.2
v -0.2 0.3 0.1
v -0.2 0.4 0.2
v -0.2 0.4 0.1
v -0.2 0.4 0
v -0.2 0.5 0.1
v -0.2 0.5 0
v -0.2 0.6 -0.1
v -0.2 0.6 -0.2
v -0.2 0.7 -0.1
v -0.2 0.7 -0.2
v -0.1 0.2 0.6
v -0.1 0.2 0.2
v -0.1 0.2 -0.3
v -0.1 0.2 -0.7
v -0.1 0.3 0.7
v -0.1 0.3 0.6
v -0.1 0.3 0.2
v -0.1 0.3 -0.2
v -0.1 0.3 -0.3
v -0.1 0.3 -0.7
v -0.1 0.3 -0.8
v -0.1 0.4 0.8
v -0.1 0.4 0.7
v -0.1 0.4 0.6
v -0.1 0.4 -0.1
v -0.1 0.4 -0.2
v -0.1 0.4 -0.3
v -0.1 0.4 -0.7
v -0.1 0.4 -0.8
v -0.1 0.4 -0.9
v -0.1 0.5 1
v -0.1 0.5 0.9
v -0.1 0.5 0
v -0.1 0.5 -0.1
v -0.1 0.5 -0.2
v -0.1 0.5 -1
v -0.1 0.5 -1.1
v -0.1 0.6 1
v -0.1 0.6 0.9
v -0.1 0.6 0.1
v -0.1 0.6 0
v -0.1 0.6 -0.1
v -0.1 0.6 -1
v -0.1 0.6 -1.1
v -0.1 0.7 0.8
v -0.1 0.7 0.7
v -0.1 0.7 0.6
v -0.1 0.7 0.2
v -0.1 0.7 0.1
v -0.1 0.7 0
v -0.1 0.7 -0.2
v -0.1 0.7 -0.3
v -0.1 0.7 -0.7
v -0.1 0.7 -0.8
v -0.1 0.7 -0.9
v -0.1 0.8 0.7
v -0.1 0.8 0.6
v -0.1 0.8 0.2
v -0.1 0.8 0.1
v -0.1 0.8 -0.2
v -0.1 0.8 -0.3
v -0.1 0.8 -0.7
v -0.1 0.8 -0.8
v -0.1 0.9 0.6
v -0.1 0.9 0.2
v -0.1 0.9 -0.3
v -0.1 0.9 -0.7
v -0.2 0.5 1
v -0.2 0.6 1
v -0.1 0.5 1
v -0.1 0.6 1
v -0.2 0.4 0.8
v -0.2 0.7 0.8
v -0.1 0.4 0.8
v -0.1 0.7 0.8
v -0.2 0.3 0.7
v -0.2 0.4 0.7
v -0.2 0.7 0.7
v -0.2 0.8 0.7
v -0.1 0.3 0.7
v -0.1 0.4 0.7
v -0.1 0.7 0.7
v -0.1 0.8 0.7
v -0.2 0.2 0.6
v -0.2 0.3 0.6
v -0.2 0.8 0.6
v -0.2 0.9 0.6
v -0.1 0.2 0.6
v -0.1 0.3 0.6
v -0.1 0.8 0.6
v -0.1 0.9 0.6
v -0.3 0.3 0.2
v -0.3 0.4 0.2
v -0.2 0.3 0.2
v -0.2 0.4 0.2
v -0.2 0.7 0.2
v -0.2 0.8 0.2
v -0.1 0.7 0.2
v -0.1 0.8 0.2
v -0.3 0.4 0.1
v -0.3 0.5 0.1
v -0.2 0.4 0.1
v -0.2 0.5 0.1
v -0.2 0.6 0.1
v -0.2 0.7 0.1
v -0.1 0.6 0.1
v -0.1 0.7 0.1
v -0.3 0.5 0
v -0.3 0.6 0
v -0.2 0.5 0
v -0.2 0.6 0
v -0.1 0.5 0
v -0.1 0.6 0
v -0.3 0.6 -0.1
v -0.3 0.7 -0.1
v -0.2 0.4 -0.1
v -0.2 0.5 -0.1
v -0.2 0.6 -0.1
v -0.2 0.7 -0.1
v -0.1 0.4 -0.1
v -0.1 0.5 -0.1
v -0.2 0.3 -0.2
v -0.2 0.4 -0.2
v -0.2 0.7 -0.2
v -0.2 0.8 -0.2
v -0.1 0.3 -0.2
v -0.1 0.4 -0.2
v -0.1 0.7 -0.2
v -0.1 0.8 -0.2
v -0.2 0.2 -0.3
v -0.2 0.3 -0.3
v -0.2 0.8 -0.3
v -0.2 0.9 -0.3
v -0.1 0.2 -0.3
v -0.1 0.3 -0.3
v -0.1 0.8 -0.3
v -0.1 0.9 -0.3
v -0.2 0.3 -0.7
v -0.2 0.4 -0.7
v -0.2 0.7 -0.7
v -0.2 0.8 -0.7
v -0.1 0.3 -0.7
v -0.1 0.4 -0.7
v -0.1 0.7 -0.7
v -0.1 0.8 -0.7
v -0.2 0.4 -0.8
v -0.2 0.7 -0.8
v -0.1 0.4 -0.8
v -0.1 0.7 -0.8
v -0.2 0.5 -1
v -0.2 0.6 -1
v -0.1 0.5 -1
v -0.1 0.6 -1
v -0.2 0.5 0.9
v -0.2 0.6 0.9
v -0.1 0.5 0.9
v -0.1 0.6 0.9
v -0.2 0.4 0.7
v -0.2 0.7 0.7
v -0.1 0.4 0.7
v -0.1 0.7 0.7
v -0.2 0.3 0.6
v -0.2 0.4 0.6
v -0.2 0.7 0.6
v -0.2 0.8 0.6
v -0.1 0.3 0.6
v -0.1 0.4 0.6
v -0.1 0.7 0.6
v -0.1 0.8 0.6
v -0.2 0.2 0.2
v -0.2 0.3 0.2
v -0.2 0.8 0.2
v -0.2 0.9 0.2
v -0.1 0.2 0.2
v -0.1 0.3 0.2
v -0.1 0.8 0.2
v -0.1 0.9 0.2
v -0.3 0.3 0.1
v -0.3 0.4 0.1
v -0.2 0.3 0.1
v -0.2 0.4 0.1
v -0.2 0.7 0.1
v -0.2 0.8 0.1
v -0.1 0.7 0.1
v -0.1 0.8 0.1
v -0.3 0.4 0
v -0.3 0.5 0
v -0.2 0.4 0
v -0.2 0.5 0
v -0.2 0.6 0
v -0.2 0.7 0
v -0.1 0.6 0
v -0.1 0.7 0
v -0.3 0.5 -0.1
v -0.3 0.6 -0.1
v -0.2 0.5 -0.1
v -0.2 0.6 -0.1
v -0.1 0.5 -0.1
v -0.1 0.6 -0.1
v -0.3 0.6 -0.2
v -0.3 0.7 -0.2
v -0.2 0.4 -0.2
v -0.2 0.5 -0.2
v -0.2 0.6 -0.2
v -0.2 0.7 -0.2
v -0.1 0.4 -0.2
v -0.1 0.5 -0.2
v -0.2 0.3 -0.3
v -0.2 0.4 -0.3
v -0.2 0.7 -0.3
v -0.2 0.8 -0.3
v -0.1 0.3 -0.3
v -0.1 0.4 -0.3
v -0.1 0.7 -0.3
v -0.1 0.8 -0.3
v -0.2 0.2 -0.7
v -0.2 0.3 -0.7
v -0.2 0.8 -0.7
v -0.2 0.9 -0.7
v -0.1 0.2 -0.7
v -0.1 0.3 -0.7
v -0.1 0.8 -0.7
v -0.1 0.9 -0.7
v -0.2 0.3 -0.8
v -0.2 0.4 -0.8
v -0.2 0.7 -0.8
v -0.2 0.8 -0.8
v -0.1 0.3 -0.8
v -0.1 0.4 -0.8
v -0.1 0.7 -0.8
v -0.1 0.8 -0.8
v -0.2 0.4 -0.9
v -0.2 0.7 -0.9
v -0.1 0.4 -0.9
v -0.1 0.7 -0.9
v -0.2 0.5 -1.1
v -0.2 0.6 -1.1
v -0.1 0.5 -1.1
v -0.1 0.6 -1.1
v -0.2 0.2 0.6
v -0.1 0.2 0.6
v -0.2 0.2 0.2
v -0.1 0.2 0.2
v -0.2 0.2 -0.3
v -0.1 0.2 -0.3
v -0.2 0.2 -0.7
v -0.1 0.2 -0.7
v -0.2 0.3 0.7
v -0.1 0.3 0.7
v -0.2 0.3 0.6
v -0.1 0.3 0.6
v -0.3 0.3 0.2
v -0.2 0.3 0.2
v -0.3 0.3 0.1
v -0.2 0.3 0.1
v -0.2 0.3 -0.2
v -0.1 0.3 -0.2
v -0.2 0.3 -0.3
v -0.1 0.3 -0.3
v -0.2 0.3 -0.7
v -0.1 0.3 -0.7
v -0.2 0.3 -0.8
v -0.1 0.3 -0.8
v -0.2 0.4 0.8
v -0.1 0.4 0.8
v -0.2 0.4 0.7
v -0.1 0.4 0.7
v -0.3 0.4 0.1
v -0.2 0.4 0.1
v -0.3 0.4 0
v -0.2 0.4 0
v -0.2 0.4 -0.1
v -0.1 0.4 -0.1
v -0.2 0.4 -0.2
v -0.1 0.4 -0.2
v -0.2 0.4 -0.8
v -0.1 0.4 -0.8
v -0.2 0.4 -0.9
v -0.1 0.4 -0.9
v -0.2 0.5 1
v -0.1 0.5 1
v -0.2 0.5 0.9
v -0.1 0.5 0.9
v -0.3 0.5 0
v -0.2 0.5 0
v -0.1 0.5 0
v -0.3 0.5 -0.1
v -0.2 0.5 -0.1
v -0.1 0.5 -0.1
v -0.2 0.5 -1
v -0.1 0.5 -1
v -0.2 0.5 -1.1
v -0.1 0.5 -1.1
v -0.2 0.6 0.1
v -0.1 0.6 0.1
v -0.2 0.6 0
v -0.1 0.6 0
v -0.3 0.6 -0.1
v -0.2 0.6 -0.1
v -0.3 0.6 -0.2
v -0.2 0.6 -0.2
v -0.2 0.7 0.7
v -0.1 0.7 0.7
v -0.2 0.7 0.6
v -0.1 0.7 0.6
v -0.2 0.7 0.2
v -0.1 0.7 0.2
v -0.2 0.7 0.1
v -0.1 0.7 0.1
v -0.2 0.7 -0.2
v -0.1 0.7 -0.2
v -0.2 0.7 -0.3
v -0.1 0.7 -0.3
v -0.2 0.7 -0.7
v -0.1 0.7 -0.7
v -0.2 0.7 -0.8
v -0.1 0.7 -0.8
v -0.2 0.8 0.6
v -0.1 0.8 0.6
v -0.2 0.8 0.2
v -0.1 0.8 0.2
v -0.2 0.8 -0.3
v -0.1 0.8 -0.3
v -0.2 0.8 -0.7
v -0.1 0.8 -0.7
v -0.2 0.3 0.6
v -0.1 0.3 0.6
v -0.2 0.3 0.2
v -0.1 0.3 0.2
v -0.2 0.3 -0.3
v -0.1 0.3 -0.3
v -0.2 0.3 -0.7
v -0.1 0.3 -0.7
v -0.2 0.4 0.7
v -0.1 0.4 0.7
v -0.2 0.4 0.6
v -0.1 0.4 0.6
v -0.3 0.4 0.2
v -0.2 0.4 0.2
v -0.3 0.4 0.1
v -0.2 0.4 0.1
v -0.2 0.4 -0.2
v -0.1 0.4 -0.2
v -0.2 0.4 -0.3
v -0.1 0.4 -0.3
v -0.2 0.4 -0.7
v -0.1 0.4 -0.7
v -0.2 0.4 -0.8
v -0.1 0.4 -0.8
v -0.3 0.5 0.1
v -0.2 0.5 0.1
v -0.3 0.5 0
v -0.2 0.5 0
v -0.2 0.5 -0.1
v -0.1 0.5 -0.1
v -0.2 0.5 -0.2
v -0.1 0.5 -0.2
v -0.2 0.6 1
v -0.1 0.6 1
v -0.2 0.6 0.9
v -0.1 0.6 0.9
v -0.3 0.6 0
v -0.2 0.6 0
v -0.1 0.6 0
v -0.3 0.6 -0.1
v -0.2 0.6 -0.1
v -0.1 0.6 -0.1
v -0.2 0.6 -1
v -0.1 0.6 -1
v -0.2 0.6 -1.1
v -0.1 0.6 -1.1
v -0.2 0.7 0.8
v -0.1 0.7 0.8
v -0.2 0.7 0.7
v -0.1 0.7 0.7
v -0.2 0.7 0.1
v -0.1 0.7 0.1
v -0.2 0.7 0
v -0.1 0.7 0
v -0.3 0.7 -0.1
v -0.2 0.7 -0.1
v -0.3 0.7 -0.2
v -0.2 0.7 -0.2
v -0.2 0.7 -0.8
v -0.1 0.7 -0.8
v -0.2 0.7 -0.9
v -0.1 0.7 -0.9
v -0.2 0.8 0.7
v -0.1 0.8 0.7
v -0.2 0.8 0.6
v -0.1 0.8 0.6
v -0.2 0.8 0.2
v -0.1 0.8 0.2
v -0.2 0.8 0.1
v -0.1 0.8 0.1
v -0.2 0.8 -0.2
v -0.1 0.8 -0.2
v -0.2 0.8 -0.3
v -0.1 0.8 -0.3
v -0.2 0.8 -0.7
v -0.1 0.8 -0.7
v -0.2 0.8 -0.8
v -0.1 0.8 -0.8
v -0.2 0.9 0.6
v -0.1 0.9 0.6
v -0.2 0.9 0.2
v -0.1 0.9 0.2
v -0.2 0.9 -0.3
v -0.1 0.9 -0.3
v -0.2 0.9 -0.7
v -0.1 0.9 -0.7

# faces
f 3/2/1 2/2/1 1/2/1
f 4/2/1 2/2/1 3/2/1
f 6/2/1 5/2/1 4/2/1
f 7/2/1 5/2/1 6/2/1
f 9/2/1 8/2/1 7/2/1
f 10/2/1 8/2/1 9/2/1
f 12/2/1 11/2/1 10/2/1
f 13/2/1 11/2/1 12/2/1
f 19/1/1 15/1/1 14/1/1
f 20/1/1 15/1/1 19/1/1
f 22/2/1 17/2/1 16/2/1
f 23/2/1 17/2/1 22/2/1
f 26/1/1 19/1/1 18/1/1
f 27/1/1 19/1/1 26/1/1
f 29/2/1 22/2/1 21/2/1
f 30/2/1 22/2/1 29/2/1
f 31/2/1 24/2/1 23/2/1
f 32/2/1 24/2/1 31/2/1
f 36/1/1 29/1/1 28/1/1
f 37/1/1 29/1/1 36/1/1
f 40/1/1 35/1/1 34/1/1
f 41/1/1 35/1/1 40/1/1
f 44/2/1 39/2/1 38/2/1
f 45/2/1 39/2/1 44/2/1
f 46/1/1 26/1/1 25/1/1
f 47/1/1 26/1/1 46/1/1
f 50/1/1 43/1/1 42/1/1
f 51/1/1 43/1/1 50/1/1
f 55/2/1 33/2/1 32/2/1
f 56/2/1 33/2/1 55/2/1
f 57/1/1 48/1/1 47/1/1
f 58/1/1 48/1/1 57/1/1
f 59/1/1 50/1/1 49/1/1
f 60/1/1 50/1/1 59/1/1
f 61/2/1 53/2/1 52/2/1
f 62/2/1 53/2/1 61/2/1
f 63/2/1 55/2/1 54/2/1
f 64/2/1 55/2/1 63/2/1
f 65/1/1 59/1/1 58/1/1
f 66/1/1 59/1/1 65/1/1
f 67/2/1 63/2/1 62/2/1
f 68/2/1 63/2/1 67/2/1
f 69/2/2 70/2/2 71/2/2
f 71/2/2 70/2/2 72/2/2
f 72/2/2 73/2/2 74/2/2
f 74/2/2 73/2/2 75/2/2
f 76/2/2 77/2/2 78/2/2
f 78/2/2 77/2/2 79/2/2
f 80/1/2 81/1/2 85/1/2
f 85/1/2 81/1/2 86/1/2
f 82/2/2 83/2/2 88/2/2
f 88/2/2 83/2/2 89/2/2
f 84/1/2 85/1/2 92/1/2
f 92/1/2 85/1/2 93/1/2
f 87/2/2 88/2/2 95/2/2
f 95/2/2 88/2/2 96/2/2
f 89/2/2 90/2/2 97/2/2
f 97/2/2 90/2/2 98/2/2
f 94/1/2 95/1/2 103/1/2
f 103/1/2 95/1/2 104/1/2
f 100/1/2 101/1/2 107/1/2
f 107/1/2 101/1/2 108/1/2
f 102/1/2 103/1/2 110/1/2
f 110/1/2 103/1/2 111/1/2
f 105/2/2 106/2/2 112/2/2
f 112/2/2 106/2/2 113/2/2
f 91/1/2 92/1/2 114/1/2
f 114/1/2 92/1/2 115/1/2
f 109/1/2 110/1/2 118/1/2
f 118/1/2 110/1/2 119/1/2
f 98/2/2 99/2/2 123/2/2
f 123/2/2 99/2/2 124/2/2
f 115/1/2 116/1/2 125/1/2
f 125/1/2 116/1/2 126/1/2
f 117/1/2 118/1/2 127/1/2
f 127/1/2 118/1/2 128/1/2
f 120/2/2 121/2/2 129/2/2
f 129/2/2 121/2/2 130/2/2
f 122/2/2 123/2/2 131/2/2
f 131/2/2 123/2/2 132/2/2
f 126/1/2 127/1/2 133/1/2
f 133/1/2 127/1/2 134/1/2
f 130/2/2 131/2/2 135/2/2
f 135/2/2 131/2/2 136/2/2
f 139/1/3 138/1/3 137/1/3
f 140/1/3 138/1/3 139/1/3
f 143/1/3 142/1/3 141/1/3
f 144/1/3 142/1/3 143/1/3
f 149/1/3 146/1/3 145/1/3
f 150/1/3 146/1/3 149/1/3
f 151/1/3 148/1/3 147/1/3
f 152/1/3 148/1/3 151/1/3
f 157/1/3 154/1/3 153/1/3
f 158/1/3 154/1/3 157/1/3
f 159/1/3 156/1/3 155/1/3
f 160/1/3 156/1/3 159/1/3
f 163/2/3 162/2/3 161/2/3
f 164/2/3 162/2/3 163/2/3
f 167/1/3 166/1/3 165/1/3
f 168/1/3 166/1/3 167/1/3
f 171/2/3 170/2/3 169/2/3
f 172/2/3 170/2/3 171/2/3
f 175/1/3 174/1/3 173/1/3
f 176/1/3 174/1/3 175/1/3
f 179/2/3 178/2/3 177/2/3
f 180/2/3 178/2/3 179/2/3
f 181/1/3 180/1/3 179/1/3
f 182/1/3 180/1/3 181/1/3
f 187/2/3 184/2/3 183/2/3
f 188/2/3 184/2/3 187/2/3
f 189/1/3 186/1/3 185/1/3
f 190/1/3 186/1/3 189/1/3
f 195/2/3 192/2/3 191/2/3
f 196/2/3 192/2/3 195/2/3
f 197/2/3 194/2/3 193/2/3
f 198/2/3 194/2/3 197/2/3
f 203/2/3 200/2/3 199/2/3
f 204/2/3 200/2/3 203/2/3
f 205/2/3 202/2/3 201/2/3
f 206/2/3 202/2/3 205/2/3
f 211/2/3 208/2/3 207/2/3
f 212/2/3 208/2/3 211/2/3
f 213/2/3 210/2/3 209/2/3
f 214/2/3 210/2/3 213/2/3
f 217/2/3 216/2/3 215/2/3
f 218/2/3 216/2/3 217/2/3
f 221/2/3 220/2/3 219/2/3
f 222/2/3 220/2/3 221/2/3
f 223/1/4 224/1/4 225/1/4
f 225/1/4 224/1/4 226/1/4
f 227/1/4 228/1/4 229/1/4
f 229/1/4 228/1/4 230/1/4
f 231/1/4 232/1/4 235/1/4
f 235/1/4 232/1/4 236/1/4
f 233/1/4 234/1/4 237/1/4
f 237/1/4 234/1/4 238/1/4
f 239/1/4 240/1/4 243/1/4
f 243/1/4 240/1/4 244/1/4
f 241/1/4 242/1/4 245/1/4
f 245/1/4 242/1/4 246/1/4
f 247/2/4 248/2/4 249/2/4
f 249/2/4 248/2/4 250/2/4
f 251/1/4 252/1/4 253/1/4
f 253/1/4 252/1/4 254/1/4
f 255/2/4 256/2/4 257/2/4
f 257/2/4 256/2/4 258/2/4
f 259/1/4 260/1/4 261/1/4
f 261/1/4 260/1/4 262/1/4
f 263/2/4 264/2/4 265/2/4
f 265/2/4 264/2/4 266/2/4
f 265/1/4 266/1/4 267/1/4
f 267/1/4 266/1/4 268/1/4
f 269/2/4 270/2/4 273/2/4
f 273/2/4 270/2/4 274/2/4
f 271/1/4 272/1/4 275/1/4
f 275/1/4 272/1/4 276/1/4
f 277/2/4 278/2/4 281/2/4
f 281/2/4 278/2/4 282/2/4
f 279/2/4 280/2/4 283/2/4
f 283/2/4 280/2/4 284/2/4
f 285/2/4 286/2/4 289/2/4
f 289/2/4 286/2/4 290/2/4
f 287/2/4 288/2/4 291/2/4
f 291/2/4 288/2/4 292/2/4
f 293/2/4 294/2/4 297/2/4
f 297/2/4 294/2/4 298/2/4
f 295/2/4 296/2/4 299/2/4
f 299/2/4 296/2/4 300/2/4
f 301/2/4 302/2/4 303/2/4
f 303/2/4 302/2/4 304/2/4
f 305/2/4 306/2/4 307/2/4
f 307/2/4 306/2/4 308/2/4
f 311/1/5 310/1/5 309/1/5
f 312/1/5 310/1/5 311/1/5
f 315/2/5 314/2/5 313/2/5
f 316/2/5 314/2/5 315/2/5
f 319/1/5 318/1/5 317/1/5
f 320/1/5 318/1/5 319/1/5
f 323/2/5 322/2/5 321/2/5
f 324/2/5 322/2/5 323/2/5
f 327/2/5 326/2/5 325/2/5
f 328/2/5 326/2/5 327/2/5
f 331/2/5 330/2/5 329/2/5
f 332/2/5 330/2/5 331/2/5
f 335/1/5 334/1/5 333/1/5
f 336/1/5 334/1/5 335/1/5
f 339/2/5 338/2/5 337/2/5
f 340/2/5 338/2/5 339/2/5
f 343/1/5 342/1/5 341/1/5
f 344/1/5 342/1/5 343/1/5
f 347/2/5 346/2/5 345/2/5
f 348/2/5 346/2/5 347/2/5
f 351/1/5 350/1/5 349/1/5
f 352/1/5 350/1/5 351/1/5
f 356/2/5 354/2/5 353/2/5
f 357/1/5 355/1/5 354/1/5
f 357/2/5 354/2/5 356/2/5
f 358/1/5 355/1/5 357/1/5
f 361/2/5 360/2/5 359/2/5
f 362/2/5 360/2/5 361/2/5
f 365/1/5 364/1/5 363/1/5
f 366/1/5 364/1/5 365/1/5
f 369/2/5 368/2/5 367/2/5
f 370/2/5 368/2/5 369/2/5
f 373/1/5 372/1/5 371/1/5
f 374/1/5 372/1/5 373/1/5
f 377/1/5 376/1/5 375/1/5
f 378/1/5 376/1/5 377/1/5
f 381/2/5 380/2/5 379/2/5
f 382/2/5 380/2/5 381/2/5
f 385/2/5 384/2/5 383/2/5
f 386/2/5 384/2/5 385/2/5
f 389/1/5 388/1/5 387/1/5
f 390/1/5 388/1/5 389/1/5
f 393/2/5 392/2/5 391/2/5
f 394/2/5 392/2/5 393/2/5
f 395/1/6 396/1/6 397/1/6
f 397/1/6 396/1/6 398/1/6
f 399/2/6 400/2/6 401/2/6
f 401/2/6 400/2/6 402/2/6
f 403/1/6 404/1/6 405/1/6
f 405/1/6 404/1/6 406/1/6
f 407/2/6 408/2/6 409/2/6
f 409/2/6 408/2/6 410/2/6
f 411/2/6 412/2/6 413/2/6
f 413/2/6 412/2/6 414/2/6
f 415/2/6 416/2/6 417/2/6
f 417/2/6 416/2/6 418/2/6
f 419/2/6 420/2/6 421/2/6
f 421/2/6 420/2/6 422/2/6
f 423/1/6 424/1/6 425/1/6
f 425/1/6 424/1/6 426/1/6
f 427/1/6 428/1/6 429/1/6
f 429/1/6 428/1/6 430/1/6
f 431/2/6 432/2/6 434/2/6
f 432/1/6 433/1/6 435/1/6
f 434/2/6 432/2/6 435/2/6
f 435/1/6 433/1/6 436/1/6
f 437/2/6 438/2/6 439/2/6
f 439/2/6 438/2/6 440/2/6
f 441/1/6 442/1/6 443/1/6
f 443/1/6 442/1/6 444/1/6
f 445/1/6 446/1/6 447/1/6
f 447/1/6 446/1/6 448/1/6
f 449/2/6 450/2/6 451/2/6
f 451/2/6 450/2/6 452/2/6
f 453/2/6 454/2/6 455/2/6
f 455/2/6 454/2/6 456/2/6
f 457/1/6 458/1/6 459/1/6
f 459/1/6 458/1/6 460/1/6
f 461/1/6 462/1/6 463/1/6
f 463/1/6 462/1/6 464/1/6
f 465/2/6 466/2/6 467/2/6
f 467/2/6 466/2/6 468/2/6
f 469/2/6 470/2/6 471/2/6
f 471/2/6 470/2/6 472/2/6
f 473/1/6 474/1/6 475/1/6
f 475/1/6 474/1/6 476/1/6
f 477/2/6 478/2/6 479/2/6
f 479/2/6 478/2/6 480/2/6
