# MagicaVoxel @ Ephtracy

# group
o 

# material
mtllib alarm_clock.vox.mtl
usemtl palette

# normals
vn -1 0 0
vn 1 0 0
vn 0 0 1
vn 0 0 -1
vn 0 -1 0
vn 0 1 0

# texcoords
vt 0.126953 0.5
vt 0.130859 0.5
vt 0.138672 0.5
vt 0.146484 0.5
vt 0.150391 0.5
vt 0.154297 0.5
vt 0.158203 0.5

# verts
v -0.5 0 0.1
v -0.5 0 -0.1
v -0.5 0.2 0.1
v -0.5 0.2 -0.1
v -0.5 0.4 0.2
v -0.5 0.4 -0.2
v -0.5 0.8 0.2
v -0.5 0.8 -0.2
v -0.5 1 0.1
v -0.5 1 -0.2
v -0.5 1.1 0
v -0.5 1.1 -0.1
v -0.5 1.1 -0.2
v -0.5 1.2 0.1
v -0.5 1.2 0
v -0.5 1.2 -0.1
v -0.4 0.2 0.1
v -0.4 0.2 -0.1
v -0.4 0.3 0.2
v -0.4 0.3 0.1
v -0.4 0.3 -0.1
v -0.4 0.3 -0.2
v -0.4 0.4 0.2
v -0.4 0.4 -0.2
v -0.4 0.8 0.2
v -0.4 0.8 -0.2
v -0.4 0.9 0.2
v -0.4 0.9 0
v -0.4 0.9 -0.1
v -0.4 0.9 -0.2
v -0.4 1 0
v -0.4 1 -0.1
v -0.3 0.2 0.2
v -0.3 0.2 0.1
v -0.3 0.2 -0.1
v -0.3 0.2 -0.2
v -0.3 0.3 0.2
v -0.3 0.3 0.1
v -0.3 0.3 -0.1
v -0.3 0.3 -0.2
v -0.3 0.9 0.2
v -0.3 0.9 0
v -0.3 0.9 -0.1
v -0.3 0.9 -0.2
v -0.3 1 0.2
v -0.3 1 0.1
v -0.3 1 0
v -0.3 1 -0.1
v -0.3 1 -0.2
v -0.2 0.1 0.2
v -0.2 0.1 0.1
v -0.2 0.1 -0.1
v -0.2 0.1 -0.2
v -0.2 0.2 0.2
v -0.2 0.2 0.1
v -0.2 0.2 -0.1
v -0.2 0.2 -0.2
v -0.2 1 0.2
v -0.2 1 -0.2
v -0.2 1.1 0.2
v -0.2 1.1 -0.2
v 0.2 0.2 -0.1
v 0.2 0.2 -0.2
v 0.2 0.3 -0.1
v 0.2 0.3 -0.2
v 0.2 0.9 -0.1
v 0.2 0.9 -0.2
v 0.2 1 -0.1
v 0.2 1 -0.2
v 0.3 0 0.1
v 0.3 0 -0.1
v 0.3 0.1 0.1
v 0.3 0.1 -0.1
v 0.3 0.3 -0.1
v 0.3 0.3 -0.2
v 0.3 0.4 -0.1
v 0.3 0.4 -0.2
v 0.3 0.8 -0.1
v 0.3 0.8 -0.2
v 0.3 0.9 -0.1
v 0.3 0.9 -0.2
v 0.3 1 0.1
v 0.3 1 -0.2
v 0.3 1.1 0
v 0.3 1.1 -0.1
v 0.3 1.1 -0.2
v 0.3 1.2 0.1
v 0.3 1.2 0
v 0.3 1.2 -0.1
v 0.4 0.4 -0.1
v 0.4 0.4 -0.2
v 0.4 0.7 -0.1
v 0.4 0.8 -0.1
v 0.4 0.8 -0.2
v -0.4 0.4 -0.1
v -0.4 0.4 -0.2
v -0.4 0.7 -0.1
v -0.4 0.8 -0.1
v -0.4 0.8 -0.2
v -0.3 0 0.1
v -0.3 0 -0.1
v -0.3 0.1 0.1
v -0.3 0.1 -0.1
v -0.3 0.3 -0.1
v -0.3 0.3 -0.2
v -0.3 0.4 -0.1
v -0.3 0.4 -0.2
v -0.3 0.8 -0.1
v -0.3 0.8 -0.2
v -0.3 0.9 -0.1
v -0.3 0.9 -0.2
v -0.3 1 0.1
v -0.3 1 -0.2
v -0.3 1.1 -0.1
v -0.3 1.1 -0.2
v -0.3 1.2 0.1
v -0.3 1.2 -0.1
v -0.2 0.2 -0.1
v -0.2 0.2 -0.2
v -0.2 0.3 -0.1
v -0.2 0.3 -0.2
v -0.2 0.9 -0.1
v -0.2 0.9 -0.2
v -0.2 1 -0.1
v -0.2 1 -0.2
v 0.2 0.1 0.2
v 0.2 0.1 0.1
v 0.2 0.1 -0.1
v 0.2 0.1 -0.2
v 0.2 0.2 0.2
v 0.2 0.2 0.1
v 0.2 0.2 -0.1
v 0.2 0.2 -0.2
v 0.2 1 0.2
v 0.2 1 -0.2
v 0.2 1.1 0.2
v 0.2 1.1 -0.2
v 0.3 0.2 0.2
v 0.3 0.2 0.1
v 0.3 0.2 -0.1
v 0.3 0.2 -0.2
v 0.3 0.3 0.2
v 0.3 0.3 0.1
v 0.3 0.3 -0.1
v 0.3 0.3 -0.2
v 0.3 0.9 0.2
v 0.3 0.9 0
v 0.3 0.9 -0.1
v 0.3 0.9 -0.2
v 0.3 1 0.2
v 0.3 1 0.1
v 0.3 1 0
v 0.3 1 -0.1
v 0.3 1 -0.2
v 0.4 0.2 0.1
v 0.4 0.2 -0.1
v 0.4 0.3 0.2
v 0.4 0.3 0.1
v 0.4 0.3 -0.1
v 0.4 0.3 -0.2
v 0.4 0.4 0.2
v 0.4 0.4 -0.2
v 0.4 0.8 0.2
v 0.4 0.8 -0.2
v 0.4 0.9 0.2
v 0.4 0.9 0
v 0.4 0.9 -0.1
v 0.4 0.9 -0.2
v 0.4 1 0
v 0.4 1 -0.1
v 0.5 0 0.1
v 0.5 0 -0.1
v 0.5 0.2 0.1
v 0.5 0.2 -0.1
v 0.5 0.4 0.2
v 0.5 0.4 -0.2
v 0.5 0.8 0.2
v 0.5 0.8 -0.2
v 0.5 1 0.1
v 0.5 1 -0.2
v 0.5 1.1 -0.1
v 0.5 1.1 -0.2
v 0.5 1.2 0.1
v 0.5 1.2 -0.1
v -0.5 0.4 0.2
v -0.5 0.8 0.2
v -0.4 0.3 0.2
v -0.4 0.4 0.2
v -0.4 0.8 0.2
v -0.4 0.9 0.2
v -0.3 0.2 0.2
v -0.3 0.3 0.2
v -0.3 0.9 0.2
v -0.3 1 0.2
v -0.2 0.1 0.2
v -0.2 0.2 0.2
v -0.2 0.5 0.2
v -0.2 0.7 0.2
v -0.2 1 0.2
v -0.2 1.1 0.2
v 0.2 0.1 0.2
v 0.2 0.2 0.2
v 0.2 0.5 0.2
v 0.2 0.7 0.2
v 0.2 1 0.2
v 0.2 1.1 0.2
v 0.3 0.2 0.2
v 0.3 0.3 0.2
v 0.3 0.9 0.2
v 0.3 1 0.2
v 0.4 0.3 0.2
v 0.4 0.4 0.2
v 0.4 0.8 0.2
v 0.4 0.9 0.2
v 0.5 0.4 0.2
v 0.5 0.8 0.2
v -0.5 0 0.1
v -0.5 0.2 0.1
v -0.5 1 0.1
v -0.5 1.2 0.1
v -0.4 0.2 0.1
v -0.4 0.3 0.1
v -0.3 0 0.1
v -0.3 0.1 0.1
v -0.3 0.2 0.1
v -0.3 0.3 0.1
v -0.3 1 0.1
v -0.3 1.2 0.1
v -0.2 0.1 0.1
v -0.2 0.2 0.1
v 0.2 0.1 0.1
v 0.2 0.2 0.1
v 0.3 0 0.1
v 0.3 0.1 0.1
v 0.3 0.2 0.1
v 0.3 0.3 0.1
v 0.3 1 0.1
v 0.3 1.2 0.1
v 0.4 0.2 0.1
v 0.4 0.3 0.1
v 0.5 0 0.1
v 0.5 0.2 0.1
v 0.5 1 0.1
v 0.5 1.2 0.1
v -0.4 0.9 0
v -0.4 1 0
v -0.3 0.9 0
v -0.3 1 0
v 0.3 0.9 0
v 0.3 1 0
v 0.4 0.9 0
v 0.4 1 0
v -0.5 0 -0.1
v -0.5 0.2 -0.1
v -0.5 1.1 -0.1
v -0.5 1.2 -0.1
v -0.4 0.2 -0.1
v -0.4 0.3 -0.1
v -0.4 0.4 -0.1
v -0.4 0.7 -0.1
v -0.4 0.8 -0.1
v -0.4 0.9 -0.1
v -0.4 1 -0.1
v -0.4 1.1 -0.1
v -0.4 1.2 -0.1
v -0.3 0 -0.1
v -0.3 0.1 -0.1
v -0.3 0.2 -0.1
v -0.3 0.3 -0.1
v -0.3 0.4 -0.1
v -0.3 0.7 -0.1
v -0.3 0.8 -0.1
v -0.3 0.9 -0.1
v -0.3 1 -0.1
v -0.3 1.1 -0.1
v -0.3 1.2 -0.1
v -0.2 0.1 -0.1
v -0.2 0.2 -0.1
v -0.2 0.3 -0.1
v -0.2 0.6 -0.1
v -0.2 0.7 -0.1
v -0.2 0.8 -0.1
v -0.2 0.9 -0.1
v -0.2 1 -0.1
v -0.1 0.5 -0.1
v -0.1 0.6 -0.1
v -0.1 0.7 -0.1
v 0 0.5 -0.1
v 0 0.6 -0.1
v 0 0.8 -0.1
v 0.1 0.6 -0.1
v 0.1 0.8 -0.1
v 0.2 0.1 -0.1
v 0.2 0.2 -0.1
v 0.2 0.3 -0.1
v 0.2 0.8 -0.1
v 0.2 0.9 -0.1
v 0.2 1 -0.1
v 0.3 0 -0.1
v 0.3 0.1 -0.1
v 0.3 0.2 -0.1
v 0.3 0.3 -0.1
v 0.3 0.4 -0.1
v 0.3 0.7 -0.1
v 0.3 0.8 -0.1
v 0.3 0.9 -0.1
v 0.3 1 -0.1
v 0.3 1.1 -0.1
v 0.3 1.2 -0.1
v 0.4 0.2 -0.1
v 0.4 0.3 -0.1
v 0.4 0.4 -0.1
v 0.4 0.7 -0.1
v 0.4 0.8 -0.1
v 0.4 0.9 -0.1
v 0.4 1 -0.1
v 0.4 1.1 -0.1
v 0.4 1.2 -0.1
v 0.5 0 -0.1
v 0.5 0.2 -0.1
v 0.5 1.1 -0.1
v 0.5 1.2 -0.1
v -0.5 0.4 -0.2
v -0.5 0.8 -0.2
v -0.5 1 -0.2
v -0.5 1.1 -0.2
v -0.4 0.3 -0.2
v -0.4 0.4 -0.2
v -0.4 0.8 -0.2
v -0.4 0.9 -0.2
v -0.3 0.2 -0.2
v -0.3 0.3 -0.2
v -0.3 0.4 -0.2
v -0.3 0.8 -0.2
v -0.3 0.9 -0.2
v -0.3 1 -0.2
v -0.3 1.1 -0.2
v -0.2 0.1 -0.2
v -0.2 0.2 -0.2
v -0.2 0.3 -0.2
v -0.2 0.9 -0.2
v -0.2 1 -0.2
v -0.2 1.1 -0.2
v 0.2 0.1 -0.2
v 0.2 0.2 -0.2
v 0.2 0.3 -0.2
v 0.2 0.9 -0.2
v 0.2 1 -0.2
v 0.2 1.1 -0.2
v 0.3 0.2 -0.2
v 0.3 0.3 -0.2
v 0.3 0.4 -0.2
v 0.3 0.8 -0.2
v 0.3 0.9 -0.2
v 0.3 1 -0.2
v 0.3 1.1 -0.2
v 0.4 0.3 -0.2
v 0.4 0.4 -0.2
v 0.4 0.8 -0.2
v 0.4 0.9 -0.2
v 0.5 0.4 -0.2
v 0.5 0.8 -0.2
v 0.5 1 -0.2
v 0.5 1.1 -0.2
v -0.5 0 0.1
v -0.3 0 0.1
v 0.3 0 0.1
v 0.5 0 0.1
v -0.5 0 -0.1
v -0.3 0 -0.1
v 0.3 0 -0.1
v 0.5 0 -0.1
v -0.2 0.1 0.2
v 0.2 0.1 0.2
v -0.3 0.1 0.1
v -0.2 0.1 0.1
v 0.2 0.1 0.1
v 0.3 0.1 0.1
v -0.3 0.1 -0.1
v -0.2 0.1 -0.1
v 0.2 0.1 -0.1
v 0.3 0.1 -0.1
v -0.2 0.1 -0.2
v 0.2 0.1 -0.2
v -0.3 0.2 0.2
v -0.2 0.2 0.2
v 0.2 0.2 0.2
v 0.3 0.2 0.2
v -0.3 0.2 0.1
v -0.2 0.2 0.1
v 0.2 0.2 0.1
v 0.3 0.2 0.1
v -0.3 0.2 -0.1
v -0.2 0.2 -0.1
v 0.2 0.2 -0.1
v 0.3 0.2 -0.1
v -0.3 0.2 -0.2
v -0.2 0.2 -0.2
v 0.2 0.2 -0.2
v 0.3 0.2 -0.2
v -0.4 0.3 0.2
v -0.3 0.3 0.2
v 0.3 0.3 0.2
v 0.4 0.3 0.2
v -0.4 0.3 0.1
v -0.3 0.3 0.1
v 0.3 0.3 0.1
v 0.4 0.3 0.1
v -0.4 0.3 -0.1
v -0.3 0.3 -0.1
v 0.3 0.3 -0.1
v 0.4 0.3 -0.1
v -0.4 0.3 -0.2
v -0.3 0.3 -0.2
v 0.3 0.3 -0.2
v 0.4 0.3 -0.2
v -0.5 0.4 0.2
v -0.4 0.4 0.2
v 0.4 0.4 0.2
v 0.5 0.4 0.2
v -0.5 0.4 -0.2
v -0.4 0.4 -0.2
v 0.4 0.4 -0.2
v 0.5 0.4 -0.2
v -0.4 0.8 -0.1
v -0.3 0.8 -0.1
v 0.3 0.8 -0.1
v 0.4 0.8 -0.1
v -0.4 0.8 -0.2
v -0.3 0.8 -0.2
v 0.3 0.8 -0.2
v 0.4 0.8 -0.2
v -0.3 0.9 -0.1
v -0.2 0.9 -0.1
v 0.2 0.9 -0.1
v 0.3 0.9 -0.1
v -0.3 0.9 -0.2
v -0.2 0.9 -0.2
v 0.2 0.9 -0.2
v 0.3 0.9 -0.2
v -0.5 1 0.1
v -0.3 1 0.1
v 0.3 1 0.1
v 0.5 1 0.1
v -0.4 1 0
v -0.3 1 0
v 0.3 1 0
v 0.4 1 0
v -0.4 1 -0.1
v -0.3 1 -0.1
v -0.2 1 -0.1
v 0.2 1 -0.1
v 0.3 1 -0.1
v 0.4 1 -0.1
v -0.5 1 -0.2
v -0.3 1 -0.2
v -0.2 1 -0.2
v 0.2 1 -0.2
v 0.3 1 -0.2
v 0.5 1 -0.2
v -0.5 0.2 0.1
v -0.4 0.2 0.1
v 0.4 0.2 0.1
v 0.5 0.2 0.1
v -0.5 0.2 -0.1
v -0.4 0.2 -0.1
v -0.2 0.2 -0.1
v 0.2 0.2 -0.1
v 0.4 0.2 -0.1
v 0.5 0.2 -0.1
v -0.2 0.2 -0.2
v 0.2 0.2 -0.2
v -0.3 0.3 -0.1
v -0.2 0.3 -0.1
v 0.2 0.3 -0.1
v 0.3 0.3 -0.1
v -0.3 0.3 -0.2
v -0.2 0.3 -0.2
v 0.2 0.3 -0.2
v 0.3 0.3 -0.2
v -0.4 0.4 -0.1
v -0.3 0.4 -0.1
v 0.3 0.4 -0.1
v 0.4 0.4 -0.1
v -0.4 0.4 -0.2
v -0.3 0.4 -0.2
v 0.3 0.4 -0.2
v 0.4 0.4 -0.2
v -0.5 0.8 0.2
v -0.4 0.8 0.2
v 0.4 0.8 0.2
v 0.5 0.8 0.2
v -0.5 0.8 -0.2
v -0.4 0.8 -0.2
v 0.4 0.8 -0.2
v 0.5 0.8 -0.2
v -0.4 0.9 0.2
v -0.3 0.9 0.2
v 0.3 0.9 0.2
v 0.4 0.9 0.2
v -0.4 0.9 0
v -0.3 0.9 0
v 0.3 0.9 0
v 0.4 0.9 0
v -0.4 0.9 -0.1
v -0.3 0.9 -0.1
v 0.3 0.9 -0.1
v 0.4 0.9 -0.1
v -0.4 0.9 -0.2
v -0.3 0.9 -0.2
v 0.3 0.9 -0.2
v 0.4 0.9 -0.2
v -0.3 1 0.2
v -0.2 1 0.2
v 0.2 1 0.2
v 0.3 1 0.2
v -0.3 1 0.1
v 0.3 1 0.1
v -0.3 1 -0.2
v -0.2 1 -0.2
v 0.2 1 -0.2
v 0.3 1 -0.2
v -0.2 1.1 0.2
v 0.2 1.1 0.2
v -0.5 1.1 -0.1
v -0.4 1.1 -0.1
v -0.3 1.1 -0.1
v 0.3 1.1 -0.1
v 0.4 1.1 -0.1
v 0.5 1.1 -0.1
v -0.5 1.1 -0.2
v -0.3 1.1 -0.2
v -0.2 1.1 -0.2
v 0.2 1.1 -0.2
v 0.3 1.1 -0.2
v 0.5 1.1 -0.2
v -0.5 1.2 0.1
v -0.3 1.2 0.1
v 0.3 1.2 0.1
v 0.5 1.2 0.1
v -0.5 1.2 0
v -0.4 1.2 0
v 0.3 1.2 0
v 0.4 1.2 0
v -0.5 1.2 -0.1
v -0.4 1.2 -0.1
v -0.3 1.2 -0.1
v 0.3 1.2 -0.1
v 0.4 1.2 -0.1
v 0.5 1.2 -0.1

# faces
f 3/6/1 2/6/1 1/6/1
f 4/6/1 2/6/1 3/6/1
f 7/4/1 6/4/1 5/4/1
f 8/4/1 6/4/1 7/4/1
f 11/2/1 10/2/1 9/2/1
f 12/2/1 10/2/1 11/2/1
f 13/2/1 10/2/1 12/2/1
f 14/2/1 11/2/1 9/2/1
f 15/3/1 12/3/1 11/3/1
f 15/2/1 11/2/1 14/2/1
f 16/3/1 12/3/1 15/3/1
f 20/6/1 18/6/1 17/6/1
f 21/6/1 18/6/1 20/6/1
f 23/4/1 20/4/1 19/4/1
f 23/4/1 22/4/1 21/4/1
f 23/4/1 21/4/1 20/4/1
f 24/4/1 22/4/1 23/4/1
f 27/4/1 26/4/1 25/4/1
f 28/4/1 26/4/1 27/4/1
f 29/4/1 26/4/1 28/4/1
f 30/4/1 26/4/1 29/4/1
f 31/6/1 29/6/1 28/6/1
f 32/6/1 29/6/1 31/6/1
f 37/4/1 34/4/1 33/4/1
f 38/4/1 34/4/1 37/4/1
f 39/4/1 36/4/1 35/4/1
f 40/4/1 36/4/1 39/4/1
f 45/4/1 42/4/1 41/4/1
f 46/4/1 42/4/1 45/4/1
f 47/4/1 42/4/1 46/4/1
f 48/4/1 44/4/1 43/4/1
f 49/4/1 44/4/1 48/4/1
f 54/4/1 51/4/1 50/4/1
f 55/4/1 51/4/1 54/4/1
f 56/4/1 53/4/1 52/4/1
f 57/4/1 53/4/1 56/4/1
f 60/4/1 59/4/1 58/4/1
f 61/4/1 59/4/1 60/4/1
f 64/4/1 63/4/1 62/4/1
f 65/4/1 63/4/1 64/4/1
f 68/4/1 67/4/1 66/4/1
f 69/4/1 67/4/1 68/4/1
f 72/6/1 71/6/1 70/6/1
f 73/6/1 71/6/1 72/6/1
f 76/4/1 75/4/1 74/4/1
f 77/4/1 75/4/1 76/4/1
f 80/4/1 79/4/1 78/4/1
f 81/4/1 79/4/1 80/4/1
f 84/2/1 83/2/1 82/2/1
f 85/2/1 83/2/1 84/2/1
f 86/2/1 83/2/1 85/2/1
f 87/2/1 84/2/1 82/2/1
f 88/3/1 85/3/1 84/3/1
f 88/2/1 84/2/1 87/2/1
f 89/3/1 85/3/1 88/3/1
f 92/4/1 91/4/1 90/4/1
f 93/4/1 91/4/1 92/4/1
f 94/4/1 91/4/1 93/4/1
f 95/4/2 96/4/2 97/4/2
f 97/4/2 96/4/2 98/4/2
f 98/4/2 96/4/2 99/4/2
f 100/6/2 101/6/2 102/6/2
f 102/6/2 101/6/2 103/6/2
f 104/4/2 105/4/2 106/4/2
f 106/4/2 105/4/2 107/4/2
f 108/4/2 109/4/2 110/4/2
f 110/4/2 109/4/2 111/4/2
f 112/2/2 113/2/2 114/2/2
f 114/2/2 113/2/2 115/2/2
f 112/2/2 114/2/2 116/2/2
f 116/2/2 114/2/2 117/2/2
f 118/4/2 119/4/2 120/4/2
f 120/4/2 119/4/2 121/4/2
f 122/4/2 123/4/2 124/4/2
f 124/4/2 123/4/2 125/4/2
f 126/4/2 127/4/2 130/4/2
f 130/4/2 127/4/2 131/4/2
f 128/4/2 129/4/2 132/4/2
f 132/4/2 129/4/2 133/4/2
f 134/4/2 135/4/2 136/4/2
f 136/4/2 135/4/2 137/4/2
f 138/4/2 139/4/2 142/4/2
f 142/4/2 139/4/2 143/4/2
f 140/4/2 141/4/2 144/4/2
f 144/4/2 141/4/2 145/4/2
f 146/4/2 147/4/2 150/4/2
f 150/4/2 147/4/2 151/4/2
f 151/4/2 147/4/2 152/4/2
f 148/4/2 149/4/2 153/4/2
f 153/4/2 149/4/2 154/4/2
f 155/6/2 156/6/2 158/6/2
f 158/6/2 156/6/2 159/6/2
f 157/4/2 158/4/2 161/4/2
f 159/4/2 160/4/2 161/4/2
f 158/4/2 159/4/2 161/4/2
f 161/4/2 160/4/2 162/4/2
f 163/4/2 164/4/2 165/4/2
f 165/4/2 164/4/2 166/4/2
f 166/4/2 164/4/2 167/4/2
f 167/4/2 164/4/2 168/4/2
f 166/6/2 167/6/2 169/6/2
f 169/6/2 167/6/2 170/6/2
f 171/6/2 172/6/2 173/6/2
f 173/6/2 172/6/2 174/6/2
f 175/4/2 176/4/2 177/4/2
f 177/4/2 176/4/2 178/4/2
f 179/2/2 180/2/2 181/2/2
f 181/2/2 180/2/2 182/2/2
f 179/2/2 181/2/2 183/2/2
f 183/2/2 181/2/2 184/2/2
f 188/4/3 186/4/3 185/4/3
f 189/4/3 186/4/3 188/4/3
f 192/4/3 188/4/3 187/4/3
f 192/4/3 190/4/3 189/4/3
f 192/4/3 189/4/3 188/4/3
f 193/4/3 190/4/3 192/4/3
f 196/4/3 192/4/3 191/4/3
f 196/4/3 194/4/3 193/4/3
f 196/4/3 193/4/3 192/4/3
f 197/4/3 194/4/3 196/4/3
f 198/4/3 194/4/3 197/4/3
f 199/4/3 194/4/3 198/4/3
f 201/4/3 196/4/3 195/4/3
f 201/4/3 197/4/3 196/4/3
f 202/4/3 197/4/3 201/4/3
f 203/7/3 198/7/3 197/7/3
f 203/4/3 197/4/3 202/4/3
f 204/4/3 200/4/3 199/4/3
f 204/7/3 198/7/3 203/7/3
f 204/4/3 199/4/3 198/4/3
f 205/4/3 200/4/3 204/4/3
f 206/4/3 200/4/3 205/4/3
f 207/4/3 203/4/3 202/4/3
f 207/4/3 205/4/3 204/4/3
f 207/4/3 204/4/3 203/4/3
f 208/4/3 205/4/3 207/4/3
f 209/4/3 205/4/3 208/4/3
f 210/4/3 205/4/3 209/4/3
f 211/4/3 209/4/3 208/4/3
f 212/4/3 209/4/3 211/4/3
f 213/4/3 209/4/3 212/4/3
f 214/4/3 209/4/3 213/4/3
f 215/4/3 213/4/3 212/4/3
f 216/4/3 213/4/3 215/4/3
f 221/6/3 218/6/3 217/6/3
f 223/6/3 221/6/3 217/6/3
f 223/6/3 222/6/3 221/6/3
f 224/6/3 222/6/3 223/6/3
f 225/6/3 222/6/3 224/6/3
f 226/6/3 222/6/3 225/6/3
f 227/2/3 220/2/3 219/2/3
f 228/2/3 220/2/3 227/2/3
f 229/6/3 225/6/3 224/6/3
f 230/6/3 225/6/3 229/6/3
f 234/6/3 232/6/3 231/6/3
f 235/6/3 232/6/3 234/6/3
f 239/6/3 235/6/3 234/6/3
f 239/6/3 234/6/3 233/6/3
f 239/6/3 236/6/3 235/6/3
f 240/6/3 236/6/3 239/6/3
f 241/6/3 239/6/3 233/6/3
f 242/6/3 239/6/3 241/6/3
f 243/2/3 238/2/3 237/2/3
f 244/2/3 238/2/3 243/2/3
f 247/6/3 246/6/3 245/6/3
f 248/6/3 246/6/3 247/6/3
f 251/6/3 250/6/3 249/6/3
f 252/6/3 250/6/3 251/6/3
f 253/6/4 254/6/4 257/6/4
f 255/3/4 256/3/4 264/3/4
f 264/3/4 256/3/4 265/3/4
f 253/6/4 257/6/4 266/6/4
f 257/6/4 258/6/4 266/6/4
f 266/6/4 258/6/4 267/6/4
f 267/6/4 258/6/4 268/6/4
f 268/6/4 258/6/4 269/6/4
f 259/5/4 260/5/4 270/5/4
f 260/1/4 261/1/4 271/1/4
f 270/5/4 260/5/4 271/5/4
f 271/1/4 261/1/4 272/1/4
f 262/6/4 263/6/4 273/6/4
f 273/6/4 263/6/4 274/6/4
f 264/2/4 265/2/4 275/2/4
f 275/2/4 265/2/4 276/2/4
f 267/6/4 268/6/4 277/6/4
f 277/6/4 268/6/4 278/6/4
f 271/5/4 272/5/4 279/5/4
f 269/5/4 270/5/4 279/5/4
f 270/5/4 271/5/4 279/5/4
f 279/5/4 272/5/4 280/5/4
f 280/5/4 272/5/4 281/5/4
f 272/1/4 273/1/4 282/1/4
f 281/5/4 272/5/4 282/5/4
f 282/1/4 273/1/4 283/1/4
f 278/5/4 279/5/4 285/5/4
f 279/5/4 280/5/4 285/5/4
f 280/1/4 281/1/4 286/1/4
f 285/5/4 280/5/4 286/5/4
f 282/5/4 283/5/4 287/5/4
f 286/1/4 281/1/4 287/1/4
f 281/5/4 282/5/4 287/5/4
f 278/5/4 285/5/4 288/5/4
f 285/1/4 286/1/4 288/1/4
f 286/5/4 287/5/4 289/5/4
f 288/1/4 286/1/4 289/1/4
f 287/5/4 283/5/4 290/5/4
f 289/5/4 287/5/4 290/5/4
f 288/5/4 289/5/4 291/5/4
f 289/1/4 290/1/4 291/1/4
f 290/5/4 283/5/4 292/5/4
f 291/1/4 290/1/4 292/1/4
f 288/5/4 291/5/4 294/5/4
f 278/5/4 288/5/4 294/5/4
f 291/5/4 292/5/4 294/5/4
f 294/5/4 292/5/4 295/5/4
f 292/5/4 283/5/4 296/5/4
f 295/5/4 292/5/4 296/5/4
f 283/1/4 284/1/4 297/1/4
f 296/5/4 283/5/4 297/5/4
f 297/1/4 284/1/4 298/1/4
f 293/6/4 294/6/4 300/6/4
f 300/6/4 294/6/4 301/6/4
f 295/5/4 296/5/4 302/5/4
f 302/5/4 296/5/4 303/5/4
f 303/5/4 296/5/4 304/5/4
f 296/1/4 297/1/4 305/1/4
f 304/5/4 296/5/4 305/5/4
f 305/1/4 297/1/4 306/1/4
f 300/6/4 301/6/4 310/6/4
f 299/6/4 300/6/4 310/6/4
f 301/6/4 302/6/4 310/6/4
f 310/6/4 302/6/4 311/6/4
f 303/5/4 304/5/4 312/5/4
f 304/1/4 305/1/4 313/1/4
f 312/5/4 304/5/4 313/5/4
f 313/1/4 305/1/4 314/1/4
f 306/6/4 307/6/4 315/6/4
f 315/6/4 307/6/4 316/6/4
f 308/3/4 309/3/4 317/3/4
f 317/3/4 309/3/4 318/3/4
f 299/6/4 310/6/4 319/6/4
f 319/6/4 310/6/4 320/6/4
f 317/2/4 318/2/4 321/2/4
f 321/2/4 318/2/4 322/2/4
f 323/4/4 324/4/4 328/4/4
f 328/4/4 324/4/4 329/4/4
f 327/4/4 328/4/4 332/4/4
f 332/4/4 328/4/4 333/4/4
f 329/4/4 330/4/4 334/4/4
f 334/4/4 330/4/4 335/4/4
f 325/2/4 326/2/4 336/2/4
f 336/2/4 326/2/4 337/2/4
f 331/4/4 332/4/4 339/4/4
f 339/4/4 332/4/4 340/4/4
f 335/4/4 336/4/4 341/4/4
f 341/4/4 336/4/4 342/4/4
f 338/4/4 339/4/4 344/4/4
f 344/4/4 339/4/4 345/4/4
f 342/4/4 343/4/4 348/4/4
f 348/4/4 343/4/4 349/4/4
f 345/4/4 346/4/4 350/4/4
f 350/4/4 346/4/4 351/4/4
f 347/4/4 348/4/4 354/4/4
f 354/4/4 348/4/4 355/4/4
f 351/4/4 352/4/4 357/4/4
f 357/4/4 352/4/4 358/4/4
f 353/4/4 354/4/4 359/4/4
f 359/4/4 354/4/4 360/4/4
f 358/4/4 359/4/4 361/4/4
f 361/4/4 359/4/4 362/4/4
f 355/2/4 356/2/4 363/2/4
f 363/2/4 356/2/4 364/2/4
f 369/6/5 366/6/5 365/6/5
f 370/6/5 366/6/5 369/6/5
f 371/6/5 368/6/5 367/6/5
f 372/6/5 368/6/5 371/6/5
f 376/4/5 374/4/5 373/4/5
f 377/4/5 374/4/5 376/4/5
f 379/6/5 376/6/5 375/6/5
f 380/4/5 377/4/5 376/4/5
f 380/6/5 376/6/5 379/6/5
f 381/6/5 378/6/5 377/6/5
f 381/4/5 377/4/5 380/4/5
f 382/6/5 378/6/5 381/6/5
f 383/4/5 381/4/5 380/4/5
f 384/4/5 381/4/5 383/4/5
f 389/4/5 386/4/5 385/4/5
f 390/4/5 386/4/5 389/4/5
f 391/4/5 388/4/5 387/4/5
f 392/4/5 388/4/5 391/4/5
f 397/4/5 394/4/5 393/4/5
f 398/4/5 394/4/5 397/4/5
f 399/4/5 396/4/5 395/4/5
f 400/4/5 396/4/5 399/4/5
f 405/4/5 402/4/5 401/4/5
f 406/4/5 402/4/5 405/4/5
f 407/4/5 404/4/5 403/4/5
f 408/4/5 404/4/5 407/4/5
f 413/4/5 410/4/5 409/4/5
f 414/4/5 410/4/5 413/4/5
f 415/4/5 412/4/5 411/4/5
f 416/4/5 412/4/5 415/4/5
f 421/4/5 418/4/5 417/4/5
f 422/4/5 418/4/5 421/4/5
f 423/4/5 420/4/5 419/4/5
f 424/4/5 420/4/5 423/4/5
f 429/4/5 426/4/5 425/4/5
f 430/4/5 426/4/5 429/4/5
f 431/4/5 428/4/5 427/4/5
f 432/4/5 428/4/5 431/4/5
f 437/4/5 434/4/5 433/4/5
f 438/4/5 434/4/5 437/4/5
f 439/4/5 436/4/5 435/4/5
f 440/4/5 436/4/5 439/4/5
f 445/2/5 442/2/5 441/2/5
f 446/2/5 442/2/5 445/2/5
f 447/2/5 444/2/5 443/2/5
f 448/2/5 444/2/5 447/2/5
f 449/2/5 445/2/5 441/2/5
f 454/2/5 444/2/5 448/2/5
f 455/2/5 449/2/5 441/2/5
f 455/2/5 450/2/5 449/2/5
f 456/2/5 450/2/5 455/2/5
f 457/4/5 452/4/5 451/4/5
f 458/4/5 452/4/5 457/4/5
f 459/2/5 454/2/5 453/2/5
f 460/2/5 444/2/5 454/2/5
f 460/2/5 454/2/5 459/2/5
f 461/6/6 462/6/6 465/6/6
f 465/6/6 462/6/6 466/6/6
f 463/6/6 464/6/6 469/6/6
f 469/6/6 464/6/6 470/6/6
f 467/4/6 468/4/6 471/4/6
f 471/4/6 468/4/6 472/4/6
f 473/4/6 474/4/6 477/4/6
f 477/4/6 474/4/6 478/4/6
f 475/4/6 476/4/6 479/4/6
f 479/4/6 476/4/6 480/4/6
f 481/4/6 482/4/6 485/4/6
f 485/4/6 482/4/6 486/4/6
f 483/4/6 484/4/6 487/4/6
f 487/4/6 484/4/6 488/4/6
f 489/4/6 490/4/6 493/4/6
f 493/4/6 490/4/6 494/4/6
f 491/4/6 492/4/6 495/4/6
f 495/4/6 492/4/6 496/4/6
f 497/4/6 498/4/6 501/4/6
f 501/4/6 498/4/6 502/4/6
f 499/4/6 500/4/6 503/4/6
f 503/4/6 500/4/6 504/4/6
f 505/4/6 506/4/6 509/4/6
f 509/4/6 506/4/6 510/4/6
f 507/4/6 508/4/6 511/4/6
f 511/4/6 508/4/6 512/4/6
f 513/4/6 514/4/6 517/4/6
f 515/4/6 516/4/6 518/4/6
f 517/4/6 514/4/6 519/4/6
f 519/4/6 514/4/6 520/4/6
f 515/4/6 518/4/6 521/4/6
f 521/4/6 518/4/6 522/4/6
f 525/2/6 526/2/6 531/2/6
f 526/2/6 527/2/6 531/2/6
f 531/2/6 527/2/6 532/2/6
f 523/4/6 524/4/6 533/4/6
f 533/4/6 524/4/6 534/4/6
f 529/2/6 530/2/6 535/2/6
f 528/2/6 529/2/6 535/2/6
f 535/2/6 530/2/6 536/2/6
f 537/2/6 538/2/6 541/2/6
f 541/2/6 538/2/6 542/2/6
f 539/2/6 540/2/6 543/2/6
f 543/2/6 540/2/6 544/2/6
f 541/3/6 542/3/6 545/3/6
f 542/2/6 538/2/6 546/2/6
f 545/3/6 542/3/6 546/3/6
f 546/2/6 538/2/6 547/2/6
f 543/3/6 544/3/6 548/3/6
f 544/2/6 540/2/6 549/2/6
f 548/3/6 544/3/6 549/3/6
f 549/2/6 540/2/6 550/2/6
