# MagicaVoxel @ Ephtracy

# group
o 

# material
mtllib gauntlet.vox.mtl
usemtl palette

# normals
vn -1 0 0
vn 1 0 0
vn 0 0 1
vn 0 0 -1
vn 0 -1 0
vn 0 1 0

# texcoords
vt 0.00195312 0.5
vt 0.0957031 0.5
vt 0.130859 0.5
vt 0.134766 0.5
vt 0.138672 0.5
vt 0.142578 0.5

# verts
v -0.4 0.7 0
v -0.4 0.7 -0.1
v -0.4 0.8 0
v -0.4 0.8 -0.1
v -0.4 0.8 -0.2
v -0.4 1 0
v -0.4 1 -0.1
v -0.4 1 -0.2
v -0.3 0 0.3
v -0.3 0 -0.2
v -0.3 0.2 0.3
v -0.3 0.2 -0.2
v -0.3 0.6 0.1
v -0.3 0.6 -0.2
v -0.3 0.7 0
v -0.3 0.7 -0.1
v -0.3 0.8 0.1
v -0.3 0.8 0
v -0.3 0.8 -0.1
v -0.3 0.8 -0.2
v -0.2 0 0.4
v -0.2 0 0.3
v -0.2 0 -0.2
v -0.2 0 -0.3
v -0.2 0.2 0.4
v -0.2 0.2 0.3
v -0.2 0.2 -0.2
v -0.2 0.2 -0.3
v -0.2 0.6 0.1
v -0.2 0.6 -0.2
v -0.2 0.7 0.4
v -0.2 0.7 0.3
v -0.2 0.7 0.2
v -0.2 0.7 0.1
v -0.2 0.8 0.1
v -0.2 0.9 0.2
v -0.2 0.9 0.1
v -0.2 1 0.4
v -0.2 1 0.3
v -0.2 1.1 0.4
v -0.2 1.1 0.3
v -0.2 1.1 0.2
v -0.2 1.1 0.1
v -0.2 1.2 0.3
v -0.2 1.2 0.2
v -0.2 1.2 0.1
v -0.2 1.2 -0.1
v -0.2 1.2 -0.2
v -0.2 1.3 0.2
v -0.2 1.3 0.1
v -0.2 1.3 -0.1
v -0.2 1.3 -0.2
v -0.2 1.4 0.1
v -0.2 1.4 -0.1
v -0.1 0.2 -0.2
v -0.1 0.2 -0.3
v -0.1 0.5 -0.2
v -0.1 0.5 -0.3
v -0.1 0.6 0.4
v -0.1 0.6 0.3
v -0.1 0.7 0.4
v -0.1 0.7 0.3
v 0 1.1 0.3
v 0 1.1 0.2
v 0 1.2 0.3
v 0 1.2 0.2
v 0 1.2 0.1
v 0 1.2 -0.2
v 0 1.2 -0.3
v 0 1.3 0.2
v 0 1.3 0.1
v 0 1.3 -0.2
v 0 1.3 -0.3
v 0 1.4 0.1
v 0 1.4 -0.2
v 0.2 1.1 0.3
v 0.2 1.1 0.2
v 0.2 1.2 0.3
v 0.2 1.2 0.2
v 0.2 1.2 0.1
v 0.2 1.3 0.2
v 0.2 1.3 0.1
v 0.2 1.3 -0.1
v 0.2 1.4 0.1
v 0.2 1.4 -0.1
v 0.3 0 0.3
v 0.3 0 -0.2
v 0.3 0.1 0.3
v 0.3 0.1 -0.2
v -0.3 0.9 0
v -0.3 0.9 -0.1
v -0.3 1 0
v -0.3 1 -0.1
v -0.2 0 0.3
v -0.2 0 -0.2
v -0.2 0.1 0.3
v -0.2 0.1 -0.2
v -0.2 0.8 0
v -0.2 0.8 -0.1
v -0.2 0.8 -0.2
v -0.2 0.9 0
v -0.2 0.9 -0.1
v -0.2 1 -0.1
v -0.2 1 -0.2
v -0.1 0.7 -0.1
v -0.1 0.7 -0.2
v -0.1 0.8 -0.1
v -0.1 0.8 -0.2
v -0.1 1.1 0.3
v -0.1 1.1 0.2
v -0.1 1.2 0.3
v -0.1 1.2 0.2
v -0.1 1.2 0.1
v -0.1 1.3 0.2
v -0.1 1.3 0.1
v -0.1 1.3 -0.1
v -0.1 1.4 0.1
v -0.1 1.4 -0.1
v 0.1 1.1 0.3
v 0.1 1.1 0.2
v 0.1 1.2 0.3
v 0.1 1.2 0.2
v 0.1 1.2 0.1
v 0.1 1.2 -0.2
v 0.1 1.2 -0.3
v 0.1 1.3 0.2
v 0.1 1.3 0.1
v 0.1 1.3 -0.2
v 0.1 1.3 -0.3
v 0.1 1.4 0.1
v 0.1 1.4 -0.2
v 0.2 0.2 -0.2
v 0.2 0.2 -0.3
v 0.2 0.5 -0.2
v 0.2 0.5 -0.3
v 0.2 0.6 0.4
v 0.2 0.6 0.3
v 0.2 0.6 -0.1
v 0.2 0.6 -0.2
v 0.2 0.7 0.4
v 0.2 0.7 0.3
v 0.2 0.7 -0.1
v 0.2 0.7 -0.2
v 0.3 0 0.4
v 0.3 0 0.3
v 0.3 0 -0.2
v 0.3 0 -0.3
v 0.3 0.2 0.4
v 0.3 0.2 0.3
v 0.3 0.2 -0.2
v 0.3 0.2 -0.3
v 0.3 0.6 -0.1
v 0.3 0.6 -0.2
v 0.3 0.7 0.4
v 0.3 0.7 0.3
v 0.3 0.7 0.2
v 0.3 0.7 -0.1
v 0.3 0.8 0.1
v 0.3 0.8 -0.1
v 0.3 0.9 0.2
v 0.3 0.9 0.1
v 0.3 1 0.4
v 0.3 1 0.3
v 0.3 1.1 0.4
v 0.3 1.1 0.3
v 0.3 1.1 0.2
v 0.3 1.1 0.1
v 0.3 1.2 0.3
v 0.3 1.2 0.2
v 0.3 1.2 0.1
v 0.3 1.2 -0.1
v 0.3 1.2 -0.2
v 0.3 1.3 0.2
v 0.3 1.3 0.1
v 0.3 1.3 -0.1
v 0.3 1.3 -0.2
v 0.3 1.4 0.1
v 0.3 1.4 -0.1
v 0.4 0 0.3
v 0.4 0 -0.2
v 0.4 0.2 0.3
v 0.4 0.2 -0.2
v -0.2 0 0.4
v -0.2 0.2 0.4
v -0.2 0.7 0.4
v -0.2 1 0.4
v -0.2 1.1 0.4
v -0.1 0.6 0.4
v -0.1 0.7 0.4
v -0.1 0.8 0.4
v -0.1 1 0.4
v 0 0.8 0.4
v 0 0.9 0.4
v 0.1 0.8 0.4
v 0.1 0.9 0.4
v 0.1 1 0.4
v 0.2 0.6 0.4
v 0.2 0.7 0.4
v 0.2 1 0.4
v 0.3 0 0.4
v 0.3 0.2 0.4
v 0.3 0.7 0.4
v 0.3 1 0.4
v 0.3 1.1 0.4
v -0.3 0 0.3
v -0.3 0.2 0.3
v -0.2 0 0.3
v -0.2 0.2 0.3
v -0.2 0.7 0.3
v -0.2 1.1 0.3
v -0.2 1.2 0.3
v -0.1 0.6 0.3
v -0.1 0.7 0.3
v -0.1 1.1 0.3
v -0.1 1.2 0.3
v 0 1.1 0.3
v 0 1.2 0.3
v 0.1 1.1 0.3
v 0.1 1.2 0.3
v 0.2 0.6 0.3
v 0.2 0.7 0.3
v 0.2 1.1 0.3
v 0.2 1.2 0.3
v 0.3 0 0.3
v 0.3 0.2 0.3
v 0.3 0.7 0.3
v 0.3 1.1 0.3
v 0.3 1.2 0.3
v 0.4 0 0.3
v 0.4 0.2 0.3
v -0.2 1.2 0.2
v -0.2 1.3 0.2
v -0.1 1.1 0.2
v -0.1 1.2 0.2
v -0.1 1.3 0.2
v 0 1.1 0.2
v 0 1.2 0.2
v 0 1.3 0.2
v 0.1 1.1 0.2
v 0.1 1.2 0.2
v 0.1 1.3 0.2
v 0.2 1.1 0.2
v 0.2 1.2 0.2
v 0.2 1.3 0.2
v 0.3 1.2 0.2
v 0.3 1.3 0.2
v -0.3 0.6 0.1
v -0.3 0.8 0.1
v -0.2 0.6 0.1
v -0.2 0.7 0.1
v -0.2 0.8 0.1
v -0.2 1.3 0.1
v -0.2 1.4 0.1
v -0.1 1.2 0.1
v -0.1 1.3 0.1
v -0.1 1.4 0.1
v 0 1.2 0.1
v 0 1.3 0.1
v 0 1.4 0.1
v 0.1 1.2 0.1
v 0.1 1.3 0.1
v 0.1 1.4 0.1
v 0.2 1.2 0.1
v 0.2 1.3 0.1
v 0.2 1.4 0.1
v 0.3 1.3 0.1
v 0.3 1.4 0.1
v -0.4 0.7 0
v -0.4 0.8 0
v -0.4 1 0
v -0.3 0.7 0
v -0.3 0.8 0
v -0.3 0.9 0
v -0.3 1 0
v -0.2 0.8 0
v -0.2 0.9 0
v -0.3 0.9 -0.1
v -0.3 1 -0.1
v -0.2 0.9 -0.1
v -0.2 1 -0.1
v -0.2 0 -0.2
v -0.2 0.1 -0.2
v 0.3 0 -0.2
v 0.3 0.1 -0.2
v -0.2 0 0.3
v -0.2 0.1 0.3
v 0.3 0 0.3
v 0.3 0.1 0.3
v -0.2 0.9 0.2
v -0.2 1.1 0.2
v 0.3 0.9 0.2
v 0.3 1.1 0.2
v -0.2 0.8 0.1
v -0.2 0.9 0.1
v -0.2 1.1 0.1
v -0.2 1.2 0.1
v 0.3 0.8 0.1
v 0.3 0.9 0.1
v 0.3 1.1 0.1
v 0.3 1.2 0.1
v -0.4 0.7 -0.1
v -0.4 0.8 -0.1
v -0.3 0.7 -0.1
v -0.3 0.8 -0.1
v -0.2 1.3 -0.1
v -0.2 1.4 -0.1
v -0.1 0.7 -0.1
v -0.1 0.8 -0.1
v -0.1 1.3 -0.1
v -0.1 1.4 -0.1
v 0.2 0.6 -0.1
v 0.2 0.7 -0.1
v 0.2 1.3 -0.1
v 0.2 1.4 -0.1
v 0.3 0.6 -0.1
v 0.3 0.7 -0.1
v 0.3 0.8 -0.1
v 0.3 1.3 -0.1
v 0.3 1.4 -0.1
v -0.4 0.8 -0.2
v -0.4 1 -0.2
v -0.3 0 -0.2
v -0.3 0.2 -0.2
v -0.3 0.6 -0.2
v -0.3 0.8 -0.2
v -0.3 1 -0.2
v -0.2 0 -0.2
v -0.2 0.2 -0.2
v -0.2 0.6 -0.2
v -0.2 0.8 -0.2
v -0.2 1 -0.2
v -0.2 1.2 -0.2
v -0.2 1.3 -0.2
v -0.1 0.2 -0.2
v -0.1 0.5 -0.2
v -0.1 0.7 -0.2
v -0.1 0.8 -0.2
v -0.1 1.2 -0.2
v -0.1 1.3 -0.2
v 0 1.2 -0.2
v 0 1.3 -0.2
v 0 1.4 -0.2
v 0.1 1.2 -0.2
v 0.1 1.3 -0.2
v 0.1 1.4 -0.2
v 0.2 0.2 -0.2
v 0.2 0.5 -0.2
v 0.2 0.6 -0.2
v 0.2 0.7 -0.2
v 0.2 1.2 -0.2
v 0.2 1.3 -0.2
v 0.3 0 -0.2
v 0.3 0.2 -0.2
v 0.3 0.6 -0.2
v 0.3 1.2 -0.2
v 0.3 1.3 -0.2
v 0.4 0 -0.2
v 0.4 0.2 -0.2
v -0.2 0 -0.3
v -0.2 0.2 -0.3
v -0.1 0.2 -0.3
v -0.1 0.5 -0.3
v 0 1.2 -0.3
v 0 1.3 -0.3
v 0.1 1.2 -0.3
v 0.1 1.3 -0.3
v 0.2 0.2 -0.3
v 0.2 0.5 -0.3
v 0.3 0 -0.3
v 0.3 0.2 -0.3
v -0.2 0 0.4
v 0.3 0 0.4
v -0.3 0 0.3
v -0.2 0 0.3
v 0.3 0 0.3
v 0.4 0 0.3
v -0.3 0 -0.2
v -0.2 0 -0.2
v 0.3 0 -0.2
v 0.4 0 -0.2
v -0.2 0 -0.3
v 0.3 0 -0.3
v -0.2 0.1 0.3
v 0.3 0.1 0.3
v -0.2 0.1 -0.2
v 0.3 0.1 -0.2
v -0.1 0.6 0.4
v 0.2 0.6 0.4
v -0.1 0.6 0.3
v 0.2 0.6 0.3
v -0.3 0.6 0.1
v -0.2 0.6 0.1
v -0.3 0.6 -0.2
v -0.2 0.6 -0.2
v -0.2 0.7 0.4
v -0.1 0.7 0.4
v 0.2 0.7 0.4
v 0.3 0.7 0.4
v -0.2 0.7 0.3
v -0.1 0.7 0.3
v 0.2 0.7 0.3
v 0.3 0.7 0.3
v -0.4 0.7 0
v -0.3 0.7 0
v -0.4 0.7 -0.1
v -0.3 0.7 -0.1
v -0.4 0.8 -0.1
v -0.3 0.8 -0.1
v -0.4 0.8 -0.2
v -0.3 0.8 -0.2
v -0.2 1.1 0.2
v 0.3 1.1 0.2
v -0.2 1.1 0.1
v 0.3 1.1 0.1
v -0.2 1.2 0.1
v 0.3 1.2 0.1
v -0.2 1.2 -0.1
v -0.1 1.2 -0.1
v 0.2 1.2 -0.1
v 0.3 1.2 -0.1
v -0.2 1.2 -0.2
v -0.1 1.2 -0.2
v 0 1.2 -0.2
v 0.1 1.2 -0.2
v 0.2 1.2 -0.2
v 0.3 1.2 -0.2
v 0 1.2 -0.3
v 0.1 1.2 -0.3
v -0.2 0.2 0.4
v 0.3 0.2 0.4
v -0.3 0.2 0.3
v -0.2 0.2 0.3
v 0.3 0.2 0.3
v 0.4 0.2 0.3
v -0.3 0.2 -0.2
v -0.2 0.2 -0.2
v -0.1 0.2 -0.2
v 0.2 0.2 -0.2
v 0.3 0.2 -0.2
v 0.4 0.2 -0.2
v -0.2 0.2 -0.3
v -0.1 0.2 -0.3
v 0.2 0.2 -0.3
v 0.3 0.2 -0.3
v -0.1 0.5 -0.2
v 0.2 0.5 -0.2
v -0.1 0.5 -0.3
v 0.2 0.5 -0.3
v 0.2 0.6 -0.1
v 0.3 0.6 -0.1
v 0.2 0.6 -0.2
v 0.3 0.6 -0.2
v -0.1 0.7 -0.1
v 0.2 0.7 -0.1
v -0.1 0.7 -0.2
v 0.2 0.7 -0.2
v -0.3 0.8 0.1
v -0.2 0.8 0.1
v 0.3 0.8 0.1
v -0.3 0.8 0
v -0.2 0.8 0
v -0.2 0.8 -0.1
v -0.1 0.8 -0.1
v 0.3 0.8 -0.1
v -0.2 0.8 -0.2
v -0.1 0.8 -0.2
v -0.2 0.9 0.2
v 0.3 0.9 0.2
v -0.2 0.9 0.1
v 0.3 0.9 0.1
v -0.3 0.9 0
v -0.2 0.9 0
v -0.3 0.9 -0.1
v -0.2 0.9 -0.1
v -0.4 1 0
v -0.3 1 0
v -0.4 1 -0.1
v -0.3 1 -0.1
v -0.2 1 -0.1
v -0.4 1 -0.2
v -0.3 1 -0.2
v -0.2 1 -0.2
v -0.2 1.1 0.4
v 0.3 1.1 0.4
v -0.2 1.1 0.3
v -0.1 1.1 0.3
v 0 1.1 0.3
v 0.1 1.1 0.3
v 0.2 1.1 0.3
v 0.3 1.1 0.3
v -0.1 1.1 0.2
v 0 1.1 0.2
v 0.1 1.1 0.2
v 0.2 1.1 0.2
v -0.2 1.2 0.3
v -0.1 1.2 0.3
v 0 1.2 0.3
v 0.1 1.2 0.3
v 0.2 1.2 0.3
v 0.3 1.2 0.3
v -0.2 1.2 0.2
v -0.1 1.2 0.2
v 0 1.2 0.2
v 0.1 1.2 0.2
v 0.2 1.2 0.2
v 0.3 1.2 0.2
v -0.1 1.2 0.1
v 0 1.2 0.1
v 0.1 1.2 0.1
v 0.2 1.2 0.1
v -0.2 1.3 0.2
v -0.1 1.3 0.2
v 0 1.3 0.2
v 0.1 1.3 0.2
v 0.2 1.3 0.2
v 0.3 1.3 0.2
v -0.2 1.3 0.1
v -0.1 1.3 0.1
v 0 1.3 0.1
v 0.1 1.3 0.1
v 0.2 1.3 0.1
v 0.3 1.3 0.1
v -0.2 1.3 -0.1
v -0.1 1.3 -0.1
v 0.2 1.3 -0.1
v 0.3 1.3 -0.1
v -0.2 1.3 -0.2
v -0.1 1.3 -0.2
v 0 1.3 -0.2
v 0.1 1.3 -0.2
v 0.2 1.3 -0.2
v 0.3 1.3 -0.2
v 0 1.3 -0.3
v 0.1 1.3 -0.3
v -0.2 1.4 0.1
v -0.1 1.4 0.1
v 0 1.4 0.1
v 0.1 1.4 0.1
v 0.2 1.4 0.1
v 0.3 1.4 0.1
v -0.2 1.4 -0.1
v -0.1 1.4 -0.1
v 0.2 1.4 -0.1
v 0.3 1.4 -0.1
v 0 1.4 -0.2
v 0.1 1.4 -0.2

# faces
f 3/4/1 2/4/1 1/4/1
f 4/4/1 2/4/1 3/4/1
f 6/3/1 4/3/1 3/3/1
f 7/4/1 5/4/1 4/4/1
f 7/3/1 4/3/1 6/3/1
f 8/4/1 5/4/1 7/4/1
f 11/4/1 10/4/1 9/4/1
f 12/4/1 10/4/1 11/4/1
f 15/3/1 14/3/1 13/3/1
f 16/3/1 14/3/1 15/3/1
f 17/3/1 15/3/1 13/3/1
f 18/3/1 15/3/1 17/3/1
f 19/3/1 14/3/1 16/3/1
f 20/3/1 14/3/1 19/3/1
f 25/4/1 22/4/1 21/4/1
f 26/4/1 22/4/1 25/4/1
f 27/4/1 24/4/1 23/4/1
f 28/4/1 24/4/1 27/4/1
f 29/3/1 27/3/1 26/3/1
f 30/3/1 27/3/1 29/3/1
f 32/3/1 29/3/1 26/3/1
f 33/3/1 29/3/1 32/3/1
f 34/3/1 29/3/1 33/3/1
f 35/4/1 34/4/1 33/4/1
f 36/3/1 32/3/1 31/3/1
f 36/3/1 33/3/1 32/3/1
f 36/4/1 35/4/1 33/4/1
f 37/4/1 35/4/1 36/4/1
f 38/3/1 36/3/1 31/3/1
f 39/3/1 36/3/1 38/3/1
f 40/4/1 39/4/1 38/4/1
f 41/3/1 36/3/1 39/3/1
f 41/4/1 39/4/1 40/4/1
f 42/3/1 36/3/1 41/3/1
f 44/4/1 43/4/1 42/4/1
f 44/4/1 42/4/1 41/4/1
f 45/4/1 43/4/1 44/4/1
f 46/4/1 43/4/1 45/4/1
f 49/4/1 46/4/1 45/4/1
f 50/3/1 47/3/1 46/3/1
f 50/4/1 46/4/1 49/4/1
f 51/4/1 48/4/1 47/4/1
f 51/3/1 47/3/1 50/3/1
f 52/4/1 48/4/1 51/4/1
f 53/4/1 51/4/1 50/4/1
f 54/4/1 51/4/1 53/4/1
f 57/3/1 56/3/1 55/3/1
f 58/3/1 56/3/1 57/3/1
f 61/3/1 60/3/1 59/3/1
f 62/3/1 60/3/1 61/3/1
f 65/4/1 64/4/1 63/4/1
f 66/4/1 64/4/1 65/4/1
f 70/4/1 67/4/1 66/4/1
f 71/4/1 67/4/1 70/4/1
f 72/4/1 69/4/1 68/4/1
f 73/4/1 69/4/1 72/4/1
f 74/4/1 72/4/1 71/4/1
f 75/4/1 72/4/1 74/4/1
f 78/4/1 77/4/1 76/4/1
f 79/4/1 77/4/1 78/4/1
f 81/4/1 80/4/1 79/4/1
f 82/4/1 80/4/1 81/4/1
f 84/4/1 83/4/1 82/4/1
f 85/4/1 83/4/1 84/4/1
f 88/4/1 87/4/1 86/4/1
f 89/4/1 87/4/1 88/4/1
f 90/3/2 91/3/2 92/3/2
f 92/3/2 91/3/2 93/3/2
f 94/4/2 95/4/2 96/4/2
f 96/4/2 95/4/2 97/4/2
f 98/3/2 99/3/2 101/3/2
f 99/3/2 100/3/2 101/3/2
f 101/3/2 100/3/2 102/3/2
f 102/3/2 100/3/2 103/3/2
f 103/3/2 100/3/2 104/3/2
f 105/3/2 106/3/2 107/3/2
f 107/3/2 106/3/2 108/3/2
f 109/4/2 110/4/2 111/4/2
f 111/4/2 110/4/2 112/4/2
f 112/4/2 113/4/2 114/4/2
f 114/4/2 113/4/2 115/4/2
f 115/4/2 116/4/2 117/4/2
f 117/4/2 116/4/2 118/4/2
f 119/4/2 120/4/2 121/4/2
f 121/4/2 120/4/2 122/4/2
f 122/4/2 123/4/2 126/4/2
f 126/4/2 123/4/2 127/4/2
f 124/4/2 125/4/2 128/4/2
f 128/4/2 125/4/2 129/4/2
f 127/4/2 128/4/2 130/4/2
f 130/4/2 128/4/2 131/4/2
f 132/3/2 133/3/2 134/3/2
f 134/3/2 133/3/2 135/3/2
f 136/3/2 137/3/2 140/3/2
f 140/3/2 137/3/2 141/3/2
f 138/3/2 139/3/2 142/3/2
f 142/3/2 139/3/2 143/3/2
f 144/4/2 145/4/2 148/4/2
f 148/4/2 145/4/2 149/4/2
f 146/4/2 147/4/2 150/4/2
f 150/4/2 147/4/2 151/4/2
f 149/3/2 150/3/2 152/3/2
f 152/3/2 150/3/2 153/3/2
f 149/3/2 152/3/2 155/3/2
f 155/3/2 152/3/2 156/3/2
f 156/3/2 152/3/2 157/3/2
f 156/4/2 157/4/2 158/4/2
f 158/4/2 157/4/2 159/4/2
f 154/3/2 155/3/2 160/3/2
f 155/3/2 156/3/2 160/3/2
f 156/4/2 158/4/2 160/4/2
f 160/4/2 158/4/2 161/4/2
f 154/3/2 160/3/2 162/3/2
f 162/3/2 160/3/2 163/3/2
f 162/4/2 163/4/2 164/4/2
f 163/3/2 160/3/2 165/3/2
f 164/4/2 163/4/2 165/4/2
f 165/3/2 160/3/2 166/3/2
f 166/4/2 167/4/2 168/4/2
f 165/4/2 166/4/2 168/4/2
f 168/4/2 167/4/2 169/4/2
f 169/4/2 167/4/2 170/4/2
f 169/4/2 170/4/2 173/4/2
f 170/3/2 171/3/2 174/3/2
f 173/4/2 170/4/2 174/4/2
f 171/4/2 172/4/2 175/4/2
f 174/3/2 171/3/2 175/3/2
f 175/4/2 172/4/2 176/4/2
f 174/4/2 175/4/2 177/4/2
f 177/4/2 175/4/2 178/4/2
f 179/4/2 180/4/2 181/4/2
f 181/4/2 180/4/2 182/4/2
f 189/3/3 186/3/3 185/3/3
f 190/3/3 186/3/3 189/3/3
f 191/4/3 187/4/3 186/4/3
f 191/3/3 186/3/3 190/3/3
f 192/5/3 190/5/3 189/5/3
f 192/6/3 191/6/3 190/6/3
f 193/6/3 191/6/3 192/6/3
f 194/5/3 192/5/3 189/5/3
f 194/2/3 193/2/3 192/2/3
f 195/6/3 191/6/3 193/6/3
f 195/2/3 193/2/3 194/2/3
f 196/4/3 187/4/3 191/4/3
f 196/6/3 191/6/3 195/6/3
f 197/3/3 189/3/3 188/3/3
f 198/5/3 195/5/3 194/5/3
f 198/3/3 189/3/3 197/3/3
f 198/5/3 194/5/3 189/5/3
f 198/5/3 196/5/3 195/5/3
f 199/4/3 187/4/3 196/4/3
f 199/5/3 196/5/3 198/5/3
f 200/4/3 184/4/3 183/4/3
f 201/4/3 184/4/3 200/4/3
f 202/3/3 199/3/3 198/3/3
f 203/4/3 187/4/3 199/4/3
f 203/3/3 199/3/3 202/3/3
f 204/4/3 187/4/3 203/4/3
f 207/4/3 206/4/3 205/4/3
f 208/4/3 206/4/3 207/4/3
f 212/3/3 209/3/3 208/3/3
f 213/3/3 209/3/3 212/3/3
f 214/4/3 211/4/3 210/4/3
f 215/4/3 211/4/3 214/4/3
f 218/4/3 217/4/3 216/4/3
f 219/4/3 217/4/3 218/4/3
f 220/3/3 212/3/3 208/3/3
f 225/3/3 220/3/3 208/3/3
f 225/3/3 221/3/3 220/3/3
f 226/3/3 221/3/3 225/3/3
f 227/4/3 223/4/3 222/4/3
f 228/4/3 223/4/3 227/4/3
f 229/4/3 225/4/3 224/4/3
f 230/4/3 225/4/3 229/4/3
f 234/4/3 232/4/3 231/4/3
f 235/4/3 232/4/3 234/4/3
f 236/4/3 234/4/3 233/4/3
f 237/4/3 234/4/3 236/4/3
f 240/4/3 238/4/3 237/4/3
f 241/4/3 238/4/3 240/4/3
f 242/4/3 240/4/3 239/4/3
f 243/4/3 240/4/3 242/4/3
f 245/4/3 244/4/3 243/4/3
f 246/4/3 244/4/3 245/4/3
f 249/3/3 248/3/3 247/3/3
f 250/3/3 248/3/3 249/3/3
f 251/3/3 248/3/3 250/3/3
f 255/4/3 253/4/3 252/4/3
f 256/4/3 253/4/3 255/4/3
f 257/3/3 255/3/3 254/3/3
f 258/3/3 255/3/3 257/3/3
f 261/4/3 259/4/3 258/4/3
f 262/4/3 259/4/3 261/4/3
f 263/3/3 261/3/3 260/3/3
f 264/3/3 261/3/3 263/3/3
f 266/4/3 265/4/3 264/4/3
f 267/4/3 265/4/3 266/4/3
f 271/4/3 269/4/3 268/4/3
f 272/3/3 270/3/3 269/3/3
f 272/4/3 269/4/3 271/4/3
f 273/3/3 270/3/3 272/3/3
f 274/3/3 270/3/3 273/3/3
f 275/3/3 273/3/3 272/3/3
f 276/3/3 273/3/3 275/3/3
f 279/3/3 278/3/3 277/3/3
f 280/3/3 278/3/3 279/3/3
f 283/4/3 282/4/3 281/4/3
f 284/4/3 282/4/3 283/4/3
f 285/4/4 286/4/4 287/4/4
f 287/4/4 286/4/4 288/4/4
f 289/3/4 290/3/4 291/3/4
f 291/3/4 290/3/4 292/3/4
f 293/4/4 294/4/4 297/4/4
f 297/4/4 294/4/4 298/4/4
f 295/4/4 296/4/4 299/4/4
f 299/4/4 296/4/4 300/4/4
f 301/4/4 302/4/4 303/4/4
f 303/4/4 302/4/4 304/4/4
f 305/4/4 306/4/4 309/4/4
f 309/4/4 306/4/4 310/4/4
f 307/4/4 308/4/4 312/4/4
f 311/3/4 312/3/4 315/3/4
f 312/4/4 308/4/4 316/4/4
f 315/3/4 312/3/4 316/3/4
f 316/4/4 308/4/4 317/4/4
f 313/4/4 314/4/4 318/4/4
f 318/4/4 314/4/4 319/4/4
f 320/4/4 321/4/4 325/4/4
f 325/4/4 321/4/4 326/4/4
f 322/4/4 323/4/4 327/4/4
f 327/4/4 323/4/4 328/4/4
f 324/3/4 325/3/4 329/3/4
f 325/3/4 326/3/4 329/3/4
f 329/3/4 326/3/4 330/3/4
f 330/3/4 326/3/4 331/3/4
f 329/3/4 330/3/4 334/3/4
f 328/3/4 329/3/4 334/3/4
f 334/3/4 330/3/4 335/3/4
f 335/3/4 330/3/4 336/3/4
f 336/3/4 330/3/4 337/3/4
f 332/4/4 333/4/4 338/4/4
f 338/4/4 333/4/4 339/4/4
f 338/3/4 339/3/4 340/3/4
f 340/3/4 339/3/4 341/3/4
f 341/4/4 342/4/4 344/4/4
f 344/4/4 342/4/4 345/4/4
f 335/3/4 336/3/4 347/3/4
f 347/3/4 336/3/4 348/3/4
f 348/3/4 336/3/4 349/3/4
f 343/3/4 344/3/4 350/3/4
f 350/3/4 344/3/4 351/3/4
f 346/3/4 347/3/4 353/3/4
f 347/3/4 348/3/4 353/3/4
f 353/3/4 348/3/4 354/3/4
f 350/4/4 351/4/4 355/4/4
f 355/4/4 351/4/4 356/4/4
f 352/4/4 353/4/4 357/4/4
f 357/4/4 353/4/4 358/4/4
f 359/4/4 360/4/4 361/4/4
f 363/4/4 364/4/4 365/4/4
f 365/4/4 364/4/4 366/4/4
f 359/4/4 361/4/4 367/4/4
f 361/3/4 362/3/4 367/3/4
f 367/3/4 362/3/4 368/3/4
f 359/4/4 367/4/4 369/4/4
f 369/4/4 367/4/4 370/4/4
f 374/4/5 372/4/5 371/4/5
f 375/4/5 372/4/5 374/4/5
f 377/4/5 374/4/5 373/4/5
f 378/4/5 374/4/5 377/4/5
f 379/4/5 376/4/5 375/4/5
f 380/4/5 376/4/5 379/4/5
f 381/4/5 379/4/5 378/4/5
f 382/4/5 379/4/5 381/4/5
f 385/1/5 384/1/5 383/1/5
f 386/1/5 384/1/5 385/1/5
f 389/3/5 388/3/5 387/3/5
f 390/3/5 388/3/5 389/3/5
f 393/3/5 392/3/5 391/3/5
f 394/3/5 392/3/5 393/3/5
f 399/3/5 396/3/5 395/3/5
f 400/3/5 396/3/5 399/3/5
f 401/3/5 398/3/5 397/3/5
f 402/3/5 398/3/5 401/3/5
f 405/4/5 404/4/5 403/4/5
f 406/4/5 404/4/5 405/4/5
f 409/4/5 408/4/5 407/4/5
f 410/4/5 408/4/5 409/4/5
f 413/4/5 412/4/5 411/4/5
f 414/4/5 412/4/5 413/4/5
f 417/3/5 416/3/5 415/3/5
f 418/3/5 416/3/5 417/3/5
f 419/3/5 416/3/5 418/3/5
f 420/3/5 416/3/5 419/3/5
f 421/4/5 418/4/5 417/4/5
f 422/3/5 419/3/5 418/3/5
f 422/4/5 418/4/5 421/4/5
f 423/3/5 419/3/5 422/3/5
f 424/3/5 419/3/5 423/3/5
f 425/4/5 420/4/5 419/4/5
f 425/3/5 419/3/5 424/3/5
f 426/4/5 420/4/5 425/4/5
f 427/4/5 424/4/5 423/4/5
f 428/4/5 424/4/5 427/4/5
f 429/4/6 430/4/6 432/4/6
f 432/4/6 430/4/6 433/4/6
f 431/4/6 432/4/6 435/4/6
f 435/4/6 432/4/6 436/4/6
f 433/4/6 434/4/6 439/4/6
f 439/4/6 434/4/6 440/4/6
f 436/4/6 437/4/6 441/4/6
f 441/4/6 437/4/6 442/4/6
f 438/4/6 439/4/6 443/4/6
f 443/4/6 439/4/6 444/4/6
f 445/3/6 446/3/6 447/3/6
f 447/3/6 446/3/6 448/3/6
f 449/3/6 450/3/6 451/3/6
f 451/3/6 450/3/6 452/3/6
f 453/3/6 454/3/6 455/3/6
f 455/3/6 454/3/6 456/3/6
f 457/3/6 458/3/6 460/3/6
f 458/4/6 459/4/6 461/4/6
f 460/3/6 458/3/6 461/3/6
f 461/4/6 459/4/6 462/4/6
f 462/4/6 459/4/6 463/4/6
f 463/4/6 459/4/6 464/4/6
f 462/3/6 463/3/6 465/3/6
f 465/3/6 463/3/6 466/3/6
f 467/4/6 468/4/6 469/4/6
f 469/4/6 468/4/6 470/4/6
f 471/3/6 472/3/6 473/3/6
f 473/3/6 472/3/6 474/3/6
f 475/3/6 476/3/6 477/3/6
f 477/3/6 476/3/6 478/3/6
f 477/4/6 478/4/6 480/4/6
f 478/3/6 479/3/6 481/3/6
f 480/4/6 478/4/6 481/4/6
f 481/3/6 479/3/6 482/3/6
f 483/4/6 484/4/6 485/4/6
f 485/4/6 484/4/6 486/4/6
f 486/4/6 484/4/6 487/4/6
f 487/4/6 484/4/6 488/4/6
f 488/4/6 484/4/6 489/4/6
f 489/4/6 484/4/6 490/4/6
f 486/3/6 487/3/6 491/3/6
f 491/3/6 487/3/6 492/3/6
f 488/3/6 489/3/6 493/3/6
f 493/3/6 489/3/6 494/3/6
f 495/4/6 496/4/6 501/4/6
f 501/4/6 496/4/6 502/4/6
f 497/4/6 498/4/6 503/4/6
f 503/4/6 498/4/6 504/4/6
f 499/4/6 500/4/6 505/4/6
f 505/4/6 500/4/6 506/4/6
f 502/4/6 503/4/6 507/4/6
f 507/4/6 503/4/6 508/4/6
f 504/4/6 505/4/6 509/4/6
f 509/4/6 505/4/6 510/4/6
f 511/4/6 512/4/6 517/4/6
f 517/4/6 512/4/6 518/4/6
f 513/4/6 514/4/6 519/4/6
f 519/4/6 514/4/6 520/4/6
f 515/4/6 516/4/6 521/4/6
f 521/4/6 516/4/6 522/4/6
f 518/3/6 519/3/6 524/3/6
f 520/3/6 521/3/6 525/3/6
f 523/4/6 524/4/6 527/4/6
f 524/3/6 519/3/6 528/3/6
f 527/4/6 524/4/6 528/4/6
f 528/3/6 519/3/6 529/3/6
f 520/3/6 525/3/6 530/3/6
f 525/4/6 526/4/6 531/4/6
f 530/3/6 525/3/6 531/3/6
f 531/4/6 526/4/6 532/4/6
f 529/4/6 530/4/6 533/4/6
f 533/4/6 530/4/6 534/4/6
f 535/4/6 536/4/6 541/4/6
f 541/4/6 536/4/6 542/4/6
f 539/4/6 540/4/6 543/4/6
f 543/4/6 540/4/6 544/4/6
f 537/4/6 538/4/6 545/4/6
f 545/4/6 538/4/6 546/4/6
