# MagicaVoxel @ Ephtracy

# group
o 

# material
mtllib shoe_5k.vox.mtl
usemtl palette

# normals
vn -1 0 0
vn 1 0 0
vn 0 0 1
vn 0 0 -1
vn 0 -1 0
vn 0 1 0

# texcoords
vt 0.00195312 0.5
vt 0.00585938 0.5
vt 0.0566406 0.5
vt 0.126953 0.5
vt 0.130859 0.5
vt 0.134766 0.5
vt 0.138672 0.5

# verts
v -0.5 0.5 -0.4
v -0.5 0.5 -0.6
v -0.5 0.6 -0.6
v -0.5 0.6 -0.7
v -0.5 0.7 -0.4
v -0.5 0.7 -0.6
v -0.5 0.7 -0.7
v -0.5 0.7 -0.8
v -0.5 0.8 -0.6
v -0.5 0.8 -0.8
v -0.4 0.4 -0.3
v -0.4 0.4 -0.5
v -0.4 0.5 -0.2
v -0.4 0.5 -0.3
v -0.4 0.5 -0.4
v -0.4 0.5 -0.5
v -0.4 0.6 -0.2
v -0.4 0.6 -0.3
v -0.4 0.6 -0.4
v -0.3 0 0.6
v -0.3 0 -0.5
v -0.3 0.1 0.6
v -0.3 0.1 -0.5
v -0.3 0.2 0.6
v -0.3 0.2 0
v -0.3 0.2 -0.1
v -0.3 0.2 -0.4
v -0.3 0.2 -0.5
v -0.3 0.3 0.6
v -0.3 0.3 0.2
v -0.3 0.3 0
v -0.3 0.3 -0.1
v -0.3 0.3 -0.4
v -0.3 0.3 -0.5
v -0.3 0.4 0.2
v -0.3 0.4 0
v -0.3 0.4 -0.1
v -0.3 0.4 -0.3
v -0.3 0.4 -0.5
v -0.3 0.5 0
v -0.3 0.5 -0.1
v -0.3 0.5 -0.2
v -0.3 0.5 -0.3
v -0.3 0.6 -0.1
v -0.3 0.6 -0.2
v -0.3 0.6 -0.3
v -0.3 0.6 -0.4
v -0.3 0.7 -0.1
v -0.3 0.7 -0.2
v -0.3 0.7 -0.4
v -0.2 0 0.8
v -0.2 0 0.6
v -0.2 0 -0.5
v -0.2 0 -0.6
v -0.2 0.1 0.8
v -0.2 0.1 0.6
v -0.2 0.1 -0.5
v -0.2 0.2 0.8
v -0.2 0.2 0.6
v -0.2 0.2 -0.5
v -0.2 0.3 0.8
v -0.2 0.3 0.6
v -0.2 0.3 0.5
v -0.2 0.3 0.2
v -0.2 0.3 -0.5
v -0.2 0.3 -0.6
v -0.2 0.4 0.5
v -0.2 0.4 0.2
v -0.2 0.4 0.1
v -0.2 0.4 0
v -0.2 0.5 0.1
v -0.2 0.5 0
v -0.2 0.5 -0.1
v -0.2 0.5 -0.5
v -0.2 0.5 -0.6
v -0.2 0.6 0
v -0.2 0.6 -0.1
v -0.2 0.6 -0.5
v -0.2 0.6 -0.6
v -0.2 0.7 -0.2
v -0.2 0.7 -0.3
v -0.2 0.7 -0.5
v -0.2 0.7 -0.6
v -0.2 0.8 -0.2
v -0.2 0.8 -0.3
v 0.1 0.4 -0.2
v 0.1 0.4 -0.4
v 0.1 0.5 -0.2
v 0.1 0.6 -0.2
v 0.1 0.6 -0.3
v 0.1 0.6 -0.4
v 0.2 0.6 -0.2
v 0.2 0.6 -0.5
v 0.2 0.7 -0.2
v 0.2 0.7 -0.3
v 0.2 0.7 -0.5
v 0.3 0.6 -0.5
v 0.3 0.6 -0.6
v 0.3 0.7 -0.5
v 0.3 0.7 -0.6
v 0.4 0.5 -0.5
v 0.4 0.5 -0.6
v 0.4 0.6 -0.5
v 0.4 0.6 -0.6
v 0.4 0.6 -0.7
v 0.4 0.7 -0.6
v 0.4 0.7 -0.7
v 0.4 0.7 -0.8
v 0.4 0.8 -0.6
v 0.4 0.8 -0.8
v -0.4 0.5 -0.5
v -0.4 0.5 -0.6
v -0.4 0.6 -0.5
v -0.4 0.6 -0.6
v -0.4 0.6 -0.7
v -0.4 0.7 -0.6
v -0.4 0.7 -0.7
v -0.4 0.7 -0.8
v -0.4 0.8 -0.6
v -0.4 0.8 -0.8
v -0.3 0.6 -0.5
v -0.3 0.6 -0.6
v -0.3 0.7 -0.5
v -0.3 0.7 -0.6
v -0.2 0.6 -0.3
v -0.2 0.6 -0.5
v -0.2 0.7 -0.3
v -0.2 0.7 -0.5
v -0.1 0.4 -0.2
v -0.1 0.4 -0.4
v -0.1 0.5 -0.2
v -0.1 0.6 -0.2
v -0.1 0.6 -0.3
v -0.1 0.6 -0.4
v 0.1 0.6 -0.2
v 0.1 0.6 -0.3
v 0.1 0.7 -0.2
v 0.1 0.7 -0.3
v 0.2 0 0.8
v 0.2 0 0.6
v 0.2 0 -0.5
v 0.2 0 -0.6
v 0.2 0.1 0.8
v 0.2 0.1 0.6
v 0.2 0.1 -0.5
v 0.2 0.2 0.8
v 0.2 0.2 0.6
v 0.2 0.2 -0.5
v 0.2 0.3 0.8
v 0.2 0.3 0.6
v 0.2 0.3 0.5
v 0.2 0.3 0.2
v 0.2 0.3 -0.5
v 0.2 0.3 -0.6
v 0.2 0.4 0.5
v 0.2 0.4 0.2
v 0.2 0.4 0.1
v 0.2 0.4 0
v 0.2 0.5 0.1
v 0.2 0.5 0
v 0.2 0.5 -0.1
v 0.2 0.5 -0.5
v 0.2 0.5 -0.6
v 0.2 0.6 0
v 0.2 0.6 -0.1
v 0.2 0.6 -0.5
v 0.2 0.6 -0.6
v 0.2 0.7 -0.2
v 0.2 0.7 -0.3
v 0.2 0.7 -0.5
v 0.2 0.7 -0.6
v 0.2 0.8 -0.2
v 0.2 0.8 -0.3
v 0.3 0 0.6
v 0.3 0 -0.5
v 0.3 0.1 0.6
v 0.3 0.1 -0.5
v 0.3 0.2 0.6
v 0.3 0.2 0
v 0.3 0.2 -0.1
v 0.3 0.2 -0.4
v 0.3 0.2 -0.5
v 0.3 0.3 0.6
v 0.3 0.3 0.2
v 0.3 0.3 0
v 0.3 0.3 -0.1
v 0.3 0.3 -0.4
v 0.3 0.3 -0.5
v 0.3 0.4 0.2
v 0.3 0.4 0
v 0.3 0.4 -0.1
v 0.3 0.4 -0.3
v 0.3 0.4 -0.5
v 0.3 0.5 0
v 0.3 0.5 -0.1
v 0.3 0.5 -0.2
v 0.3 0.5 -0.3
v 0.3 0.6 -0.1
v 0.3 0.6 -0.2
v 0.3 0.6 -0.3
v 0.3 0.6 -0.4
v 0.3 0.7 -0.1
v 0.3 0.7 -0.2
v 0.3 0.7 -0.4
v 0.4 0.4 -0.3
v 0.4 0.4 -0.5
v 0.4 0.5 -0.2
v 0.4 0.5 -0.3
v 0.4 0.5 -0.4
v 0.4 0.5 -0.5
v 0.4 0.6 -0.2
v 0.4 0.6 -0.3
v 0.4 0.6 -0.4
v 0.5 0.5 -0.4
v 0.5 0.5 -0.6
v 0.5 0.6 -0.6
v 0.5 0.6 -0.7
v 0.5 0.7 -0.4
v 0.5 0.7 -0.6
v 0.5 0.7 -0.7
v 0.5 0.7 -0.8
v 0.5 0.8 -0.6
v 0.5 0.8 -0.8
v -0.2 0 0.8
v -0.2 0.1 0.8
v -0.2 0.2 0.8
v -0.2 0.3 0.8
v 0.2 0 0.8
v 0.2 0.1 0.8
v 0.2 0.2 0.8
v 0.2 0.3 0.8
v -0.3 0 0.6
v -0.3 0.1 0.6
v -0.3 0.2 0.6
v -0.3 0.3 0.6
v -0.2 0 0.6
v -0.2 0.1 0.6
v -0.2 0.2 0.6
v -0.2 0.3 0.6
v 0.2 0 0.6
v 0.2 0.1 0.6
v 0.2 0.2 0.6
v 0.2 0.3 0.6
v 0.3 0 0.6
v 0.3 0.1 0.6
v 0.3 0.2 0.6
v 0.3 0.3 0.6
v -0.2 0.3 0.5
v -0.2 0.4 0.5
v 0.2 0.3 0.5
v 0.2 0.4 0.5
v -0.3 0.3 0.2
v -0.3 0.4 0.2
v -0.2 0.3 0.2
v -0.2 0.4 0.2
v 0.2 0.3 0.2
v 0.2 0.4 0.2
v 0.3 0.3 0.2
v 0.3 0.4 0.2
v -0.2 0.4 0.1
v -0.2 0.5 0.1
v -0.1 0.4 0.1
v -0.1 0.5 0.1
v 0.1 0.4 0.1
v 0.1 0.5 0.1
v 0.2 0.4 0.1
v 0.2 0.5 0.1
v -0.3 0.4 0
v -0.3 0.5 0
v -0.2 0.4 0
v -0.2 0.5 0
v -0.2 0.6 0
v -0.1 0.5 0
v 0.1 0.5 0
v 0.2 0.4 0
v 0.2 0.5 0
v 0.2 0.6 0
v 0.3 0.4 0
v 0.3 0.5 0
v -0.3 0.5 -0.1
v -0.3 0.6 -0.1
v -0.3 0.7 -0.1
v -0.2 0.5 -0.1
v -0.2 0.6 -0.1
v -0.2 0.7 -0.1
v -0.1 0.6 -0.1
v -0.1 0.7 -0.1
v 0.1 0.6 -0.1
v 0.1 0.7 -0.1
v 0.2 0.5 -0.1
v 0.2 0.6 -0.1
v 0.2 0.7 -0.1
v 0.3 0.5 -0.1
v 0.3 0.6 -0.1
v 0.3 0.7 -0.1
v -0.4 0.5 -0.2
v -0.4 0.6 -0.2
v -0.3 0.5 -0.2
v -0.3 0.6 -0.2
v -0.2 0.7 -0.2
v -0.2 0.8 -0.2
v -0.1 0.7 -0.2
v 0.1 0.7 -0.2
v 0.2 0.7 -0.2
v 0.2 0.8 -0.2
v 0.3 0.5 -0.2
v 0.3 0.6 -0.2
v 0.4 0.5 -0.2
v 0.4 0.6 -0.2
v -0.4 0.4 -0.3
v -0.4 0.5 -0.3
v -0.3 0.4 -0.3
v -0.3 0.5 -0.3
v 0.3 0.4 -0.3
v 0.3 0.5 -0.3
v 0.4 0.4 -0.3
v 0.4 0.5 -0.3
v -0.5 0.5 -0.4
v -0.5 0.7 -0.4
v -0.4 0.5 -0.4
v -0.4 0.6 -0.4
v -0.3 0.6 -0.4
v -0.3 0.7 -0.4
v -0.1 0.4 -0.4
v -0.1 0.6 -0.4
v 0.1 0.4 -0.4
v 0.1 0.6 -0.4
v 0.3 0.6 -0.4
v 0.3 0.7 -0.4
v 0.4 0.5 -0.4
v 0.4 0.6 -0.4
v 0.5 0.5 -0.4
v 0.5 0.7 -0.4
v -0.2 0.6 -0.5
v -0.2 0.7 -0.5
v 0.2 0.6 -0.5
v 0.2 0.7 -0.5
v -0.5 0.7 -0.6
v -0.5 0.8 -0.6
v -0.4 0.7 -0.6
v -0.4 0.8 -0.6
v 0.4 0.7 -0.6
v 0.4 0.8 -0.6
v 0.5 0.7 -0.6
v 0.5 0.8 -0.6
v -0.1 0.4 -0.2
v -0.1 0.5 -0.2
v -0.1 0.6 -0.2
v 0.1 0.4 -0.2
v 0.1 0.5 -0.2
v 0.1 0.6 -0.2
v 0.1 0.7 -0.2
v 0.2 0.6 -0.2
v 0.2 0.7 -0.2
v -0.2 0.6 -0.3
v -0.2 0.7 -0.3
v -0.2 0.8 -0.3
v -0.1 0.6 -0.3
v 0.1 0.6 -0.3
v 0.1 0.7 -0.3
v 0.2 0.7 -0.3
v 0.2 0.8 -0.3
v -0.4 0.4 -0.5
v -0.4 0.5 -0.5
v -0.4 0.6 -0.5
v -0.3 0 -0.5
v -0.3 0.1 -0.5
v -0.3 0.2 -0.5
v -0.3 0.3 -0.5
v -0.3 0.4 -0.5
v -0.3 0.5 -0.5
v -0.3 0.6 -0.5
v -0.3 0.7 -0.5
v -0.2 0 -0.5
v -0.2 0.1 -0.5
v -0.2 0.2 -0.5
v -0.2 0.3 -0.5
v -0.2 0.5 -0.5
v -0.2 0.6 -0.5
v -0.2 0.7 -0.5
v 0.2 0 -0.5
v 0.2 0.1 -0.5
v 0.2 0.2 -0.5
v 0.2 0.3 -0.5
v 0.2 0.5 -0.5
v 0.2 0.6 -0.5
v 0.2 0.7 -0.5
v 0.3 0 -0.5
v 0.3 0.1 -0.5
v 0.3 0.2 -0.5
v 0.3 0.3 -0.5
v 0.3 0.4 -0.5
v 0.3 0.5 -0.5
v 0.3 0.6 -0.5
v 0.3 0.7 -0.5
v 0.4 0.4 -0.5
v 0.4 0.5 -0.5
v 0.4 0.6 -0.5
v -0.5 0.5 -0.6
v -0.5 0.6 -0.6
v -0.4 0.5 -0.6
v -0.4 0.6 -0.6
v -0.4 0.7 -0.6
v -0.3 0.6 -0.6
v -0.3 0.7 -0.6
v -0.2 0 -0.6
v -0.2 0.3 -0.6
v -0.2 0.5 -0.6
v -0.2 0.6 -0.6
v -0.2 0.7 -0.6
v -0.1 0.3 -0.6
v -0.1 0.4 -0.6
v -0.1 0.5 -0.6
v 0.1 0.3 -0.6
v 0.1 0.4 -0.6
v 0.1 0.5 -0.6
v 0.2 0 -0.6
v 0.2 0.3 -0.6
v 0.2 0.5 -0.6
v 0.2 0.6 -0.6
v 0.2 0.7 -0.6
v 0.3 0.6 -0.6
v 0.3 0.7 -0.6
v 0.4 0.5 -0.6
v 0.4 0.6 -0.6
v 0.4 0.7 -0.6
v 0.5 0.5 -0.6
v 0.5 0.6 -0.6
v -0.5 0.6 -0.7
v -0.5 0.7 -0.7
v -0.4 0.6 -0.7
v -0.4 0.7 -0.7
v 0.4 0.6 -0.7
v 0.4 0.7 -0.7
v 0.5 0.6 -0.7
v 0.5 0.7 -0.7
v -0.5 0.7 -0.8
v -0.5 0.8 -0.8
v -0.4 0.7 -0.8
v -0.4 0.8 -0.8
v 0.4 0.7 -0.8
v 0.4 0.8 -0.8
v 0.5 0.7 -0.8
v 0.5 0.8 -0.8
v -0.2 0 0.8
v 0.2 0 0.8
v -0.3 0 0.6
v -0.2 0 0.6
v 0.2 0 0.6
v 0.3 0 0.6
v -0.3 0 -0.5
v -0.2 0 -0.5
v 0.2 0 -0.5
v 0.3 0 -0.5
v -0.2 0 -0.6
v 0.2 0 -0.6
v -0.4 0.4 -0.3
v -0.3 0.4 -0.3
v 0.3 0.4 -0.3
v 0.4 0.4 -0.3
v -0.4 0.4 -0.5
v -0.3 0.4 -0.5
v 0.3 0.4 -0.5
v 0.4 0.4 -0.5
v -0.4 0.5 -0.2
v -0.3 0.5 -0.2
v 0.3 0.5 -0.2
v 0.4 0.5 -0.2
v -0.4 0.5 -0.3
v -0.3 0.5 -0.3
v 0.3 0.5 -0.3
v 0.4 0.5 -0.3
v -0.5 0.5 -0.4
v -0.4 0.5 -0.4
v 0.4 0.5 -0.4
v 0.5 0.5 -0.4
v -0.4 0.5 -0.5
v 0.4 0.5 -0.5
v -0.5 0.5 -0.6
v -0.4 0.5 -0.6
v 0.4 0.5 -0.6
v 0.5 0.5 -0.6
v -0.1 0.6 -0.2
v 0.1 0.6 -0.2
v -0.1 0.6 -0.3
v 0.1 0.6 -0.3
v -0.4 0.6 -0.5
v -0.3 0.6 -0.5
v 0.3 0.6 -0.5
v 0.4 0.6 -0.5
v -0.5 0.6 -0.6
v -0.4 0.6 -0.6
v -0.3 0.6 -0.6
v 0.3 0.6 -0.6
v 0.4 0.6 -0.6
v 0.5 0.6 -0.6
v -0.5 0.6 -0.7
v -0.4 0.6 -0.7
v 0.4 0.6 -0.7
v 0.5 0.6 -0.7
v 0.1 0.7 -0.2
v 0.2 0.7 -0.2
v 0.1 0.7 -0.3
v 0.2 0.7 -0.3
v -0.5 0.7 -0.7
v -0.4 0.7 -0.7
v 0.4 0.7 -0.7
v 0.5 0.7 -0.7
v -0.5 0.7 -0.8
v -0.4 0.7 -0.8
v 0.4 0.7 -0.8
v 0.5 0.7 -0.8
v -0.2 0.3 0.8
v 0.2 0.3 0.8
v -0.3 0.3 0.6
v -0.2 0.3 0.6
v 0.2 0.3 0.6
v 0.3 0.3 0.6
v -0.2 0.3 0.5
v 0.2 0.3 0.5
v -0.3 0.3 0.2
v -0.2 0.3 0.2
v 0.2 0.3 0.2
v 0.3 0.3 0.2
v -0.2 0.4 0.5
v 0.2 0.4 0.5
v -0.1 0.4 0.3
v 0.1 0.4 0.3
v -0.3 0.4 0.2
v -0.2 0.4 0.2
v -0.1 0.4 0.2
v 0.1 0.4 0.2
v 0.2 0.4 0.2
v 0.3 0.4 0.2
v -0.2 0.4 0.1
v -0.1 0.4 0.1
v 0.1 0.4 0.1
v 0.2 0.4 0.1
v -0.3 0.4 0
v -0.2 0.4 0
v 0.2 0.4 0
v 0.3 0.4 0
v -0.1 0.4 -0.2
v 0.1 0.4 -0.2
v -0.1 0.4 -0.4
v 0.1 0.4 -0.4
v -0.2 0.5 0.1
v -0.1 0.5 0.1
v 0.1 0.5 0.1
v 0.2 0.5 0.1
v -0.3 0.5 0
v -0.2 0.5 0
v -0.1 0.5 0
v 0.1 0.5 0
v 0.2 0.5 0
v 0.3 0.5 0
v -0.3 0.5 -0.1
v -0.2 0.5 -0.1
v 0.2 0.5 -0.1
v 0.3 0.5 -0.1
v -0.2 0.6 0
v 0.2 0.6 0
v -0.2 0.6 -0.1
v -0.1 0.6 -0.1
v 0.1 0.6 -0.1
v 0.2 0.6 -0.1
v -0.4 0.6 -0.2
v -0.3 0.6 -0.2
v 0.1 0.6 -0.2
v 0.2 0.6 -0.2
v 0.3 0.6 -0.2
v 0.4 0.6 -0.2
v -0.4 0.6 -0.3
v -0.3 0.6 -0.3
v -0.2 0.6 -0.3
v -0.1 0.6 -0.3
v 0.1 0.6 -0.3
v 0.3 0.6 -0.3
v 0.4 0.6 -0.3
v -0.4 0.6 -0.4
v -0.3 0.6 -0.4
v -0.1 0.6 -0.4
v 0.1 0.6 -0.4
v 0.3 0.6 -0.4
v 0.4 0.6 -0.4
v -0.2 0.6 -0.5
v 0.2 0.6 -0.5
v -0.3 0.7 -0.1
v -0.2 0.7 -0.1
v -0.1 0.7 -0.1
v 0.1 0.7 -0.1
v 0.2 0.7 -0.1
v 0.3 0.7 -0.1
v -0.3 0.7 -0.2
v -0.2 0.7 -0.2
v -0.1 0.7 -0.2
v 0.1 0.7 -0.2
v 0.2 0.7 -0.2
v 0.3 0.7 -0.2
v -0.2 0.7 -0.3
v 0.2 0.7 -0.3
v -0.5 0.7 -0.4
v -0.3 0.7 -0.4
v 0.3 0.7 -0.4
v 0.5 0.7 -0.4
v -0.3 0.7 -0.5
v -0.2 0.7 -0.5
v 0.2 0.7 -0.5
v 0.3 0.7 -0.5
v -0.5 0.7 -0.6
v -0.4 0.7 -0.6
v -0.3 0.7 -0.6
v -0.2 0.7 -0.6
v 0.2 0.7 -0.6
v 0.3 0.7 -0.6
v 0.4 0.7 -0.6
v 0.5 0.7 -0.6
v -0.2 0.8 -0.2
v 0.2 0.8 -0.2
v -0.2 0.8 -0.3
v 0.2 0.8 -0.3
v -0.5 0.8 -0.6
v -0.4 0.8 -0.6
v 0.4 0.8 -0.6
v 0.5 0.8 -0.6
v -0.5 0.8 -0.8
v -0.4 0.8 -0.8
v 0.4 0.8 -0.8
v 0.5 0.8 -0.8

# faces
f 3/5/1 2/5/1 1/5/1
f 5/5/1 3/5/1 1/5/1
f 5/5/1 4/5/1 3/5/1
f 6/5/1 4/5/1 5/5/1
f 7/5/1 4/5/1 6/5/1
f 9/5/1 8/5/1 7/5/1
f 9/5/1 7/5/1 6/5/1
f 10/5/1 8/5/1 9/5/1
f 14/5/1 12/5/1 11/5/1
f 15/5/1 12/5/1 14/5/1
f 16/5/1 12/5/1 15/5/1
f 17/7/1 14/7/1 13/7/1
f 18/5/1 15/5/1 14/5/1
f 18/7/1 14/7/1 17/7/1
f 19/5/1 15/5/1 18/5/1
f 22/1/1 21/1/1 20/1/1
f 23/1/1 21/1/1 22/1/1
f 24/5/1 23/5/1 22/5/1
f 25/5/1 23/5/1 24/5/1
f 26/5/1 23/5/1 25/5/1
f 27/5/1 23/5/1 26/5/1
f 28/5/1 23/5/1 27/5/1
f 29/3/1 25/3/1 24/3/1
f 30/3/1 25/3/1 29/3/1
f 31/2/1 26/2/1 25/2/1
f 31/3/1 25/3/1 30/3/1
f 32/6/1 27/6/1 26/6/1
f 32/2/1 26/2/1 31/2/1
f 33/4/1 28/4/1 27/4/1
f 33/6/1 27/6/1 32/6/1
f 34/4/1 28/4/1 33/4/1
f 35/6/1 31/6/1 30/6/1
f 35/6/1 32/6/1 31/6/1
f 36/6/1 32/6/1 35/6/1
f 37/2/1 34/2/1 33/2/1
f 37/6/1 32/6/1 36/6/1
f 37/2/1 33/2/1 32/2/1
f 38/2/1 34/2/1 37/2/1
f 39/2/1 34/2/1 38/2/1
f 40/6/1 37/6/1 36/6/1
f 40/6/1 38/6/1 37/6/1
f 41/6/1 38/6/1 40/6/1
f 42/6/1 38/6/1 41/6/1
f 43/6/1 38/6/1 42/6/1
f 44/6/1 42/6/1 41/6/1
f 45/6/1 42/6/1 44/6/1
f 48/7/1 45/7/1 44/7/1
f 49/3/1 46/3/1 45/3/1
f 49/7/1 45/7/1 48/7/1
f 49/3/1 47/3/1 46/3/1
f 50/3/1 47/3/1 49/3/1
f 55/1/1 52/1/1 51/1/1
f 56/1/1 52/1/1 55/1/1
f 57/1/1 54/1/1 53/1/1
f 58/5/1 56/5/1 55/5/1
f 59/5/1 56/5/1 58/5/1
f 60/1/1 54/1/1 57/1/1
f 61/3/1 59/3/1 58/3/1
f 62/3/1 59/3/1 61/3/1
f 65/1/1 54/1/1 60/1/1
f 66/1/1 54/1/1 65/1/1
f 67/2/1 64/2/1 63/2/1
f 68/2/1 64/2/1 67/2/1
f 71/2/1 70/2/1 69/2/1
f 72/2/1 70/2/1 71/2/1
f 74/2/1 66/2/1 65/2/1
f 75/2/1 66/2/1 74/2/1
f 76/7/1 73/7/1 72/7/1
f 77/7/1 73/7/1 76/7/1
f 78/6/1 75/6/1 74/6/1
f 79/6/1 75/6/1 78/6/1
f 82/3/1 79/3/1 78/3/1
f 83/3/1 79/3/1 82/3/1
f 84/2/1 81/2/1 80/2/1
f 85/2/1 81/2/1 84/2/1
f 88/6/1 87/6/1 86/6/1
f 89/6/1 87/6/1 88/6/1
f 90/6/1 87/6/1 89/6/1
f 91/6/1 87/6/1 90/6/1
f 94/3/1 93/3/1 92/3/1
f 95/3/1 93/3/1 94/3/1
f 96/3/1 93/3/1 95/3/1
f 99/5/1 98/5/1 97/5/1
f 100/5/1 98/5/1 99/5/1
f 103/5/1 102/5/1 101/5/1
f 104/5/1 102/5/1 103/5/1
f 106/5/1 105/5/1 104/5/1
f 107/5/1 105/5/1 106/5/1
f 109/5/1 107/5/1 106/5/1
f 109/5/1 108/5/1 107/5/1
f 110/5/1 108/5/1 109/5/1
f 111/5/2 112/5/2 113/5/2
f 113/5/2 112/5/2 114/5/2
f 114/5/2 115/5/2 116/5/2
f 116/5/2 115/5/2 117/5/2
f 116/5/2 117/5/2 119/5/2
f 117/5/2 118/5/2 119/5/2
f 119/5/2 118/5/2 120/5/2
f 121/5/2 122/5/2 123/5/2
f 123/5/2 122/5/2 124/5/2
f 125/3/2 126/3/2 127/3/2
f 127/3/2 126/3/2 128/3/2
f 129/6/2 130/6/2 131/6/2
f 131/6/2 130/6/2 132/6/2
f 132/6/2 130/6/2 133/6/2
f 133/6/2 130/6/2 134/6/2
f 135/2/2 136/2/2 137/2/2
f 137/2/2 136/2/2 138/2/2
f 139/1/2 140/1/2 143/1/2
f 143/1/2 140/1/2 144/1/2
f 141/1/2 142/1/2 145/1/2
f 143/5/2 144/5/2 146/5/2
f 146/5/2 144/5/2 147/5/2
f 145/1/2 142/1/2 148/1/2
f 146/3/2 147/3/2 149/3/2
f 149/3/2 147/3/2 150/3/2
f 148/1/2 142/1/2 153/1/2
f 153/1/2 142/1/2 154/1/2
f 151/2/2 152/2/2 155/2/2
f 155/2/2 152/2/2 156/2/2
f 157/2/2 158/2/2 159/2/2
f 159/2/2 158/2/2 160/2/2
f 153/2/2 154/2/2 162/2/2
f 162/2/2 154/2/2 163/2/2
f 160/7/2 161/7/2 164/7/2
f 164/7/2 161/7/2 165/7/2
f 162/6/2 163/6/2 166/6/2
f 166/6/2 163/6/2 167/6/2
f 166/3/2 167/3/2 170/3/2
f 170/3/2 167/3/2 171/3/2
f 168/2/2 169/2/2 172/2/2
f 172/2/2 169/2/2 173/2/2
f 174/1/2 175/1/2 176/1/2
f 176/1/2 175/1/2 177/1/2
f 176/5/2 177/5/2 178/5/2
f 178/5/2 177/5/2 179/5/2
f 179/5/2 177/5/2 180/5/2
f 180/5/2 177/5/2 181/5/2
f 181/5/2 177/5/2 182/5/2
f 178/3/2 179/3/2 183/3/2
f 183/3/2 179/3/2 184/3/2
f 179/2/2 180/2/2 185/2/2
f 184/3/2 179/3/2 185/3/2
f 180/6/2 181/6/2 186/6/2
f 185/2/2 180/2/2 186/2/2
f 181/4/2 182/4/2 187/4/2
f 186/6/2 181/6/2 187/6/2
f 187/4/2 182/4/2 188/4/2
f 184/6/2 185/6/2 189/6/2
f 185/6/2 186/6/2 189/6/2
f 189/6/2 186/6/2 190/6/2
f 187/2/2 188/2/2 191/2/2
f 190/6/2 186/6/2 191/6/2
f 186/2/2 187/2/2 191/2/2
f 191/2/2 188/2/2 192/2/2
f 192/2/2 188/2/2 193/2/2
f 190/6/2 191/6/2 194/6/2
f 191/6/2 192/6/2 194/6/2
f 194/6/2 192/6/2 195/6/2
f 195/6/2 192/6/2 196/6/2
f 196/6/2 192/6/2 197/6/2
f 195/6/2 196/6/2 198/6/2
f 198/6/2 196/6/2 199/6/2
f 198/7/2 199/7/2 202/7/2
f 199/3/2 200/3/2 203/3/2
f 202/7/2 199/7/2 203/7/2
f 200/3/2 201/3/2 203/3/2
f 203/3/2 201/3/2 204/3/2
f 205/5/2 206/5/2 208/5/2
f 208/5/2 206/5/2 209/5/2
f 209/5/2 206/5/2 210/5/2
f 207/7/2 208/7/2 211/7/2
f 208/5/2 209/5/2 212/5/2
f 211/7/2 208/7/2 212/7/2
f 212/5/2 209/5/2 213/5/2
f 214/5/2 215/5/2 216/5/2
f 214/5/2 216/5/2 218/5/2
f 216/5/2 217/5/2 218/5/2
f 218/5/2 217/5/2 219/5/2
f 219/5/2 217/5/2 220/5/2
f 220/5/2 221/5/2 222/5/2
f 219/5/2 220/5/2 222/5/2
f 222/5/2 221/5/2 223/5/2
f 228/1/3 225/1/3 224/1/3
f 229/5/3 226/5/3 225/5/3
f 229/1/3 225/1/3 228/1/3
f 230/3/3 227/3/3 226/3/3
f 230/5/3 226/5/3 229/5/3
f 231/3/3 227/3/3 230/3/3
f 236/1/3 233/1/3 232/1/3
f 237/5/3 234/5/3 233/5/3
f 237/1/3 233/1/3 236/1/3
f 238/3/3 235/3/3 234/3/3
f 238/5/3 234/5/3 237/5/3
f 239/3/3 235/3/3 238/3/3
f 244/1/3 241/1/3 240/1/3
f 245/5/3 242/5/3 241/5/3
f 245/1/3 241/1/3 244/1/3
f 246/3/3 243/3/3 242/3/3
f 246/5/3 242/5/3 245/5/3
f 247/3/3 243/3/3 246/3/3
f 250/2/3 249/2/3 248/2/3
f 251/2/3 249/2/3 250/2/3
f 254/6/3 253/6/3 252/6/3
f 255/6/3 253/6/3 254/6/3
f 258/6/3 257/6/3 256/6/3
f 259/6/3 257/6/3 258/6/3
f 262/2/3 261/2/3 260/2/3
f 263/2/3 261/2/3 262/2/3
f 264/7/3 263/7/3 262/7/3
f 265/7/3 263/7/3 264/7/3
f 266/2/3 265/2/3 264/2/3
f 267/2/3 265/2/3 266/2/3
f 270/6/3 269/6/3 268/6/3
f 271/6/3 269/6/3 270/6/3
f 273/7/3 272/7/3 271/7/3
f 274/7/3 272/7/3 273/7/3
f 276/7/3 272/7/3 274/7/3
f 277/7/3 272/7/3 276/7/3
f 278/6/3 276/6/3 275/6/3
f 279/6/3 276/6/3 278/6/3
f 283/6/3 281/6/3 280/6/3
f 284/7/3 282/7/3 281/7/3
f 284/6/3 281/6/3 283/6/3
f 285/7/3 282/7/3 284/7/3
f 286/2/3 285/2/3 284/2/3
f 287/2/3 285/2/3 286/2/3
f 288/7/3 287/7/3 286/7/3
f 289/7/3 287/7/3 288/7/3
f 291/2/3 289/2/3 288/2/3
f 292/2/3 289/2/3 291/2/3
f 293/6/3 291/6/3 290/6/3
f 294/7/3 292/7/3 291/7/3
f 294/6/3 291/6/3 293/6/3
f 295/7/3 292/7/3 294/7/3
f 298/7/3 297/7/3 296/7/3
f 299/7/3 297/7/3 298/7/3
f 302/2/3 301/2/3 300/2/3
f 303/2/3 301/2/3 302/2/3
f 304/2/3 301/2/3 303/2/3
f 305/2/3 301/2/3 304/2/3
f 308/7/3 307/7/3 306/7/3
f 309/7/3 307/7/3 308/7/3
f 312/5/3 311/5/3 310/5/3
f 313/5/3 311/5/3 312/5/3
f 316/5/3 315/5/3 314/5/3
f 317/5/3 315/5/3 316/5/3
f 320/5/3 319/5/3 318/5/3
f 321/5/3 319/5/3 320/5/3
f 322/5/3 319/5/3 321/5/3
f 323/5/3 319/5/3 322/5/3
f 326/6/3 325/6/3 324/6/3
f 327/6/3 325/6/3 326/6/3
f 331/5/3 329/5/3 328/5/3
f 332/5/3 331/5/3 330/5/3
f 333/5/3 329/5/3 331/5/3
f 333/5/3 331/5/3 332/5/3
f 336/3/3 335/3/3 334/3/3
f 337/3/3 335/3/3 336/3/3
f 340/5/3 339/5/3 338/5/3
f 341/5/3 339/5/3 340/5/3
f 344/5/3 343/5/3 342/5/3
f 345/5/3 343/5/3 344/5/3
f 346/6/4 347/6/4 349/6/4
f 347/2/4 348/2/4 350/2/4
f 349/6/4 347/6/4 350/6/4
f 350/2/4 348/2/4 351/2/4
f 351/2/4 352/2/4 353/2/4
f 353/2/4 352/2/4 354/2/4
f 355/2/4 356/2/4 358/2/4
f 356/2/4 357/2/4 358/2/4
f 358/2/4 357/2/4 359/2/4
f 359/2/4 357/2/4 360/2/4
f 360/2/4 357/2/4 361/2/4
f 361/2/4 357/2/4 362/2/4
f 363/5/4 364/5/4 370/5/4
f 364/5/4 365/5/4 370/5/4
f 370/5/4 365/5/4 371/5/4
f 371/5/4 365/5/4 372/5/4
f 366/1/4 367/1/4 374/1/4
f 367/5/4 368/5/4 375/5/4
f 374/1/4 367/1/4 375/1/4
f 368/4/4 369/4/4 376/4/4
f 375/5/4 368/5/4 376/5/4
f 369/2/4 370/2/4 377/2/4
f 376/4/4 369/4/4 377/4/4
f 370/2/4 371/2/4 377/2/4
f 371/6/4 372/6/4 378/6/4
f 377/2/4 371/2/4 378/2/4
f 372/3/4 373/3/4 379/3/4
f 378/6/4 372/6/4 379/6/4
f 379/3/4 373/3/4 380/3/4
f 381/1/4 382/1/4 388/1/4
f 382/5/4 383/5/4 389/5/4
f 388/1/4 382/1/4 389/1/4
f 383/4/4 384/4/4 390/4/4
f 389/5/4 383/5/4 390/5/4
f 384/2/4 385/2/4 391/2/4
f 390/4/4 384/4/4 391/4/4
f 391/2/4 385/2/4 392/2/4
f 385/6/4 386/6/4 393/6/4
f 392/2/4 385/2/4 393/2/4
f 386/3/4 387/3/4 394/3/4
f 393/6/4 386/6/4 394/6/4
f 394/3/4 387/3/4 395/3/4
f 392/5/4 393/5/4 396/5/4
f 393/5/4 394/5/4 396/5/4
f 396/5/4 394/5/4 397/5/4
f 397/5/4 394/5/4 398/5/4
f 399/5/4 400/5/4 401/5/4
f 401/5/4 400/5/4 402/5/4
f 402/5/4 403/5/4 404/5/4
f 404/5/4 403/5/4 405/5/4
f 406/1/4 407/1/4 411/1/4
f 407/2/4 408/2/4 411/2/4
f 411/2/4 408/2/4 412/2/4
f 408/6/4 409/6/4 413/6/4
f 412/2/4 408/2/4 413/2/4
f 411/1/4 412/1/4 414/1/4
f 406/1/4 411/1/4 414/1/4
f 412/6/4 413/6/4 415/6/4
f 414/1/4 412/1/4 415/1/4
f 413/6/4 409/6/4 416/6/4
f 415/6/4 413/6/4 416/6/4
f 406/1/4 414/1/4 417/1/4
f 414/2/4 415/2/4 418/2/4
f 417/1/4 414/1/4 418/1/4
f 415/2/4 416/2/4 418/2/4
f 416/6/4 409/6/4 419/6/4
f 418/2/4 416/2/4 419/2/4
f 409/3/4 410/3/4 420/3/4
f 419/6/4 409/6/4 420/6/4
f 420/3/4 410/3/4 421/3/4
f 422/5/4 423/5/4 425/5/4
f 425/5/4 423/5/4 426/5/4
f 424/5/4 425/5/4 427/5/4
f 427/5/4 425/5/4 428/5/4
f 429/5/4 430/5/4 431/5/4
f 431/5/4 430/5/4 432/5/4
f 433/5/4 434/5/4 435/5/4
f 435/5/4 434/5/4 436/5/4
f 437/5/4 438/5/4 439/5/4
f 439/5/4 438/5/4 440/5/4
f 441/5/4 442/5/4 443/5/4
f 443/5/4 442/5/4 444/5/4
f 448/1/5 446/1/5 445/1/5
f 449/1/5 446/1/5 448/1/5
f 451/1/5 448/1/5 447/1/5
f 451/1/5 450/1/5 449/1/5
f 451/1/5 449/1/5 448/1/5
f 452/1/5 450/1/5 451/1/5
f 453/1/5 450/1/5 452/1/5
f 454/1/5 450/1/5 453/1/5
f 455/1/5 453/1/5 452/1/5
f 456/1/5 453/1/5 455/1/5
f 461/5/5 458/5/5 457/5/5
f 462/5/5 458/5/5 461/5/5
f 463/5/5 460/5/5 459/5/5
f 464/5/5 460/5/5 463/5/5
f 469/7/5 466/7/5 465/7/5
f 470/7/5 466/7/5 469/7/5
f 471/7/5 468/7/5 467/7/5
f 472/7/5 468/7/5 471/7/5
f 477/5/5 474/5/5 473/5/5
f 478/5/5 476/5/5 475/5/5
f 479/5/5 477/5/5 473/5/5
f 480/5/5 477/5/5 479/5/5
f 481/5/5 476/5/5 478/5/5
f 482/5/5 476/5/5 481/5/5
f 485/2/5 484/2/5 483/2/5
f 486/2/5 484/2/5 485/2/5
f 492/5/5 488/5/5 487/5/5
f 493/5/5 488/5/5 492/5/5
f 494/5/5 490/5/5 489/5/5
f 495/5/5 490/5/5 494/5/5
f 497/5/5 492/5/5 491/5/5
f 498/5/5 492/5/5 497/5/5
f 499/5/5 496/5/5 495/5/5
f 500/5/5 496/5/5 499/5/5
f 503/2/5 502/2/5 501/2/5
f 504/2/5 502/2/5 503/2/5
f 509/5/5 506/5/5 505/5/5
f 510/5/5 506/5/5 509/5/5
f 511/5/5 508/5/5 507/5/5
f 512/5/5 508/5/5 511/5/5
f 513/3/6 514/3/6 516/3/6
f 516/3/6 514/3/6 517/3/6
f 515/3/6 516/3/6 519/3/6
f 516/6/6 517/6/6 519/6/6
f 517/3/6 518/3/6 520/3/6
f 519/6/6 517/6/6 520/6/6
f 515/3/6 519/3/6 521/3/6
f 521/3/6 519/3/6 522/3/6
f 520/3/6 518/3/6 523/3/6
f 523/3/6 518/3/6 524/3/6
f 525/2/6 526/2/6 527/2/6
f 527/2/6 526/2/6 528/2/6
f 525/2/6 527/2/6 530/2/6
f 527/7/6 528/7/6 531/7/6
f 530/2/6 527/2/6 531/2/6
f 528/2/6 526/2/6 532/2/6
f 531/7/6 528/7/6 532/7/6
f 532/2/6 526/2/6 533/2/6
f 530/7/6 531/7/6 535/7/6
f 529/6/6 530/6/6 535/6/6
f 531/2/6 532/2/6 536/2/6
f 535/7/6 531/7/6 536/7/6
f 532/7/6 533/7/6 537/7/6
f 536/2/6 532/2/6 537/2/6
f 533/6/6 534/6/6 538/6/6
f 537/7/6 533/7/6 538/7/6
f 529/6/6 535/6/6 539/6/6
f 539/6/6 535/6/6 540/6/6
f 538/6/6 534/6/6 541/6/6
f 541/6/6 534/6/6 542/6/6
f 543/6/6 544/6/6 545/6/6
f 545/6/6 544/6/6 546/6/6
f 547/2/6 548/2/6 552/2/6
f 548/7/6 549/7/6 553/7/6
f 552/2/6 548/2/6 553/2/6
f 549/2/6 550/2/6 554/2/6
f 553/7/6 549/7/6 554/7/6
f 554/2/6 550/2/6 555/2/6
f 551/6/6 552/6/6 557/6/6
f 557/6/6 552/6/6 558/6/6
f 555/6/6 556/6/6 559/6/6
f 559/6/6 556/6/6 560/6/6
f 561/7/6 562/7/6 563/7/6
f 563/7/6 562/7/6 564/7/6
f 564/7/6 562/7/6 565/7/6
f 565/7/6 562/7/6 566/7/6
f 567/7/6 568/7/6 573/7/6
f 573/7/6 568/7/6 574/7/6
f 569/6/6 570/6/6 577/6/6
f 571/7/6 572/7/6 578/7/6
f 578/7/6 572/7/6 579/7/6
f 573/5/6 574/5/6 580/5/6
f 580/5/6 574/5/6 581/5/6
f 575/6/6 576/6/6 582/6/6
f 577/6/6 570/6/6 583/6/6
f 578/5/6 579/5/6 584/5/6
f 584/5/6 579/5/6 585/5/6
f 575/6/6 582/6/6 586/6/6
f 582/6/6 583/6/6 586/6/6
f 583/6/6 570/6/6 587/6/6
f 586/6/6 583/6/6 587/6/6
f 588/7/6 589/7/6 594/7/6
f 589/2/6 590/2/6 595/2/6
f 594/7/6 589/7/6 595/7/6
f 590/7/6 591/7/6 596/7/6
f 595/2/6 590/2/6 596/2/6
f 591/2/6 592/2/6 597/2/6
f 596/7/6 591/7/6 597/7/6
f 592/7/6 593/7/6 598/7/6
f 597/2/6 592/2/6 598/2/6
f 598/7/6 593/7/6 599/7/6
f 594/3/6 595/3/6 600/3/6
f 598/3/6 599/3/6 601/3/6
f 594/3/6 600/3/6 603/3/6
f 601/3/6 599/3/6 604/3/6
f 602/5/6 603/5/6 606/5/6
f 603/3/6 600/3/6 606/3/6
f 606/3/6 600/3/6 607/3/6
f 601/3/6 604/3/6 608/3/6
f 604/5/6 605/5/6 609/5/6
f 608/3/6 604/3/6 609/3/6
f 602/5/6 606/5/6 610/5/6
f 610/5/6 606/5/6 611/5/6
f 611/5/6 606/5/6 612/5/6
f 607/3/6 608/3/6 613/3/6
f 613/3/6 608/3/6 614/3/6
f 609/5/6 605/5/6 615/5/6
f 615/5/6 605/5/6 616/5/6
f 616/5/6 605/5/6 617/5/6
f 618/2/6 619/2/6 620/2/6
f 620/2/6 619/2/6 621/2/6
f 622/5/6 623/5/6 626/5/6
f 626/5/6 623/5/6 627/5/6
f 624/5/6 625/5/6 628/5/6
f 628/5/6 625/5/6 629/5/6
