# MagicaVoxel @ Ephtracy

# group
o 

# material
mtllib earth.vox.mtl
usemtl palette

# normals
vn -1 0 0
vn 1 0 0
vn 0 0 1
vn 0 0 -1
vn 0 -1 0
vn 0 1 0

# texcoords
vt 0.0722656 0.5
vt 0.228516 0.5
vt 0.232422 0.5
vt 0.236328 0.5

# verts
v -0.5 0.6 0.3
v -0.5 0.6 -0.1
v -0.5 0.7 0.3
v -0.5 0.7 -0.1
v -0.5 0.8 0.3
v -0.5 0.8 0.2
v -0.5 0.9 0.2
v -0.5 0.9 0.1
v -0.5 1 0.3
v -0.5 1 0.1
v -0.5 1 -0.1
v -0.4 0.4 0.2
v -0.4 0.4 0.1
v -0.4 0.4 0
v -0.4 0.5 0.4
v -0.4 0.5 0.2
v -0.4 0.5 0.1
v -0.4 0.5 0
v -0.4 0.5 -0.1
v -0.4 0.5 -0.2
v -0.4 0.6 0.3
v -0.4 0.6 -0.1
v -0.4 0.7 0.5
v -0.4 0.7 0.4
v -0.4 0.7 0.3
v -0.4 0.7 -0.1
v -0.4 0.7 -0.2
v -0.4 0.7 -0.3
v -0.4 0.8 0.5
v -0.4 0.8 0.3
v -0.4 0.9 0.5
v -0.4 0.9 0.4
v -0.4 0.9 -0.2
v -0.4 0.9 -0.3
v -0.4 1 0.3
v -0.4 1 0.1
v -0.4 1 -0.1
v -0.4 1.1 0.4
v -0.4 1.1 0.3
v -0.4 1.1 0.2
v -0.4 1.1 0
v -0.4 1.1 -0.2
v -0.4 1.2 0.2
v -0.4 1.2 0
v -0.3 0.4 0.4
v -0.3 0.4 0.2
v -0.3 0.4 0
v -0.3 0.4 -0.2
v -0.3 0.5 0.5
v -0.3 0.5 0.4
v -0.3 0.5 0.2
v -0.3 0.5 0
v -0.3 0.5 -0.1
v -0.3 0.5 -0.2
v -0.3 0.5 -0.3
v -0.3 0.7 0.5
v -0.3 0.7 0.4
v -0.3 0.7 -0.2
v -0.3 0.7 -0.3
v -0.3 0.9 0.5
v -0.3 0.9 0.4
v -0.3 0.9 -0.2
v -0.3 0.9 -0.3
v -0.3 1 -0.2
v -0.3 1 -0.3
v -0.3 1.1 0.5
v -0.3 1.1 0.4
v -0.3 1.1 0.3
v -0.3 1.1 0.2
v -0.3 1.1 0
v -0.3 1.1 -0.2
v -0.3 1.1 -0.3
v -0.3 1.2 0.4
v -0.3 1.2 0.2
v -0.3 1.2 0
v -0.3 1.2 -0.2
v -0.2 0.3 0.3
v -0.2 0.3 -0.1
v -0.2 0.4 0.3
v -0.2 0.4 0.2
v -0.2 0.4 0
v -0.2 0.4 -0.1
v -0.2 0.6 0.6
v -0.2 0.6 0.5
v -0.2 0.6 -0.3
v -0.2 0.6 -0.4
v -0.2 0.7 0.6
v -0.2 0.7 0.5
v -0.2 0.7 -0.3
v -0.2 0.9 0.6
v -0.2 0.9 0.5
v -0.2 1 0.6
v -0.2 1 0.5
v -0.2 1 -0.3
v -0.2 1 -0.4
v -0.2 1.2 0.3
v -0.2 1.2 0.2
v -0.2 1.2 -0.1
v -0.2 1.3 0.3
v -0.2 1.3 0.2
v -0.2 1.3 -0.1
v -0.1 0.4 0.5
v -0.1 0.4 0.4
v -0.1 0.4 -0.2
v -0.1 0.4 -0.3
v -0.1 0.5 0.5
v -0.1 0.5 0.4
v -0.1 0.5 -0.2
v -0.1 0.5 -0.3
v -0.1 1.1 0.5
v -0.1 1.1 0.4
v -0.1 1.1 -0.2
v -0.1 1.1 -0.3
v -0.1 1.2 0.5
v -0.1 1.2 0.4
v -0.1 1.2 -0.2
v -0.1 1.2 -0.3
v 0.1 0.4 0.5
v 0.1 0.4 0.4
v 0.1 0.4 -0.2
v 0.1 0.4 -0.3
v 0.1 0.5 0.5
v 0.1 0.5 0.4
v 0.1 0.5 -0.2
v 0.1 0.5 -0.3
v 0.1 1.1 0.5
v 0.1 1.1 0.4
v 0.1 1.1 -0.2
v 0.1 1.1 -0.3
v 0.1 1.2 0.5
v 0.1 1.2 0.4
v 0.1 1.2 -0.2
v 0.1 1.2 -0.3
v 0.2 0.3 0.3
v 0.2 0.3 -0.1
v 0.2 0.4 0.3
v 0.2 0.4 -0.1
v 0.2 0.6 0.6
v 0.2 0.6 0.5
v 0.2 0.6 -0.3
v 0.2 0.6 -0.4
v 0.2 0.8 0.6
v 0.2 0.8 0.5
v 0.2 1 0.6
v 0.2 1 0.5
v 0.2 1 -0.3
v 0.2 1 -0.4
v 0.2 1.2 0.3
v 0.2 1.2 0.1
v 0.2 1.2 0
v 0.2 1.2 -0.1
v 0.2 1.3 0.3
v 0.2 1.3 -0.1
v 0.3 0.4 0.4
v 0.3 0.4 0.2
v 0.3 0.4 0
v 0.3 0.4 -0.2
v 0.3 0.5 0.5
v 0.3 0.5 0.4
v 0.3 0.5 0.3
v 0.3 0.5 0.2
v 0.3 0.5 0
v 0.3 0.5 -0.2
v 0.3 0.5 -0.3
v 0.3 0.6 -0.2
v 0.3 0.7 0.5
v 0.3 0.7 0.4
v 0.3 0.7 -0.2
v 0.3 0.7 -0.3
v 0.3 0.9 0.5
v 0.3 0.9 0.4
v 0.3 0.9 -0.2
v 0.3 0.9 -0.3
v 0.3 1 0.5
v 0.3 1 0.4
v 0.3 1.1 0.5
v 0.3 1.1 0.4
v 0.3 1.1 0.2
v 0.3 1.1 0
v 0.3 1.1 -0.1
v 0.3 1.1 -0.2
v 0.3 1.1 -0.3
v 0.3 1.2 0.4
v 0.3 1.2 0.2
v 0.3 1.2 0
v 0.3 1.2 -0.2
v 0.4 0.4 0.2
v 0.4 0.4 0
v 0.4 0.5 0.4
v 0.4 0.5 0.3
v 0.4 0.5 0.2
v 0.4 0.5 0
v 0.4 0.5 -0.2
v 0.4 0.6 0.3
v 0.4 0.6 0.2
v 0.4 0.6 0.1
v 0.4 0.6 -0.1
v 0.4 0.6 -0.2
v 0.4 0.7 0.5
v 0.4 0.7 0.4
v 0.4 0.7 -0.2
v 0.4 0.7 -0.3
v 0.4 0.8 0.3
v 0.4 0.8 -0.1
v 0.4 0.9 0.5
v 0.4 0.9 0.4
v 0.4 0.9 -0.2
v 0.4 0.9 -0.3
v 0.4 1 0.3
v 0.4 1 0.1
v 0.4 1 -0.1
v 0.4 1.1 0.4
v 0.4 1.1 0.2
v 0.4 1.1 0
v 0.4 1.1 -0.1
v 0.4 1.1 -0.2
v 0.4 1.2 0.2
v 0.4 1.2 0
v 0.5 0.6 0.3
v 0.5 0.6 0.1
v 0.5 0.6 -0.1
v 0.5 0.8 0.3
v 0.5 0.8 0.1
v 0.5 0.8 0
v 0.5 0.8 -0.1
v 0.5 0.9 0.1
v 0.5 0.9 0
v 0.5 1 0.3
v 0.5 1 0.1
v 0.5 1 -0.1
v -0.2 0.6 0.6
v -0.2 0.7 0.6
v -0.2 0.9 0.6
v -0.2 1 0.6
v -0.1 0.7 0.6
v -0.1 0.9 0.6
v 0 0.7 0.6
v 0 0.8 0.6
v 0.1 0.6 0.6
v 0.1 0.7 0.6
v 0.2 0.6 0.6
v 0.2 0.8 0.6
v 0.2 1 0.6
v -0.4 0.7 0.5
v -0.4 0.8 0.5
v -0.4 0.9 0.5
v -0.3 0.5 0.5
v -0.3 0.7 0.5
v -0.3 0.8 0.5
v -0.3 0.9 0.5
v -0.3 1.1 0.5
v -0.2 0.6 0.5
v -0.2 0.7 0.5
v -0.2 0.9 0.5
v -0.2 1 0.5
v -0.2 1.1 0.5
v -0.1 0.4 0.5
v -0.1 0.5 0.5
v -0.1 1 0.5
v -0.1 1.1 0.5
v -0.1 1.2 0.5
v 0.1 0.4 0.5
v 0.1 0.5 0.5
v 0.1 0.6 0.5
v 0.1 1 0.5
v 0.1 1.1 0.5
v 0.1 1.2 0.5
v 0.2 0.5 0.5
v 0.2 0.6 0.5
v 0.2 0.8 0.5
v 0.2 1 0.5
v 0.3 0.5 0.5
v 0.3 0.7 0.5
v 0.3 0.9 0.5
v 0.3 1 0.5
v 0.3 1.1 0.5
v 0.4 0.7 0.5
v 0.4 0.9 0.5
v -0.4 0.5 0.4
v -0.4 0.7 0.4
v -0.4 0.9 0.4
v -0.4 1.1 0.4
v -0.3 0.4 0.4
v -0.3 0.5 0.4
v -0.3 0.7 0.4
v -0.3 0.9 0.4
v -0.3 1.1 0.4
v -0.3 1.2 0.4
v -0.2 0.4 0.4
v -0.2 0.5 0.4
v -0.2 1.1 0.4
v -0.1 0.4 0.4
v -0.1 0.5 0.4
v -0.1 1.1 0.4
v -0.1 1.2 0.4
v 0.1 0.4 0.4
v 0.1 0.5 0.4
v 0.1 1.1 0.4
v 0.1 1.2 0.4
v 0.2 0.5 0.4
v 0.3 0.4 0.4
v 0.3 0.5 0.4
v 0.3 0.7 0.4
v 0.3 0.9 0.4
v 0.3 1 0.4
v 0.3 1.1 0.4
v 0.3 1.2 0.4
v 0.4 0.5 0.4
v 0.4 0.7 0.4
v 0.4 0.9 0.4
v 0.4 1.1 0.4
v -0.5 0.6 0.3
v -0.5 0.7 0.3
v -0.5 0.8 0.3
v -0.5 1 0.3
v -0.4 0.6 0.3
v -0.4 0.7 0.3
v -0.4 0.8 0.3
v -0.4 1 0.3
v -0.2 0.3 0.3
v -0.2 0.4 0.3
v -0.2 1.2 0.3
v -0.2 1.3 0.3
v -0.1 1.2 0.3
v -0.1 1.3 0.3
v 0 1.2 0.3
v 0.2 0.3 0.3
v 0.2 0.4 0.3
v 0.2 1.2 0.3
v 0.2 1.3 0.3
v 0.4 0.6 0.3
v 0.4 0.8 0.3
v 0.4 1 0.3
v 0.5 0.6 0.3
v 0.5 0.8 0.3
v 0.5 1 0.3
v -0.4 0.4 0.2
v -0.4 0.5 0.2
v -0.4 1.1 0.2
v -0.4 1.2 0.2
v -0.3 0.4 0.2
v -0.3 0.5 0.2
v -0.3 1.1 0.2
v -0.3 1.2 0.2
v 0.3 0.4 0.2
v 0.3 0.5 0.2
v 0.3 1.1 0.2
v 0.3 1.2 0.2
v 0.4 0.4 0.2
v 0.4 0.5 0.2
v 0.4 1.1 0.2
v 0.4 1.2 0.2
v -0.4 0.4 0
v -0.4 0.5 0
v -0.4 1.1 0
v -0.4 1.2 0
v -0.3 0.4 0
v -0.3 0.5 0
v -0.3 1.1 0
v -0.3 1.2 0
v 0.3 0.4 0
v 0.3 0.5 0
v 0.3 1.1 0
v 0.3 1.2 0
v 0.4 0.4 0
v 0.4 0.5 0
v 0.4 1.1 0
v 0.4 1.2 0
v -0.5 0.6 -0.1
v -0.5 0.7 -0.1
v -0.5 1 -0.1
v -0.4 0.6 -0.1
v -0.4 0.7 -0.1
v -0.4 1 -0.1
v -0.2 0.3 -0.1
v -0.2 0.4 -0.1
v -0.2 1.2 -0.1
v -0.2 1.3 -0.1
v 0 0.4 -0.1
v 0 1.2 -0.1
v 0.1 1.2 -0.1
v 0.2 0.3 -0.1
v 0.2 0.4 -0.1
v 0.2 1.2 -0.1
v 0.2 1.3 -0.1
v 0.4 0.6 -0.1
v 0.4 0.8 -0.1
v 0.4 1 -0.1
v 0.5 0.6 -0.1
v 0.5 0.8 -0.1
v 0.5 1 -0.1
v -0.4 0.5 -0.2
v -0.4 0.7 -0.2
v -0.4 0.9 -0.2
v -0.4 1.1 -0.2
v -0.3 0.4 -0.2
v -0.3 0.5 -0.2
v -0.3 0.7 -0.2
v -0.3 0.9 -0.2
v -0.3 1 -0.2
v -0.3 1.1 -0.2
v -0.3 1.2 -0.2
v -0.1 0.4 -0.2
v -0.1 0.5 -0.2
v -0.1 1.1 -0.2
v -0.1 1.2 -0.2
v 0.1 0.4 -0.2
v 0.1 0.5 -0.2
v 0.1 1.1 -0.2
v 0.1 1.2 -0.2
v 0.2 1.1 -0.2
v 0.2 1.2 -0.2
v 0.3 0.4 -0.2
v 0.3 0.5 -0.2
v 0.3 0.6 -0.2
v 0.3 0.7 -0.2
v 0.3 0.9 -0.2
v 0.3 1.1 -0.2
v 0.3 1.2 -0.2
v 0.4 0.5 -0.2
v 0.4 0.6 -0.2
v 0.4 0.7 -0.2
v 0.4 0.9 -0.2
v 0.4 1.1 -0.2
v -0.4 0.7 -0.3
v -0.4 0.9 -0.3
v -0.3 0.5 -0.3
v -0.3 0.7 -0.3
v -0.3 0.9 -0.3
v -0.3 1 -0.3
v -0.3 1.1 -0.3
v -0.2 0.6 -0.3
v -0.2 0.7 -0.3
v -0.2 1 -0.3
v -0.1 0.4 -0.3
v -0.1 0.5 -0.3
v -0.1 1 -0.3
v -0.1 1.1 -0.3
v -0.1 1.2 -0.3
v 0.1 0.4 -0.3
v 0.1 0.5 -0.3
v 0.1 0.6 -0.3
v 0.1 1.1 -0.3
v 0.1 1.2 -0.3
v 0.2 0.6 -0.3
v 0.2 1 -0.3
v 0.2 1.1 -0.3
v 0.3 0.5 -0.3
v 0.3 0.7 -0.3
v 0.3 0.9 -0.3
v 0.3 1.1 -0.3
v 0.4 0.7 -0.3
v 0.4 0.9 -0.3
v -0.2 0.6 -0.4
v -0.2 1 -0.4
v -0.1 0.9 -0.4
v -0.1 1 -0.4
v 0 0.7 -0.4
v 0 0.9 -0.4
v 0.1 0.6 -0.4
v 0.1 0.7 -0.4
v 0.2 0.6 -0.4
v 0.2 1 -0.4
v -0.2 0.3 0.3
v 0.2 0.3 0.3
v -0.2 0.3 -0.1
v 0.2 0.3 -0.1
v -0.1 0.4 0.5
v 0.1 0.4 0.5
v -0.3 0.4 0.4
v -0.2 0.4 0.4
v -0.1 0.4 0.4
v 0.1 0.4 0.4
v 0.3 0.4 0.4
v -0.2 0.4 0.3
v 0.2 0.4 0.3
v -0.4 0.4 0.2
v -0.3 0.4 0.2
v -0.2 0.4 0.2
v 0.3 0.4 0.2
v 0.4 0.4 0.2
v -0.4 0.4 0.1
v -0.3 0.4 0.1
v -0.4 0.4 0
v -0.3 0.4 0
v -0.2 0.4 0
v 0.3 0.4 0
v 0.4 0.4 0
v -0.2 0.4 -0.1
v 0 0.4 -0.1
v 0.2 0.4 -0.1
v -0.3 0.4 -0.2
v -0.1 0.4 -0.2
v 0 0.4 -0.2
v 0.1 0.4 -0.2
v 0.3 0.4 -0.2
v -0.1 0.4 -0.3
v 0.1 0.4 -0.3
v -0.3 0.5 0.5
v -0.1 0.5 0.5
v 0.1 0.5 0.5
v 0.2 0.5 0.5
v 0.3 0.5 0.5
v -0.4 0.5 0.4
v -0.3 0.5 0.4
v -0.2 0.5 0.4
v -0.1 0.5 0.4
v 0.1 0.5 0.4
v 0.2 0.5 0.4
v 0.3 0.5 0.4
v 0.4 0.5 0.4
v 0.3 0.5 0.3
v 0.4 0.5 0.3
v -0.4 0.5 0.2
v -0.3 0.5 0.2
v 0.3 0.5 0.2
v 0.4 0.5 0.2
v -0.4 0.5 0
v -0.3 0.5 0
v 0.3 0.5 0
v 0.4 0.5 0
v -0.4 0.5 -0.1
v -0.3 0.5 -0.1
v -0.4 0.5 -0.2
v -0.3 0.5 -0.2
v -0.1 0.5 -0.2
v 0.1 0.5 -0.2
v 0.3 0.5 -0.2
v 0.4 0.5 -0.2
v -0.3 0.5 -0.3
v -0.1 0.5 -0.3
v 0.1 0.5 -0.3
v 0.3 0.5 -0.3
v -0.2 0.6 0.6
v 0.1 0.6 0.6
v 0.2 0.6 0.6
v -0.2 0.6 0.5
v 0.1 0.6 0.5
v 0.2 0.6 0.5
v -0.5 0.6 0.3
v -0.4 0.6 0.3
v 0.4 0.6 0.3
v 0.5 0.6 0.3
v 0.4 0.6 0.2
v 0.4 0.6 0.1
v 0.5 0.6 0.1
v -0.5 0.6 -0.1
v -0.4 0.6 -0.1
v 0.4 0.6 -0.1
v 0.5 0.6 -0.1
v -0.2 0.6 -0.3
v 0.1 0.6 -0.3
v 0.2 0.6 -0.3
v -0.2 0.6 -0.4
v 0.1 0.6 -0.4
v 0.2 0.6 -0.4
v -0.4 0.7 0.5
v -0.3 0.7 0.5
v 0.3 0.7 0.5
v 0.4 0.7 0.5
v -0.4 0.7 0.4
v -0.3 0.7 0.4
v 0.3 0.7 0.4
v 0.4 0.7 0.4
v -0.4 0.7 -0.2
v -0.3 0.7 -0.2
v 0.3 0.7 -0.2
v 0.4 0.7 -0.2
v -0.4 0.7 -0.3
v -0.3 0.7 -0.3
v 0.3 0.7 -0.3
v 0.4 0.7 -0.3
v -0.4 0.9 0.5
v -0.3 0.9 0.5
v 0.3 0.9 0.5
v 0.4 0.9 0.5
v -0.4 0.9 0.4
v -0.3 0.9 0.4
v 0.3 0.9 0.4
v 0.4 0.9 0.4
v -0.4 0.9 -0.2
v -0.3 0.9 -0.2
v 0.3 0.9 -0.2
v 0.4 0.9 -0.2
v -0.4 0.9 -0.3
v -0.3 0.9 -0.3
v 0.3 0.9 -0.3
v 0.4 0.9 -0.3
v -0.2 1 0.6
v 0.2 1 0.6
v -0.2 1 0.5
v -0.1 1 0.5
v 0.1 1 0.5
v 0.2 1 0.5
v -0.5 1 0.3
v -0.4 1 0.3
v 0.4 1 0.3
v 0.5 1 0.3
v -0.5 1 0.1
v -0.4 1 0.1
v 0.4 1 0.1
v 0.5 1 0.1
v -0.5 1 -0.1
v -0.4 1 -0.1
v 0.4 1 -0.1
v 0.5 1 -0.1
v -0.2 1 -0.3
v -0.1 1 -0.3
v 0.2 1 -0.3
v -0.2 1 -0.4
v -0.1 1 -0.4
v 0.2 1 -0.4
v -0.3 1.1 0.5
v -0.2 1.1 0.5
v -0.1 1.1 0.5
v 0.1 1.1 0.5
v 0.3 1.1 0.5
v -0.4 1.1 0.4
v -0.3 1.1 0.4
v -0.2 1.1 0.4
v -0.1 1.1 0.4
v 0.1 1.1 0.4
v 0.3 1.1 0.4
v 0.4 1.1 0.4
v -0.4 1.1 0.3
v -0.3 1.1 0.3
v -0.4 1.1 0.2
v -0.3 1.1 0.2
v 0.3 1.1 0.2
v 0.4 1.1 0.2
v -0.4 1.1 0
v -0.3 1.1 0
v 0.3 1.1 0
v 0.4 1.1 0
v 0.3 1.1 -0.1
v 0.4 1.1 -0.1
v -0.4 1.1 -0.2
v -0.3 1.1 -0.2
v -0.1 1.1 -0.2
v 0.1 1.1 -0.2
v 0.2 1.1 -0.2
v 0.3 1.1 -0.2
v 0.4 1.1 -0.2
v -0.3 1.1 -0.3
v -0.1 1.1 -0.3
v 0.1 1.1 -0.3
v 0.2 1.1 -0.3
v 0.3 1.1 -0.3
v -0.1 1.2 0.5
v 0.1 1.2 0.5
v -0.3 1.2 0.4
v -0.1 1.2 0.4
v 0 1.2 0.4
v 0.1 1.2 0.4
v 0.3 1.2 0.4
v -0.2 1.2 0.3
v -0.1 1.2 0.3
v 0 1.2 0.3
v 0.2 1.2 0.3
v -0.4 1.2 0.2
v -0.3 1.2 0.2
v -0.2 1.2 0.2
v 0.3 1.2 0.2
v 0.4 1.2 0.2
v 0.2 1.2 0.1
v 0.3 1.2 0.1
v -0.4 1.2 0
v -0.3 1.2 0
v 0.2 1.2 0
v 0.3 1.2 0
v 0.4 1.2 0
v -0.2 1.2 -0.1
v 0 1.2 -0.1
v 0.1 1.2 -0.1
v 0.2 1.2 -0.1
v -0.3 1.2 -0.2
v -0.1 1.2 -0.2
v 0 1.2 -0.2
v 0.1 1.2 -0.2
v 0.2 1.2 -0.2
v 0.3 1.2 -0.2
v -0.1 1.2 -0.3
v 0.1 1.2 -0.3
v -0.2 1.3 0.3
v -0.1 1.3 0.3
v 0.2 1.3 0.3
v -0.2 1.3 0.2
v -0.1 1.3 0.2
v -0.2 1.3 -0.1
v 0.2 1.3 -0.1

# faces
f 3/4/1 2/4/1 1/4/1
f 4/4/1 2/4/1 3/4/1
f 5/2/1 4/2/1 3/2/1
f 6/2/1 4/2/1 5/2/1
f 7/4/1 6/4/1 5/4/1
f 7/2/1 4/2/1 6/2/1
f 8/2/1 4/2/1 7/2/1
f 9/4/1 7/4/1 5/4/1
f 9/4/1 8/4/1 7/4/1
f 10/2/1 4/2/1 8/2/1
f 10/4/1 8/4/1 9/4/1
f 11/2/1 4/2/1 10/2/1
f 16/4/1 13/4/1 12/4/1
f 17/3/1 14/3/1 13/3/1
f 17/4/1 13/4/1 16/4/1
f 18/3/1 14/3/1 17/3/1
f 21/4/1 16/4/1 15/4/1
f 21/4/1 17/4/1 16/4/1
f 21/4/1 19/4/1 18/4/1
f 21/4/1 18/4/1 17/4/1
f 22/2/1 20/2/1 19/2/1
f 22/4/1 19/4/1 21/4/1
f 24/4/1 21/4/1 15/4/1
f 25/4/1 21/4/1 24/4/1
f 26/2/1 20/2/1 22/2/1
f 27/2/1 20/2/1 26/2/1
f 29/2/1 25/2/1 24/2/1
f 29/2/1 24/2/1 23/2/1
f 30/2/1 25/2/1 29/2/1
f 31/4/1 30/4/1 29/4/1
f 32/4/1 30/4/1 31/4/1
f 33/4/1 28/4/1 27/4/1
f 33/2/1 27/2/1 26/2/1
f 34/4/1 28/4/1 33/4/1
f 35/4/1 30/4/1 32/4/1
f 37/2/1 33/2/1 26/2/1
f 38/4/1 35/4/1 32/4/1
f 39/2/1 36/2/1 35/2/1
f 39/4/1 35/4/1 38/4/1
f 39/2/1 37/2/1 36/2/1
f 40/2/1 37/2/1 39/2/1
f 41/2/1 37/2/1 40/2/1
f 42/2/1 33/2/1 37/2/1
f 42/2/1 37/2/1 41/2/1
f 43/2/1 41/2/1 40/2/1
f 44/2/1 41/2/1 43/2/1
f 50/3/1 46/3/1 45/3/1
f 51/3/1 46/3/1 50/3/1
f 52/3/1 48/3/1 47/3/1
f 53/3/1 48/3/1 52/3/1
f 54/3/1 48/3/1 53/3/1
f 56/2/1 50/2/1 49/2/1
f 57/2/1 50/2/1 56/2/1
f 58/2/1 55/2/1 54/2/1
f 59/2/1 55/2/1 58/2/1
f 64/4/1 63/4/1 62/4/1
f 65/4/1 63/4/1 64/4/1
f 66/4/1 61/4/1 60/4/1
f 67/4/1 61/4/1 66/4/1
f 71/2/1 65/2/1 64/2/1
f 72/2/1 65/2/1 71/2/1
f 73/2/1 69/2/1 68/2/1
f 73/2/1 68/2/1 67/2/1
f 74/2/1 69/2/1 73/2/1
f 75/3/1 71/3/1 70/3/1
f 76/3/1 71/3/1 75/3/1
f 79/3/1 78/3/1 77/3/1
f 80/3/1 78/3/1 79/3/1
f 81/3/1 78/3/1 80/3/1
f 82/3/1 78/3/1 81/3/1
f 87/2/1 84/2/1 83/2/1
f 88/2/1 84/2/1 87/2/1
f 89/2/1 86/2/1 85/2/1
f 90/4/1 88/4/1 87/4/1
f 91/4/1 88/4/1 90/4/1
f 92/2/1 91/2/1 90/2/1
f 93/2/1 91/2/1 92/2/1
f 94/2/1 86/2/1 89/2/1
f 95/2/1 86/2/1 94/2/1
f 99/2/1 97/2/1 96/2/1
f 100/3/1 98/3/1 97/3/1
f 100/2/1 97/2/1 99/2/1
f 101/3/1 98/3/1 100/3/1
f 106/2/1 103/2/1 102/2/1
f 107/2/1 103/2/1 106/2/1
f 108/3/1 105/3/1 104/3/1
f 109/3/1 105/3/1 108/3/1
f 114/2/1 111/2/1 110/2/1
f 115/2/1 111/2/1 114/2/1
f 116/2/1 113/2/1 112/2/1
f 117/2/1 113/2/1 116/2/1
f 118/2/2 119/2/2 122/2/2
f 122/2/2 119/2/2 123/2/2
f 120/3/2 121/3/2 124/3/2
f 124/3/2 121/3/2 125/3/2
f 126/2/2 127/2/2 130/2/2
f 130/2/2 127/2/2 131/2/2
f 128/2/2 129/2/2 132/2/2
f 132/2/2 129/2/2 133/2/2
f 134/3/2 135/3/2 136/3/2
f 136/3/2 135/3/2 137/3/2
f 138/4/2 139/4/2 142/4/2
f 142/4/2 139/4/2 143/4/2
f 142/2/2 143/2/2 144/2/2
f 144/2/2 143/2/2 145/2/2
f 140/4/2 141/4/2 146/4/2
f 146/4/2 141/4/2 147/4/2
f 148/3/2 149/3/2 152/3/2
f 150/3/2 151/3/2 152/3/2
f 149/3/2 150/3/2 152/3/2
f 152/3/2 151/3/2 153/3/2
f 154/2/2 155/2/2 159/2/2
f 159/2/2 155/2/2 160/2/2
f 160/2/2 155/2/2 161/2/2
f 156/2/2 157/2/2 162/2/2
f 162/2/2 157/2/2 163/2/2
f 163/4/2 164/4/2 165/4/2
f 158/4/2 159/4/2 166/4/2
f 166/4/2 159/4/2 167/4/2
f 165/4/2 164/4/2 168/4/2
f 168/4/2 164/4/2 169/4/2
f 170/4/2 171/4/2 174/4/2
f 174/4/2 171/4/2 175/4/2
f 174/2/2 175/2/2 176/2/2
f 176/2/2 175/2/2 177/2/2
f 172/4/2 173/4/2 181/4/2
f 181/4/2 173/4/2 182/4/2
f 177/2/2 178/2/2 183/2/2
f 183/2/2 178/2/2 184/2/2
f 179/2/2 180/2/2 185/2/2
f 180/2/2 181/2/2 185/2/2
f 185/2/2 181/2/2 186/2/2
f 187/2/2 188/2/2 191/2/2
f 191/2/2 188/2/2 192/2/2
f 189/2/2 190/2/2 194/2/2
f 190/4/2 191/4/2 194/4/2
f 192/2/2 193/2/2 195/2/2
f 194/4/2 191/4/2 195/4/2
f 191/2/2 192/2/2 195/2/2
f 195/2/2 193/2/2 196/2/2
f 196/2/2 193/2/2 197/2/2
f 197/2/2 193/2/2 198/2/2
f 189/2/2 194/2/2 200/2/2
f 197/4/2 198/4/2 201/4/2
f 200/2/2 194/2/2 203/2/2
f 197/4/2 201/4/2 204/4/2
f 201/4/2 202/4/2 204/4/2
f 199/4/2 200/4/2 205/4/2
f 200/2/2 203/2/2 206/2/2
f 205/4/2 200/4/2 206/4/2
f 204/4/2 202/4/2 207/4/2
f 207/4/2 202/4/2 208/4/2
f 206/2/2 203/2/2 209/2/2
f 204/4/2 207/4/2 211/4/2
f 209/2/2 210/2/2 212/2/2
f 210/2/2 211/2/2 212/2/2
f 206/2/2 209/2/2 212/2/2
f 212/2/2 211/2/2 213/2/2
f 213/2/2 211/2/2 214/2/2
f 211/4/2 207/4/2 215/4/2
f 214/2/2 211/2/2 215/2/2
f 215/4/2 207/4/2 216/4/2
f 213/2/2 214/2/2 217/2/2
f 217/2/2 214/2/2 218/2/2
f 219/4/2 220/4/2 222/4/2
f 220/2/2 221/2/2 223/2/2
f 222/4/2 220/4/2 223/4/2
f 223/2/2 221/2/2 224/2/2
f 224/2/2 221/2/2 225/2/2
f 222/2/2 223/2/2 226/2/2
f 223/2/2 224/2/2 226/2/2
f 224/4/2 225/4/2 227/4/2
f 226/2/2 224/2/2 227/2/2
f 222/2/2 226/2/2 228/2/2
f 226/4/2 227/4/2 229/4/2
f 228/2/2 226/2/2 229/2/2
f 227/4/2 225/4/2 230/4/2
f 229/4/2 227/4/2 230/4/2
f 235/2/3 232/2/3 231/2/3
f 235/4/3 233/4/3 232/4/3
f 236/2/3 234/2/3 233/2/3
f 236/4/3 233/4/3 235/4/3
f 237/2/3 235/2/3 231/2/3
f 237/2/3 236/2/3 235/2/3
f 238/2/3 236/2/3 237/2/3
f 239/2/3 237/2/3 231/2/3
f 240/4/3 238/4/3 237/4/3
f 240/2/3 237/2/3 239/2/3
f 241/4/3 240/4/3 239/4/3
f 242/2/3 236/2/3 238/2/3
f 242/4/3 240/4/3 241/4/3
f 242/4/3 238/4/3 240/4/3
f 243/2/3 234/2/3 236/2/3
f 243/2/3 236/2/3 242/2/3
f 248/2/3 245/2/3 244/2/3
f 249/4/3 246/4/3 245/4/3
f 249/2/3 245/2/3 248/2/3
f 250/4/3 246/4/3 249/4/3
f 252/2/3 248/2/3 247/2/3
f 253/4/3 251/4/3 250/4/3
f 253/2/3 248/2/3 252/2/3
f 253/4/3 249/4/3 248/4/3
f 253/4/3 250/4/3 249/4/3
f 254/4/3 251/4/3 253/4/3
f 255/4/3 251/4/3 254/4/3
f 256/4/3 251/4/3 255/4/3
f 258/2/3 252/2/3 247/2/3
f 259/2/3 256/2/3 255/2/3
f 260/2/3 256/2/3 259/2/3
f 262/2/3 258/2/3 257/2/3
f 263/2/3 252/2/3 258/2/3
f 263/2/3 258/2/3 262/2/3
f 264/2/3 252/2/3 263/2/3
f 265/4/3 260/4/3 259/4/3
f 266/2/3 261/2/3 260/2/3
f 266/4/3 260/4/3 265/4/3
f 267/2/3 261/2/3 266/2/3
f 268/2/3 264/2/3 263/2/3
f 269/2/3 264/2/3 268/2/3
f 271/2/3 266/2/3 265/2/3
f 272/4/3 270/4/3 269/4/3
f 272/4/3 271/4/3 270/4/3
f 272/4/3 269/4/3 268/4/3
f 273/4/3 271/4/3 272/4/3
f 274/4/3 271/4/3 273/4/3
f 275/2/3 266/2/3 271/2/3
f 275/4/3 271/4/3 274/4/3
f 276/2/3 266/2/3 275/2/3
f 277/4/3 274/4/3 273/4/3
f 278/4/3 274/4/3 277/4/3
f 284/4/3 280/4/3 279/4/3
f 285/4/3 280/4/3 284/4/3
f 286/4/3 282/4/3 281/4/3
f 287/4/3 282/4/3 286/4/3
f 289/3/3 284/3/3 283/3/3
f 290/3/3 284/3/3 289/3/3
f 291/2/3 288/2/3 287/2/3
f 292/2/3 290/2/3 289/2/3
f 293/2/3 290/2/3 292/2/3
f 294/2/3 288/2/3 291/2/3
f 295/2/3 288/2/3 294/2/3
f 300/2/3 297/2/3 296/2/3
f 301/2/3 300/2/3 296/2/3
f 302/2/3 300/2/3 301/2/3
f 306/2/3 299/2/3 298/2/3
f 307/2/3 299/2/3 306/2/3
f 308/2/3 303/2/3 302/2/3
f 309/2/3 303/2/3 308/2/3
f 310/2/3 305/2/3 304/2/3
f 310/2/3 306/2/3 305/2/3
f 311/2/3 306/2/3 310/2/3
f 316/4/3 313/4/3 312/4/3
f 317/2/3 314/2/3 313/2/3
f 317/4/3 313/4/3 316/4/3
f 318/4/3 315/4/3 314/4/3
f 318/2/3 314/2/3 317/2/3
f 319/4/3 315/4/3 318/4/3
f 324/2/3 323/2/3 322/2/3
f 325/2/3 323/2/3 324/2/3
f 326/3/3 325/3/3 324/3/3
f 327/3/3 321/3/3 320/3/3
f 328/3/3 321/3/3 327/3/3
f 329/3/3 325/3/3 326/3/3
f 330/3/3 325/3/3 329/3/3
f 334/4/3 332/4/3 331/4/3
f 335/2/3 333/2/3 332/2/3
f 335/4/3 332/4/3 334/4/3
f 336/2/3 333/2/3 335/2/3
f 341/4/3 338/4/3 337/4/3
f 342/4/3 338/4/3 341/4/3
f 343/2/3 340/2/3 339/2/3
f 344/2/3 340/2/3 343/2/3
f 349/2/3 346/2/3 345/2/3
f 350/2/3 346/2/3 349/2/3
f 351/2/3 348/2/3 347/2/3
f 352/2/3 348/2/3 351/2/3
f 353/3/4 354/3/4 357/3/4
f 357/3/4 354/3/4 358/3/4
f 355/2/4 356/2/4 359/2/4
f 359/2/4 356/2/4 360/2/4
f 361/2/4 362/2/4 365/2/4
f 365/2/4 362/2/4 366/2/4
f 363/2/4 364/2/4 367/2/4
f 367/2/4 364/2/4 368/2/4
f 369/4/4 370/4/4 372/4/4
f 370/2/4 371/2/4 373/2/4
f 372/4/4 370/4/4 373/4/4
f 373/2/4 371/2/4 374/2/4
f 375/3/4 376/3/4 379/3/4
f 377/3/4 378/3/4 380/3/4
f 380/3/4 378/3/4 381/3/4
f 375/3/4 379/3/4 382/3/4
f 382/3/4 379/3/4 383/3/4
f 381/3/4 378/3/4 384/3/4
f 384/3/4 378/3/4 385/3/4
f 386/2/4 387/2/4 389/2/4
f 387/4/4 388/4/4 390/4/4
f 389/2/4 387/2/4 390/2/4
f 390/4/4 388/4/4 391/4/4
f 392/2/4 393/2/4 397/2/4
f 397/2/4 393/2/4 398/2/4
f 394/2/4 395/2/4 399/2/4
f 399/2/4 395/2/4 400/2/4
f 400/2/4 395/2/4 401/2/4
f 396/3/4 397/3/4 403/3/4
f 403/3/4 397/3/4 404/3/4
f 401/3/4 402/3/4 405/3/4
f 405/3/4 402/3/4 406/3/4
f 409/4/4 410/4/4 411/4/4
f 411/4/4 410/4/4 412/4/4
f 407/2/4 408/2/4 413/2/4
f 413/2/4 408/2/4 414/2/4
f 411/2/4 412/2/4 418/2/4
f 418/2/4 412/2/4 419/2/4
f 414/2/4 415/2/4 420/2/4
f 415/4/4 416/4/4 421/4/4
f 420/2/4 415/2/4 421/2/4
f 421/4/4 416/4/4 422/4/4
f 417/4/4 418/4/4 423/4/4
f 423/4/4 418/4/4 424/4/4
f 425/4/4 426/4/4 428/4/4
f 428/4/4 426/4/4 429/4/4
f 427/2/4 428/2/4 432/2/4
f 428/4/4 429/4/4 433/4/4
f 432/2/4 428/2/4 433/2/4
f 429/4/4 430/4/4 433/4/4
f 430/2/4 431/2/4 434/2/4
f 433/4/4 430/4/4 434/4/4
f 427/2/4 432/2/4 436/2/4
f 434/2/4 431/2/4 437/2/4
f 437/2/4 431/2/4 438/2/4
f 435/3/4 436/3/4 440/3/4
f 436/2/4 432/2/4 441/2/4
f 440/3/4 436/3/4 441/3/4
f 441/2/4 432/2/4 442/2/4
f 438/2/4 439/2/4 443/2/4
f 437/2/4 438/2/4 443/2/4
f 443/2/4 439/2/4 444/2/4
f 441/4/4 442/4/4 445/4/4
f 437/2/4 443/2/4 446/2/4
f 446/2/4 443/2/4 447/2/4
f 441/4/4 445/4/4 448/4/4
f 445/4/4 446/4/4 448/4/4
f 446/4/4 447/4/4 448/4/4
f 448/4/4 447/4/4 449/4/4
f 449/4/4 447/4/4 450/4/4
f 450/4/4 447/4/4 451/4/4
f 449/4/4 450/4/4 452/4/4
f 452/4/4 450/4/4 453/4/4
f 454/2/4 455/2/4 456/2/4
f 456/2/4 455/2/4 457/2/4
f 454/2/4 456/2/4 458/2/4
f 456/4/4 457/4/4 459/4/4
f 458/2/4 456/2/4 459/2/4
f 454/2/4 458/2/4 460/2/4
f 458/4/4 459/4/4 461/4/4
f 460/2/4 458/2/4 461/2/4
f 460/4/4 461/4/4 462/4/4
f 459/4/4 457/4/4 463/4/4
f 462/4/4 461/4/4 463/4/4
f 461/4/4 459/4/4 463/4/4
f 466/3/5 465/3/5 464/3/5
f 467/3/5 465/3/5 466/3/5
f 472/2/5 469/2/5 468/2/5
f 473/2/5 469/2/5 472/2/5
f 475/3/5 471/3/5 470/3/5
f 475/2/5 474/2/5 473/2/5
f 475/2/5 473/2/5 472/2/5
f 475/2/5 472/2/5 471/2/5
f 476/2/5 474/2/5 475/2/5
f 478/3/5 475/3/5 470/3/5
f 479/3/5 475/3/5 478/3/5
f 480/2/5 474/2/5 476/2/5
f 482/4/5 478/4/5 477/4/5
f 483/2/5 479/2/5 478/2/5
f 483/4/5 478/4/5 482/4/5
f 484/3/5 483/3/5 482/3/5
f 485/2/5 479/2/5 483/2/5
f 485/3/5 483/3/5 484/3/5
f 486/2/5 479/2/5 485/2/5
f 487/2/5 481/2/5 480/2/5
f 487/2/5 480/2/5 476/2/5
f 488/2/5 481/2/5 487/2/5
f 489/3/5 486/3/5 485/3/5
f 491/2/5 487/2/5 476/2/5
f 492/3/5 490/3/5 489/3/5
f 492/3/5 489/3/5 485/3/5
f 493/3/5 490/3/5 492/3/5
f 494/2/5 491/2/5 490/2/5
f 494/3/5 490/3/5 493/3/5
f 495/2/5 491/2/5 494/2/5
f 496/2/5 487/2/5 491/2/5
f 496/2/5 491/2/5 495/2/5
f 497/3/5 495/3/5 494/3/5
f 497/3/5 494/3/5 493/3/5
f 498/3/5 495/3/5 497/3/5
f 505/2/5 500/2/5 499/2/5
f 506/2/5 500/2/5 505/2/5
f 507/2/5 500/2/5 506/2/5
f 508/2/5 502/2/5 501/2/5
f 509/4/5 503/4/5 502/4/5
f 509/2/5 502/2/5 508/2/5
f 510/4/5 503/4/5 509/4/5
f 512/2/5 511/2/5 510/2/5
f 513/2/5 511/2/5 512/2/5
f 514/4/5 505/4/5 504/4/5
f 515/4/5 505/4/5 514/4/5
f 516/4/5 513/4/5 512/4/5
f 517/4/5 513/4/5 516/4/5
f 522/4/5 519/4/5 518/4/5
f 523/4/5 519/4/5 522/4/5
f 524/2/5 523/2/5 522/2/5
f 525/2/5 523/2/5 524/2/5
f 528/2/5 521/2/5 520/2/5
f 529/2/5 521/2/5 528/2/5
f 530/2/5 526/2/5 525/2/5
f 531/2/5 526/2/5 530/2/5
f 532/4/5 528/4/5 527/4/5
f 533/4/5 528/4/5 532/4/5
f 537/2/5 535/2/5 534/2/5
f 538/4/5 536/4/5 535/4/5
f 538/2/5 535/2/5 537/2/5
f 539/4/5 536/4/5 538/4/5
f 544/4/5 543/4/5 542/4/5
f 545/4/5 543/4/5 544/4/5
f 546/4/5 543/4/5 545/4/5
f 547/4/5 541/4/5 540/4/5
f 548/4/5 541/4/5 547/4/5
f 549/2/5 546/2/5 545/2/5
f 550/2/5 546/2/5 549/2/5
f 554/2/5 552/2/5 551/2/5
f 555/4/5 553/4/5 552/4/5
f 555/2/5 552/2/5 554/2/5
f 556/4/5 553/4/5 555/4/5
f 561/2/5 558/2/5 557/2/5
f 562/2/5 558/2/5 561/2/5
f 563/4/5 560/4/5 559/4/5
f 564/4/5 560/4/5 563/4/5
f 569/4/5 566/4/5 565/4/5
f 570/4/5 566/4/5 569/4/5
f 571/4/5 568/4/5 567/4/5
f 572/4/5 568/4/5 571/4/5
f 573/4/6 574/4/6 577/4/6
f 577/4/6 574/4/6 578/4/6
f 575/4/6 576/4/6 579/4/6
f 579/4/6 576/4/6 580/4/6
f 581/4/6 582/4/6 585/4/6
f 585/4/6 582/4/6 586/4/6
f 583/4/6 584/4/6 587/4/6
f 587/4/6 584/4/6 588/4/6
f 589/2/6 590/2/6 591/2/6
f 591/2/6 590/2/6 592/2/6
f 592/2/6 590/2/6 593/2/6
f 593/2/6 590/2/6 594/2/6
f 595/4/6 596/4/6 599/4/6
f 599/4/6 596/4/6 600/4/6
f 597/2/6 598/2/6 601/2/6
f 601/2/6 598/2/6 602/2/6
f 599/2/6 600/2/6 603/2/6
f 603/2/6 600/2/6 604/2/6
f 601/4/6 602/4/6 605/4/6
f 605/4/6 602/4/6 606/4/6
f 607/2/6 608/2/6 610/2/6
f 608/4/6 609/4/6 611/4/6
f 610/2/6 608/2/6 611/2/6
f 611/4/6 609/4/6 612/4/6
f 613/4/6 614/4/6 619/4/6
f 614/2/6 615/2/6 620/2/6
f 619/4/6 614/4/6 620/4/6
f 620/2/6 615/2/6 621/2/6
f 616/2/6 617/2/6 622/2/6
f 622/2/6 617/2/6 623/2/6
f 618/4/6 619/4/6 625/4/6
f 625/4/6 619/4/6 626/4/6
f 625/2/6 626/2/6 627/2/6
f 627/2/6 626/2/6 628/2/6
f 623/2/6 624/2/6 629/2/6
f 629/2/6 624/2/6 630/2/6
f 633/2/6 634/2/6 635/2/6
f 635/2/6 634/2/6 636/2/6
f 631/2/6 632/2/6 637/2/6
f 637/2/6 632/2/6 638/2/6
f 635/4/6 636/4/6 642/4/6
f 642/4/6 636/4/6 643/4/6
f 638/2/6 639/2/6 644/2/6
f 644/2/6 639/2/6 645/2/6
f 640/2/6 641/2/6 646/2/6
f 641/4/6 642/4/6 647/4/6
f 646/2/6 641/2/6 647/2/6
f 647/4/6 642/4/6 648/4/6
f 649/2/6 650/2/6 652/2/6
f 652/2/6 650/2/6 653/2/6
f 653/2/6 650/2/6 654/2/6
f 651/2/6 652/2/6 656/2/6
f 652/4/6 653/4/6 657/4/6
f 656/2/6 652/2/6 657/2/6
f 654/2/6 655/2/6 658/2/6
f 657/4/6 653/4/6 658/4/6
f 653/2/6 654/2/6 658/2/6
f 658/2/6 655/2/6 659/2/6
f 651/2/6 656/2/6 661/2/6
f 661/2/6 656/2/6 662/2/6
f 659/2/6 655/2/6 663/2/6
f 659/2/6 663/2/6 665/2/6
f 663/2/6 664/2/6 665/2/6
f 665/2/6 664/2/6 666/2/6
f 660/2/6 661/2/6 667/2/6
f 661/3/6 662/3/6 668/3/6
f 667/2/6 661/2/6 668/2/6
f 665/4/6 666/4/6 669/4/6
f 666/2/6 664/2/6 670/2/6
f 669/4/6 666/4/6 670/4/6
f 670/2/6 664/2/6 671/2/6
f 668/3/6 662/3/6 672/3/6
f 669/2/6 670/2/6 675/2/6
f 668/3/6 672/3/6 676/3/6
f 672/3/6 673/3/6 676/3/6
f 676/3/6 673/3/6 677/3/6
f 673/2/6 674/2/6 678/2/6
f 677/3/6 673/3/6 678/3/6
f 674/4/6 675/4/6 679/4/6
f 678/2/6 674/2/6 679/2/6
f 675/2/6 670/2/6 680/2/6
f 679/4/6 675/4/6 680/4/6
f 680/2/6 670/2/6 681/2/6
f 677/2/6 678/2/6 682/2/6
f 678/2/6 679/2/6 682/2/6
f 682/2/6 679/2/6 683/2/6
f 684/2/6 685/2/6 687/2/6
f 685/3/6 686/3/6 688/3/6
f 687/2/6 685/2/6 688/2/6
f 687/3/6 688/3/6 689/3/6
f 688/3/6 686/3/6 690/3/6
f 689/3/6 688/3/6 690/3/6
