# MagicaVoxel @ Ephtracy

# group
o 

# material
mtllib journal.vox.mtl
usemtl palette

# normals
vn -1 0 0
vn 1 0 0
vn 0 0 1
vn 0 0 -1
vn 0 -1 0
vn 0 1 0

# texcoords
vt 0.0175781 0.5
vt 0.0566406 0.5
vt 0.130859 0.5
vt 0.134766 0.5
vt 0.138672 0.5
vt 0.142578 0.5

# verts
v -0.6 0.1 0.2
v -0.6 0.1 -0.1
v -0.6 1.5 0.2
v -0.6 1.5 -0.1
v -0.5 0 0.1
v -0.5 0 0
v -0.5 0.1 0.3
v -0.5 0.1 0.2
v -0.5 0.1 0.1
v -0.5 0.1 0
v -0.5 0.1 -0.1
v -0.5 0.1 -0.2
v -0.5 0.4 -0.2
v -0.5 0.4 -0.3
v -0.5 1.5 0.3
v -0.5 1.5 0.2
v -0.5 1.5 0.1
v -0.5 1.5 -0.1
v -0.5 1.5 -0.2
v -0.5 1.6 0.1
v -0.5 1.6 -0.3
v -0.4 0.4 -0.2
v -0.4 0.4 -0.3
v -0.4 0.5 -0.2
v -0.4 0.5 -0.3
v -0.3 0 0.1
v -0.3 0 0
v -0.3 0.1 0.1
v -0.3 0.1 0
v -0.3 0.5 -0.2
v -0.3 0.5 -0.3
v -0.3 1.5 0.1
v -0.3 1.5 -0.1
v -0.3 1.5 -0.2
v -0.3 1.6 0.1
v -0.3 1.6 -0.3
v 0.5 0.1 0.3
v 0.5 0.1 0.2
v 0.5 0.1 -0.1
v 0.5 0.1 -0.2
v 0.5 1.5 0.3
v 0.5 1.5 0.2
v 0.5 1.5 -0.1
v 0.5 1.5 -0.2
v 0.6 0.1 0.2
v 0.6 0.1 0.1
v 0.6 0.1 -0.1
v 0.6 1.5 0.2
v 0.6 1.5 0.1
v 0.6 1.5 -0.1
v -0.5 0.1 0.3
v -0.5 1.5 0.3
v 0.3 0.1 0.3
v 0.3 1.5 0.3
v 0.5 0.1 0.3
v 0.5 1.5 0.3
v -0.6 0.1 0.2
v -0.6 1.5 0.2
v -0.5 0.1 0.2
v -0.5 1.5 0.2
v 0.5 0.1 0.2
v 0.5 1.5 0.2
v 0.6 0.1 0.2
v 0.6 1.5 0.2
v -0.5 0 0.1
v -0.5 0.1 0.1
v -0.5 1.5 0.1
v -0.5 1.6 0.1
v -0.3 0 0.1
v -0.3 0.1 0.1
v -0.3 1.5 0.1
v -0.3 1.6 0.1
v -0.5 0 0
v -0.5 0.1 0
v -0.3 0 0
v -0.3 0.1 0
v -0.6 0.1 -0.1
v -0.6 1.5 -0.1
v -0.5 0.1 -0.1
v -0.5 1.5 -0.1
v 0.5 0.1 -0.1
v 0.5 1.5 -0.1
v 0.6 0.1 -0.1
v 0.6 1.5 -0.1
v -0.5 0.1 -0.2
v -0.5 0.4 -0.2
v -0.4 0.4 -0.2
v -0.4 0.5 -0.2
v -0.3 0.5 -0.2
v -0.3 1.5 -0.2
v -0.2 1 -0.2
v -0.2 1.2 -0.2
v -0.1 0.9 -0.2
v -0.1 1 -0.2
v 0 0.8 -0.2
v 0 0.9 -0.2
v 0 1.1 -0.2
v 0 1.2 -0.2
v 0.1 0.8 -0.2
v 0.1 0.9 -0.2
v 0.1 1.1 -0.2
v 0.1 1.2 -0.2
v 0.2 0.9 -0.2
v 0.2 1 -0.2
v 0.3 1 -0.2
v 0.3 1.2 -0.2
v 0.4 0.1 -0.2
v 0.4 1.5 -0.2
v 0.5 0.1 -0.2
v 0.5 1.5 -0.2
v -0.5 0.4 -0.3
v -0.5 1.6 -0.3
v -0.4 0.4 -0.3
v -0.4 0.5 -0.3
v -0.3 0.5 -0.3
v -0.3 1.6 -0.3
v -0.5 0 0.1
v -0.3 0 0.1
v -0.5 0 0
v -0.3 0 0
v -0.5 0.1 0.3
v 0.3 0.1 0.3
v 0.5 0.1 0.3
v -0.6 0.1 0.2
v -0.5 0.1 0.2
v 0.3 0.1 0.2
v 0.5 0.1 0.2
v 0.6 0.1 0.2
v -0.5 0.1 0.1
v -0.3 0.1 0.1
v 0.6 0.1 0.1
v -0.5 0.1 0
v -0.3 0.1 0
v -0.6 0.1 -0.1
v -0.5 0.1 -0.1
v 0.4 0.1 -0.1
v 0.5 0.1 -0.1
v 0.6 0.1 -0.1
v -0.5 0.1 -0.2
v 0.4 0.1 -0.2
v 0.5 0.1 -0.2
v -0.5 0.4 -0.2
v -0.4 0.4 -0.2
v -0.5 0.4 -0.3
v -0.4 0.4 -0.3
v -0.4 0.5 -0.2
v -0.3 0.5 -0.2
v -0.4 0.5 -0.3
v -0.3 0.5 -0.3
v -0.5 1.5 0.3
v 0.3 1.5 0.3
v 0.5 1.5 0.3
v -0.6 1.5 0.2
v -0.5 1.5 0.2
v 0.3 1.5 0.2
v 0.5 1.5 0.2
v 0.6 1.5 0.2
v -0.5 1.5 0.1
v -0.3 1.5 0.1
v 0.6 1.5 0.1
v -0.6 1.5 -0.1
v -0.5 1.5 -0.1
v -0.3 1.5 -0.1
v 0.4 1.5 -0.1
v 0.5 1.5 -0.1
v 0.6 1.5 -0.1
v -0.3 1.5 -0.2
v 0.4 1.5 -0.2
v 0.5 1.5 -0.2
v -0.5 1.6 0.1
v -0.3 1.6 0.1
v -0.5 1.6 -0.3
v -0.3 1.6 -0.3

# faces
f 3/4/1 2/4/1 1/4/1
f 4/4/1 2/4/1 3/4/1
f 9/5/1 6/5/1 5/5/1
f 10/5/1 6/5/1 9/5/1
f 13/2/1 12/2/1 11/2/1
f 15/2/1 8/2/1 7/2/1
f 16/2/1 8/2/1 15/2/1
f 18/2/1 13/2/1 11/2/1
f 19/5/1 14/5/1 13/5/1
f 19/2/1 13/2/1 18/2/1
f 20/5/1 18/5/1 17/5/1
f 20/5/1 19/5/1 18/5/1
f 21/5/1 14/5/1 19/5/1
f 21/5/1 19/5/1 20/5/1
f 22/5/2 23/5/2 24/5/2
f 24/5/2 23/5/2 25/5/2
f 26/5/2 27/5/2 28/5/2
f 28/5/2 27/5/2 29/5/2
f 30/5/2 31/5/2 34/5/2
f 32/5/2 33/5/2 35/5/2
f 33/5/2 34/5/2 35/5/2
f 34/5/2 31/5/2 36/5/2
f 35/5/2 34/5/2 36/5/2
f 37/4/2 38/4/2 41/4/2
f 41/4/2 38/4/2 42/4/2
f 39/4/2 40/4/2 43/4/2
f 43/4/2 40/4/2 44/4/2
f 45/6/2 46/6/2 48/6/2
f 46/3/2 47/3/2 49/3/2
f 48/6/2 46/6/2 49/6/2
f 49/3/2 47/3/2 50/3/2
f 53/2/3 52/2/3 51/2/3
f 54/2/3 52/2/3 53/2/3
f 55/4/3 54/4/3 53/4/3
f 56/4/3 54/4/3 55/4/3
f 59/4/3 58/4/3 57/4/3
f 60/4/3 58/4/3 59/4/3
f 63/6/3 62/6/3 61/6/3
f 64/6/3 62/6/3 63/6/3
f 69/5/3 66/5/3 65/5/3
f 70/5/3 66/5/3 69/5/3
f 71/5/3 68/5/3 67/5/3
f 72/5/3 68/5/3 71/5/3
f 73/5/4 74/5/4 75/5/4
f 75/5/4 74/5/4 76/5/4
f 77/4/4 78/4/4 79/4/4
f 79/4/4 78/4/4 80/4/4
f 81/3/4 82/3/4 83/3/4
f 83/3/4 82/3/4 84/3/4
f 85/2/4 86/2/4 87/2/4
f 87/2/4 88/2/4 89/2/4
f 89/2/4 90/2/4 91/2/4
f 91/2/4 90/2/4 92/2/4
f 89/2/4 91/2/4 93/2/4
f 91/1/4 92/1/4 94/1/4
f 93/2/4 91/2/4 94/2/4
f 89/2/4 93/2/4 95/2/4
f 93/1/4 94/1/4 96/1/4
f 95/2/4 93/2/4 96/2/4
f 94/1/4 92/1/4 97/1/4
f 96/1/4 94/1/4 97/1/4
f 92/2/4 90/2/4 98/2/4
f 97/1/4 92/1/4 98/1/4
f 96/1/4 97/1/4 99/1/4
f 95/1/4 96/1/4 99/1/4
f 89/2/4 95/2/4 99/2/4
f 99/1/4 97/1/4 100/1/4
f 97/2/4 98/2/4 101/2/4
f 100/1/4 97/1/4 101/1/4
f 98/2/4 90/2/4 102/2/4
f 101/2/4 98/2/4 102/2/4
f 100/1/4 101/1/4 103/1/4
f 99/2/4 100/2/4 103/2/4
f 101/1/4 102/1/4 103/1/4
f 103/1/4 102/1/4 104/1/4
f 103/2/4 104/2/4 105/2/4
f 104/1/4 102/1/4 105/1/4
f 102/2/4 90/2/4 106/2/4
f 105/1/4 102/1/4 106/1/4
f 85/2/4 87/2/4 107/2/4
f 87/2/4 89/2/4 107/2/4
f 105/2/4 106/2/4 107/2/4
f 99/2/4 103/2/4 107/2/4
f 89/2/4 99/2/4 107/2/4
f 103/2/4 105/2/4 107/2/4
f 106/2/4 90/2/4 108/2/4
f 107/2/4 106/2/4 108/2/4
f 107/4/4 108/4/4 109/4/4
f 109/4/4 108/4/4 110/4/4
f 111/5/4 112/5/4 113/5/4
f 113/5/4 112/5/4 114/5/4
f 114/5/4 112/5/4 115/5/4
f 115/5/4 112/5/4 116/5/4
f 119/5/5 118/5/5 117/5/5
f 120/5/5 118/5/5 119/5/5
f 125/2/5 122/2/5 121/2/5
f 126/4/5 123/4/5 122/4/5
f 126/2/5 122/2/5 125/2/5
f 127/4/5 123/4/5 126/4/5
f 129/4/5 125/4/5 124/4/5
f 129/6/5 128/6/5 127/6/5
f 129/6/5 127/6/5 126/6/5
f 129/6/5 126/6/5 125/6/5
f 130/6/5 128/6/5 129/6/5
f 131/6/5 128/6/5 130/6/5
f 132/4/5 129/4/5 124/4/5
f 133/3/5 131/3/5 130/3/5
f 134/4/5 132/4/5 124/4/5
f 135/3/5 133/3/5 132/3/5
f 135/4/5 132/4/5 134/4/5
f 136/3/5 131/3/5 133/3/5
f 136/3/5 133/3/5 135/3/5
f 137/3/5 131/3/5 136/3/5
f 138/3/5 131/3/5 137/3/5
f 139/2/5 136/2/5 135/2/5
f 140/4/5 137/4/5 136/4/5
f 140/2/5 136/2/5 139/2/5
f 141/4/5 137/4/5 140/4/5
f 144/5/5 143/5/5 142/5/5
f 145/5/5 143/5/5 144/5/5
f 148/5/5 147/5/5 146/5/5
f 149/5/5 147/5/5 148/5/5
f 150/2/6 151/2/6 154/2/6
f 151/4/6 152/4/6 155/4/6
f 154/2/6 151/2/6 155/2/6
f 155/4/6 152/4/6 156/4/6
f 153/4/6 154/4/6 158/4/6
f 156/6/6 157/6/6 158/6/6
f 155/6/6 156/6/6 158/6/6
f 154/6/6 155/6/6 158/6/6
f 158/6/6 157/6/6 159/6/6
f 159/6/6 157/6/6 160/6/6
f 153/4/6 158/4/6 161/4/6
f 161/4/6 158/4/6 162/4/6
f 159/3/6 160/3/6 163/3/6
f 163/3/6 160/3/6 164/3/6
f 164/3/6 160/3/6 165/3/6
f 165/3/6 160/3/6 166/3/6
f 163/2/6 164/2/6 167/2/6
f 164/4/6 165/4/6 168/4/6
f 167/2/6 164/2/6 168/2/6
f 168/4/6 165/4/6 169/4/6
f 170/5/6 171/5/6 172/5/6
f 172/5/6 171/5/6 173/5/6
