# MagicaVoxel @ Ephtracy

# group
o 

# material
mtllib laptop.vox.mtl
usemtl palette

# normals
vn -1 0 0
vn 1 0 0
vn 0 0 1
vn 0 0 -1
vn 0 -1 0
vn 0 1 0

# texcoords
vt 0.193359 0.5
vt 0.212891 0.5
vt 0.216797 0.5
vt 0.220703 0.5
vt 0.228516 0.5
vt 0.232422 0.5

# verts
v -0.6 0 0.4
v -0.6 0 -0.4
v -0.6 0.1 0.4
v -0.6 0.1 -0.4
v -0.6 0.1 -0.5
v -0.6 0.9 -0.4
v -0.6 0.9 -0.5
v 0.6 0 0.4
v 0.6 0 -0.4
v 0.6 0.1 0.4
v 0.6 0.1 -0.4
v 0.6 0.1 -0.5
v 0.6 0.9 -0.4
v 0.6 0.9 -0.5
v -0.6 0 0.4
v -0.6 0.1 0.4
v 0.6 0 0.4
v 0.6 0.1 0.4
v -0.6 0.1 -0.4
v -0.6 0.9 -0.4
v -0.5 0.2 -0.4
v -0.5 0.8 -0.4
v -0.4 0.5 -0.4
v -0.4 0.6 -0.4
v -0.3 0.5 -0.4
v -0.3 0.6 -0.4
v -0.3 0.7 -0.4
v -0.2 0.6 -0.4
v -0.2 0.7 -0.4
v -0.2 0.8 -0.4
v -0.1 0.7 -0.4
v -0.1 0.8 -0.4
v 0.3 0.2 -0.4
v 0.3 0.3 -0.4
v 0.4 0.2 -0.4
v 0.4 0.3 -0.4
v 0.4 0.4 -0.4
v 0.5 0.2 -0.4
v 0.5 0.3 -0.4
v 0.5 0.4 -0.4
v 0.5 0.8 -0.4
v 0.6 0.1 -0.4
v 0.6 0.9 -0.4
v -0.6 0 -0.4
v -0.6 0.1 -0.4
v 0.6 0 -0.4
v 0.6 0.1 -0.4
v -0.6 0.1 -0.5
v -0.6 0.9 -0.5
v -0.5 0.2 -0.5
v -0.5 0.8 -0.5
v -0.4 0.5 -0.5
v -0.4 0.6 -0.5
v -0.3 0.5 -0.5
v -0.3 0.6 -0.5
v -0.3 0.7 -0.5
v -0.2 0.6 -0.5
v -0.2 0.7 -0.5
v -0.2 0.8 -0.5
v -0.1 0.7 -0.5
v -0.1 0.8 -0.5
v 0.3 0.2 -0.5
v 0.3 0.3 -0.5
v 0.4 0.2 -0.5
v 0.4 0.3 -0.5
v 0.4 0.4 -0.5
v 0.5 0.2 -0.5
v 0.5 0.3 -0.5
v 0.5 0.4 -0.5
v 0.5 0.8 -0.5
v 0.6 0.1 -0.5
v 0.6 0.9 -0.5
v -0.6 0 0.4
v 0.6 0 0.4
v -0.1 0 0.3
v 0.1 0 0.3
v -0.1 0 0.2
v 0.1 0 0.2
v -0.5 0 0.1
v -0.4 0 0.1
v -0.3 0 0.1
v -0.2 0 0.1
v 0.3 0 0.1
v 0.4 0 0.1
v 0.5 0 0.1
v -0.5 0 0
v -0.4 0 0
v -0.3 0 0
v -0.2 0 0
v -0.1 0 0
v 0 0 0
v 0.1 0 0
v 0.2 0 0
v 0.3 0 0
v 0.4 0 0
v 0.5 0 0
v -0.5 0 -0.1
v -0.4 0 -0.1
v -0.3 0 -0.1
v -0.2 0 -0.1
v -0.1 0 -0.1
v 0 0 -0.1
v 0.1 0 -0.1
v 0.2 0 -0.1
v 0.3 0 -0.1
v 0.4 0 -0.1
v 0.5 0 -0.1
v -0.5 0 -0.2
v -0.4 0 -0.2
v -0.3 0 -0.2
v -0.2 0 -0.2
v -0.1 0 -0.2
v 0 0 -0.2
v 0.1 0 -0.2
v 0.2 0 -0.2
v 0.3 0 -0.2
v 0.4 0 -0.2
v 0.5 0 -0.2
v -0.5 0 -0.3
v -0.4 0 -0.3
v -0.3 0 -0.3
v -0.2 0 -0.3
v -0.1 0 -0.3
v 0 0 -0.3
v 0.1 0 -0.3
v 0.2 0 -0.3
v 0.3 0 -0.3
v 0.4 0 -0.3
v 0.5 0 -0.3
v -0.6 0 -0.4
v 0.6 0 -0.4
v -0.6 0.1 -0.4
v 0.6 0.1 -0.4
v -0.6 0.1 -0.5
v 0.6 0.1 -0.5
v -0.6 0.1 0.4
v 0.6 0.1 0.4
v -0.1 0.1 0.3
v 0.1 0.1 0.3
v -0.1 0.1 0.2
v 0.1 0.1 0.2
v -0.5 0.1 0.1
v -0.4 0.1 0.1
v -0.3 0.1 0.1
v -0.2 0.1 0.1
v 0.3 0.1 0.1
v 0.4 0.1 0.1
v 0.5 0.1 0.1
v -0.5 0.1 0
v -0.4 0.1 0
v -0.3 0.1 0
v -0.2 0.1 0
v -0.1 0.1 0
v 0 0.1 0
v 0.1 0.1 0
v 0.2 0.1 0
v 0.3 0.1 0
v 0.4 0.1 0
v 0.5 0.1 0
v -0.5 0.1 -0.1
v -0.4 0.1 -0.1
v -0.3 0.1 -0.1
v -0.2 0.1 -0.1
v -0.1 0.1 -0.1
v 0 0.1 -0.1
v 0.1 0.1 -0.1
v 0.2 0.1 -0.1
v 0.3 0.1 -0.1
v 0.4 0.1 -0.1
v 0.5 0.1 -0.1
v -0.5 0.1 -0.2
v -0.4 0.1 -0.2
v -0.3 0.1 -0.2
v -0.2 0.1 -0.2
v -0.1 0.1 -0.2
v 0 0.1 -0.2
v 0.1 0.1 -0.2
v 0.2 0.1 -0.2
v 0.3 0.1 -0.2
v 0.4 0.1 -0.2
v 0.5 0.1 -0.2
v -0.5 0.1 -0.3
v -0.4 0.1 -0.3
v -0.3 0.1 -0.3
v -0.2 0.1 -0.3
v -0.1 0.1 -0.3
v 0 0.1 -0.3
v 0.1 0.1 -0.3
v 0.2 0.1 -0.3
v 0.3 0.1 -0.3
v 0.4 0.1 -0.3
v 0.5 0.1 -0.3
v -0.6 0.1 -0.4
v 0.6 0.1 -0.4
v -0.6 0.9 -0.4
v 0.6 0.9 -0.4
v -0.6 0.9 -0.5
v 0.6 0.9 -0.5

# faces
f 3/2/1 2/2/1 1/2/1
f 4/2/1 2/2/1 3/2/1
f 6/6/1 5/6/1 4/6/1
f 7/6/1 5/6/1 6/6/1
f 8/2/2 9/2/2 10/2/2
f 10/2/2 9/2/2 11/2/2
f 11/6/2 12/6/2 13/6/2
f 13/6/2 12/6/2 14/6/2
f 17/2/3 16/2/3 15/2/3
f 18/2/3 16/2/3 17/2/3
f 21/6/3 20/6/3 19/6/3
f 22/6/3 20/6/3 21/6/3
f 23/3/3 22/3/3 21/3/3
f 24/3/3 22/3/3 23/3/3
f 25/3/3 23/3/3 21/3/3
f 25/5/3 24/5/3 23/5/3
f 26/3/3 22/3/3 24/3/3
f 26/5/3 24/5/3 25/5/3
f 27/3/3 22/3/3 26/3/3
f 28/3/3 26/3/3 25/3/3
f 28/5/3 27/5/3 26/5/3
f 29/3/3 22/3/3 27/3/3
f 29/5/3 27/5/3 28/5/3
f 30/6/3 20/6/3 22/6/3
f 30/3/3 22/3/3 29/3/3
f 31/3/3 29/3/3 28/3/3
f 31/5/3 30/5/3 29/5/3
f 32/6/3 20/6/3 30/6/3
f 32/5/3 30/5/3 31/5/3
f 33/6/3 21/6/3 19/6/3
f 33/3/3 31/3/3 28/3/3
f 33/3/3 32/3/3 31/3/3
f 33/3/3 28/3/3 25/3/3
f 33/3/3 25/3/3 21/3/3
f 34/3/3 32/3/3 33/3/3
f 35/6/3 33/6/3 19/6/3
f 35/5/3 34/5/3 33/5/3
f 36/3/3 32/3/3 34/3/3
f 36/5/3 34/5/3 35/5/3
f 37/3/3 32/3/3 36/3/3
f 38/6/3 35/6/3 19/6/3
f 38/3/3 36/3/3 35/3/3
f 39/5/3 37/5/3 36/5/3
f 39/3/3 36/3/3 38/3/3
f 40/3/3 32/3/3 37/3/3
f 40/5/3 37/5/3 39/5/3
f 41/6/3 20/6/3 32/6/3
f 41/3/3 32/3/3 40/3/3
f 42/6/3 40/6/3 39/6/3
f 42/6/3 39/6/3 38/6/3
f 42/6/3 41/6/3 40/6/3
f 42/6/3 38/6/3 19/6/3
f 43/6/3 20/6/3 41/6/3
f 43/6/3 41/6/3 42/6/3
f 44/2/4 45/2/4 46/2/4
f 46/2/4 45/2/4 47/2/4
f 48/6/4 49/6/4 50/6/4
f 50/6/4 49/6/4 51/6/4
f 50/3/4 51/3/4 52/3/4
f 52/3/4 51/3/4 53/3/4
f 50/3/4 52/3/4 54/3/4
f 52/5/4 53/5/4 54/5/4
f 53/3/4 51/3/4 55/3/4
f 54/5/4 53/5/4 55/5/4
f 55/3/4 51/3/4 56/3/4
f 54/3/4 55/3/4 57/3/4
f 55/5/4 56/5/4 57/5/4
f 56/3/4 51/3/4 58/3/4
f 57/5/4 56/5/4 58/5/4
f 51/6/4 49/6/4 59/6/4
f 58/3/4 51/3/4 59/3/4
f 57/3/4 58/3/4 60/3/4
f 58/5/4 59/5/4 60/5/4
f 59/6/4 49/6/4 61/6/4
f 60/5/4 59/5/4 61/5/4
f 48/6/4 50/6/4 62/6/4
f 57/3/4 60/3/4 62/3/4
f 60/3/4 61/3/4 62/3/4
f 54/3/4 57/3/4 62/3/4
f 50/3/4 54/3/4 62/3/4
f 62/3/4 61/3/4 63/3/4
f 48/6/4 62/6/4 64/6/4
f 62/5/4 63/5/4 64/5/4
f 63/3/4 61/3/4 65/3/4
f 64/5/4 63/5/4 65/5/4
f 65/3/4 61/3/4 66/3/4
f 48/6/4 64/6/4 67/6/4
f 64/3/4 65/3/4 67/3/4
f 65/5/4 66/5/4 68/5/4
f 67/3/4 65/3/4 68/3/4
f 66/3/4 61/3/4 69/3/4
f 68/5/4 66/5/4 69/5/4
f 61/6/4 49/6/4 70/6/4
f 69/3/4 61/3/4 70/3/4
f 68/6/4 69/6/4 71/6/4
f 67/6/4 68/6/4 71/6/4
f 69/6/4 70/6/4 71/6/4
f 48/6/4 67/6/4 71/6/4
f 70/6/4 49/6/4 72/6/4
f 71/6/4 70/6/4 72/6/4
f 75/2/5 74/2/5 73/2/5
f 76/2/5 74/2/5 75/2/5
f 77/2/5 75/2/5 73/2/5
f 77/1/5 76/1/5 75/1/5
f 78/2/5 74/2/5 76/2/5
f 78/1/5 76/1/5 77/1/5
f 79/2/5 77/2/5 73/2/5
f 79/2/5 78/2/5 77/2/5
f 80/2/5 78/2/5 79/2/5
f 81/2/5 78/2/5 80/2/5
f 82/2/5 78/2/5 81/2/5
f 83/2/5 74/2/5 78/2/5
f 83/2/5 78/2/5 82/2/5
f 84/2/5 74/2/5 83/2/5
f 85/2/5 74/2/5 84/2/5
f 86/2/5 79/2/5 73/2/5
f 86/4/5 80/4/5 79/4/5
f 87/1/5 81/1/5 80/1/5
f 87/4/5 80/4/5 86/4/5
f 88/4/5 82/4/5 81/4/5
f 88/1/5 81/1/5 87/1/5
f 89/1/5 83/1/5 82/1/5
f 89/4/5 82/4/5 88/4/5
f 90/1/5 83/1/5 89/1/5
f 91/1/5 83/1/5 90/1/5
f 92/1/5 83/1/5 91/1/5
f 93/1/5 83/1/5 92/1/5
f 94/4/5 84/4/5 83/4/5
f 94/1/5 83/1/5 93/1/5
f 95/1/5 85/1/5 84/1/5
f 95/4/5 84/4/5 94/4/5
f 96/2/5 74/2/5 85/2/5
f 96/1/5 85/1/5 95/1/5
f 97/1/5 87/1/5 86/1/5
f 97/2/5 86/2/5 73/2/5
f 98/4/5 88/4/5 87/4/5
f 98/1/5 87/1/5 97/1/5
f 99/1/5 89/1/5 88/1/5
f 99/4/5 88/4/5 98/4/5
f 100/4/5 90/4/5 89/4/5
f 100/1/5 89/1/5 99/1/5
f 101/1/5 91/1/5 90/1/5
f 101/4/5 90/4/5 100/4/5
f 102/4/5 92/4/5 91/4/5
f 102/1/5 91/1/5 101/1/5
f 103/1/5 93/1/5 92/1/5
f 103/4/5 92/4/5 102/4/5
f 104/4/5 94/4/5 93/4/5
f 104/1/5 93/1/5 103/1/5
f 105/1/5 95/1/5 94/1/5
f 105/4/5 94/4/5 104/4/5
f 106/4/5 96/4/5 95/4/5
f 106/1/5 95/1/5 105/1/5
f 107/2/5 74/2/5 96/2/5
f 107/4/5 96/4/5 106/4/5
f 108/2/5 97/2/5 73/2/5
f 108/4/5 98/4/5 97/4/5
f 109/1/5 99/1/5 98/1/5
f 109/4/5 98/4/5 108/4/5
f 110/4/5 100/4/5 99/4/5
f 110/1/5 99/1/5 109/1/5
f 111/1/5 101/1/5 100/1/5
f 111/4/5 100/4/5 110/4/5
f 112/4/5 102/4/5 101/4/5
f 112/1/5 101/1/5 111/1/5
f 113/1/5 103/1/5 102/1/5
f 113/4/5 102/4/5 112/4/5
f 114/4/5 104/4/5 103/4/5
f 114/1/5 103/1/5 113/1/5
f 115/1/5 105/1/5 104/1/5
f 115/4/5 104/4/5 114/4/5
f 116/4/5 106/4/5 105/4/5
f 116/1/5 105/1/5 115/1/5
f 117/1/5 107/1/5 106/1/5
f 117/4/5 106/4/5 116/4/5
f 118/2/5 74/2/5 107/2/5
f 118/1/5 107/1/5 117/1/5
f 119/2/5 108/2/5 73/2/5
f 119/1/5 109/1/5 108/1/5
f 120/4/5 110/4/5 109/4/5
f 120/1/5 109/1/5 119/1/5
f 121/1/5 111/1/5 110/1/5
f 121/4/5 110/4/5 120/4/5
f 122/4/5 112/4/5 111/4/5
f 122/1/5 111/1/5 121/1/5
f 123/1/5 113/1/5 112/1/5
f 123/4/5 112/4/5 122/4/5
f 124/4/5 114/4/5 113/4/5
f 124/1/5 113/1/5 123/1/5
f 125/1/5 115/1/5 114/1/5
f 125/4/5 114/4/5 124/4/5
f 126/4/5 116/4/5 115/4/5
f 126/1/5 115/1/5 125/1/5
f 127/1/5 117/1/5 116/1/5
f 127/4/5 116/4/5 126/4/5
f 128/4/5 118/4/5 117/4/5
f 128/1/5 117/1/5 127/1/5
f 129/2/5 74/2/5 118/2/5
f 129/4/5 118/4/5 128/4/5
f 130/2/5 124/2/5 123/2/5
f 130/2/5 122/2/5 121/2/5
f 130/2/5 129/2/5 128/2/5
f 130/2/5 119/2/5 73/2/5
f 130/2/5 127/2/5 126/2/5
f 130/2/5 128/2/5 127/2/5
f 130/2/5 125/2/5 124/2/5
f 130/2/5 120/2/5 119/2/5
f 130/2/5 126/2/5 125/2/5
f 130/2/5 123/2/5 122/2/5
f 130/2/5 121/2/5 120/2/5
f 131/2/5 74/2/5 129/2/5
f 131/2/5 129/2/5 130/2/5
f 134/6/5 133/6/5 132/6/5
f 135/6/5 133/6/5 134/6/5
f 136/2/6 137/2/6 138/2/6
f 138/2/6 137/2/6 139/2/6
f 136/2/6 138/2/6 140/2/6
f 138/1/6 139/1/6 140/1/6
f 139/2/6 137/2/6 141/2/6
f 140/1/6 139/1/6 141/1/6
f 136/2/6 140/2/6 142/2/6
f 140/2/6 141/2/6 142/2/6
f 142/2/6 141/2/6 143/2/6
f 143/2/6 141/2/6 144/2/6
f 144/2/6 141/2/6 145/2/6
f 141/2/6 137/2/6 146/2/6
f 145/2/6 141/2/6 146/2/6
f 146/2/6 137/2/6 147/2/6
f 147/2/6 137/2/6 148/2/6
f 136/2/6 142/2/6 149/2/6
f 142/4/6 143/4/6 149/4/6
f 143/1/6 144/1/6 150/1/6
f 149/4/6 143/4/6 150/4/6
f 144/4/6 145/4/6 151/4/6
f 150/1/6 144/1/6 151/1/6
f 145/1/6 146/1/6 152/1/6
f 151/4/6 145/4/6 152/4/6
f 152/1/6 146/1/6 153/1/6
f 153/1/6 146/1/6 154/1/6
f 154/1/6 146/1/6 155/1/6
f 155/1/6 146/1/6 156/1/6
f 146/4/6 147/4/6 157/4/6
f 156/1/6 146/1/6 157/1/6
f 147/1/6 148/1/6 158/1/6
f 157/4/6 147/4/6 158/4/6
f 148/2/6 137/2/6 159/2/6
f 158/1/6 148/1/6 159/1/6
f 149/1/6 150/1/6 160/1/6
f 136/2/6 149/2/6 160/2/6
f 150/4/6 151/4/6 161/4/6
f 160/1/6 150/1/6 161/1/6
f 151/1/6 152/1/6 162/1/6
f 161/4/6 151/4/6 162/4/6
f 152/4/6 153/4/6 163/4/6
f 162/1/6 152/1/6 163/1/6
f 153/1/6 154/1/6 164/1/6
f 163/4/6 153/4/6 164/4/6
f 154/4/6 155/4/6 165/4/6
f 164/1/6 154/1/6 165/1/6
f 155/1/6 156/1/6 166/1/6
f 165/4/6 155/4/6 166/4/6
f 156/4/6 157/4/6 167/4/6
f 166/1/6 156/1/6 167/1/6
f 157/1/6 158/1/6 168/1/6
f 167/4/6 157/4/6 168/4/6
f 158/4/6 159/4/6 169/4/6
f 168/1/6 158/1/6 169/1/6
f 159/2/6 137/2/6 170/2/6
f 169/4/6 159/4/6 170/4/6
f 136/2/6 160/2/6 171/2/6
f 160/4/6 161/4/6 171/4/6
f 161/1/6 162/1/6 172/1/6
f 171/4/6 161/4/6 172/4/6
f 162/4/6 163/4/6 173/4/6
f 172/1/6 162/1/6 173/1/6
f 163/1/6 164/1/6 174/1/6
f 173/4/6 163/4/6 174/4/6
f 164/4/6 165/4/6 175/4/6
f 174/1/6 164/1/6 175/1/6
f 165/1/6 166/1/6 176/1/6
f 175/4/6 165/4/6 176/4/6
f 166/4/6 167/4/6 177/4/6
f 176/1/6 166/1/6 177/1/6
f 167/1/6 168/1/6 178/1/6
f 177/4/6 167/4/6 178/4/6
f 168/4/6 169/4/6 179/4/6
f 178/1/6 168/1/6 179/1/6
f 169/1/6 170/1/6 180/1/6
f 179/4/6 169/4/6 180/4/6
f 170/2/6 137/2/6 181/2/6
f 180/1/6 170/1/6 181/1/6
f 136/2/6 171/2/6 182/2/6
f 171/1/6 172/1/6 182/1/6
f 172/4/6 173/4/6 183/4/6
f 182/1/6 172/1/6 183/1/6
f 173/1/6 174/1/6 184/1/6
f 183/4/6 173/4/6 184/4/6
f 174/4/6 175/4/6 185/4/6
f 184/1/6 174/1/6 185/1/6
f 175/1/6 176/1/6 186/1/6
f 185/4/6 175/4/6 186/4/6
f 176/4/6 177/4/6 187/4/6
f 186/1/6 176/1/6 187/1/6
f 177/1/6 178/1/6 188/1/6
f 187/4/6 177/4/6 188/4/6
f 178/4/6 179/4/6 189/4/6
f 188/1/6 178/1/6 189/1/6
f 179/1/6 180/1/6 190/1/6
f 189/4/6 179/4/6 190/4/6
f 180/4/6 181/4/6 191/4/6
f 190/1/6 180/1/6 191/1/6
f 181/2/6 137/2/6 192/2/6
f 191/4/6 181/4/6 192/4/6
f 186/2/6 187/2/6 193/2/6
f 184/2/6 185/2/6 193/2/6
f 191/2/6 192/2/6 193/2/6
f 136/2/6 182/2/6 193/2/6
f 189/2/6 190/2/6 193/2/6
f 190/2/6 191/2/6 193/2/6
f 187/2/6 188/2/6 193/2/6
f 182/2/6 183/2/6 193/2/6
f 188/2/6 189/2/6 193/2/6
f 185/2/6 186/2/6 193/2/6
f 183/2/6 184/2/6 193/2/6
f 192/2/6 137/2/6 194/2/6
f 193/2/6 192/2/6 194/2/6
f 195/6/6 196/6/6 197/6/6
f 197/6/6 196/6/6 198/6/6
