# MagicaVoxel @ Ephtracy

# group
o 

# material
mtllib music_disc.vox.mtl
usemtl palette

# normals
vn -1 0 0
vn 1 0 0
vn 0 0 1
vn 0 0 -1
vn 0 -1 0
vn 0 1 0

# texcoords
vt 0.0996094 0.5
vt 0.123047 0.5
vt 0.134766 0.5

# verts
v -0.1 0 0.4
v -0.1 0 -0.4
v -0.1 0.1 0.5
v -0.1 0.1 0.4
v -0.1 0.1 -0.4
v -0.1 0.1 -0.5
v -0.1 0.2 0.6
v -0.1 0.2 0.5
v -0.1 0.2 -0.5
v -0.1 0.2 -0.6
v -0.1 0.3 0.7
v -0.1 0.3 0.6
v -0.1 0.3 -0.6
v -0.1 0.3 -0.7
v -0.1 0.4 0.8
v -0.1 0.4 0.7
v -0.1 0.4 -0.7
v -0.1 0.4 -0.8
v -0.1 0.6 0.2
v -0.1 0.6 -0.2
v -0.1 0.7 0.3
v -0.1 0.7 0.2
v -0.1 0.7 -0.2
v -0.1 0.7 -0.3
v -0.1 0.8 0.1
v -0.1 0.8 -0.1
v -0.1 0.9 0.1
v -0.1 0.9 -0.1
v -0.1 1 0.3
v -0.1 1 0.2
v -0.1 1 -0.2
v -0.1 1 -0.3
v -0.1 1.1 0.2
v -0.1 1.1 -0.2
v -0.1 1.2 0.8
v -0.1 1.2 0.7
v -0.1 1.2 -0.7
v -0.1 1.2 -0.8
v -0.1 1.3 0.7
v -0.1 1.3 0.6
v -0.1 1.3 -0.6
v -0.1 1.3 -0.7
v -0.1 1.4 0.6
v -0.1 1.4 0.5
v -0.1 1.4 -0.5
v -0.1 1.4 -0.6
v -0.1 1.5 0.5
v -0.1 1.5 0.4
v -0.1 1.5 -0.4
v -0.1 1.5 -0.5
v -0.1 1.6 0.4
v -0.1 1.6 -0.4
v 1.49012e-08 0 0.4
v 1.49012e-08 0 -0.4
v 1.49012e-08 0.1 0.5
v 1.49012e-08 0.1 0.4
v 1.49012e-08 0.1 -0.4
v 1.49012e-08 0.1 -0.5
v 1.49012e-08 0.2 0.6
v 1.49012e-08 0.2 0.5
v 1.49012e-08 0.2 -0.5
v 1.49012e-08 0.2 -0.6
v 1.49012e-08 0.3 0.7
v 1.49012e-08 0.3 0.6
v 1.49012e-08 0.3 -0.6
v 1.49012e-08 0.3 -0.7
v 1.49012e-08 0.4 0.8
v 1.49012e-08 0.4 0.7
v 1.49012e-08 0.4 -0.7
v 1.49012e-08 0.4 -0.8
v 1.49012e-08 0.6 0.2
v 1.49012e-08 0.6 -0.2
v 1.49012e-08 0.7 0.3
v 1.49012e-08 0.7 0.2
v 1.49012e-08 0.7 -0.2
v 1.49012e-08 0.7 -0.3
v 1.49012e-08 0.8 0.1
v 1.49012e-08 0.8 -0.1
v 1.49012e-08 0.9 0.1
v 1.49012e-08 0.9 -0.1
v 1.49012e-08 1 0.3
v 1.49012e-08 1 0.2
v 1.49012e-08 1 -0.2
v 1.49012e-08 1 -0.3
v 1.49012e-08 1.1 0.2
v 1.49012e-08 1.1 -0.2
v 1.49012e-08 1.2 0.8
v 1.49012e-08 1.2 0.7
v 1.49012e-08 1.2 -0.7
v 1.49012e-08 1.2 -0.8
v 1.49012e-08 1.3 0.7
v 1.49012e-08 1.3 0.6
v 1.49012e-08 1.3 -0.6
v 1.49012e-08 1.3 -0.7
v 1.49012e-08 1.4 0.6
v 1.49012e-08 1.4 0.5
v 1.49012e-08 1.4 -0.5
v 1.49012e-08 1.4 -0.6
v 1.49012e-08 1.5 0.5
v 1.49012e-08 1.5 0.4
v 1.49012e-08 1.5 -0.4
v 1.49012e-08 1.5 -0.5
v 1.49012e-08 1.6 0.4
v 1.49012e-08 1.6 -0.4
v -0.1 0.4 0.8
v -0.1 1.2 0.8
v 1.49012e-08 0.4 0.8
v 1.49012e-08 1.2 0.8
v -0.1 0.3 0.7
v -0.1 0.4 0.7
v -0.1 1.2 0.7
v -0.1 1.3 0.7
v 1.49012e-08 0.3 0.7
v 1.49012e-08 0.4 0.7
v 1.49012e-08 1.2 0.7
v 1.49012e-08 1.3 0.7
v -0.1 0.2 0.6
v -0.1 0.3 0.6
v -0.1 1.3 0.6
v -0.1 1.4 0.6
v 1.49012e-08 0.2 0.6
v 1.49012e-08 0.3 0.6
v 1.49012e-08 1.3 0.6
v 1.49012e-08 1.4 0.6
v -0.1 0.1 0.5
v -0.1 0.2 0.5
v -0.1 1.4 0.5
v -0.1 1.5 0.5
v 1.49012e-08 0.1 0.5
v 1.49012e-08 0.2 0.5
v 1.49012e-08 1.4 0.5
v 1.49012e-08 1.5 0.5
v -0.1 0 0.4
v -0.1 0.1 0.4
v -0.1 1.5 0.4
v -0.1 1.6 0.4
v 1.49012e-08 0 0.4
v 1.49012e-08 0.1 0.4
v 1.49012e-08 1.5 0.4
v 1.49012e-08 1.6 0.4
v -0.1 0.8 -0.1
v -0.1 0.9 -0.1
v 1.49012e-08 0.8 -0.1
v 1.49012e-08 0.9 -0.1
v -0.1 0.8 0.1
v -0.1 0.9 0.1
v 1.49012e-08 0.8 0.1
v 1.49012e-08 0.9 0.1
v -0.1 0 -0.4
v -0.1 0.1 -0.4
v -0.1 1.5 -0.4
v -0.1 1.6 -0.4
v 1.49012e-08 0 -0.4
v 1.49012e-08 0.1 -0.4
v 1.49012e-08 1.5 -0.4
v 1.49012e-08 1.6 -0.4
v -0.1 0.1 -0.5
v -0.1 0.2 -0.5
v -0.1 1.4 -0.5
v -0.1 1.5 -0.5
v 1.49012e-08 0.1 -0.5
v 1.49012e-08 0.2 -0.5
v 1.49012e-08 1.4 -0.5
v 1.49012e-08 1.5 -0.5
v -0.1 0.2 -0.6
v -0.1 0.3 -0.6
v -0.1 1.3 -0.6
v -0.1 1.4 -0.6
v 1.49012e-08 0.2 -0.6
v 1.49012e-08 0.3 -0.6
v 1.49012e-08 1.3 -0.6
v 1.49012e-08 1.4 -0.6
v -0.1 0.3 -0.7
v -0.1 0.4 -0.7
v -0.1 1.2 -0.7
v -0.1 1.3 -0.7
v 1.49012e-08 0.3 -0.7
v 1.49012e-08 0.4 -0.7
v 1.49012e-08 1.2 -0.7
v 1.49012e-08 1.3 -0.7
v -0.1 0.4 -0.8
v -0.1 1.2 -0.8
v 1.49012e-08 0.4 -0.8
v 1.49012e-08 1.2 -0.8
v -0.1 0 0.4
v 1.49012e-08 0 0.4
v -0.1 0 -0.4
v 1.49012e-08 0 -0.4
v -0.1 0.1 0.5
v 1.49012e-08 0.1 0.5
v -0.1 0.1 0.4
v 1.49012e-08 0.1 0.4
v -0.1 0.1 -0.4
v 1.49012e-08 0.1 -0.4
v -0.1 0.1 -0.5
v 1.49012e-08 0.1 -0.5
v -0.1 0.2 0.6
v 1.49012e-08 0.2 0.6
v -0.1 0.2 0.5
v 1.49012e-08 0.2 0.5
v -0.1 0.2 -0.5
v 1.49012e-08 0.2 -0.5
v -0.1 0.2 -0.6
v 1.49012e-08 0.2 -0.6
v -0.1 0.3 0.7
v 1.49012e-08 0.3 0.7
v -0.1 0.3 0.6
v 1.49012e-08 0.3 0.6
v -0.1 0.3 -0.6
v 1.49012e-08 0.3 -0.6
v -0.1 0.3 -0.7
v 1.49012e-08 0.3 -0.7
v -0.1 0.4 0.8
v 1.49012e-08 0.4 0.8
v -0.1 0.4 0.7
v 1.49012e-08 0.4 0.7
v -0.1 0.4 -0.7
v 1.49012e-08 0.4 -0.7
v -0.1 0.4 -0.8
v 1.49012e-08 0.4 -0.8
v -0.1 0.9 0.1
v 1.49012e-08 0.9 0.1
v -0.1 0.9 -0.1
v 1.49012e-08 0.9 -0.1
v -0.1 0.8 0.1
v 1.49012e-08 0.8 0.1
v -0.1 0.8 -0.1
v 1.49012e-08 0.8 -0.1
v -0.1 1.2 0.8
v 1.49012e-08 1.2 0.8
v -0.1 1.2 0.7
v 1.49012e-08 1.2 0.7
v -0.1 1.2 -0.7
v 1.49012e-08 1.2 -0.7
v -0.1 1.2 -0.8
v 1.49012e-08 1.2 -0.8
v -0.1 1.3 0.7
v 1.49012e-08 1.3 0.7
v -0.1 1.3 0.6
v 1.49012e-08 1.3 0.6
v -0.1 1.3 -0.6
v 1.49012e-08 1.3 -0.6
v -0.1 1.3 -0.7
v 1.49012e-08 1.3 -0.7
v -0.1 1.4 0.6
v 1.49012e-08 1.4 0.6
v -0.1 1.4 0.5
v 1.49012e-08 1.4 0.5
v -0.1 1.4 -0.5
v 1.49012e-08 1.4 -0.5
v -0.1 1.4 -0.6
v 1.49012e-08 1.4 -0.6
v -0.1 1.5 0.5
v 1.49012e-08 1.5 0.5
v -0.1 1.5 0.4
v 1.49012e-08 1.5 0.4
v -0.1 1.5 -0.4
v 1.49012e-08 1.5 -0.4
v -0.1 1.5 -0.5
v 1.49012e-08 1.5 -0.5
v -0.1 1.6 0.4
v 1.49012e-08 1.6 0.4
v -0.1 1.6 -0.4
v 1.49012e-08 1.6 -0.4

# faces
f 4/3/1 2/3/1 1/3/1
f 5/3/1 2/3/1 4/3/1
f 8/3/1 4/3/1 3/3/1
f 8/3/1 6/3/1 5/3/1
f 8/3/1 5/3/1 4/3/1
f 9/3/1 6/3/1 8/3/1
f 12/3/1 8/3/1 7/3/1
f 12/3/1 10/3/1 9/3/1
f 12/3/1 9/3/1 8/3/1
f 13/3/1 10/3/1 12/3/1
f 16/3/1 12/3/1 11/3/1
f 16/3/1 14/3/1 13/3/1
f 16/3/1 13/3/1 12/3/1
f 17/3/1 14/3/1 16/3/1
f 19/3/1 16/3/1 15/3/1
f 19/3/1 18/3/1 17/3/1
f 19/3/1 17/3/1 16/3/1
f 20/3/1 18/3/1 19/3/1
f 21/3/1 19/3/1 15/3/1
f 22/1/1 20/1/1 19/1/1
f 22/3/1 19/3/1 21/3/1
f 23/3/1 18/3/1 20/3/1
f 23/1/1 20/1/1 22/1/1
f 24/3/1 18/3/1 23/3/1
f 25/2/1 23/2/1 22/2/1
f 26/2/1 23/2/1 25/2/1
f 27/2/1 25/2/1 22/2/1
f 28/2/1 23/2/1 26/2/1
f 29/1/1 22/1/1 21/1/1
f 29/3/1 21/3/1 15/3/1
f 30/2/1 28/2/1 27/2/1
f 30/1/1 22/1/1 29/1/1
f 30/2/1 27/2/1 22/2/1
f 31/2/1 23/2/1 28/2/1
f 31/2/1 28/2/1 30/2/1
f 31/1/1 24/1/1 23/1/1
f 32/3/1 18/3/1 24/3/1
f 32/1/1 24/1/1 31/1/1
f 33/3/1 30/3/1 29/3/1
f 33/1/1 31/1/1 30/1/1
f 34/3/1 32/3/1 31/3/1
f 34/1/1 31/1/1 33/1/1
f 35/3/1 29/3/1 15/3/1
f 35/3/1 33/3/1 29/3/1
f 35/3/1 34/3/1 33/3/1
f 36/3/1 34/3/1 35/3/1
f 37/3/1 32/3/1 34/3/1
f 37/3/1 34/3/1 36/3/1
f 37/3/1 18/3/1 32/3/1
f 38/3/1 18/3/1 37/3/1
f 39/3/1 37/3/1 36/3/1
f 40/3/1 37/3/1 39/3/1
f 41/3/1 37/3/1 40/3/1
f 42/3/1 37/3/1 41/3/1
f 43/3/1 41/3/1 40/3/1
f 44/3/1 41/3/1 43/3/1
f 45/3/1 41/3/1 44/3/1
f 46/3/1 41/3/1 45/3/1
f 47/3/1 45/3/1 44/3/1
f 48/3/1 45/3/1 47/3/1
f 49/3/1 45/3/1 48/3/1
f 50/3/1 45/3/1 49/3/1
f 51/3/1 49/3/1 48/3/1
f 52/3/1 49/3/1 51/3/1
f 53/3/2 54/3/2 56/3/2
f 56/3/2 54/3/2 57/3/2
f 55/3/2 56/3/2 60/3/2
f 57/3/2 58/3/2 60/3/2
f 56/3/2 57/3/2 60/3/2
f 60/3/2 58/3/2 61/3/2
f 59/3/2 60/3/2 64/3/2
f 61/3/2 62/3/2 64/3/2
f 60/3/2 61/3/2 64/3/2
f 64/3/2 62/3/2 65/3/2
f 63/3/2 64/3/2 68/3/2
f 65/3/2 66/3/2 68/3/2
f 64/3/2 65/3/2 68/3/2
f 68/3/2 66/3/2 69/3/2
f 67/3/2 68/3/2 71/3/2
f 69/3/2 70/3/2 71/3/2
f 68/3/2 69/3/2 71/3/2
f 71/3/2 70/3/2 72/3/2
f 67/3/2 71/3/2 73/3/2
f 71/1/2 72/1/2 74/1/2
f 73/3/2 71/3/2 74/3/2
f 72/3/2 70/3/2 75/3/2
f 74/1/2 72/1/2 75/1/2
f 75/3/2 70/3/2 76/3/2
f 74/2/2 75/2/2 77/2/2
f 77/2/2 75/2/2 78/2/2
f 74/2/2 77/2/2 79/2/2
f 78/2/2 75/2/2 80/2/2
f 73/1/2 74/1/2 81/1/2
f 67/3/2 73/3/2 81/3/2
f 79/2/2 80/2/2 82/2/2
f 81/1/2 74/1/2 82/1/2
f 74/2/2 79/2/2 82/2/2
f 80/2/2 75/2/2 83/2/2
f 82/2/2 80/2/2 83/2/2
f 75/1/2 76/1/2 83/1/2
f 76/3/2 70/3/2 84/3/2
f 83/1/2 76/1/2 84/1/2
f 81/3/2 82/3/2 85/3/2
f 82/1/2 83/1/2 85/1/2
f 83/3/2 84/3/2 86/3/2
f 85/1/2 83/1/2 86/1/2
f 67/3/2 81/3/2 87/3/2
f 81/3/2 85/3/2 87/3/2
f 85/3/2 86/3/2 87/3/2
f 87/3/2 86/3/2 88/3/2
f 86/3/2 84/3/2 89/3/2
f 88/3/2 86/3/2 89/3/2
f 84/3/2 70/3/2 89/3/2
f 89/3/2 70/3/2 90/3/2
f 88/3/2 89/3/2 91/3/2
f 91/3/2 89/3/2 92/3/2
f 92/3/2 89/3/2 93/3/2
f 93/3/2 89/3/2 94/3/2
f 92/3/2 93/3/2 95/3/2
f 95/3/2 93/3/2 96/3/2
f 96/3/2 93/3/2 97/3/2
f 97/3/2 93/3/2 98/3/2
f 96/3/2 97/3/2 99/3/2
f 99/3/2 97/3/2 100/3/2
f 100/3/2 97/3/2 101/3/2
f 101/3/2 97/3/2 102/3/2
f 100/3/2 101/3/2 103/3/2
f 103/3/2 101/3/2 104/3/2
f 107/3/3 106/3/3 105/3/3
f 108/3/3 106/3/3 107/3/3
f 113/3/3 110/3/3 109/3/3
f 114/3/3 110/3/3 113/3/3
f 115/3/3 112/3/3 111/3/3
f 116/3/3 112/3/3 115/3/3
f 121/3/3 118/3/3 117/3/3
f 122/3/3 118/3/3 121/3/3
f 123/3/3 120/3/3 119/3/3
f 124/3/3 120/3/3 123/3/3
f 129/3/3 126/3/3 125/3/3
f 130/3/3 126/3/3 129/3/3
f 131/3/3 128/3/3 127/3/3
f 132/3/3 128/3/3 131/3/3
f 137/3/3 134/3/3 133/3/3
f 138/3/3 134/3/3 137/3/3
f 139/3/3 136/3/3 135/3/3
f 140/3/3 136/3/3 139/3/3
f 143/2/3 142/2/3 141/2/3
f 144/2/3 142/2/3 143/2/3
f 145/2/4 146/2/4 147/2/4
f 147/2/4 146/2/4 148/2/4
f 149/3/4 150/3/4 153/3/4
f 153/3/4 150/3/4 154/3/4
f 151/3/4 152/3/4 155/3/4
f 155/3/4 152/3/4 156/3/4
f 157/3/4 158/3/4 161/3/4
f 161/3/4 158/3/4 162/3/4
f 159/3/4 160/3/4 163/3/4
f 163/3/4 160/3/4 164/3/4
f 165/3/4 166/3/4 169/3/4
f 169/3/4 166/3/4 170/3/4
f 167/3/4 168/3/4 171/3/4
f 171/3/4 168/3/4 172/3/4
f 173/3/4 174/3/4 177/3/4
f 177/3/4 174/3/4 178/3/4
f 175/3/4 176/3/4 179/3/4
f 179/3/4 176/3/4 180/3/4
f 181/3/4 182/3/4 183/3/4
f 183/3/4 182/3/4 184/3/4
f 187/3/5 186/3/5 185/3/5
f 188/3/5 186/3/5 187/3/5
f 191/3/5 190/3/5 189/3/5
f 192/3/5 190/3/5 191/3/5
f 195/3/5 194/3/5 193/3/5
f 196/3/5 194/3/5 195/3/5
f 199/3/5 198/3/5 197/3/5
f 200/3/5 198/3/5 199/3/5
f 203/3/5 202/3/5 201/3/5
f 204/3/5 202/3/5 203/3/5
f 207/3/5 206/3/5 205/3/5
f 208/3/5 206/3/5 207/3/5
f 211/3/5 210/3/5 209/3/5
f 212/3/5 210/3/5 211/3/5
f 215/3/5 214/3/5 213/3/5
f 216/3/5 214/3/5 215/3/5
f 219/3/5 218/3/5 217/3/5
f 220/3/5 218/3/5 219/3/5
f 223/2/5 222/2/5 221/2/5
f 224/2/5 222/2/5 223/2/5
f 225/2/6 226/2/6 227/2/6
f 227/2/6 226/2/6 228/2/6
f 229/3/6 230/3/6 231/3/6
f 231/3/6 230/3/6 232/3/6
f 233/3/6 234/3/6 235/3/6
f 235/3/6 234/3/6 236/3/6
f 237/3/6 238/3/6 239/3/6
f 239/3/6 238/3/6 240/3/6
f 241/3/6 242/3/6 243/3/6
f 243/3/6 242/3/6 244/3/6
f 245/3/6 246/3/6 247/3/6
f 247/3/6 246/3/6 248/3/6
f 249/3/6 250/3/6 251/3/6
f 251/3/6 250/3/6 252/3/6
f 253/3/6 254/3/6 255/3/6
f 255/3/6 254/3/6 256/3/6
f 257/3/6 258/3/6 259/3/6
f 259/3/6 258/3/6 260/3/6
f 261/3/6 262/3/6 263/3/6
f 263/3/6 262/3/6 264/3/6
