# MagicaVoxel @ Ephtracy

# group
o 

# material
mtllib pencil.vox.mtl
usemtl palette

# normals
vn -1 0 0
vn 1 0 0
vn 0 0 1
vn 0 0 -1
vn 0 -1 0
vn 0 1 0

# texcoords
vt 0.130859 0.5
vt 0.162109 0.5
vt 0.185547 0.5
vt 0.193359 0.5
vt 0.197266 0.5
vt 0.205078 0.5

# verts
v -0.2 0 0.1
v -0.2 0 -0.1
v -0.2 0.1 0.1
v -0.2 0.1 -0.1
v -0.2 0.2 0.1
v -0.2 0.2 -0.1
v -0.2 0.9 0.1
v -0.2 0.9 -0.1
v -0.2 1 0.1
v -0.2 1 -0.1
v -0.2 1.2 0.1
v -0.2 1.2 -0.1
v -0.1 0 0.2
v -0.1 0 0.1
v -0.1 0 -0.1
v -0.1 0 -0.2
v -0.1 0.1 0.2
v -0.1 0.1 0.1
v -0.1 0.1 -0.1
v -0.1 0.1 -0.2
v -0.1 0.2 0.2
v -0.1 0.2 0.1
v -0.1 0.2 -0.1
v -0.1 0.2 -0.2
v -0.1 0.9 0.2
v -0.1 0.9 0.1
v -0.1 0.9 -0.1
v -0.1 0.9 -0.2
v -0.1 1 0.2
v -0.1 1 0.1
v -0.1 1 -0.1
v -0.1 1 -0.2
v -0.1 1.2 0.2
v -0.1 1.2 0.1
v -0.1 1.2 -0.1
v -0.1 1.2 -0.2
v -0.1 1.3 0.1
v -0.1 1.3 -0.1
v -0.1 1.4 0.1
v -0.1 1.4 -0.1
v 0.1 0 0.2
v 0.1 0 0.1
v 0.1 0 -0.1
v 0.1 0 -0.2
v 0.1 0.1 0.2
v 0.1 0.1 0.1
v 0.1 0.1 -0.1
v 0.1 0.1 -0.2
v 0.1 0.2 0.2
v 0.1 0.2 0.1
v 0.1 0.2 -0.1
v 0.1 0.2 -0.2
v 0.1 0.9 0.2
v 0.1 0.9 0.1
v 0.1 0.9 -0.1
v 0.1 0.9 -0.2
v 0.1 1 0.2
v 0.1 1 0.1
v 0.1 1 -0.1
v 0.1 1 -0.2
v 0.1 1.2 0.2
v 0.1 1.2 0.1
v 0.1 1.2 -0.1
v 0.1 1.2 -0.2
v 0.1 1.3 0.1
v 0.1 1.3 -0.1
v 0.1 1.4 0.1
v 0.1 1.4 -0.1
v 0.2 0 0.1
v 0.2 0 -0.1
v 0.2 0.1 0.1
v 0.2 0.1 -0.1
v 0.2 0.2 0.1
v 0.2 0.2 -0.1
v 0.2 0.9 0.1
v 0.2 0.9 -0.1
v 0.2 1 0.1
v 0.2 1 -0.1
v 0.2 1.2 0.1
v 0.2 1.2 -0.1
v -0.1 0 0.2
v -0.1 0.1 0.2
v -0.1 0.2 0.2
v -0.1 0.9 0.2
v -0.1 1 0.2
v -0.1 1.2 0.2
v 0.1 0 0.2
v 0.1 0.1 0.2
v 0.1 0.2 0.2
v 0.1 0.9 0.2
v 0.1 1 0.2
v 0.1 1.2 0.2
v -0.2 0 0.1
v -0.2 0.1 0.1
v -0.2 0.2 0.1
v -0.2 0.9 0.1
v -0.2 1 0.1
v -0.2 1.2 0.1
v -0.1 0 0.1
v -0.1 0.1 0.1
v -0.1 0.2 0.1
v -0.1 0.9 0.1
v -0.1 1 0.1
v -0.1 1.2 0.1
v -0.1 1.3 0.1
v -0.1 1.4 0.1
v 0.1 0 0.1
v 0.1 0.1 0.1
v 0.1 0.2 0.1
v 0.1 0.9 0.1
v 0.1 1 0.1
v 0.1 1.2 0.1
v 0.1 1.3 0.1
v 0.1 1.4 0.1
v 0.2 0 0.1
v 0.2 0.1 0.1
v 0.2 0.2 0.1
v 0.2 0.9 0.1
v 0.2 1 0.1
v 0.2 1.2 0.1
v -0.2 0 -0.1
v -0.2 0.1 -0.1
v -0.2 0.2 -0.1
v -0.2 0.9 -0.1
v -0.2 1 -0.1
v -0.2 1.2 -0.1
v -0.1 0 -0.1
v -0.1 0.1 -0.1
v -0.1 0.2 -0.1
v -0.1 0.9 -0.1
v -0.1 1 -0.1
v -0.1 1.2 -0.1
v -0.1 1.3 -0.1
v -0.1 1.4 -0.1
v 0.1 0 -0.1
v 0.1 0.1 -0.1
v 0.1 0.2 -0.1
v 0.1 0.9 -0.1
v 0.1 1 -0.1
v 0.1 1.2 -0.1
v 0.1 1.3 -0.1
v 0.1 1.4 -0.1
v 0.2 0 -0.1
v 0.2 0.1 -0.1
v 0.2 0.2 -0.1
v 0.2 0.9 -0.1
v 0.2 1 -0.1
v 0.2 1.2 -0.1
v -0.1 0 -0.2
v -0.1 0.1 -0.2
v -0.1 0.2 -0.2
v -0.1 0.9 -0.2
v -0.1 1 -0.2
v -0.1 1.2 -0.2
v 0.1 0 -0.2
v 0.1 0.1 -0.2
v 0.1 0.2 -0.2
v 0.1 0.9 -0.2
v 0.1 1 -0.2
v 0.1 1.2 -0.2
v -0.1 0 0.2
v 0.1 0 0.2
v -0.2 0 0.1
v -0.1 0 0.1
v 0.1 0 0.1
v 0.2 0 0.1
v -0.2 0 -0.1
v -0.1 0 -0.1
v 0.1 0 -0.1
v 0.2 0 -0.1
v -0.1 0 -0.2
v 0.1 0 -0.2
v -0.1 1.2 0.2
v 0.1 1.2 0.2
v -0.2 1.2 0.1
v -0.1 1.2 0.1
v 0.1 1.2 0.1
v 0.2 1.2 0.1
v -0.2 1.2 -0.1
v -0.1 1.2 -0.1
v 0.1 1.2 -0.1
v 0.2 1.2 -0.1
v -0.1 1.2 -0.2
v 0.1 1.2 -0.2
v -0.1 1.4 0.1
v 0.1 1.4 0.1
v -0.1 1.4 -0.1
v 0.1 1.4 -0.1

# faces
f 3/2/1 2/2/1 1/2/1
f 4/2/1 2/2/1 3/2/1
f 5/3/1 4/3/1 3/3/1
f 6/3/1 4/3/1 5/3/1
f 7/1/1 6/1/1 5/1/1
f 8/1/1 6/1/1 7/1/1
f 9/6/1 8/6/1 7/6/1
f 10/6/1 8/6/1 9/6/1
f 11/4/1 10/4/1 9/4/1
f 12/4/1 10/4/1 11/4/1
f 17/2/1 14/2/1 13/2/1
f 18/2/1 14/2/1 17/2/1
f 19/2/1 16/2/1 15/2/1
f 20/2/1 16/2/1 19/2/1
f 21/3/1 18/3/1 17/3/1
f 22/3/1 18/3/1 21/3/1
f 23/3/1 20/3/1 19/3/1
f 24/3/1 20/3/1 23/3/1
f 25/1/1 22/1/1 21/1/1
f 26/1/1 22/1/1 25/1/1
f 27/1/1 24/1/1 23/1/1
f 28/1/1 24/1/1 27/1/1
f 29/6/1 26/6/1 25/6/1
f 30/6/1 26/6/1 29/6/1
f 31/6/1 28/6/1 27/6/1
f 32/6/1 28/6/1 31/6/1
f 33/4/1 30/4/1 29/4/1
f 34/4/1 30/4/1 33/4/1
f 35/4/1 32/4/1 31/4/1
f 36/4/1 32/4/1 35/4/1
f 37/4/1 35/4/1 34/4/1
f 38/4/1 35/4/1 37/4/1
f 39/5/1 38/5/1 37/5/1
f 40/5/1 38/5/1 39/5/1
f 41/2/2 42/2/2 45/2/2
f 45/2/2 42/2/2 46/2/2
f 43/2/2 44/2/2 47/2/2
f 47/2/2 44/2/2 48/2/2
f 45/3/2 46/3/2 49/3/2
f 49/3/2 46/3/2 50/3/2
f 47/3/2 48/3/2 51/3/2
f 51/3/2 48/3/2 52/3/2
f 49/1/2 50/1/2 53/1/2
f 53/1/2 50/1/2 54/1/2
f 51/1/2 52/1/2 55/1/2
f 55/1/2 52/1/2 56/1/2
f 53/6/2 54/6/2 57/6/2
f 57/6/2 54/6/2 58/6/2
f 55/6/2 56/6/2 59/6/2
f 59/6/2 56/6/2 60/6/2
f 57/4/2 58/4/2 61/4/2
f 61/4/2 58/4/2 62/4/2
f 59/4/2 60/4/2 63/4/2
f 63/4/2 60/4/2 64/4/2
f 62/4/2 63/4/2 65/4/2
f 65/4/2 63/4/2 66/4/2
f 65/5/2 66/5/2 67/5/2
f 67/5/2 66/5/2 68/5/2
f 69/2/2 70/2/2 71/2/2
f 71/2/2 70/2/2 72/2/2
f 71/3/2 72/3/2 73/3/2
f 73/3/2 72/3/2 74/3/2
f 73/1/2 74/1/2 75/1/2
f 75/1/2 74/1/2 76/1/2
f 75/6/2 76/6/2 77/6/2
f 77/6/2 76/6/2 78/6/2
f 77/4/2 78/4/2 79/4/2
f 79/4/2 78/4/2 80/4/2
f 87/2/3 82/2/3 81/2/3
f 88/3/3 83/3/3 82/3/3
f 88/2/3 82/2/3 87/2/3
f 89/1/3 84/1/3 83/1/3
f 89/3/3 83/3/3 88/3/3
f 90/6/3 85/6/3 84/6/3
f 90/1/3 84/1/3 89/1/3
f 91/4/3 86/4/3 85/4/3
f 91/6/3 85/6/3 90/6/3
f 92/4/3 86/4/3 91/4/3
f 99/2/3 94/2/3 93/2/3
f 100/3/3 95/3/3 94/3/3
f 100/2/3 94/2/3 99/2/3
f 101/1/3 96/1/3 95/1/3
f 101/3/3 95/3/3 100/3/3
f 102/6/3 97/6/3 96/6/3
f 102/1/3 96/1/3 101/1/3
f 103/4/3 98/4/3 97/4/3
f 103/6/3 97/6/3 102/6/3
f 104/4/3 98/4/3 103/4/3
f 112/4/3 105/4/3 104/4/3
f 113/5/3 106/5/3 105/5/3
f 113/4/3 105/4/3 112/4/3
f 114/5/3 106/5/3 113/5/3
f 115/2/3 108/2/3 107/2/3
f 116/3/3 109/3/3 108/3/3
f 116/2/3 108/2/3 115/2/3
f 117/1/3 110/1/3 109/1/3
f 117/3/3 109/3/3 116/3/3
f 118/6/3 111/6/3 110/6/3
f 118/1/3 110/1/3 117/1/3
f 119/4/3 112/4/3 111/4/3
f 119/6/3 111/6/3 118/6/3
f 120/4/3 112/4/3 119/4/3
f 121/2/4 122/2/4 127/2/4
f 122/3/4 123/3/4 128/3/4
f 127/2/4 122/2/4 128/2/4
f 123/1/4 124/1/4 129/1/4
f 128/3/4 123/3/4 129/3/4
f 124/6/4 125/6/4 130/6/4
f 129/1/4 124/1/4 130/1/4
f 125/4/4 126/4/4 131/4/4
f 130/6/4 125/6/4 131/6/4
f 131/4/4 126/4/4 132/4/4
f 132/4/4 133/4/4 140/4/4
f 133/5/4 134/5/4 141/5/4
f 140/4/4 133/4/4 141/4/4
f 141/5/4 134/5/4 142/5/4
f 135/2/4 136/2/4 143/2/4
f 136/3/4 137/3/4 144/3/4
f 143/2/4 136/2/4 144/2/4
f 137/1/4 138/1/4 145/1/4
f 144/3/4 137/3/4 145/3/4
f 138/6/4 139/6/4 146/6/4
f 145/1/4 138/1/4 146/1/4
f 139/4/4 140/4/4 147/4/4
f 146/6/4 139/6/4 147/6/4
f 147/4/4 140/4/4 148/4/4
f 149/2/4 150/2/4 155/2/4
f 150/3/4 151/3/4 156/3/4
f 155/2/4 150/2/4 156/2/4
f 151/1/4 152/1/4 157/1/4
f 156/3/4 151/3/4 157/3/4
f 152/6/4 153/6/4 158/6/4
f 157/1/4 152/1/4 158/1/4
f 153/4/4 154/4/4 159/4/4
f 158/6/4 153/6/4 159/6/4
f 159/4/4 154/4/4 160/4/4
f 164/2/5 162/2/5 161/2/5
f 165/2/5 162/2/5 164/2/5
f 167/2/5 164/2/5 163/2/5
f 167/2/5 166/2/5 165/2/5
f 167/2/5 165/2/5 164/2/5
f 168/2/5 166/2/5 167/2/5
f 169/2/5 166/2/5 168/2/5
f 170/2/5 166/2/5 169/2/5
f 171/2/5 169/2/5 168/2/5
f 172/2/5 169/2/5 171/2/5
f 173/4/6 174/4/6 176/4/6
f 176/4/6 174/4/6 177/4/6
f 175/4/6 176/4/6 179/4/6
f 179/4/6 176/4/6 180/4/6
f 177/4/6 178/4/6 181/4/6
f 181/4/6 178/4/6 182/4/6
f 180/4/6 181/4/6 183/4/6
f 183/4/6 181/4/6 184/4/6
f 185/5/6 186/5/6 187/5/6
f 187/5/6 186/5/6 188/5/6
