# MagicaVoxel @ Ephtracy

# group
o 

# material
mtllib seedling.vox.mtl
usemtl palette

# normals
vn -1 0 0
vn 1 0 0
vn 0 0 1
vn 0 0 -1
vn 0 -1 0
vn 0 1 0

# texcoords
vt 0.169922 0.5
vt 0.173828 0.5
vt 0.177734 0.5
vt 0.181641 0.5

# verts
v -0.6 0.7 0.2
v -0.6 0.7 0
v -0.6 0.8 0.2
v -0.6 0.8 0.1
v -0.6 0.8 0
v -0.6 0.9 0.1
v -0.6 0.9 0
v -0.5 0.7 0
v -0.5 0.7 -0.1
v -0.5 0.8 0
v -0.5 0.8 -0.1
v -0.5 0.9 0.1
v -0.5 0.9 0
v -0.5 1 0.1
v -0.5 1 0
v -0.4 0.6 0.1
v -0.4 0.6 0
v -0.4 0.7 0.1
v -0.4 0.7 0
v -0.4 0.8 0
v -0.4 0.8 -0.1
v -0.4 0.9 0
v -0.4 0.9 -0.1
v -0.3 0.5 0
v -0.3 0.5 -0.1
v -0.3 0.6 0
v -0.3 0.7 0
v -0.3 0.7 -0.1
v -0.2 0 0
v -0.2 0 -0.1
v -0.2 0.1 0
v -0.2 0.1 -0.1
v -0.2 0.4 0.1
v -0.2 0.4 -0.1
v -0.2 0.5 0
v -0.2 0.5 -0.1
v -0.2 0.6 0.1
v -0.2 0.6 0
v -0.1 0 0.1
v -0.1 0 0
v -0.1 0 -0.1
v -0.1 0 -0.2
v -0.1 0.1 0
v -0.1 0.1 -0.1
v -0.1 0.1 -0.2
v -0.1 0.2 0
v -0.1 0.2 -0.1
v -0.1 0.4 0.1
v -0.1 0.4 -0.1
v 0 0 0.2
v 0 0 0.1
v 0 0.1 0.2
v 0 0.1 0.1
v 0 0.5 0.1
v 0 0.5 -0.1
v 0 0.6 0
v 0 0.6 -0.1
v 0 0.7 0.1
v 0 0.7 0
v 0.1 0.6 0
v 0.1 0.6 -0.1
v 0.1 0.7 0
v 0.1 0.8 0
v 0.1 0.8 -0.1
v 0.1 0.9 0
v 0.1 0.9 -0.1
v 0.2 0.7 0.1
v 0.2 0.7 0
v 0.2 0.7 -0.1
v 0.2 0.7 -0.2
v 0.2 0.8 0
v 0.2 0.8 -0.1
v 0.2 0.9 0.1
v 0.2 0.9 0
v 0.2 0.9 -0.1
v 0.2 0.9 -0.2
v 0.2 1 0
v 0.2 1 -0.1
v 0.3 0.9 0.1
v 0.3 0.9 0
v 0.3 0.9 -0.1
v 0.3 0.9 -0.2
v 0.3 1 0.1
v 0.3 1 0
v 0.3 1 -0.1
v 0.3 1 -0.2
v 0.3 1.1 0
v 0.3 1.1 -0.1
v -0.4 0.9 0.1
v -0.4 0.9 0
v -0.4 1 0.1
v -0.4 1 0
v -0.3 0.8 0
v -0.3 0.8 -0.1
v -0.3 0.9 0
v -0.3 0.9 -0.1
v -0.2 0.6 0
v -0.2 0.6 -0.1
v -0.2 0.7 0.2
v -0.2 0.7 0.1
v -0.2 0.7 0
v -0.2 0.7 -0.1
v -0.2 0.8 0.2
v -0.2 0.8 0.1
v -0.2 0.8 0
v -0.2 0.8 -0.1
v -0.2 0.9 0.1
v -0.2 0.9 0
v -0.1 0.5 0.1
v -0.1 0.5 -0.1
v -0.1 0.6 0
v -0.1 0.6 -0.1
v -0.1 0.7 0.1
v -0.1 0.7 0
v -0.1 0.8 0.1
v -0.1 0.8 0
v 0 0 -0.1
v 0 0 -0.2
v 0 0.1 -0.1
v 0 0.1 -0.2
v 0.1 0 0.2
v 0.1 0 0.1
v 0.1 0.1 0.2
v 0.1 0.1 0.1
v 0.1 0.1 0
v 0.1 0.1 -0.1
v 0.1 0.2 0.1
v 0.1 0.2 0
v 0.1 0.5 0.1
v 0.1 0.5 -0.1
v 0.1 0.6 0.1
v 0.1 0.6 0
v 0.1 0.7 0.1
v 0.1 0.7 0
v 0.2 0 0.1
v 0.2 0 0
v 0.2 0 -0.1
v 0.2 0.1 0.1
v 0.2 0.1 0
v 0.2 0.1 -0.1
v 0.2 0.5 0.1
v 0.2 0.5 -0.1
v 0.2 0.6 0.1
v 0.2 0.6 0
v 0.2 0.7 0
v 0.2 0.7 -0.1
v 0.3 0.7 0.1
v 0.3 0.7 0
v 0.3 0.7 -0.1
v 0.3 0.7 -0.2
v 0.3 0.8 0.1
v 0.3 0.8 0
v 0.3 0.8 -0.1
v 0.3 0.8 -0.2
v 0.4 0.8 0.1
v 0.4 0.8 0
v 0.4 0.8 -0.1
v 0.4 0.8 -0.2
v 0.4 0.9 0
v 0.4 0.9 -0.1
v 0.4 1 0.1
v 0.4 1 0
v 0.4 1 -0.1
v 0.4 1 -0.2
v 0.5 0.8 0
v 0.5 0.8 -0.1
v 0.5 0.9 0
v 0.5 0.9 -0.1
v 0.5 1 0
v 0.5 1 -0.1
v 0.6 1 0
v 0.6 1 -0.1
v 0.6 1.1 0
v 0.6 1.1 -0.1
v -0.6 0.7 0.2
v -0.6 0.8 0.2
v -0.2 0.7 0.2
v -0.2 0.8 0.2
v 0 0 0.2
v 0 0.1 0.2
v 0.1 0 0.2
v 0.1 0.1 0.2
v -0.6 0.8 0.1
v -0.6 0.9 0.1
v -0.5 0.9 0.1
v -0.5 1 0.1
v -0.4 0.6 0.1
v -0.4 0.7 0.1
v -0.4 0.9 0.1
v -0.4 1 0.1
v -0.3 0.8 0.1
v -0.3 0.9 0.1
v -0.2 0.4 0.1
v -0.2 0.6 0.1
v -0.2 0.7 0.1
v -0.2 0.8 0.1
v -0.2 0.9 0.1
v -0.1 0 0.1
v -0.1 0.4 0.1
v -0.1 0.5 0.1
v -0.1 0.7 0.1
v -0.1 0.8 0.1
v 0 0 0.1
v 0 0.1 0.1
v 0 0.2 0.1
v 0 0.5 0.1
v 0 0.7 0.1
v 0.1 0 0.1
v 0.1 0.1 0.1
v 0.1 0.2 0.1
v 0.1 0.5 0.1
v 0.1 0.6 0.1
v 0.1 0.7 0.1
v 0.2 0 0.1
v 0.2 0.1 0.1
v 0.2 0.5 0.1
v 0.2 0.6 0.1
v 0.2 0.7 0.1
v 0.2 0.9 0.1
v 0.3 0.7 0.1
v 0.3 0.8 0.1
v 0.3 0.9 0.1
v 0.3 1 0.1
v 0.4 0.8 0.1
v 0.4 1 0.1
v -0.3 0.5 0
v -0.3 0.6 0
v -0.2 0 0
v -0.2 0.1 0
v -0.2 0.5 0
v -0.2 0.6 0
v -0.1 0 0
v -0.1 0.1 0
v 0.1 0.6 0
v 0.1 0.7 0
v 0.1 0.8 0
v 0.1 0.9 0
v 0.2 0.6 0
v 0.2 0.7 0
v 0.2 0.8 0
v 0.2 0.9 0
v 0.2 1 0
v 0.3 0.9 0
v 0.3 1 0
v 0.3 1.1 0
v 0.4 0.8 0
v 0.4 0.9 0
v 0.4 1 0
v 0.4 1.1 0
v 0.5 0.8 0
v 0.5 0.9 0
v 0.5 1 0
v 0.6 1 0
v 0.6 1.1 0
v -0.6 0.7 0
v -0.6 0.8 0
v -0.6 0.9 0
v -0.5 0.7 0
v -0.5 0.8 0
v -0.5 0.9 0
v -0.5 1 0
v -0.4 0.6 0
v -0.4 0.7 0
v -0.4 0.8 0
v -0.4 0.9 0
v -0.4 1 0
v -0.3 0.6 0
v -0.3 0.7 0
v -0.3 0.8 0
v -0.3 0.9 0
v -0.2 0.6 0
v -0.2 0.7 0
v -0.2 0.8 0
v -0.2 0.9 0
v -0.1 0.6 0
v -0.1 0.7 0
v -0.1 0.8 0
v 0 0.6 0
v 0 0.7 0
v 0.1 0.6 0
v 0.1 0.7 0
v -0.5 0.7 -0.1
v -0.5 0.8 -0.1
v -0.4 0.8 -0.1
v -0.4 0.9 -0.1
v -0.3 0.5 -0.1
v -0.3 0.7 -0.1
v -0.3 0.8 -0.1
v -0.3 0.9 -0.1
v -0.2 0 -0.1
v -0.2 0.1 -0.1
v -0.2 0.4 -0.1
v -0.2 0.5 -0.1
v -0.2 0.6 -0.1
v -0.2 0.7 -0.1
v -0.2 0.8 -0.1
v -0.1 0 -0.1
v -0.1 0.1 -0.1
v -0.1 0.2 -0.1
v -0.1 0.4 -0.1
v -0.1 0.5 -0.1
v -0.1 0.6 -0.1
v 0 0 -0.1
v 0 0.1 -0.1
v 0 0.2 -0.1
v 0 0.5 -0.1
v 0 0.6 -0.1
v 0.1 0.1 -0.1
v 0.1 0.5 -0.1
v 0.1 0.6 -0.1
v 0.1 0.8 -0.1
v 0.1 0.9 -0.1
v 0.2 0 -0.1
v 0.2 0.1 -0.1
v 0.2 0.5 -0.1
v 0.2 0.7 -0.1
v 0.2 0.8 -0.1
v 0.2 0.9 -0.1
v 0.2 1 -0.1
v 0.3 0.9 -0.1
v 0.3 1 -0.1
v 0.3 1.1 -0.1
v 0.4 0.8 -0.1
v 0.4 0.9 -0.1
v 0.4 1 -0.1
v 0.4 1.1 -0.1
v 0.5 0.8 -0.1
v 0.5 0.9 -0.1
v 0.5 1 -0.1
v 0.6 1 -0.1
v 0.6 1.1 -0.1
v -0.1 0 -0.2
v -0.1 0.1 -0.2
v 0 0 -0.2
v 0 0.1 -0.2
v 0.2 0.7 -0.2
v 0.2 0.9 -0.2
v 0.3 0.7 -0.2
v 0.3 0.8 -0.2
v 0.3 0.9 -0.2
v 0.3 1 -0.2
v 0.4 0.8 -0.2
v 0.4 1 -0.2
v 0 0 0.2
v 0.1 0 0.2
v -0.1 0 0.1
v 0 0 0.1
v 0.1 0 0.1
v 0.2 0 0.1
v -0.2 0 0
v -0.1 0 0
v 0 0 0
v 0.2 0 0
v -0.2 0 -0.1
v -0.1 0 -0.1
v 0 0 -0.1
v 0.2 0 -0.1
v -0.1 0 -0.2
v 0 0 -0.2
v -0.2 0.4 0.1
v -0.1 0.4 0.1
v -0.2 0.4 -0.1
v -0.1 0.4 -0.1
v 0.1 0.5 0.1
v 0.2 0.5 0.1
v -0.3 0.5 0
v -0.2 0.5 0
v -0.3 0.5 -0.1
v -0.2 0.5 -0.1
v 0.1 0.5 -0.1
v 0.2 0.5 -0.1
v -0.4 0.6 0.1
v -0.2 0.6 0.1
v -0.4 0.6 0
v -0.3 0.6 0
v -0.2 0.6 0
v -0.6 0.7 0.2
v -0.2 0.7 0.2
v -0.4 0.7 0.1
v -0.2 0.7 0.1
v 0.2 0.7 0.1
v 0.3 0.7 0.1
v -0.6 0.7 0
v -0.5 0.7 0
v -0.4 0.7 0
v -0.3 0.7 0
v 0.2 0.7 0
v 0.3 0.7 0
v -0.5 0.7 -0.1
v -0.3 0.7 -0.1
v 0.2 0.7 -0.1
v 0.3 0.7 -0.1
v 0.2 0.7 -0.2
v 0.3 0.7 -0.2
v 0.3 0.8 0.1
v 0.4 0.8 0.1
v 0.3 0.8 0
v 0.4 0.8 0
v 0.5 0.8 0
v 0.3 0.8 -0.1
v 0.4 0.8 -0.1
v 0.5 0.8 -0.1
v 0.3 0.8 -0.2
v 0.4 0.8 -0.2
v 0.5 1 0
v 0.6 1 0
v 0.5 1 -0.1
v 0.6 1 -0.1
v 0 0.1 0.2
v 0.1 0.1 0.2
v 0 0.1 0.1
v 0.1 0.1 0.1
v 0.2 0.1 0.1
v -0.2 0.1 0
v -0.1 0.1 0
v 0.1 0.1 0
v 0.2 0.1 0
v -0.2 0.1 -0.1
v -0.1 0.1 -0.1
v 0 0.1 -0.1
v 0.1 0.1 -0.1
v 0.2 0.1 -0.1
v -0.1 0.1 -0.2
v 0 0.1 -0.2
v -0.1 0.5 0.1
v 0 0.5 0.1
v -0.1 0.5 -0.1
v 0 0.5 -0.1
v 0.1 0.6 0.1
v 0.2 0.6 0.1
v -0.2 0.6 0
v -0.1 0.6 0
v 0 0.6 0
v 0.1 0.6 0
v 0.2 0.6 0
v -0.2 0.6 -0.1
v -0.1 0.6 -0.1
v 0 0.6 -0.1
v 0.1 0.6 -0.1
v 0 0.7 0.1
v 0.1 0.7 0.1
v 0 0.7 0
v 0.1 0.7 0
v -0.6 0.8 0.2
v -0.2 0.8 0.2
v -0.6 0.8 0.1
v -0.3 0.8 0.1
v -0.2 0.8 0.1
v -0.1 0.8 0.1
v -0.5 0.8 0
v -0.4 0.8 0
v -0.3 0.8 0
v -0.2 0.8 0
v -0.1 0.8 0
v -0.5 0.8 -0.1
v -0.4 0.8 -0.1
v -0.3 0.8 -0.1
v -0.2 0.8 -0.1
v -0.6 0.9 0.1
v -0.5 0.9 0.1
v -0.4 0.9 0.1
v -0.3 0.9 0.1
v -0.2 0.9 0.1
v 0.2 0.9 0.1
v 0.3 0.9 0.1
v -0.6 0.9 0
v -0.5 0.9 0
v -0.4 0.9 0
v -0.3 0.9 0
v -0.2 0.9 0
v 0.1 0.9 0
v 0.2 0.9 0
v 0.3 0.9 0
v -0.4 0.9 -0.1
v -0.3 0.9 -0.1
v 0.1 0.9 -0.1
v 0.2 0.9 -0.1
v 0.3 0.9 -0.1
v 0.2 0.9 -0.2
v 0.3 0.9 -0.2
v -0.5 1 0.1
v -0.4 1 0.1
v 0.3 1 0.1
v 0.4 1 0.1
v -0.5 1 0
v -0.4 1 0
v 0.2 1 0
v 0.3 1 0
v 0.4 1 0
v 0.2 1 -0.1
v 0.3 1 -0.1
v 0.4 1 -0.1
v 0.3 1 -0.2
v 0.4 1 -0.2
v 0.3 1.1 0
v 0.4 1.1 0
v 0.6 1.1 0
v 0.3 1.1 -0.1
v 0.4 1.1 -0.1
v 0.6 1.1 -0.1

# faces
f 3/2/1 2/2/1 1/2/1
f 4/2/1 2/2/1 3/2/1
f 5/2/1 2/2/1 4/2/1
f 6/4/1 5/4/1 4/4/1
f 7/4/1 5/4/1 6/4/1
f 10/2/1 9/2/1 8/2/1
f 11/2/1 9/2/1 10/2/1
f 14/4/1 13/4/1 12/4/1
f 15/4/1 13/4/1 14/4/1
f 18/1/1 17/1/1 16/1/1
f 19/1/1 17/1/1 18/1/1
f 22/4/1 21/4/1 20/4/1
f 23/4/1 21/4/1 22/4/1
f 26/1/1 25/1/1 24/1/1
f 27/1/1 25/1/1 26/1/1
f 28/1/1 25/1/1 27/1/1
f 31/3/1 30/3/1 29/3/1
f 32/3/1 30/3/1 31/3/1
f 35/1/1 34/1/1 33/1/1
f 36/1/1 34/1/1 35/1/1
f 37/1/1 35/1/1 33/1/1
f 38/1/1 35/1/1 37/1/1
f 43/1/1 40/1/1 39/1/1
f 44/1/1 42/1/1 41/1/1
f 45/1/1 42/1/1 44/1/1
f 46/1/1 43/1/1 39/1/1
f 46/3/1 44/3/1 43/3/1
f 47/3/1 44/3/1 46/3/1
f 48/1/1 46/1/1 39/1/1
f 48/1/1 47/1/1 46/1/1
f 49/1/1 47/1/1 48/1/1
f 52/3/1 51/3/1 50/3/1
f 53/3/1 51/3/1 52/3/1
f 56/1/1 55/1/1 54/1/1
f 57/1/1 55/1/1 56/1/1
f 58/1/1 56/1/1 54/1/1
f 59/1/1 56/1/1 58/1/1
f 62/1/1 61/1/1 60/1/1
f 63/1/1 61/1/1 62/1/1
f 64/1/1 61/1/1 63/1/1
f 65/2/1 64/2/1 63/2/1
f 66/2/1 64/2/1 65/2/1
f 71/2/1 68/2/1 67/2/1
f 72/2/1 70/2/1 69/2/1
f 73/2/1 71/2/1 67/2/1
f 74/2/1 71/2/1 73/2/1
f 75/2/1 70/2/1 72/2/1
f 76/2/1 70/2/1 75/2/1
f 77/2/1 75/2/1 74/2/1
f 78/2/1 75/2/1 77/2/1
f 83/2/1 80/2/1 79/2/1
f 84/2/1 80/2/1 83/2/1
f 85/2/1 82/2/1 81/2/1
f 86/2/1 82/2/1 85/2/1
f 87/2/1 85/2/1 84/2/1
f 88/2/1 85/2/1 87/2/1
f 89/4/2 90/4/2 91/4/2
f 91/4/2 90/4/2 92/4/2
f 93/4/2 94/4/2 95/4/2
f 95/4/2 94/4/2 96/4/2
f 97/1/2 98/1/2 101/1/2
f 101/1/2 98/1/2 102/1/2
f 99/2/2 100/2/2 103/2/2
f 103/2/2 100/2/2 104/2/2
f 101/2/2 102/2/2 105/2/2
f 105/2/2 102/2/2 106/2/2
f 104/2/2 105/2/2 107/2/2
f 107/2/2 105/2/2 108/2/2
f 109/1/2 110/1/2 111/1/2
f 111/1/2 110/1/2 112/1/2
f 109/1/2 111/1/2 113/1/2
f 113/1/2 111/1/2 114/1/2
f 113/2/2 114/2/2 115/2/2
f 115/2/2 114/2/2 116/2/2
f 117/1/2 118/1/2 119/1/2
f 119/1/2 118/1/2 120/1/2
f 121/3/2 122/3/2 123/3/2
f 123/3/2 122/3/2 124/3/2
f 124/3/2 125/3/2 127/3/2
f 125/1/2 126/1/2 128/1/2
f 127/3/2 125/3/2 128/3/2
f 127/1/2 128/1/2 129/1/2
f 128/1/2 126/1/2 130/1/2
f 129/1/2 128/1/2 130/1/2
f 131/1/2 132/1/2 133/1/2
f 133/1/2 132/1/2 134/1/2
f 135/1/2 136/1/2 138/1/2
f 136/3/2 137/3/2 139/3/2
f 138/1/2 136/1/2 139/1/2
f 139/3/2 137/3/2 140/3/2
f 141/1/2 142/1/2 143/1/2
f 143/1/2 142/1/2 144/1/2
f 144/1/2 142/1/2 145/1/2
f 145/1/2 142/1/2 146/1/2
f 147/2/2 148/2/2 151/2/2
f 148/1/2 149/1/2 152/1/2
f 151/2/2 148/2/2 152/2/2
f 149/2/2 150/2/2 153/2/2
f 152/1/2 149/1/2 153/1/2
f 153/2/2 150/2/2 154/2/2
f 155/2/2 156/2/2 159/2/2
f 157/2/2 158/2/2 160/2/2
f 155/2/2 159/2/2 161/2/2
f 161/2/2 159/2/2 162/2/2
f 160/2/2 158/2/2 163/2/2
f 163/2/2 158/2/2 164/2/2
f 165/2/2 166/2/2 167/2/2
f 167/2/2 166/2/2 168/2/2
f 167/4/2 168/4/2 169/4/2
f 169/4/2 168/4/2 170/4/2
f 171/4/2 172/4/2 173/4/2
f 173/4/2 172/4/2 174/4/2
f 177/2/3 176/2/3 175/2/3
f 178/2/3 176/2/3 177/2/3
f 181/3/3 180/3/3 179/3/3
f 182/3/3 180/3/3 181/3/3
f 185/4/3 184/4/3 183/4/3
f 189/4/3 185/4/3 183/4/3
f 189/4/3 186/4/3 185/4/3
f 190/4/3 186/4/3 189/4/3
f 191/4/3 189/4/3 183/4/3
f 192/4/3 189/4/3 191/4/3
f 194/1/3 188/1/3 187/1/3
f 195/1/3 188/1/3 194/1/3
f 196/2/3 192/2/3 191/2/3
f 197/2/3 192/2/3 196/2/3
f 199/1/3 195/1/3 194/1/3
f 199/1/3 194/1/3 193/1/3
f 200/1/3 195/1/3 199/1/3
f 201/2/3 196/2/3 195/2/3
f 201/1/3 195/1/3 200/1/3
f 202/2/3 196/2/3 201/2/3
f 203/1/3 200/1/3 199/1/3
f 203/1/3 199/1/3 198/1/3
f 204/1/3 200/1/3 203/1/3
f 205/1/3 200/1/3 204/1/3
f 206/1/3 200/1/3 205/1/3
f 209/3/3 205/3/3 204/3/3
f 210/1/3 207/1/3 206/1/3
f 210/1/3 206/1/3 205/1/3
f 210/3/3 205/3/3 209/3/3
f 211/1/3 207/1/3 210/1/3
f 212/1/3 207/1/3 211/1/3
f 213/1/3 207/1/3 212/1/3
f 214/1/3 209/1/3 208/1/3
f 215/1/3 209/1/3 214/1/3
f 216/1/3 212/1/3 211/1/3
f 217/1/3 212/1/3 216/1/3
f 220/2/3 219/2/3 218/2/3
f 221/2/3 219/2/3 220/2/3
f 222/2/3 219/2/3 221/2/3
f 224/2/3 222/2/3 221/2/3
f 224/2/3 223/2/3 222/2/3
f 225/2/3 223/2/3 224/2/3
f 230/1/3 227/1/3 226/1/3
f 231/1/3 227/1/3 230/1/3
f 232/3/3 229/3/3 228/3/3
f 233/3/3 229/3/3 232/3/3
f 238/1/3 235/1/3 234/1/3
f 238/1/3 236/1/3 235/1/3
f 239/1/3 236/1/3 238/1/3
f 240/2/3 237/2/3 236/2/3
f 240/1/3 236/1/3 239/1/3
f 241/2/3 237/2/3 240/2/3
f 243/2/3 242/2/3 241/2/3
f 244/2/3 242/2/3 243/2/3
f 248/2/3 245/2/3 244/2/3
f 249/2/3 245/2/3 248/2/3
f 250/2/3 247/2/3 246/2/3
f 251/4/3 248/4/3 247/4/3
f 251/2/3 247/2/3 250/2/3
f 251/4/3 249/4/3 248/4/3
f 252/4/3 249/4/3 251/4/3
f 253/4/3 249/4/3 252/4/3
f 254/4/3 249/4/3 253/4/3
f 255/2/4 256/2/4 258/2/4
f 256/4/4 257/4/4 259/4/4
f 258/2/4 256/2/4 259/2/4
f 259/4/4 257/4/4 260/4/4
f 260/4/4 261/4/4 264/4/4
f 259/4/4 260/4/4 264/4/4
f 264/4/4 261/4/4 265/4/4
f 265/4/4 261/4/4 266/4/4
f 262/1/4 263/1/4 267/1/4
f 267/1/4 263/1/4 268/1/4
f 269/2/4 270/2/4 273/2/4
f 273/2/4 270/2/4 274/2/4
f 271/1/4 272/1/4 275/1/4
f 272/2/4 273/2/4 276/2/4
f 275/1/4 272/1/4 276/1/4
f 276/2/4 273/2/4 277/2/4
f 278/1/4 279/1/4 280/1/4
f 280/1/4 279/1/4 281/1/4
f 282/2/4 283/2/4 284/2/4
f 282/2/4 284/2/4 287/2/4
f 284/4/4 285/4/4 288/4/4
f 287/2/4 284/2/4 288/2/4
f 288/4/4 285/4/4 289/4/4
f 286/1/4 287/1/4 293/1/4
f 293/1/4 287/1/4 294/1/4
f 287/2/4 288/2/4 295/2/4
f 294/1/4 287/1/4 295/1/4
f 295/2/4 288/2/4 296/2/4
f 290/3/4 291/3/4 297/3/4
f 297/3/4 291/3/4 298/3/4
f 293/1/4 294/1/4 300/1/4
f 292/1/4 293/1/4 300/1/4
f 300/1/4 294/1/4 301/1/4
f 301/1/4 294/1/4 302/1/4
f 298/3/4 299/3/4 304/3/4
f 300/1/4 301/1/4 305/1/4
f 299/1/4 300/1/4 305/1/4
f 304/3/4 299/3/4 305/3/4
f 305/1/4 301/1/4 306/1/4
f 303/3/4 304/3/4 308/3/4
f 306/1/4 307/1/4 308/1/4
f 305/1/4 306/1/4 308/1/4
f 304/1/4 305/1/4 308/1/4
f 308/1/4 307/1/4 309/1/4
f 309/1/4 307/1/4 310/1/4
f 303/3/4 308/3/4 313/3/4
f 313/3/4 308/3/4 314/3/4
f 310/1/4 311/1/4 315/1/4
f 309/1/4 310/1/4 315/1/4
f 315/1/4 311/1/4 316/1/4
f 311/2/4 312/2/4 317/2/4
f 316/1/4 311/1/4 317/1/4
f 317/2/4 312/2/4 318/2/4
f 318/2/4 319/2/4 320/2/4
f 320/2/4 319/2/4 321/2/4
f 321/2/4 322/2/4 325/2/4
f 325/2/4 322/2/4 326/2/4
f 323/2/4 324/2/4 327/2/4
f 324/4/4 325/4/4 328/4/4
f 327/2/4 324/2/4 328/2/4
f 325/4/4 326/4/4 328/4/4
f 328/4/4 326/4/4 329/4/4
f 329/4/4 326/4/4 330/4/4
f 330/4/4 326/4/4 331/4/4
f 332/1/4 333/1/4 334/1/4
f 334/1/4 333/1/4 335/1/4
f 336/2/4 337/2/4 338/2/4
f 338/2/4 337/2/4 339/2/4
f 339/2/4 337/2/4 340/2/4
f 340/2/4 341/2/4 342/2/4
f 339/2/4 340/2/4 342/2/4
f 342/2/4 341/2/4 343/2/4
f 347/3/5 345/3/5 344/3/5
f 348/3/5 345/3/5 347/3/5
f 351/1/5 347/1/5 346/1/5
f 351/1/5 349/1/5 348/1/5
f 351/1/5 348/1/5 347/1/5
f 352/1/5 349/1/5 351/1/5
f 353/1/5 349/1/5 352/1/5
f 354/3/5 351/3/5 350/3/5
f 355/1/5 352/1/5 351/1/5
f 355/3/5 351/3/5 354/3/5
f 356/3/5 353/3/5 352/3/5
f 356/1/5 352/1/5 355/1/5
f 357/3/5 353/3/5 356/3/5
f 358/1/5 356/1/5 355/1/5
f 359/1/5 356/1/5 358/1/5
f 362/1/5 361/1/5 360/1/5
f 363/1/5 361/1/5 362/1/5
f 368/1/5 367/1/5 366/1/5
f 369/1/5 367/1/5 368/1/5
f 370/1/5 365/1/5 364/1/5
f 371/1/5 365/1/5 370/1/5
f 374/1/5 373/1/5 372/1/5
f 375/1/5 373/1/5 374/1/5
f 376/1/5 373/1/5 375/1/5
f 379/2/5 378/2/5 377/2/5
f 380/2/5 378/2/5 379/2/5
f 383/2/5 379/2/5 377/2/5
f 384/2/5 379/2/5 383/2/5
f 385/2/5 379/2/5 384/2/5
f 387/2/5 382/2/5 381/2/5
f 388/2/5 382/2/5 387/2/5
f 389/2/5 386/2/5 385/2/5
f 389/2/5 385/2/5 384/2/5
f 390/2/5 386/2/5 389/2/5
f 391/1/5 388/1/5 387/1/5
f 392/1/5 388/1/5 391/1/5
f 393/2/5 392/2/5 391/2/5
f 394/2/5 392/2/5 393/2/5
f 397/2/5 396/2/5 395/2/5
f 398/2/5 396/2/5 397/2/5
f 400/2/5 398/2/5 397/2/5
f 400/2/5 399/2/5 398/2/5
f 401/2/5 399/2/5 400/2/5
f 402/2/5 399/2/5 401/2/5
f 403/2/5 401/2/5 400/2/5
f 404/2/5 401/2/5 403/2/5
f 407/4/5 406/4/5 405/4/5
f 408/4/5 406/4/5 407/4/5
f 409/3/6 410/3/6 411/3/6
f 411/3/6 410/3/6 412/3/6
f 412/1/6 413/1/6 416/1/6
f 416/1/6 413/1/6 417/1/6
f 414/3/6 415/3/6 418/3/6
f 418/3/6 415/3/6 419/3/6
f 416/3/6 417/3/6 421/3/6
f 421/3/6 417/3/6 422/3/6
f 419/1/6 420/1/6 423/1/6
f 423/1/6 420/1/6 424/1/6
f 425/1/6 426/1/6 427/1/6
f 427/1/6 426/1/6 428/1/6
f 429/1/6 430/1/6 434/1/6
f 434/1/6 430/1/6 435/1/6
f 431/1/6 432/1/6 436/1/6
f 436/1/6 432/1/6 437/1/6
f 433/1/6 434/1/6 438/1/6
f 438/1/6 434/1/6 439/1/6
f 440/1/6 441/1/6 442/1/6
f 442/1/6 441/1/6 443/1/6
f 444/2/6 445/2/6 446/2/6
f 446/2/6 445/2/6 447/2/6
f 447/2/6 445/2/6 448/2/6
f 448/2/6 449/2/6 453/2/6
f 453/2/6 449/2/6 454/2/6
f 450/2/6 451/2/6 455/2/6
f 455/2/6 451/2/6 456/2/6
f 452/2/6 453/2/6 457/2/6
f 457/2/6 453/2/6 458/2/6
f 459/4/6 460/4/6 466/4/6
f 466/4/6 460/4/6 467/4/6
f 461/4/6 462/4/6 468/4/6
f 462/2/6 463/2/6 469/2/6
f 468/4/6 462/4/6 469/4/6
f 469/2/6 463/2/6 470/2/6
f 464/2/6 465/2/6 472/2/6
f 472/2/6 465/2/6 473/2/6
f 468/4/6 469/4/6 474/4/6
f 474/4/6 469/4/6 475/4/6
f 471/2/6 472/2/6 476/2/6
f 476/2/6 472/2/6 477/2/6
f 477/2/6 478/2/6 479/2/6
f 479/2/6 478/2/6 480/2/6
f 481/4/6 482/4/6 485/4/6
f 485/4/6 482/4/6 486/4/6
f 483/2/6 484/2/6 488/2/6
f 488/2/6 484/2/6 489/2/6
f 487/2/6 488/2/6 490/2/6
f 490/2/6 488/2/6 491/2/6
f 491/2/6 492/2/6 493/2/6
f 493/2/6 492/2/6 494/2/6
f 495/2/6 496/2/6 498/2/6
f 496/4/6 497/4/6 499/4/6
f 498/2/6 496/2/6 499/2/6
f 499/4/6 497/4/6 500/4/6
