# MagicaVoxel @ Ephtracy

# group
o 

# material
mtllib shoe_10k.vox.mtl
usemtl palette

# normals
vn -1 0 0
vn 1 0 0
vn 0 0 1
vn 0 0 -1
vn 0 -1 0
vn 0 1 0

# texcoords
vt 0.00195312 0.5
vt 0.00585938 0.5
vt 0.130859 0.5
vt 0.134766 0.5
vt 0.142578 0.5

# verts
v -0.5 0.5 -0.4
v -0.5 0.5 -0.6
v -0.5 0.6 -0.6
v -0.5 0.6 -0.7
v -0.5 0.7 -0.4
v -0.5 0.7 -0.6
v -0.5 0.7 -0.7
v -0.5 0.7 -0.8
v -0.5 0.8 -0.6
v -0.5 0.8 -0.8
v -0.4 0.4 -0.3
v -0.4 0.4 -0.5
v -0.4 0.5 -0.2
v -0.4 0.5 -0.3
v -0.4 0.5 -0.4
v -0.4 0.5 -0.5
v -0.4 0.6 -0.2
v -0.4 0.6 -0.4
v -0.3 0 0.6
v -0.3 0 -0.5
v -0.3 0.1 0.6
v -0.3 0.1 -0.5
v -0.3 0.2 0.6
v -0.3 0.2 0.4
v -0.3 0.2 -0.2
v -0.3 0.2 -0.5
v -0.3 0.3 0.6
v -0.3 0.3 0.4
v -0.3 0.3 0.2
v -0.3 0.3 -0.2
v -0.3 0.3 -0.3
v -0.3 0.4 0.2
v -0.3 0.4 0
v -0.3 0.4 -0.3
v -0.3 0.4 -0.5
v -0.3 0.5 0
v -0.3 0.5 -0.1
v -0.3 0.5 -0.2
v -0.3 0.5 -0.3
v -0.3 0.6 -0.2
v -0.3 0.6 -0.4
v -0.3 0.7 -0.1
v -0.3 0.7 -0.4
v -0.2 0 0.8
v -0.2 0 0.6
v -0.2 0 -0.5
v -0.2 0 -0.6
v -0.2 0.1 0.8
v -0.2 0.1 0.6
v -0.2 0.1 -0.5
v -0.2 0.1 -0.6
v -0.2 0.2 0.8
v -0.2 0.2 0.6
v -0.2 0.2 -0.5
v -0.2 0.3 0.8
v -0.2 0.3 0.6
v -0.2 0.3 0.4
v -0.2 0.3 0.3
v -0.2 0.3 0.2
v -0.2 0.3 -0.5
v -0.2 0.3 -0.6
v -0.2 0.4 0.6
v -0.2 0.4 0.3
v -0.2 0.4 0.2
v -0.2 0.4 0.1
v -0.2 0.4 0
v -0.2 0.4 -0.5
v -0.2 0.4 -0.6
v -0.2 0.5 0.1
v -0.2 0.5 0
v -0.2 0.5 -0.1
v -0.2 0.6 0
v -0.2 0.6 -0.1
v -0.2 0.7 -0.2
v -0.2 0.7 -0.3
v -0.2 0.7 -0.5
v -0.2 0.7 -0.6
v -0.2 0.8 -0.2
v -0.2 0.8 -0.3
v 0.1 0.4 -0.2
v 0.1 0.4 -0.3
v 0.1 0.4 -0.4
v 0.1 0.5 -0.2
v 0.1 0.5 -0.3
v 0.1 0.6 -0.2
v 0.1 0.6 -0.3
v 0.1 0.6 -0.4
v 0.2 0.6 -0.2
v 0.2 0.6 -0.5
v 0.2 0.7 -0.2
v 0.2 0.7 -0.3
v 0.2 0.7 -0.5
v 0.3 0.6 -0.5
v 0.3 0.6 -0.6
v 0.3 0.7 -0.5
v 0.3 0.7 -0.6
v 0.4 0.5 -0.5
v 0.4 0.5 -0.6
v 0.4 0.6 -0.5
v 0.4 0.6 -0.6
v 0.4 0.6 -0.7
v 0.4 0.7 -0.6
v 0.4 0.7 -0.7
v 0.4 0.7 -0.8
v 0.4 0.8 -0.6
v 0.4 0.8 -0.8
v -0.4 0.5 -0.5
v -0.4 0.5 -0.6
v -0.4 0.6 -0.5
v -0.4 0.6 -0.6
v -0.4 0.6 -0.7
v -0.4 0.7 -0.6
v -0.4 0.7 -0.7
v -0.4 0.7 -0.8
v -0.4 0.8 -0.6
v -0.4 0.8 -0.8
v -0.3 0.6 -0.5
v -0.3 0.6 -0.6
v -0.3 0.7 -0.5
v -0.3 0.7 -0.6
v -0.2 0.6 -0.3
v -0.2 0.6 -0.5
v -0.2 0.7 -0.3
v -0.2 0.7 -0.5
v -0.1 0.4 -0.2
v -0.1 0.4 -0.4
v -0.1 0.6 -0.2
v -0.1 0.6 -0.3
v -0.1 0.6 -0.4
v 0.1 0.3 0.6
v 0.1 0.3 0.5
v 0.1 0.4 0.6
v 0.1 0.4 0.5
v 0.1 0.6 -0.2
v 0.1 0.6 -0.3
v 0.1 0.7 -0.2
v 0.1 0.7 -0.3
v 0.2 0 0.8
v 0.2 0 0.6
v 0.2 0 -0.5
v 0.2 0 -0.6
v 0.2 0.1 0.8
v 0.2 0.1 0.6
v 0.2 0.1 -0.5
v 0.2 0.1 -0.6
v 0.2 0.2 0.8
v 0.2 0.2 0.6
v 0.2 0.2 -0.5
v 0.2 0.3 0.8
v 0.2 0.3 0.6
v 0.2 0.3 0.5
v 0.2 0.3 0.4
v 0.2 0.3 0.3
v 0.2 0.3 0.2
v 0.2 0.3 -0.5
v 0.2 0.3 -0.6
v 0.2 0.4 0.5
v 0.2 0.4 0.3
v 0.2 0.4 0.2
v 0.2 0.4 0.1
v 0.2 0.4 0
v 0.2 0.4 -0.5
v 0.2 0.4 -0.6
v 0.2 0.5 0.1
v 0.2 0.5 0
v 0.2 0.5 -0.1
v 0.2 0.6 0
v 0.2 0.6 -0.1
v 0.2 0.7 -0.2
v 0.2 0.7 -0.3
v 0.2 0.7 -0.5
v 0.2 0.7 -0.6
v 0.2 0.8 -0.2
v 0.2 0.8 -0.3
v 0.3 0 0.6
v 0.3 0 -0.5
v 0.3 0.1 0.6
v 0.3 0.1 -0.5
v 0.3 0.2 0.6
v 0.3 0.2 0.4
v 0.3 0.2 -0.2
v 0.3 0.2 -0.5
v 0.3 0.3 0.6
v 0.3 0.3 0.4
v 0.3 0.3 0.2
v 0.3 0.3 -0.2
v 0.3 0.3 -0.3
v 0.3 0.4 0.2
v 0.3 0.4 0
v 0.3 0.4 -0.3
v 0.3 0.4 -0.5
v 0.3 0.5 0
v 0.3 0.5 -0.1
v 0.3 0.5 -0.2
v 0.3 0.5 -0.3
v 0.3 0.6 -0.2
v 0.3 0.6 -0.4
v 0.3 0.7 -0.1
v 0.3 0.7 -0.4
v 0.4 0.4 -0.3
v 0.4 0.4 -0.5
v 0.4 0.5 -0.2
v 0.4 0.5 -0.3
v 0.4 0.5 -0.4
v 0.4 0.5 -0.5
v 0.4 0.6 -0.2
v 0.4 0.6 -0.4
v 0.5 0.5 -0.4
v 0.5 0.5 -0.6
v 0.5 0.6 -0.6
v 0.5 0.6 -0.7
v 0.5 0.7 -0.4
v 0.5 0.7 -0.6
v 0.5 0.7 -0.7
v 0.5 0.7 -0.8
v 0.5 0.8 -0.6
v 0.5 0.8 -0.8
v -0.2 0 0.8
v -0.2 0.1 0.8
v -0.2 0.2 0.8
v -0.2 0.3 0.8
v 0.2 0 0.8
v 0.2 0.1 0.8
v 0.2 0.2 0.8
v 0.2 0.3 0.8
v -0.3 0 0.6
v -0.3 0.1 0.6
v -0.3 0.2 0.6
v -0.3 0.3 0.6
v -0.2 0 0.6
v -0.2 0.1 0.6
v -0.2 0.2 0.6
v -0.2 0.3 0.6
v -0.2 0.4 0.6
v -0.1 0.3 0.6
v 0.1 0.3 0.6
v 0.1 0.4 0.6
v 0.2 0 0.6
v 0.2 0.1 0.6
v 0.2 0.2 0.6
v 0.2 0.3 0.6
v 0.3 0 0.6
v 0.3 0.1 0.6
v 0.3 0.2 0.6
v 0.3 0.3 0.6
v 0.1 0.3 0.5
v 0.1 0.4 0.5
v 0.2 0.3 0.5
v 0.2 0.4 0.5
v -0.3 0.3 0.2
v -0.3 0.4 0.2
v -0.2 0.3 0.2
v -0.2 0.4 0.2
v 0.2 0.3 0.2
v 0.2 0.4 0.2
v 0.3 0.3 0.2
v 0.3 0.4 0.2
v -0.2 0.4 0.1
v -0.2 0.5 0.1
v -0.1 0.4 0.1
v -0.1 0.5 0.1
v 0.1 0.4 0.1
v 0.1 0.5 0.1
v 0.2 0.4 0.1
v 0.2 0.5 0.1
v -0.3 0.4 0
v -0.3 0.5 0
v -0.2 0.4 0
v -0.2 0.5 0
v -0.2 0.6 0
v -0.1 0.5 0
v -0.1 0.6 0
v 0.1 0.5 0
v 0.1 0.6 0
v 0.2 0.4 0
v 0.2 0.5 0
v 0.2 0.6 0
v 0.3 0.4 0
v 0.3 0.5 0
v -0.3 0.5 -0.1
v -0.3 0.7 -0.1
v -0.2 0.5 -0.1
v -0.2 0.6 -0.1
v -0.2 0.7 -0.1
v -0.1 0.6 -0.1
v -0.1 0.7 -0.1
v 0.1 0.6 -0.1
v 0.1 0.7 -0.1
v 0.2 0.5 -0.1
v 0.2 0.6 -0.1
v 0.2 0.7 -0.1
v 0.3 0.5 -0.1
v 0.3 0.7 -0.1
v -0.4 0.5 -0.2
v -0.4 0.6 -0.2
v -0.3 0.5 -0.2
v -0.3 0.6 -0.2
v -0.2 0.7 -0.2
v -0.2 0.8 -0.2
v -0.1 0.7 -0.2
v 0.1 0.7 -0.2
v 0.2 0.7 -0.2
v 0.2 0.8 -0.2
v 0.3 0.5 -0.2
v 0.3 0.6 -0.2
v 0.4 0.5 -0.2
v 0.4 0.6 -0.2
v -0.4 0.4 -0.3
v -0.4 0.5 -0.3
v -0.3 0.4 -0.3
v -0.3 0.5 -0.3
v 0.3 0.4 -0.3
v 0.3 0.5 -0.3
v 0.4 0.4 -0.3
v 0.4 0.5 -0.3
v -0.5 0.5 -0.4
v -0.5 0.7 -0.4
v -0.4 0.5 -0.4
v -0.4 0.6 -0.4
v -0.3 0.6 -0.4
v -0.3 0.7 -0.4
v -0.1 0.4 -0.4
v -0.1 0.6 -0.4
v 0.1 0.4 -0.4
v 0.1 0.6 -0.4
v 0.3 0.6 -0.4
v 0.3 0.7 -0.4
v 0.4 0.5 -0.4
v 0.4 0.6 -0.4
v 0.5 0.5 -0.4
v 0.5 0.7 -0.4
v -0.2 0.6 -0.5
v -0.2 0.7 -0.5
v 0.2 0.6 -0.5
v 0.2 0.7 -0.5
v -0.5 0.7 -0.6
v -0.5 0.8 -0.6
v -0.4 0.7 -0.6
v -0.4 0.8 -0.6
v 0.4 0.7 -0.6
v 0.4 0.8 -0.6
v 0.5 0.7 -0.6
v 0.5 0.8 -0.6
v -0.1 0.4 -0.2
v -0.1 0.6 -0.2
v 0.1 0.4 -0.2
v 0.1 0.5 -0.2
v 0.1 0.6 -0.2
v 0.1 0.7 -0.2
v 0.2 0.6 -0.2
v 0.2 0.7 -0.2
v -0.2 0.6 -0.3
v -0.2 0.7 -0.3
v -0.2 0.8 -0.3
v -0.1 0.6 -0.3
v 0.1 0.6 -0.3
v 0.1 0.7 -0.3
v 0.2 0.7 -0.3
v 0.2 0.8 -0.3
v -0.4 0.4 -0.5
v -0.4 0.5 -0.5
v -0.4 0.6 -0.5
v -0.3 0 -0.5
v -0.3 0.1 -0.5
v -0.3 0.2 -0.5
v -0.3 0.4 -0.5
v -0.3 0.6 -0.5
v -0.3 0.7 -0.5
v -0.2 0 -0.5
v -0.2 0.1 -0.5
v -0.2 0.2 -0.5
v -0.2 0.3 -0.5
v -0.2 0.4 -0.5
v -0.2 0.7 -0.5
v 0.2 0 -0.5
v 0.2 0.1 -0.5
v 0.2 0.2 -0.5
v 0.2 0.3 -0.5
v 0.2 0.4 -0.5
v 0.2 0.7 -0.5
v 0.3 0 -0.5
v 0.3 0.1 -0.5
v 0.3 0.2 -0.5
v 0.3 0.4 -0.5
v 0.3 0.6 -0.5
v 0.3 0.7 -0.5
v 0.4 0.4 -0.5
v 0.4 0.5 -0.5
v 0.4 0.6 -0.5
v -0.5 0.5 -0.6
v -0.5 0.6 -0.6
v -0.4 0.5 -0.6
v -0.4 0.6 -0.6
v -0.4 0.7 -0.6
v -0.3 0.6 -0.6
v -0.3 0.7 -0.6
v -0.2 0 -0.6
v -0.2 0.1 -0.6
v -0.2 0.3 -0.6
v -0.2 0.4 -0.6
v -0.2 0.7 -0.6
v 0.2 0 -0.6
v 0.2 0.1 -0.6
v 0.2 0.3 -0.6
v 0.2 0.4 -0.6
v 0.2 0.7 -0.6
v 0.3 0.6 -0.6
v 0.3 0.7 -0.6
v 0.4 0.5 -0.6
v 0.4 0.6 -0.6
v 0.4 0.7 -0.6
v 0.5 0.5 -0.6
v 0.5 0.6 -0.6
v -0.5 0.6 -0.7
v -0.5 0.7 -0.7
v -0.4 0.6 -0.7
v -0.4 0.7 -0.7
v 0.4 0.6 -0.7
v 0.4 0.7 -0.7
v 0.5 0.6 -0.7
v 0.5 0.7 -0.7
v -0.5 0.7 -0.8
v -0.5 0.8 -0.8
v -0.4 0.7 -0.8
v -0.4 0.8 -0.8
v 0.4 0.7 -0.8
v 0.4 0.8 -0.8
v 0.5 0.7 -0.8
v 0.5 0.8 -0.8
v -0.2 0 0.8
v 0.2 0 0.8
v -0.3 0 0.6
v -0.2 0 0.6
v 0.2 0 0.6
v 0.3 0 0.6
v -0.3 0 -0.5
v -0.2 0 -0.5
v 0.2 0 -0.5
v 0.3 0 -0.5
v -0.2 0 -0.6
v 0.2 0 -0.6
v -0.4 0.4 -0.3
v -0.3 0.4 -0.3
v 0.3 0.4 -0.3
v 0.4 0.4 -0.3
v -0.4 0.4 -0.5
v -0.3 0.4 -0.5
v 0.3 0.4 -0.5
v 0.4 0.4 -0.5
v -0.4 0.5 -0.2
v -0.3 0.5 -0.2
v 0.3 0.5 -0.2
v 0.4 0.5 -0.2
v -0.4 0.5 -0.3
v -0.3 0.5 -0.3
v 0.3 0.5 -0.3
v 0.4 0.5 -0.3
v -0.5 0.5 -0.4
v -0.4 0.5 -0.4
v 0.4 0.5 -0.4
v 0.5 0.5 -0.4
v -0.4 0.5 -0.5
v 0.4 0.5 -0.5
v -0.5 0.5 -0.6
v -0.4 0.5 -0.6
v 0.4 0.5 -0.6
v 0.5 0.5 -0.6
v -0.1 0.6 -0.2
v 0.1 0.6 -0.2
v -0.1 0.6 -0.3
v 0.1 0.6 -0.3
v -0.4 0.6 -0.5
v -0.3 0.6 -0.5
v 0.3 0.6 -0.5
v 0.4 0.6 -0.5
v -0.5 0.6 -0.6
v -0.4 0.6 -0.6
v -0.3 0.6 -0.6
v 0.3 0.6 -0.6
v 0.4 0.6 -0.6
v 0.5 0.6 -0.6
v -0.5 0.6 -0.7
v -0.4 0.6 -0.7
v 0.4 0.6 -0.7
v 0.5 0.6 -0.7
v 0.1 0.7 -0.2
v 0.2 0.7 -0.2
v 0.1 0.7 -0.3
v 0.2 0.7 -0.3
v -0.5 0.7 -0.7
v -0.4 0.7 -0.7
v 0.4 0.7 -0.7
v 0.5 0.7 -0.7
v -0.5 0.7 -0.8
v -0.4 0.7 -0.8
v 0.4 0.7 -0.8
v 0.5 0.7 -0.8
v -0.2 0.3 0.8
v 0.2 0.3 0.8
v -0.1 0.3 0.7
v 0.1 0.3 0.7
v -0.3 0.3 0.6
v -0.2 0.3 0.6
v -0.1 0.3 0.6
v 0.1 0.3 0.6
v 0.2 0.3 0.6
v 0.3 0.3 0.6
v 0.1 0.3 0.5
v 0.2 0.3 0.5
v -0.3 0.3 0.4
v -0.2 0.3 0.4
v 0.2 0.3 0.4
v 0.3 0.3 0.4
v -0.2 0.3 0.3
v 0.2 0.3 0.3
v -0.3 0.3 0.2
v -0.2 0.3 0.2
v 0.2 0.3 0.2
v 0.3 0.3 0.2
v -0.2 0.4 0.6
v 0.1 0.4 0.6
v 0.1 0.4 0.5
v 0.2 0.4 0.5
v -0.2 0.4 0.3
v -0.1 0.4 0.3
v 0.1 0.4 0.3
v 0.2 0.4 0.3
v -0.3 0.4 0.2
v -0.2 0.4 0.2
v -0.1 0.4 0.2
v 0.1 0.4 0.2
v 0.2 0.4 0.2
v 0.3 0.4 0.2
v -0.2 0.4 0.1
v -0.1 0.4 0.1
v 0.1 0.4 0.1
v 0.2 0.4 0.1
v -0.3 0.4 0
v -0.2 0.4 0
v 0.2 0.4 0
v 0.3 0.4 0
v -0.1 0.4 -0.2
v 0.1 0.4 -0.2
v 0.1 0.4 -0.3
v -0.1 0.4 -0.4
v 0.1 0.4 -0.4
v -0.2 0.5 0.1
v -0.1 0.5 0.1
v 0.1 0.5 0.1
v 0.2 0.5 0.1
v -0.3 0.5 0
v -0.2 0.5 0
v -0.1 0.5 0
v 0.1 0.5 0
v 0.2 0.5 0
v 0.3 0.5 0
v -0.3 0.5 -0.1
v -0.2 0.5 -0.1
v 0.2 0.5 -0.1
v 0.3 0.5 -0.1
v -0.2 0.6 0
v -0.1 0.6 0
v 0.1 0.6 0
v 0.2 0.6 0
v -0.2 0.6 -0.1
v -0.1 0.6 -0.1
v 0.1 0.6 -0.1
v 0.2 0.6 -0.1
v -0.4 0.6 -0.2
v -0.3 0.6 -0.2
v 0.1 0.6 -0.2
v 0.2 0.6 -0.2
v 0.3 0.6 -0.2
v 0.4 0.6 -0.2
v -0.2 0.6 -0.3
v -0.1 0.6 -0.3
v 0.1 0.6 -0.3
v -0.4 0.6 -0.4
v -0.3 0.6 -0.4
v -0.1 0.6 -0.4
v 0.1 0.6 -0.4
v 0.3 0.6 -0.4
v 0.4 0.6 -0.4
v -0.2 0.6 -0.5
v 0.2 0.6 -0.5
v -0.3 0.7 -0.1
v -0.2 0.7 -0.1
v -0.1 0.7 -0.1
v 0.1 0.7 -0.1
v 0.2 0.7 -0.1
v 0.3 0.7 -0.1
v -0.2 0.7 -0.2
v -0.1 0.7 -0.2
v 0.1 0.7 -0.2
v 0.2 0.7 -0.2
v -0.2 0.7 -0.3
v 0.2 0.7 -0.3
v -0.5 0.7 -0.4
v -0.3 0.7 -0.4
v 0.3 0.7 -0.4
v 0.5 0.7 -0.4
v -0.3 0.7 -0.5
v -0.2 0.7 -0.5
v 0.2 0.7 -0.5
v 0.3 0.7 -0.5
v -0.5 0.7 -0.6
v -0.4 0.7 -0.6
v -0.3 0.7 -0.6
v -0.2 0.7 -0.6
v 0.2 0.7 -0.6
v 0.3 0.7 -0.6
v 0.4 0.7 -0.6
v 0.5 0.7 -0.6
v -0.2 0.8 -0.2
v 0.2 0.8 -0.2
v -0.2 0.8 -0.3
v 0.2 0.8 -0.3
v -0.5 0.8 -0.6
v -0.4 0.8 -0.6
v 0.4 0.8 -0.6
v 0.5 0.8 -0.6
v -0.5 0.8 -0.8
v -0.4 0.8 -0.8
v 0.4 0.8 -0.8
v 0.5 0.8 -0.8

# faces
f 3/3/1 2/3/1 1/3/1
f 5/3/1 3/3/1 1/3/1
f 5/3/1 4/3/1 3/3/1
f 6/3/1 4/3/1 5/3/1
f 7/3/1 4/3/1 6/3/1
f 9/3/1 8/3/1 7/3/1
f 9/3/1 7/3/1 6/3/1
f 10/3/1 8/3/1 9/3/1
f 14/3/1 12/3/1 11/3/1
f 15/3/1 12/3/1 14/3/1
f 16/3/1 12/3/1 15/3/1
f 17/3/1 14/3/1 13/3/1
f 17/3/1 15/3/1 14/3/1
f 18/3/1 15/3/1 17/3/1
f 21/1/1 20/1/1 19/1/1
f 22/1/1 20/1/1 21/1/1
f 23/3/1 22/3/1 21/3/1
f 24/3/1 22/3/1 23/3/1
f 25/3/1 22/3/1 24/3/1
f 26/3/1 22/3/1 25/3/1
f 27/5/1 24/5/1 23/5/1
f 28/1/1 25/1/1 24/1/1
f 28/5/1 24/5/1 27/5/1
f 29/1/1 25/1/1 28/1/1
f 30/4/1 26/4/1 25/4/1
f 30/1/1 25/1/1 29/1/1
f 31/4/1 26/4/1 30/4/1
f 32/1/1 31/1/1 30/1/1
f 32/1/1 30/1/1 29/1/1
f 33/1/1 31/1/1 32/1/1
f 34/4/1 26/4/1 31/4/1
f 34/1/1 31/1/1 33/1/1
f 35/4/1 26/4/1 34/4/1
f 36/1/1 34/1/1 33/1/1
f 37/1/1 34/1/1 36/1/1
f 38/1/1 34/1/1 37/1/1
f 39/1/1 34/1/1 38/1/1
f 40/1/1 38/1/1 37/1/1
f 42/1/1 40/1/1 37/1/1
f 42/1/1 41/1/1 40/1/1
f 43/1/1 41/1/1 42/1/1
f 48/1/1 45/1/1 44/1/1
f 49/1/1 45/1/1 48/1/1
f 50/1/1 47/1/1 46/1/1
f 51/1/1 47/1/1 50/1/1
f 52/3/1 49/3/1 48/3/1
f 53/3/1 49/3/1 52/3/1
f 54/3/1 51/3/1 50/3/1
f 55/5/1 53/5/1 52/5/1
f 56/5/1 53/5/1 55/5/1
f 60/3/1 51/3/1 54/3/1
f 61/3/1 51/3/1 60/3/1
f 62/1/1 57/1/1 56/1/1
f 62/1/1 58/1/1 57/1/1
f 63/4/1 59/4/1 58/4/1
f 63/1/1 58/1/1 62/1/1
f 64/4/1 59/4/1 63/4/1
f 67/4/1 61/4/1 60/4/1
f 68/4/1 61/4/1 67/4/1
f 69/4/1 66/4/1 65/4/1
f 70/4/1 66/4/1 69/4/1
f 72/3/1 71/3/1 70/3/1
f 73/3/1 71/3/1 72/3/1
f 76/1/1 68/1/1 67/1/1
f 77/1/1 68/1/1 76/1/1
f 78/4/1 75/4/1 74/4/1
f 79/4/1 75/4/1 78/4/1
f 83/4/1 81/4/1 80/4/1
f 84/1/1 82/1/1 81/1/1
f 84/4/1 81/4/1 83/4/1
f 85/1/1 84/1/1 83/1/1
f 86/1/1 82/1/1 84/1/1
f 86/1/1 84/1/1 85/1/1
f 87/1/1 82/1/1 86/1/1
f 90/1/1 89/1/1 88/1/1
f 91/1/1 89/1/1 90/1/1
f 92/1/1 89/1/1 91/1/1
f 95/3/1 94/3/1 93/3/1
f 96/3/1 94/3/1 95/3/1
f 99/3/1 98/3/1 97/3/1
f 100/3/1 98/3/1 99/3/1
f 102/3/1 101/3/1 100/3/1
f 103/3/1 101/3/1 102/3/1
f 105/3/1 103/3/1 102/3/1
f 105/3/1 104/3/1 103/3/1
f 106/3/1 104/3/1 105/3/1
f 107/3/2 108/3/2 109/3/2
f 109/3/2 108/3/2 110/3/2
f 110/3/2 111/3/2 112/3/2
f 112/3/2 111/3/2 113/3/2
f 112/3/2 113/3/2 115/3/2
f 113/3/2 114/3/2 115/3/2
f 115/3/2 114/3/2 116/3/2
f 117/3/2 118/3/2 119/3/2
f 119/3/2 118/3/2 120/3/2
f 121/1/2 122/1/2 123/1/2
f 123/1/2 122/1/2 124/1/2
f 125/1/2 126/1/2 127/1/2
f 127/1/2 126/1/2 128/1/2
f 128/1/2 126/1/2 129/1/2
f 130/1/2 131/1/2 132/1/2
f 132/1/2 131/1/2 133/1/2
f 134/1/2 135/1/2 136/1/2
f 136/1/2 135/1/2 137/1/2
f 138/1/2 139/1/2 142/1/2
f 142/1/2 139/1/2 143/1/2
f 140/1/2 141/1/2 144/1/2
f 144/1/2 141/1/2 145/1/2
f 142/3/2 143/3/2 146/3/2
f 146/3/2 143/3/2 147/3/2
f 144/3/2 145/3/2 148/3/2
f 146/5/2 147/5/2 149/5/2
f 149/5/2 147/5/2 150/5/2
f 148/3/2 145/3/2 155/3/2
f 155/3/2 145/3/2 156/3/2
f 151/1/2 152/1/2 157/1/2
f 152/1/2 153/1/2 157/1/2
f 153/4/2 154/4/2 158/4/2
f 157/1/2 153/1/2 158/1/2
f 158/4/2 154/4/2 159/4/2
f 155/4/2 156/4/2 162/4/2
f 162/4/2 156/4/2 163/4/2
f 160/4/2 161/4/2 164/4/2
f 164/4/2 161/4/2 165/4/2
f 165/3/2 166/3/2 167/3/2
f 167/3/2 166/3/2 168/3/2
f 162/1/2 163/1/2 171/1/2
f 171/1/2 163/1/2 172/1/2
f 169/4/2 170/4/2 173/4/2
f 173/4/2 170/4/2 174/4/2
f 175/1/2 176/1/2 177/1/2
f 177/1/2 176/1/2 178/1/2
f 177/3/2 178/3/2 179/3/2
f 179/3/2 178/3/2 180/3/2
f 180/3/2 178/3/2 181/3/2
f 181/3/2 178/3/2 182/3/2
f 179/5/2 180/5/2 183/5/2
f 180/1/2 181/1/2 184/1/2
f 183/5/2 180/5/2 184/5/2
f 184/1/2 181/1/2 185/1/2
f 181/4/2 182/4/2 186/4/2
f 185/1/2 181/1/2 186/1/2
f 186/4/2 182/4/2 187/4/2
f 186/1/2 187/1/2 188/1/2
f 185/1/2 186/1/2 188/1/2
f 188/1/2 187/1/2 189/1/2
f 187/4/2 182/4/2 190/4/2
f 189/1/2 187/1/2 190/1/2
f 190/4/2 182/4/2 191/4/2
f 189/1/2 190/1/2 192/1/2
f 192/1/2 190/1/2 193/1/2
f 193/1/2 190/1/2 194/1/2
f 194/1/2 190/1/2 195/1/2
f 193/1/2 194/1/2 196/1/2
f 193/1/2 196/1/2 198/1/2
f 196/1/2 197/1/2 198/1/2
f 198/1/2 197/1/2 199/1/2
f 200/3/2 201/3/2 203/3/2
f 203/3/2 201/3/2 204/3/2
f 204/3/2 201/3/2 205/3/2
f 202/3/2 203/3/2 206/3/2
f 203/3/2 204/3/2 206/3/2
f 206/3/2 204/3/2 207/3/2
f 208/3/2 209/3/2 210/3/2
f 208/3/2 210/3/2 212/3/2
f 210/3/2 211/3/2 212/3/2
f 212/3/2 211/3/2 213/3/2
f 213/3/2 211/3/2 214/3/2
f 214/3/2 215/3/2 216/3/2
f 213/3/2 214/3/2 216/3/2
f 216/3/2 215/3/2 217/3/2
f 222/1/3 219/1/3 218/1/3
f 223/3/3 220/3/3 219/3/3
f 223/1/3 219/1/3 222/1/3
f 224/5/3 221/5/3 220/5/3
f 224/3/3 220/3/3 223/3/3
f 225/5/3 221/5/3 224/5/3
f 230/1/3 227/1/3 226/1/3
f 231/3/3 228/3/3 227/3/3
f 231/1/3 227/1/3 230/1/3
f 232/5/3 229/5/3 228/5/3
f 232/3/3 228/3/3 231/3/3
f 233/5/3 229/5/3 232/5/3
f 235/1/3 234/1/3 233/1/3
f 236/1/3 234/1/3 235/1/3
f 237/1/3 234/1/3 236/1/3
f 242/1/3 239/1/3 238/1/3
f 243/3/3 240/3/3 239/3/3
f 243/1/3 239/1/3 242/1/3
f 244/5/3 241/5/3 240/5/3
f 244/3/3 240/3/3 243/3/3
f 245/5/3 241/5/3 244/5/3
f 248/1/3 247/1/3 246/1/3
f 249/1/3 247/1/3 248/1/3
f 252/1/3 251/1/3 250/1/3
f 253/1/3 251/1/3 252/1/3
f 256/1/3 255/1/3 254/1/3
f 257/1/3 255/1/3 256/1/3
f 260/4/3 259/4/3 258/4/3
f 261/4/3 259/4/3 260/4/3
f 262/3/3 261/3/3 260/3/3
f 263/3/3 261/3/3 262/3/3
f 264/4/3 263/4/3 262/4/3
f 265/4/3 263/4/3 264/4/3
f 268/1/3 267/1/3 266/1/3
f 269/1/3 267/1/3 268/1/3
f 271/3/3 270/3/3 269/3/3
f 272/3/3 270/3/3 271/3/3
f 273/4/3 272/4/3 271/4/3
f 274/4/3 272/4/3 273/4/3
f 276/3/3 274/3/3 273/3/3
f 277/3/3 274/3/3 276/3/3
f 278/1/3 276/1/3 275/1/3
f 279/1/3 276/1/3 278/1/3
f 282/1/3 281/1/3 280/1/3
f 283/1/3 281/1/3 282/1/3
f 284/1/3 281/1/3 283/1/3
f 285/4/3 284/4/3 283/4/3
f 286/4/3 284/4/3 285/4/3
f 287/3/3 286/3/3 285/3/3
f 288/3/3 286/3/3 287/3/3
f 290/4/3 288/4/3 287/4/3
f 291/4/3 288/4/3 290/4/3
f 292/1/3 290/1/3 289/1/3
f 292/1/3 291/1/3 290/1/3
f 293/1/3 291/1/3 292/1/3
f 296/3/3 295/3/3 294/3/3
f 297/3/3 295/3/3 296/3/3
f 300/4/3 299/4/3 298/4/3
f 301/4/3 299/4/3 300/4/3
f 302/4/3 299/4/3 301/4/3
f 303/4/3 299/4/3 302/4/3
f 306/3/3 305/3/3 304/3/3
f 307/3/3 305/3/3 306/3/3
f 310/3/3 309/3/3 308/3/3
f 311/3/3 309/3/3 310/3/3
f 314/3/3 313/3/3 312/3/3
f 315/3/3 313/3/3 314/3/3
f 318/3/3 317/3/3 316/3/3
f 319/3/3 317/3/3 318/3/3
f 320/3/3 317/3/3 319/3/3
f 321/3/3 317/3/3 320/3/3
f 324/1/3 323/1/3 322/1/3
f 325/1/3 323/1/3 324/1/3
f 329/3/3 327/3/3 326/3/3
f 330/3/3 329/3/3 328/3/3
f 331/3/3 327/3/3 329/3/3
f 331/3/3 329/3/3 330/3/3
f 334/1/3 333/1/3 332/1/3
f 335/1/3 333/1/3 334/1/3
f 338/3/3 337/3/3 336/3/3
f 339/3/3 337/3/3 338/3/3
f 342/3/3 341/3/3 340/3/3
f 343/3/3 341/3/3 342/3/3
f 344/1/4 345/1/4 346/1/4
f 346/1/4 345/1/4 347/1/4
f 347/1/4 345/1/4 348/1/4
f 348/4/4 349/4/4 350/4/4
f 350/4/4 349/4/4 351/4/4
f 352/1/4 353/1/4 355/1/4
f 355/1/4 353/1/4 356/1/4
f 353/4/4 354/4/4 357/4/4
f 356/1/4 353/1/4 357/1/4
f 357/4/4 354/4/4 358/4/4
f 358/4/4 354/4/4 359/4/4
f 360/3/4 361/3/4 366/3/4
f 361/3/4 362/3/4 366/3/4
f 366/3/4 362/3/4 367/3/4
f 363/1/4 364/1/4 369/1/4
f 364/3/4 365/3/4 370/3/4
f 369/1/4 364/1/4 370/1/4
f 365/4/4 366/4/4 371/4/4
f 370/3/4 365/3/4 371/3/4
f 371/4/4 366/4/4 372/4/4
f 367/1/4 368/1/4 373/1/4
f 372/4/4 366/4/4 373/4/4
f 366/1/4 367/1/4 373/1/4
f 373/1/4 368/1/4 374/1/4
f 375/1/4 376/1/4 381/1/4
f 376/3/4 377/3/4 382/3/4
f 381/1/4 376/1/4 382/1/4
f 377/4/4 378/4/4 383/4/4
f 382/3/4 377/3/4 383/3/4
f 378/4/4 379/4/4 383/4/4
f 379/1/4 380/1/4 384/1/4
f 383/4/4 379/4/4 384/4/4
f 384/1/4 380/1/4 385/1/4
f 385/1/4 380/1/4 386/1/4
f 384/3/4 385/3/4 387/3/4
f 387/3/4 385/3/4 388/3/4
f 388/3/4 385/3/4 389/3/4
f 390/3/4 391/3/4 392/3/4
f 392/3/4 391/3/4 393/3/4
f 393/3/4 394/3/4 395/3/4
f 395/3/4 394/3/4 396/3/4
f 397/1/4 398/1/4 402/1/4
f 398/3/4 399/3/4 403/3/4
f 402/1/4 398/1/4 403/1/4
f 399/4/4 400/4/4 404/4/4
f 403/3/4 399/3/4 404/3/4
f 400/1/4 401/1/4 405/1/4
f 404/4/4 400/4/4 405/4/4
f 405/1/4 401/1/4 406/1/4
f 407/3/4 408/3/4 410/3/4
f 410/3/4 408/3/4 411/3/4
f 409/3/4 410/3/4 412/3/4
f 412/3/4 410/3/4 413/3/4
f 414/3/4 415/3/4 416/3/4
f 416/3/4 415/3/4 417/3/4
f 418/3/4 419/3/4 420/3/4
f 420/3/4 419/3/4 421/3/4
f 422/3/4 423/3/4 424/3/4
f 424/3/4 423/3/4 425/3/4
f 426/3/4 427/3/4 428/3/4
f 428/3/4 427/3/4 429/3/4
f 433/1/5 431/1/5 430/1/5
f 434/1/5 431/1/5 433/1/5
f 436/1/5 433/1/5 432/1/5
f 436/1/5 435/1/5 434/1/5
f 436/1/5 434/1/5 433/1/5
f 437/1/5 435/1/5 436/1/5
f 438/1/5 435/1/5 437/1/5
f 439/1/5 435/1/5 438/1/5
f 440/1/5 438/1/5 437/1/5
f 441/1/5 438/1/5 440/1/5
f 446/3/5 443/3/5 442/3/5
f 447/3/5 443/3/5 446/3/5
f 448/3/5 445/3/5 444/3/5
f 449/3/5 445/3/5 448/3/5
f 454/3/5 451/3/5 450/3/5
f 455/3/5 451/3/5 454/3/5
f 456/3/5 453/3/5 452/3/5
f 457/3/5 453/3/5 456/3/5
f 462/3/5 459/3/5 458/3/5
f 463/3/5 461/3/5 460/3/5
f 464/3/5 462/3/5 458/3/5
f 465/3/5 462/3/5 464/3/5
f 466/3/5 461/3/5 463/3/5
f 467/3/5 461/3/5 466/3/5
f 470/1/5 469/1/5 468/1/5
f 471/1/5 469/1/5 470/1/5
f 477/3/5 473/3/5 472/3/5
f 478/3/5 473/3/5 477/3/5
f 479/3/5 475/3/5 474/3/5
f 480/3/5 475/3/5 479/3/5
f 482/3/5 477/3/5 476/3/5
f 483/3/5 477/3/5 482/3/5
f 484/3/5 481/3/5 480/3/5
f 485/3/5 481/3/5 484/3/5
f 488/4/5 487/4/5 486/4/5
f 489/4/5 487/4/5 488/4/5
f 494/3/5 491/3/5 490/3/5
f 495/3/5 491/3/5 494/3/5
f 496/3/5 493/3/5 492/3/5
f 497/3/5 493/3/5 496/3/5
f 498/5/6 499/5/6 500/5/6
f 500/5/6 499/5/6 501/5/6
f 498/5/6 500/5/6 503/5/6
f 500/1/6 501/1/6 504/1/6
f 503/5/6 500/5/6 504/5/6
f 501/5/6 499/5/6 505/5/6
f 504/1/6 501/1/6 505/1/6
f 505/5/6 499/5/6 506/5/6
f 506/5/6 507/5/6 508/5/6
f 505/5/6 506/5/6 508/5/6
f 508/5/6 507/5/6 509/5/6
f 502/5/6 503/5/6 510/5/6
f 510/5/6 503/5/6 511/5/6
f 509/5/6 507/5/6 512/5/6
f 512/5/6 507/5/6 513/5/6
f 510/1/6 511/1/6 514/1/6
f 512/1/6 513/1/6 515/1/6
f 510/1/6 514/1/6 516/1/6
f 516/1/6 514/1/6 517/1/6
f 515/1/6 513/1/6 518/1/6
f 518/1/6 513/1/6 519/1/6
f 520/1/6 521/1/6 522/1/6
f 520/1/6 522/1/6 524/1/6
f 522/1/6 523/1/6 524/1/6
f 524/1/6 523/1/6 525/1/6
f 525/1/6 523/1/6 526/1/6
f 526/1/6 523/1/6 527/1/6
f 524/4/6 525/4/6 529/4/6
f 525/3/6 526/3/6 530/3/6
f 529/4/6 525/4/6 530/4/6
f 526/4/6 527/4/6 531/4/6
f 530/3/6 526/3/6 531/3/6
f 531/4/6 527/4/6 532/4/6
f 528/1/6 529/1/6 534/1/6
f 529/3/6 530/3/6 534/3/6
f 530/4/6 531/4/6 535/4/6
f 534/3/6 530/3/6 535/3/6
f 531/3/6 532/3/6 536/3/6
f 535/4/6 531/4/6 536/4/6
f 532/1/6 533/1/6 537/1/6
f 536/3/6 532/3/6 537/3/6
f 528/1/6 534/1/6 538/1/6
f 538/1/6 534/1/6 539/1/6
f 537/1/6 533/1/6 540/1/6
f 540/1/6 533/1/6 541/1/6
f 542/1/6 543/1/6 544/1/6
f 542/1/6 544/1/6 545/1/6
f 545/1/6 544/1/6 546/1/6
f 547/4/6 548/4/6 552/4/6
f 548/3/6 549/3/6 553/3/6
f 552/4/6 548/4/6 553/4/6
f 549/4/6 550/4/6 554/4/6
f 553/3/6 549/3/6 554/3/6
f 554/4/6 550/4/6 555/4/6
f 551/1/6 552/1/6 557/1/6
f 557/1/6 552/1/6 558/1/6
f 555/1/6 556/1/6 559/1/6
f 559/1/6 556/1/6 560/1/6
f 561/3/6 562/3/6 565/3/6
f 562/4/6 563/4/6 566/4/6
f 565/3/6 562/3/6 566/3/6
f 563/3/6 564/3/6 567/3/6
f 566/4/6 563/4/6 567/4/6
f 567/3/6 564/3/6 568/3/6
f 571/1/6 572/1/6 577/1/6
f 569/3/6 570/3/6 578/3/6
f 578/3/6 570/3/6 579/3/6
f 575/1/6 576/1/6 580/1/6
f 577/1/6 572/1/6 581/1/6
f 573/3/6 574/3/6 582/3/6
f 582/3/6 574/3/6 583/3/6
f 575/1/6 580/1/6 584/1/6
f 580/1/6 581/1/6 584/1/6
f 581/1/6 572/1/6 585/1/6
f 584/1/6 581/1/6 585/1/6
f 586/1/6 587/1/6 592/1/6
f 587/4/6 588/4/6 592/4/6
f 588/3/6 589/3/6 593/3/6
f 592/4/6 588/4/6 593/4/6
f 589/4/6 590/4/6 594/4/6
f 593/3/6 589/3/6 594/3/6
f 590/1/6 591/1/6 595/1/6
f 594/4/6 590/4/6 595/4/6
f 586/1/6 592/1/6 596/1/6
f 595/1/6 591/1/6 597/1/6
f 586/1/6 596/1/6 599/1/6
f 597/1/6 591/1/6 600/1/6
f 598/3/6 599/3/6 602/3/6
f 599/1/6 596/1/6 602/1/6
f 602/1/6 596/1/6 603/1/6
f 597/1/6 600/1/6 604/1/6
f 600/3/6 601/3/6 605/3/6
f 604/1/6 600/1/6 605/1/6
f 598/3/6 602/3/6 606/3/6
f 606/3/6 602/3/6 607/3/6
f 607/3/6 602/3/6 608/3/6
f 603/1/6 604/1/6 609/1/6
f 609/1/6 604/1/6 610/1/6
f 605/3/6 601/3/6 611/3/6
f 611/3/6 601/3/6 612/3/6
f 612/3/6 601/3/6 613/3/6
f 614/4/6 615/4/6 616/4/6
f 616/4/6 615/4/6 617/4/6
f 618/3/6 619/3/6 622/3/6
f 622/3/6 619/3/6 623/3/6
f 620/3/6 621/3/6 624/3/6
f 624/3/6 621/3/6 625/3/6
